<?xml version="1.0" standalone="no"?>
<!DOCTYPE svg PUBLIC "-//W3C//DTD SVG 20010904//EN"
 "http://www.w3.org/TR/2001/REC-SVG-20010904/DTD/svg10.dtd">
<svg version="1.0" xmlns="http://www.w3.org/2000/svg"
 width="813.000000pt" height="429.000000pt" viewBox="0 0 813.000000 429.000000"
 preserveAspectRatio="xMidYMid meet">
<metadata>
Created by potrace 1.16, written by Peter Selinger 2001-2019
</metadata>
<g transform="translate(0.000000,429.000000) scale(0.100000,-0.100000)"
fill="#000000" stroke="none">
<path d="M5570 4284 c0 -3 37 -43 83 -87 67 -67 90 -98 124 -168 64 -132 85
-203 91 -306 6 -114 -5 -120 -63 -32 -56 85 -236 257 -311 296 -64 34 -144 53
-144 35 0 -6 27 -27 60 -47 109 -66 233 -232 285 -381 l24 -69 -30 -29 c-17
-15 -34 -39 -39 -52 -13 -33 -20 -30 -54 17 -59 84 -137 158 -198 189 -108 53
-116 38 -23 -44 52 -46 73 -74 104 -139 50 -104 76 -194 67 -238 -7 -39 -62
-139 -75 -139 -5 0 -17 21 -26 48 -53 149 -171 349 -247 418 -42 39 -84 62
-94 52 -2 -3 19 -33 46 -68 62 -76 88 -126 130 -250 36 -106 59 -219 60 -297
0 -50 -1 -52 -47 -86 -27 -18 -53 -37 -59 -40 -8 -5 -15 19 -23 72 -13 87 -62
253 -93 316 -23 46 -87 117 -100 109 -4 -3 6 -32 23 -66 17 -33 37 -90 44
-127 19 -92 27 -237 18 -291 l-9 -45 -23 85 c-12 47 -38 117 -56 155 -31 68
-88 136 -101 122 -4 -4 8 -39 26 -78 48 -104 82 -369 48 -369 -7 0 -22 -3 -34
-6 -19 -5 -22 1 -33 58 -18 89 -76 260 -104 305 -30 46 -74 89 -84 80 -4 -4 8
-38 25 -75 41 -87 49 -121 62 -271 12 -132 10 -140 -35 -141 -11 0 -30 -3 -42
-6 -21 -6 -23 -3 -23 32 0 54 -48 250 -76 310 -24 51 -59 92 -70 81 -3 -3 6
-38 20 -77 40 -110 62 -360 32 -360 -16 0 -36 50 -36 87 0 41 -40 224 -65 297
-26 75 -70 146 -91 146 -18 0 -18 0 11 -71 28 -70 41 -136 51 -263 l7 -89 -33
6 c-18 4 -41 7 -51 7 -14 0 -20 13 -29 58 -37 185 -84 315 -129 356 -33 30
-36 12 -8 -57 29 -73 43 -144 52 -273 l7 -91 -46 -6 c-25 -4 -56 -9 -69 -12
-22 -6 -24 -1 -46 92 -13 54 -35 123 -48 153 -25 56 -70 113 -83 105 -5 -3 5
-39 21 -80 28 -71 48 -177 49 -252 0 -26 -4 -33 -20 -33 -13 0 -22 9 -26 28
-34 153 -84 272 -114 272 -14 0 -13 -13 9 -68 17 -42 41 -172 41 -218 0 -11
-15 -14 -64 -14 l-63 0 -12 58 c-19 98 -73 193 -97 170 -2 -3 5 -27 17 -54 11
-27 23 -79 26 -115 l6 -66 -45 -11 c-25 -7 -52 -14 -60 -17 -11 -5 -18 5 -26
38 -12 47 -46 97 -57 85 -4 -4 0 -28 9 -54 25 -74 22 -84 -23 -84 -37 0 -38 1
-44 43 -9 65 -35 143 -56 169 -27 32 -37 16 -18 -29 8 -21 16 -72 18 -113 l4
-75 -37 -3 c-38 -3 -38 -3 -38 35 0 37 -27 152 -48 203 -5 14 -19 34 -31 44
-27 24 -28 6 -5 -50 12 -27 17 -71 18 -144 l1 -105 -27 -3 c-24 -3 -28 1 -33
35 -22 127 -49 207 -80 233 -24 20 -28 6 -10 -36 9 -22 18 -68 21 -104 3 -36
7 -80 9 -97 4 -32 3 -33 -34 -33 l-38 0 -6 58 c-8 74 -35 157 -59 178 -26 25
-30 13 -13 -37 9 -24 17 -80 18 -124 l2 -80 -37 -3 c-40 -3 -38 -7 -54 98 -13
88 -61 187 -80 167 -4 -3 1 -24 9 -46 9 -21 19 -80 23 -130 l7 -91 -52 0 -51
0 0 43 c0 96 -60 277 -97 291 -17 7 -17 -6 3 -52 8 -20 20 -85 25 -144 12
-128 5 -151 -44 -146 -31 3 -32 4 -38 63 -12 126 -56 263 -94 295 -25 21 -27
6 -5 -51 23 -56 39 -233 26 -283 -5 -22 -12 -26 -40 -26 -33 0 -34 1 -40 50
-10 76 -43 173 -68 199 -29 32 -35 13 -13 -41 9 -23 19 -79 22 -125 5 -71 4
-83 -10 -83 -11 0 -19 17 -27 58 -18 93 -39 148 -65 172 -30 28 -33 12 -10
-44 9 -21 18 -73 22 -117 6 -75 5 -79 -14 -79 -17 0 -22 11 -33 63 -19 100
-66 194 -87 174 -3 -4 2 -26 11 -49 20 -49 34 -188 19 -188 -5 0 -19 33 -30
73 -20 66 -54 119 -69 105 -3 -3 4 -33 16 -67 21 -64 26 -111 11 -111 -5 0
-12 15 -16 33 -8 38 -52 117 -65 117 -14 0 -12 -15 4 -55 8 -18 16 -48 18 -67
2 -26 -1 -33 -15 -33 -13 0 -23 15 -36 53 -18 53 -48 95 -61 87 -5 -3 0 -28
11 -55 23 -60 24 -90 4 -90 -8 0 -19 16 -25 40 -11 40 -53 100 -64 90 -3 -3 3
-33 13 -65 14 -44 16 -62 7 -67 -20 -13 -25 -9 -47 41 -22 52 -59 96 -59 70 0
-8 7 -32 15 -54 18 -51 18 -65 2 -65 -8 0 -19 17 -25 38 -13 42 -62 98 -62 70
0 -9 7 -32 15 -51 20 -48 19 -67 -2 -67 -11 1 -27 19 -41 50 -13 28 -30 50
-38 50 -17 0 -17 -2 1 -47 25 -59 17 -62 -13 -4 -28 56 -60 83 -49 42 5 -21
-7 -29 -18 -11 -8 13 -45 13 -45 -1 0 -6 -9 -8 -20 -4 -11 4 -20 2 -20 -4 0
-6 -7 -8 -16 -4 -13 5 -15 2 -9 -18 7 -21 6 -22 -9 -10 -12 10 -16 10 -16 1 0
-7 -6 -10 -14 -7 -22 9 -25 -2 -10 -39 21 -49 -4 -45 -36 6 -24 39 -40 51 -40
29 0 -6 -7 -9 -15 -5 -10 4 -15 -1 -15 -14 0 -13 -5 -18 -15 -14 -8 4 -15 1
-15 -6 0 -9 -4 -9 -17 1 -15 13 -16 11 -9 -23 8 -46 -6 -50 -30 -9 -16 28 -20
29 -76 26 -32 -1 -61 -5 -64 -8 -3 -2 2 -21 10 -41 13 -32 13 -36 0 -36 -8 0
-26 12 -40 28 -16 17 -27 23 -30 15 -3 -7 -12 -9 -20 -6 -17 6 -17 3 -4 -34
10 -26 9 -27 -5 -8 -40 52 -47 58 -55 45 -4 -7 -13 -9 -20 -5 -13 8 -11 -18 5
-60 6 -16 1 -14 -23 9 -18 17 -32 24 -32 17 0 -8 -7 -10 -20 -6 -23 7 -25 2
-10 -26 6 -10 7 -19 2 -19 -5 0 -15 11 -22 25 -13 24 -40 35 -40 15 0 -5 -7
-7 -15 -4 -18 7 -18 4 -5 -30 12 -32 4 -33 -27 -4 -21 19 -23 20 -23 4 0 -16
-2 -17 -17 -5 -15 13 -16 11 -9 -21 l6 -35 -30 35 c-19 22 -33 30 -36 23 -3
-7 -13 -9 -21 -6 -13 5 -15 2 -9 -13 5 -10 11 -28 14 -39 4 -18 2 -18 -23 5
-18 16 -29 21 -32 13 -2 -7 -11 -9 -20 -6 -13 5 -15 1 -9 -22 l7 -28 -27 32
c-17 21 -29 28 -34 21 -4 -6 -11 -10 -16 -9 -22 4 -24 -3 -9 -32 22 -42 12
-48 -20 -13 -17 18 -28 25 -31 17 -3 -7 -12 -9 -21 -6 -12 5 -14 1 -8 -18 4
-13 10 -31 12 -39 3 -8 -4 -1 -15 16 -25 38 -44 52 -50 35 -3 -9 -7 -9 -20 1
-13 11 -15 10 -10 -15 5 -26 4 -27 -12 -12 -18 17 -32 11 -23 -11 4 -10 0 -12
-12 -7 -15 5 -17 2 -12 -17 4 -17 3 -20 -6 -11 -17 17 -30 13 -24 -8 3 -14 0
-17 -15 -13 -17 4 -19 1 -14 -19 3 -13 3 -18 0 -11 -9 19 -24 14 -24 -9 0 -19
-2 -20 -17 -8 -15 13 -16 11 -11 -14 5 -23 3 -25 -10 -15 -12 10 -16 10 -19 1
-2 -7 -11 -9 -20 -6 -13 5 -15 2 -10 -17 4 -17 3 -20 -6 -11 -17 17 -29 13
-22 -8 5 -16 2 -18 -15 -14 -16 4 -19 2 -14 -11 5 -12 2 -15 -11 -9 -15 5 -17
2 -12 -16 4 -18 3 -20 -8 -11 -10 9 -16 7 -24 -9 -6 -11 -11 -29 -11 -40 0
-11 -4 -23 -10 -26 -5 -3 -10 -24 -10 -45 0 -21 -7 -67 -16 -102 -49 -191 53
-371 272 -480 l88 -43 145 1 c112 0 171 6 251 23 155 33 353 102 545 191 262
120 342 151 514 199 224 64 518 96 669 73 46 -6 62 -6 62 3 0 11 -68 27 -250
57 -47 8 -163 13 -310 12 -278 0 -322 -7 -695 -99 -349 -87 -514 -115 -703
-122 -129 -5 -159 -3 -197 11 -53 21 -65 48 -40 95 33 65 144 122 362 185 190
55 312 70 573 70 385 0 776 -58 1306 -194 215 -55 484 -137 499 -151 5 -6 -5
-23 -27 -47 -71 -72 -116 -212 -104 -326 8 -76 50 -168 94 -208 20 -17 36 -41
37 -54 0 -13 11 -34 23 -47 29 -30 102 -67 134 -67 25 0 58 -27 58 -48 0 -6
-10 -18 -22 -26 -21 -15 -22 -17 -5 -33 12 -13 32 -18 64 -17 37 1 51 6 69 28
20 22 22 31 13 54 -6 15 -20 37 -31 49 -82 87 144 -23 322 -157 79 -59 260
-179 310 -205 37 -19 64 -19 80 0 24 29 -11 80 -92 131 -181 115 -311 204
-305 211 3 2 56 -12 118 -32 79 -26 179 -71 329 -149 269 -141 303 -156 366
-163 60 -6 71 4 50 45 -25 48 -85 93 -193 143 -139 65 -354 202 -339 216 8 8
102 -25 209 -73 172 -78 392 -122 487 -97 41 11 47 30 24 78 -30 65 -62 78
-203 87 -96 5 -156 16 -255 43 -129 35 -178 54 -101 39 22 -5 54 -8 70 -7 17
1 75 -9 130 -22 150 -36 254 -48 417 -49 l147 -1 53 -51 c29 -28 85 -76 123
-106 39 -30 125 -106 192 -169 67 -63 149 -130 183 -149 34 -19 80 -50 103
-67 23 -18 69 -54 102 -79 33 -26 102 -66 152 -90 63 -30 114 -63 160 -106 76
-69 178 -138 203 -138 23 0 40 20 40 49 0 20 -28 53 -122 143 -68 64 -119 120
-115 125 10 9 475 -224 626 -314 58 -35 112 -63 121 -63 24 0 40 21 40 51 0
36 -42 71 -212 178 -165 104 -314 215 -294 219 9 2 78 -13 155 -32 77 -20 154
-36 173 -36 18 0 76 -11 128 -25 142 -37 220 -31 220 15 0 38 -66 65 -330 135
-91 24 -185 52 -209 63 l-44 20 44 12 c31 9 94 11 214 6 182 -7 220 0 220 39
0 46 -111 71 -359 82 l-159 6 54 16 c62 19 73 40 38 77 -28 29 -48 30 -152 3
-63 -16 -100 -20 -159 -16 -43 3 -96 1 -119 -4 -50 -11 -58 -6 -194 128 -90
88 -281 335 -271 351 3 5 22 21 43 35 35 24 42 26 70 15 26 -10 42 -7 123 22
l92 33 50 -18 c38 -13 62 -16 101 -10 29 4 80 10 114 14 58 6 67 10 112 55 43
42 53 48 78 42 76 -19 90 -19 107 5 9 13 16 34 16 47 0 13 4 21 9 17 5 -3 16
4 25 16 15 22 15 22 78 -26 74 -56 125 -79 207 -96 39 -7 67 -20 82 -35 20
-21 21 -30 16 -102 -8 -98 1 -115 58 -110 49 4 65 30 65 111 0 54 1 57 25 57
37 0 150 -45 239 -96 43 -24 100 -51 125 -60 45 -15 91 -12 91 6 0 17 -66 84
-109 110 -22 14 -41 28 -41 31 0 14 61 18 117 8 93 -16 333 -29 359 -19 30 12
31 37 2 50 -13 5 -79 24 -148 41 -69 17 -127 32 -129 35 -2 2 117 1 265 -2
232 -5 272 -4 289 10 16 12 18 18 9 33 -18 28 -103 43 -309 52 -166 8 -295 22
-345 38 -8 3 24 15 72 27 48 12 90 25 95 29 4 4 -1 15 -10 24 -15 15 -25 16
-94 5 -99 -16 -235 -30 -339 -33 l-82 -3 -56 69 c-36 46 -72 107 -102 175 -56
130 -112 225 -156 267 l-34 33 10 65 c6 40 15 65 23 65 19 0 32 31 46 117 12
69 16 78 34 76 19 -2 21 4 25 83 4 80 6 87 34 109 29 23 29 24 28 124 -2 101
-2 101 22 95 20 -5 24 -1 29 30 4 19 2 64 -4 99 -16 93 -15 98 14 91 30 -7 30
-9 10 111 -8 50 -15 111 -15 137 0 55 42 175 107 305 39 79 44 97 38 130 -8
44 -32 95 -50 105 -7 5 -16 32 -20 60 -4 29 -14 69 -22 88 -9 19 -15 45 -14
58 1 28 -17 28 -69 2 -47 -24 -50 -24 -50 -5 0 23 -24 18 -66 -16 -31 -25 -40
-28 -42 -15 -5 24 -29 20 -75 -13 -30 -21 -59 -32 -102 -36 -33 -4 -96 -22
-140 -40 -54 -22 -103 -35 -150 -38 -38 -3 -92 -13 -120 -22 -50 -18 -155 -86
-189 -124 -11 -12 -22 -21 -26 -21 -4 0 -27 36 -49 80 -84 161 -232 328 -333
375 -52 24 -78 31 -78 19z m1470 -163 c0 -11 3 -26 6 -34 4 -11 0 -14 -14 -11
-61 17 -134 -142 -80 -177 5 -3 -33 -48 -84 -100 -98 -100 -195 -170 -361
-261 -134 -72 -257 -186 -257 -238 0 -5 9 -10 21 -10 16 0 19 4 14 20 -9 28
89 124 183 178 39 23 105 61 145 84 111 63 250 172 293 228 45 59 92 93 153
111 39 12 45 11 57 -6 21 -29 17 -35 -23 -35 -63 0 -117 -34 -147 -92 -26 -50
-26 -51 -8 -82 12 -20 26 -31 41 -30 12 0 20 -2 19 -5 -2 -3 -42 -64 -89 -136
-92 -138 -159 -258 -189 -340 -11 -27 -31 -81 -45 -120 -14 -38 -39 -119 -55
-181 -61 -238 -164 -320 -310 -246 -69 35 -216 153 -258 208 -28 36 -32 48
-32 106 0 83 19 178 35 178 17 0 25 23 18 49 -4 17 -2 20 12 15 27 -11 45 22
45 78 0 27 7 62 15 78 21 40 30 115 16 124 -6 4 -11 23 -11 43 0 30 -8 44 -45
79 -38 35 -45 47 -45 78 0 36 -1 37 -32 34 -31 -3 -33 -1 -33 27 0 19 7 33 20
40 11 5 37 26 58 45 57 52 145 108 186 120 20 5 65 12 101 15 l65 6 -96 -33
c-103 -35 -168 -74 -200 -120 -23 -32 -34 -87 -21 -106 8 -12 145 -65 255 -99
67 -21 110 -11 143 32 35 46 74 160 74 218 0 40 -5 53 -29 78 -26 25 -47 34
-73 30 -5 0 -8 3 -8 8 0 16 101 52 185 66 62 10 94 20 120 40 23 18 35 23 35
14 0 -8 -13 -21 -29 -31 -28 -16 -29 -17 -17 -52 15 -42 30 -61 44 -52 11 7
38 96 34 114 -2 6 1 12 7 12 5 0 23 11 39 25 24 20 31 22 36 10 7 -20 35 -19
71 4 39 25 45 25 45 2z m-619 -201 c20 -6 42 -17 49 -25 10 -12 2 -14 -49 -14
-72 1 -111 -15 -62 -24 54 -11 52 -87 -4 -101 -14 -4 -34 -2 -45 4 -25 13 -37
57 -21 73 10 9 11 6 6 -15 -6 -21 -2 -30 19 -43 24 -16 28 -16 51 -1 28 18 31
34 12 60 -27 37 -147 -4 -147 -51 0 -7 -5 -13 -11 -13 -20 0 0 62 29 93 37 39
65 53 132 66 3 0 21 -4 41 -9z m-472 -581 c29 -64 49 -238 33 -283 -25 -69 -9
-158 58 -325 21 -53 41 -118 45 -146 l6 -50 -31 35 c-34 39 -64 92 -73 130 -9
38 -44 70 -76 70 -37 0 -64 -23 -97 -85 -15 -27 -35 -66 -45 -85 -20 -37 -17
-63 11 -95 30 -34 39 -60 50 -136 16 -108 57 -163 122 -161 l27 1 -17 -36
c-17 -35 -16 -35 8 -55 14 -10 41 -29 60 -41 30 -20 35 -28 38 -67 1 -25 -1
-50 -5 -56 -11 -16 -213 -63 -213 -50 0 6 7 20 15 30 40 53 0 171 -91 266 -68
72 -131 113 -203 134 -122 36 -207 14 -310 -79 -178 -159 -265 -221 -324 -230
-23 -4 -123 -25 -222 -46 -239 -52 -396 -72 -521 -67 l-102 5 -68 69 c-74 75
-168 144 -240 175 -24 11 -83 28 -131 39 -113 25 -261 80 -305 113 -73 56
-173 74 -241 43 -18 -8 -79 -17 -137 -20 -103 -5 -214 -25 -475 -85 -71 -16
-150 -32 -175 -36 -25 -4 -53 -9 -62 -11 -13 -4 -18 5 -23 53 -12 101 -36 263
-42 278 -4 12 8 15 70 15 42 0 106 7 143 16 57 13 78 13 136 3 37 -7 73 -18
79 -25 8 -10 18 -9 51 8 36 19 51 20 171 15 110 -4 144 -2 206 15 71 18 196
22 144 4 -13 -5 -23 -13 -23 -18 0 -10 64 -6 123 8 23 5 29 3 34 -15 6 -25 14
-26 55 -5 18 9 72 19 132 23 56 4 108 11 116 16 10 6 12 4 6 -11 -24 -57 -18
-66 22 -38 21 14 23 14 31 -8 18 -47 33 -51 102 -27 86 30 136 30 176 0 24
-18 39 -22 62 -18 29 6 31 5 25 -18 -4 -18 -2 -25 7 -25 17 0 105 46 138 71
34 27 53 25 45 -6 -4 -18 -1 -27 10 -31 27 -10 18 -24 -31 -46 -44 -19 -58
-20 -199 -14 -157 7 -244 -1 -314 -30 -31 -14 -33 -16 -17 -26 14 -7 38 -5 88
8 125 32 167 -9 84 -82 -49 -42 -53 -64 -12 -64 38 1 95 26 181 79 46 28 102
57 124 65 54 19 154 25 159 9 2 -6 -28 -37 -66 -68 -55 -43 -71 -62 -71 -82 0
-24 2 -25 37 -18 55 10 120 47 193 110 68 58 104 75 122 57 9 -9 7 -17 -5 -30
-42 -46 1 -43 52 3 52 47 98 141 82 167 -9 14 -9 19 1 22 87 25 103 27 106 17
6 -19 52 -12 116 18 33 16 72 32 85 36 23 7 24 6 17 -26 -3 -19 -26 -74 -51
-122 -51 -99 -58 -132 -24 -101 45 40 206 250 213 276 4 19 15 30 34 34 15 4
45 26 67 49 22 23 53 47 69 54 l29 12 -6 -41 c-7 -52 7 -51 34 3 27 53 26 52
43 38 22 -18 35 -6 68 66 16 35 33 61 37 58 11 -6 42 29 96 110 22 33 41 62
43 65 2 2 7 -2 11 -9 10 -15 14 -10 31 44 7 22 20 54 28 70 l16 30 6 -25 c6
-25 6 -25 25 10 10 19 33 77 51 128 18 51 34 87 36 81 6 -19 26 -2 50 44 l22
42 7 -60 c4 -33 17 -81 28 -106z m1055 -40 c5 -50 3 -64 -10 -73 -15 -12 -16
-17 -22 -213 -2 -47 -4 -51 -23 -46 -21 6 -21 4 -14 -75 6 -75 6 -81 -14 -91
-15 -8 -21 -21 -21 -46 0 -18 -4 -45 -10 -59 -5 -14 -10 -55 -12 -91 -2 -55
-5 -65 -20 -65 -22 0 -38 -37 -38 -86 0 -23 -6 -38 -20 -46 -11 -7 -20 -21
-20 -31 0 -10 -7 -20 -15 -23 -11 -5 -15 -21 -15 -59 0 -63 -7 -85 -26 -85 -8
0 -14 -4 -14 -8 0 -4 -14 -13 -31 -19 l-32 -12 7 -81 7 -81 -25 7 c-25 6 -25
6 -19 -49 5 -48 3 -55 -15 -59 -13 -4 -22 -17 -27 -39 -4 -19 -15 -52 -25 -74
-10 -22 -21 -73 -25 -112 -4 -40 -10 -73 -14 -73 -3 0 -7 28 -9 63 -2 57 -39
291 -63 397 -12 54 3 241 26 318 19 63 73 132 154 196 34 27 70 63 80 80 11
17 29 85 40 154 33 192 55 246 144 357 42 52 71 100 83 137 10 31 22 54 25 52
3 -2 9 -31 13 -65z m-5214 -818 c42 -82 83 -291 58 -291 -41 2 -369 47 -374
52 -3 4 -10 37 -14 75 -5 37 -16 88 -24 112 -20 56 -20 56 7 59 12 1 63 9 112
16 50 8 118 14 152 15 l63 1 20 -39z m-703 -136 c31 -86 32 -85 -35 -85 -32 0
-96 -5 -142 -11 -76 -9 -86 -9 -95 7 -5 9 -20 32 -32 51 -13 18 -23 36 -23 38
0 3 96 25 230 54 68 14 73 11 97 -54z m2174 -17 c29 -10 92 -49 109 -68 3 -3
24 -12 48 -18 34 -11 42 -17 42 -37 0 -43 39 -74 105 -85 85 -15 102 -24 125
-70 24 -47 36 -49 116 -19 l56 21 49 -22 c123 -58 235 -228 246 -373 5 -62 2
-81 -21 -136 -14 -36 -36 -75 -47 -87 -31 -33 -132 -75 -197 -81 -38 -4 -66
-13 -84 -28 -16 -14 -48 -26 -78 -30 -69 -10 -66 -45 5 -45 13 0 65 -11 115
-25 63 -16 133 -26 219 -30 69 -4 141 -11 159 -17 32 -10 71 -53 58 -65 -3 -4
-39 1 -79 9 -103 23 -155 29 -161 19 -9 -15 16 -29 117 -66 154 -55 251 -77
389 -84 135 -8 162 -18 194 -66 9 -14 14 -28 10 -32 -3 -4 -45 1 -94 10 -48
10 -130 20 -182 23 -75 5 -108 13 -156 35 -56 27 -296 99 -329 99 -34 0 -10
-30 73 -92 111 -84 189 -131 333 -201 73 -35 126 -67 143 -87 42 -50 29 -68
-22 -32 -15 10 -67 40 -117 67 -49 26 -124 72 -165 102 -117 85 -229 136 -320
143 -41 4 -88 12 -104 19 -30 12 -146 5 -146 -9 0 -14 49 -51 190 -144 171
-112 240 -163 240 -176 0 -5 -56 29 -125 75 -69 47 -153 99 -187 116 -35 17
-76 41 -93 53 -16 13 -81 48 -144 79 -112 56 -180 72 -196 47 -4 -6 10 -29 29
-52 20 -23 36 -50 36 -59 0 -23 -29 -39 -71 -39 l-33 0 27 28 c15 15 27 33 27
39 0 22 -59 61 -149 99 -88 37 -91 40 -86 65 5 22 2 29 -14 34 -33 10 -90 85
-106 139 -16 52 -20 150 -8 207 4 19 24 50 49 76 35 34 51 43 79 43 34 0 35
-1 35 -40 0 -50 22 -54 46 -7 55 109 103 126 151 55 20 -30 37 -44 56 -46 19
-2 40 -20 72 -62 86 -112 136 -146 248 -166 l37 -6 0 40 c0 43 -10 52 -59 52
-48 0 -116 29 -155 67 -38 37 -96 139 -96 168 0 8 -8 15 -18 15 -10 0 -28 7
-40 16 -18 13 -21 19 -11 30 6 8 21 14 33 14 21 1 21 1 -3 20 -33 28 -90 25
-187 -8 -74 -26 -82 -27 -105 -13 -52 32 -99 86 -125 145 -25 53 -28 73 -29
156 0 139 41 238 120 290 34 23 104 26 156 8z m2367 -151 c28 -17 52 -35 52
-40 0 -27 -89 -275 -122 -342 -53 -105 -150 -246 -215 -312 -93 -96 -214 -132
-313 -94 -62 24 -100 27 -118 9 -17 -17 -16 46 3 108 17 59 267 555 302 601
83 109 288 144 411 70z m-5136 -6 l32 -28 -25 -13 c-57 -30 -109 -83 -138
-142 -17 -33 -31 -71 -31 -83 l0 -23 -60 25 c-33 13 -83 27 -110 30 -59 7 -60
6 38 107 52 54 89 83 130 101 31 14 71 32 87 40 41 19 40 19 77 -14z m6304
-37 c43 -54 87 -131 136 -240 31 -69 74 -145 99 -176 24 -30 51 -63 59 -75 15
-20 19 -20 170 -12 85 5 188 16 229 24 82 17 135 20 111 6 -8 -5 -50 -16 -92
-25 -76 -17 -99 -30 -82 -46 19 -18 197 -41 384 -50 111 -5 214 -15 240 -23
l45 -14 -49 -8 c-34 -5 -72 -3 -120 7 -76 16 -342 18 -448 4 -65 -9 -78 -30
-25 -41 17 -3 100 -23 182 -43 177 -43 155 -57 -34 -22 -228 44 -354 0 -233
-81 55 -37 112 -89 112 -102 0 -19 -70 8 -175 68 -220 125 -274 145 -290 108
-5 -10 -7 -46 -6 -80 3 -79 -10 -105 -52 -101 l-32 3 4 83 c2 64 0 88 -13 107
l-16 25 45 0 c54 0 58 11 10 29 -107 38 -271 185 -329 294 l-28 54 26 26 c22
22 26 35 26 85 0 53 3 60 21 65 21 6 22 10 15 85 -3 43 -4 81 -1 84 3 2 25 4
50 3 31 -2 51 -8 61 -21z m-4995 -292 l5 -42 -65 -20 c-36 -11 -106 -35 -156
-55 -49 -19 -93 -35 -98 -35 -12 0 -47 88 -47 119 0 27 2 27 118 49 64 12 126
23 137 26 11 2 38 3 60 3 39 -2 40 -3 46 -45z m-695 -114 c-28 -40 -20 -75 31
-129 25 -27 44 -51 42 -53 -9 -9 -227 -85 -259 -91 -33 -6 -39 -3 -83 44 -26
27 -55 66 -64 86 l-17 36 37 37 c35 35 45 39 170 63 170 34 161 34 143 7z
m-771 -17 c17 -6 47 -16 68 -24 l39 -14 -32 -25 -32 -25 17 -34 c23 -43 118
-143 164 -172 l36 -22 -40 -7 c-88 -15 -223 11 -245 47 -8 13 -40 61 -71 107
-70 104 -87 148 -62 165 20 15 115 17 158 4z m4797 -388 c76 -26 96 -28 239
-28 123 0 160 -3 174 -15 9 -8 61 -73 115 -145 54 -71 116 -148 137 -170 71
-74 192 -183 206 -187 10 -2 11 -11 5 -33 -6 -20 -29 -45 -73 -77 -52 -39 -66
-56 -77 -90 -6 -24 -17 -46 -23 -50 -17 -13 -80 -9 -126 7 -118 42 -371 282
-545 518 -101 137 -145 177 -197 177 -14 0 -29 -5 -32 -10 -13 -21 -26 3 -22
37 6 41 25 63 70 80 47 17 57 16 149 -14z m1329 -503 c46 -25 7 -50 -118 -75
-18 -4 -33 -10 -33 -15 0 -15 43 -23 120 -22 111 1 340 -15 393 -29 62 -15 78
-34 43 -50 -20 -10 -55 -9 -154 1 -142 14 -304 10 -310 -8 -2 -7 -10 -12 -18
-12 -31 0 -10 -19 54 -48 37 -17 145 -52 241 -77 193 -51 278 -80 301 -101 25
-24 -41 -17 -123 12 -91 33 -435 104 -504 104 -53 0 -87 -19 -77 -43 9 -19
185 -146 329 -237 148 -93 215 -145 215 -166 0 -8 -3 -14 -6 -14 -10 0 -113
59 -159 90 -24 17 -92 53 -152 82 -59 28 -159 83 -221 121 -138 85 -201 111
-237 97 -57 -22 -13 -89 152 -232 23 -20 49 -48 58 -62 18 -28 14 -56 -8 -56
-20 0 -122 74 -195 140 -41 38 -89 69 -137 91 -41 18 -75 36 -75 40 0 4 9 11
21 14 24 8 54 70 64 135 12 76 58 146 123 188 87 56 94 90 19 93 -21 0 -21 1
-2 9 11 4 58 6 105 3 64 -3 102 1 155 16 82 23 109 25 136 11z"/>
<path d="M6840 3661 c-31 -32 -38 -48 -44 -97 -4 -31 -2 -62 3 -67 22 -22 124
65 137 117 6 25 -29 86 -49 86 -6 0 -27 -17 -47 -39z"/>
<path d="M6715 3590 c-22 -11 -50 -31 -62 -45 -21 -24 -22 -33 -17 -103 4 -42
10 -81 14 -85 4 -5 19 6 33 22 14 17 37 35 51 41 14 5 26 15 27 22 0 7 2 31 5
53 14 121 11 125 -51 95z"/>
<path d="M6187 3573 c-17 -16 -6 -54 17 -63 13 -5 27 -13 30 -18 3 -5 -10 -41
-29 -80 -40 -80 -43 -107 -16 -122 16 -8 23 -6 35 12 9 12 16 27 16 34 0 6 23
37 50 68 54 61 66 106 30 106 -10 0 -35 16 -54 35 -33 33 -64 44 -79 28z"/>
<path d="M6484 3435 c-92 -56 -128 -90 -120 -110 5 -13 16 -15 65 -9 70 8 122
-7 150 -42 10 -13 24 -24 29 -24 17 0 23 33 12 70 -6 19 -10 54 -10 78 0 51
-14 82 -38 82 -9 -1 -49 -21 -88 -45z"/>
<path d="M6385 3291 c-44 -11 -77 -30 -102 -60 -26 -31 -31 -66 -8 -57 8 3 44
8 80 12 46 5 69 12 84 28 23 24 43 71 34 80 -8 8 -49 6 -88 -3z"/>
<path d="M6485 3248 c-14 -36 -14 -44 -2 -53 8 -5 22 -26 32 -44 l18 -35 -33
27 c-17 15 -43 30 -56 33 -34 9 -108 -2 -144 -21 -37 -19 -100 -74 -100 -87 0
-6 16 4 35 21 52 45 94 64 147 65 78 2 129 -53 154 -163 10 -46 12 -50 12 -21
0 19 -3 59 -7 88 -7 47 -6 52 10 47 42 -14 62 54 35 118 -32 78 -75 88 -101
25z"/>
<path d="M5860 3268 c-11 -12 -20 -25 -20 -30 0 -4 -3 -7 -7 -6 -13 4 -131
-126 -143 -156 -14 -38 -6 -58 32 -76 23 -11 36 -28 50 -65 24 -64 51 -87 97
-83 59 5 69 38 70 229 1 166 -8 209 -40 209 -10 0 -27 -10 -39 -22z"/>
<path d="M5136 2467 c-41 -43 -60 -55 -93 -60 -38 -6 -46 -13 -77 -61 -84
-131 -97 -195 -51 -241 51 -52 115 -27 190 75 30 40 47 53 96 71 73 27 89 48
89 116 0 60 -13 99 -42 131 -32 34 -56 27 -112 -31z"/>
</g>
</svg>
