<?xml version="1.0" encoding="utf-8"?>
<!-- Generator: Adobe Illustrator 22.0.1, SVG Export Plug-In . SVG Version: 6.00 Build 0)  -->
<svg version="1.1" id="Layer_1" xmlns="http://www.w3.org/2000/svg" xmlns:xlink="http://www.w3.org/1999/xlink" x="0px" y="0px"
	 viewBox="0 0 200 200" style="enable-background:new 0 0 200 200;" xml:space="preserve">
<style type="text/css">
	.st0{fill:#135FA7;}
	.st1{fill:#8F7049;}
	.st2{fill:#004289;}
	.st3{fill:#56BFEF;}
	.st4{fill:#1D4A7D;}
	.st5{fill:url(#SVGID_1_);}
	.st6{fill:#008BD2;}
	.st7{fill:#416DB1;}
	.st8{fill:none;stroke:#135FA7;stroke-width:3.0855;stroke-miterlimit:10;}
</style>
<g>
	<path class="st0" d="M101.6,106c-6.2,0-10.5,4.3-10.5,10.5v1.7c0,8.5,4.8,14,12.2,14c7.4,0,12.2-5.5,12.2-14v-1.7
		c0-6.2-4.3-10.5-10.5-10.5H101.6z M112.1,116.5v1.7c0,3.2-0.9,10.5-8.7,10.5c-7.9,0-8.7-7.3-8.7-10.5v-1.7c0-4.2,2.7-7,7-7h3.5
		C109.4,109.5,112.1,112.3,112.1,116.5L112.1,116.5z M112.1,116.5"/>
	<path class="st0" d="M99.9,116.5L99.9,116.5c-1,0-1.8,0.8-1.8,1.7c0,1,0.8,1.7,1.8,1.7c1,0,1.7-0.8,1.7-1.7
		C101.7,117.3,100.9,116.5,99.9,116.5L99.9,116.5z M99.9,116.5"/>
	<path class="st0" d="M108.5,93.8c1,0.1,1.8-0.6,1.9-1.6l1.7-22.7c0.4-4.2,6-8.9,10.5-8.9h3.5c4.6,0,10.2,4.7,10.5,8.9l1.7,22.7
		c0.1,0.9,0.8,1.6,1.7,1.6c0,0,0.1,0,0.1,0c1-0.1,1.7-0.9,1.6-1.9l-1.7-22.7c-0.5-6.4-8.2-12.1-14-12.1h-3.5
		c-6.4,0-13.4,6.1-14,12.1l-1.7,22.7C106.8,92.9,107.5,93.7,108.5,93.8L108.5,93.8z M108.5,93.8"/>
	<path class="st0" d="M124.3,68.7c-0.2-0.7-0.9-1.2-1.7-1.2c-0.8,0-1.4,0.5-1.7,1.2c-1.3,3.9-5.2,4-5.3,4c-1,0-1.7,0.8-1.7,1.7v7
		c0,5.8,4,14,10.5,14c6.5,0,10.5-8.1,10.5-14v-7c0-1-0.8-1.7-1.7-1.7C133,72.8,125.6,72.7,124.3,68.7L124.3,68.7z M131.4,81.5
		c0,4.8-3.1,10.5-7,10.5c-3.9,0-7-5.7-7-10.5v-5.5c1.7-0.4,3.8-1.4,5.4-3.4c2.4,2.4,6.4,3.2,8.6,3.5V81.5z M131.4,81.5"/>
	<path class="st0" d="M82.4,71h1.7c1,0,1.7-0.8,1.7-1.7c0-1-0.8-1.7-1.7-1.7h-1.7c-1,0-1.7,0.8-1.7,1.7C80.7,70.3,81.4,71,82.4,71
		L82.4,71z M82.4,71"/>
	<path class="st0" d="M106.9,120c1,0,1.7-0.8,1.7-1.7c0-1-0.8-1.7-1.7-1.7h0c-1,0-1.7,0.8-1.7,1.7C105.2,119.2,106,120,106.9,120
		L106.9,120z M106.9,120"/>
	<path class="st0" d="M65,74.1c0.3,3.4,1.8,6.3,1.9,6.5c1.6,3.2,4,8,12.1,8c8.1,0,10.5-4.8,12.1-8c0.1-0.1,1.5-3.1,1.9-6.5
		c1.1-0.6,1.8-1.7,1.8-3.1v-3.5c0-1.3-0.7-2.4-1.7-3V64c0-5.8-4.7-10.5-10.5-10.5h-7c-5.8,0-10.5,4.7-10.5,10.5v0.5
		c-1,0.6-1.7,1.7-1.7,3V71C63.2,72.4,63.9,73.5,65,74.1L65,74.1z M66.7,67.5c1,0,1.7-0.8,1.7-1.7V64c0-3.9,3.1-7,7-7h7
		c3.9,0,7,3.1,7,7v1.7c0,1,0.8,1.7,1.7,1.7V71c-1,0-1.7,0.8-1.7,1.7c0,3-1.5,6.2-1.6,6.2c-1.8,3.6-3.4,6-8.9,6c-5.5,0-7.1-2.4-8.9-6
		c0,0-1.6-3.2-1.6-6.2c0-1-0.8-1.7-1.7-1.7V67.5z M66.7,67.5"/>
	<path class="st0" d="M108.6,134c-0.3,0-0.7,0.1-1,0.3l-4.3,2.9l-4.3-2.9c-0.3-0.2-0.6-0.3-1-0.3c-10.1,0-12.2,4.8-12.2,8.7
		c0,1,0.8,1.7,1.7,1.7c1,0,1.7-0.8,1.7-1.7c0-1.4,0-5.1,8.2-5.2l4.8,3.2c0.6,0.4,1.4,0.4,1.9,0l4.8-3.2c8.2,0.2,8.2,3.8,8.2,5.2
		c0,1,0.8,1.7,1.7,1.7c1,0,1.7-0.8,1.7-1.7C120.9,138.8,118.8,134,108.6,134L108.6,134z M108.6,134"/>
	<path class="st0" d="M140.2,113L140.2,113c-1,0-1.8,0.8-1.8,1.7l-0.1,28c0,1,0.8,1.8,1.7,1.8h0c1,0,1.7-0.8,1.7-1.7l0.1-28
		C142,113.8,141.2,113,140.2,113L140.2,113z M140.2,113"/>
	<path class="st0" d="M73.7,71h1.7c1,0,1.7-0.8,1.7-1.7c0-1-0.8-1.7-1.7-1.7h-1.7c-1,0-1.7,0.8-1.7,1.7C71.9,70.3,72.7,71,73.7,71
		L73.7,71z M73.7,71"/>
	<path class="st0" d="M87.6,102.9l1.5-7.3c8.8,0.2,15.2,2.4,17.1,6c0.5,0.8,1.5,1.2,2.4,0.7c0.8-0.5,1.2-1.5,0.7-2.4
		c-2.7-5-10.4-7.8-21.5-7.8c-0.9,0-1.7,0.6-1.8,1.4l-1.7,8.7c-0.2,0.9,0.4,1.9,1.4,2.1c0.1,0,0.2,0,0.3,0
		C86.7,104.3,87.4,103.7,87.6,102.9L87.6,102.9z M87.6,102.9"/>
	<path class="st0" d="M148.1,100.8c-3.4-3.4-8.6-5.2-14.9-5.2c-1,0-1.8,0.8-1.8,1.7c0,0.4-0.1,8.7-7,8.7c-6.9,0-7-8.4-7-8.7
		c0-1-0.8-1.7-1.7-1.7c-1,0-1.7,0.8-1.7,1.7c0,3.9,1.9,11,8.7,12.1v8.9c0,1,0.8,1.7,1.7,1.7c1,0,1.7-0.8,1.7-1.7v-8.9
		c5.9-0.9,8.1-6.3,8.6-10.3c4.6,0.3,8.4,1.7,10.8,4.2c2.1,2.1,3.3,4.9,3.3,8v28c0,1,0.8,1.7,1.7,1.7c1,0,1.7-0.8,1.7-1.7v-28
		C152.4,107.3,150.8,103.5,148.1,100.8L148.1,100.8z M148.1,100.8"/>
	<path class="st0" d="M78.9,92c-1.9,0-3.5,1.6-3.5,3.5c0,1.3,0.7,2.4,1.7,3v12.7c0,1,0.8,1.7,1.7,1.7c1,0,1.7-0.8,1.7-1.7V98.5
		c1-0.6,1.7-1.7,1.7-3C82.4,93.6,80.8,92,78.9,92L78.9,92z M78.9,92"/>
	<path class="st0" d="M59.7,113c-1,0-1.7,0.8-1.7,1.7v28c0,1,0.8,1.7,1.7,1.7c1,0,1.7-0.8,1.7-1.7v-28C61.4,113.8,60.6,113,59.7,113
		L59.7,113z M59.7,113"/>
	<path class="st0" d="M71.9,93.4c-0.2-0.8-1-1.4-1.8-1.4c-9.2,0-16.2,2-19.8,5.5c-1.9,1.9-2.8,4.1-2.8,6.7v35c0,1,0.8,1.7,1.7,1.7
		c1,0,1.7-0.8,1.7-1.7v-35c0-1.6,0.6-3,1.8-4.2c2.7-2.7,8.5-4.3,16-4.5l8.5,40.5c0.2,0.9,1.1,1.6,2.1,1.4c0.9-0.2,1.6-1.1,1.4-2.1
		L71.9,93.4z M71.9,93.4"/>
</g>
</svg>
