<?xml version="1.0" encoding="utf-8"?>
<!-- Generator: Adobe Illustrator 22.0.1, SVG Export Plug-In . SVG Version: 6.00 Build 0)  -->
<svg version="1.1" id="Layer_1" xmlns="http://www.w3.org/2000/svg" xmlns:xlink="http://www.w3.org/1999/xlink" x="0px" y="0px"
	 viewBox="0 0 80 80" style="enable-background:new 0 0 80 80;" xml:space="preserve">
<style type="text/css">
	.st0{fill:#B5916F;}
	.st1{fill:#135FA7;}
	.st2{fill:#018BD2;}
	.st3{fill:none;}
	.st4{fill:#008BD2;}
	.st5{fill:#FFFFFF;}
	.st6{fill:#08A9E1;}
	.st7{fill:#F6F9F9;}
	.st8{fill:url(#SVGID_1_);}
	.st9{fill:#FFFFFF;stroke:#BABCBE;stroke-width:0.2278;stroke-miterlimit:10;}
	.st10{fill:#FFFFFF;stroke:#F2F2F2;stroke-width:0.2307;stroke-miterlimit:10;}
</style>
<g>
	<path class="st1" d="M66,28.4l5.8-5.1l0,0c4.6-4.3,6.9-10.6,6-16.9l-0.2-1.5c-0.3-1.7-1.6-3-3.3-3.3l-1.5-0.2
		c-6.3-0.9-12.6,1.3-16.9,6l-5.1,5.8L48,11.6c-7.3-4.2-15.6-6.4-24-6.4l-2.4,0c-2.3,0-4.4,1.2-5.6,3.2l-0.4,0.8
		c-0.4,0.6-0.1,1.4,0.5,1.8l24.5,14.2L21.4,46.8L20,48.7c-4-2.2-8.4-3.3-13-3.3l-1.9,0c-1.4,0-2.6,0.7-3.3,1.9l-0.5,0.9
		C1,48.5,1,48.9,1,49.2c0.1,0.3,0.3,0.6,0.6,0.8l12.5,7.2c-0.4,0.7-0.7,1.4-1,2.1c-0.7,1.6-0.5,3.4,0.4,4.9c0.9,1.4,2.5,2.3,4.3,2.3
		c0.7,0,1.4-0.1,2.1-0.4c0,0,0.1,0,0.1,0c0.6-0.3,1.3-0.6,2-0.9l7.2,12.5c0.2,0.3,0.5,0.5,0.8,0.6c0.3,0.1,0.7,0,1-0.1l0.9-0.5h0
		c1.2-0.7,1.9-2,1.9-3.3l0-1.9c0-4.5-1.2-9-3.3-13l1.9-1.4l21.7-19.2l14.2,24.5c0.4,0.6,1.1,0.8,1.8,0.5l0.8-0.4
		c2-1.1,3.2-3.3,3.2-5.6l0-2.4c0-8.4-2.2-16.7-6.4-24L66,28.4z M21.6,7.8l2.4,0c8,0,15.8,2.1,22.7,6l2.3,1.4l-6.8,8L18.5,9.4
		C19.2,8.4,20.4,7.8,21.6,7.8L21.6,7.8z M5.1,47.9l1.9,0c4,0,7.9,1,11.4,2.8l-0.8,1c-0.5,0.6-0.9,1.2-1.3,1.9
		c-0.1,0.2-0.2,0.4-0.4,0.6c-0.2,0.2-0.3,0.5-0.5,0.7L4.1,48.4C4.3,48.1,4.7,47.9,5.1,47.9L5.1,47.9z M31.2,72.2l0,1.9
		c0,0.4-0.2,0.8-0.5,1l-6.5-11.3c0.2-0.2,0.5-0.3,0.7-0.5c0.2-0.1,0.4-0.2,0.6-0.4c0.6-0.4,1.2-0.9,1.8-1.3l0,0l1.1-0.8
		C30.3,64.3,31.2,68.2,31.2,72.2L31.2,72.2z M30.7,55.8L28,57.8c0,0,0,0,0,0l-2.2,1.8c-1.2,1-2.6,1.8-3.9,2.6c-1,0.5-1.9,1-2.9,1.5
		c0,0-0.1,0-0.1,0c-1,0.4-2.1,0.1-2.8-0.6c-0.7-0.7-0.9-1.9-0.5-2.8c0.4-1,0.9-2,1.5-3c0.8-1.4,1.6-2.7,2.6-4l1.7-2.2c0,0,0,0,0,0
		l2.1-2.7L57.8,9.1c3.2-3.4,7.6-5.4,12.3-5.4c0.8,0,1.6,0.1,2.4,0.2l1.5,0.2c0.6,0.1,1,0.5,1.1,1.1l0.2,1.5
		c0.8,5.4-1.2,10.9-5.2,14.6L30.7,55.8z M71.4,57.6c0,1.2-0.6,2.4-1.6,3.1L56,36.9l8-6.8l1.4,2.4c4,6.9,6.1,14.8,6,22.7L71.4,57.6z
		 M71.4,57.6"/>
	<path class="st1" d="M63.2,10.7c1.5-0.9,3.5-0.7,4.7,0.6c1.2,1.2,1.5,3.2,0.6,4.7c-0.4,0.6-0.2,1.4,0.4,1.8
		c0.6,0.4,1.4,0.2,1.8-0.4c1.5-2.5,1.1-5.7-1-7.8c-2.1-2.1-5.3-2.5-7.8-1c-0.4,0.2-0.6,0.7-0.6,1.1c0,0.5,0.3,0.9,0.7,1.1
		C62.3,11,62.8,11,63.2,10.7L63.2,10.7z M63.2,10.7"/>
</g>
</svg>
