<?xml version="1.0" encoding="utf-8"?>
<!-- Generator: Adobe Illustrator 22.0.1, SVG Export Plug-In . SVG Version: 6.00 Build 0)  -->
<svg version="1.1" id="Layer_1" xmlns="http://www.w3.org/2000/svg" xmlns:xlink="http://www.w3.org/1999/xlink" x="0px" y="0px"
	 viewBox="0 0 200 200" style="enable-background:new 0 0 200 200;" xml:space="preserve">
<style type="text/css">
	.st0{fill:#135FA7;}
	.st1{fill:#8F7049;}
	.st2{fill:#004289;}
	.st3{fill:#56BFEF;}
	.st4{fill:#1D4A7D;}
	.st5{fill:url(#SVGID_1_);}
	.st6{fill:#008BD2;}
	.st7{fill:#416DB1;}
	.st8{fill:none;stroke:#135FA7;stroke-width:3.0855;stroke-miterlimit:10;}
</style>
<g>
	<path class="st0" d="M129.9,85.4l6.8-6.1l0,0c5.5-5.1,8.1-12.5,7-19.9l-0.2-1.8c-0.3-2-1.9-3.6-3.9-3.9l-1.7-0.2
		c-7.4-1.1-14.8,1.6-19.9,7.1l-6.1,6.8l-3.3-1.9c-8.6-4.9-18.4-7.5-28.3-7.5l-2.8,0c-2.7,0-5.2,1.5-6.5,3.8l-0.5,0.9
		c-0.4,0.7-0.2,1.7,0.6,2.1L100,81.6l-22.6,25.6l-1.7,2.2c-4.7-2.6-9.9-3.9-15.3-3.9l-2.3,0c-1.6,0-3.1,0.9-3.9,2.3l-0.6,1.1
		c-0.2,0.3-0.3,0.8-0.2,1.2c0.1,0.4,0.4,0.7,0.7,0.9l14.7,8.5c-0.4,0.8-0.8,1.6-1.2,2.4c-0.8,1.9-0.6,4,0.5,5.7s3,2.7,5,2.8
		c0.8,0,1.7-0.2,2.4-0.5c0,0,0.1,0,0.1-0.1c0.8-0.3,1.5-0.7,2.3-1.1l8.5,14.7c0.2,0.4,0.5,0.6,0.9,0.7c0.4,0.1,0.8,0.1,1.2-0.1
		l1.1-0.6h0c1.4-0.8,2.3-2.3,2.3-3.9l0-2.3c0-5.3-1.4-10.6-3.9-15.3l2.2-1.7l25.6-22.6l16.7,28.9c0.4,0.7,1.3,1,2.1,0.6l0.9-0.5
		c2.3-1.4,3.8-3.8,3.8-6.5l0-2.8c0-9.9-2.6-19.7-7.5-28.3L129.9,85.4z M77.6,61.1l2.8,0c9.4,0,18.6,2.4,26.8,7.1l2.8,1.6l-8,9.4
		L73.9,63C74.8,61.8,76.2,61.1,77.6,61.1L77.6,61.1z M58.1,108.5l2.3,0c4.7,0,9.3,1.1,13.4,3.3l-1,1.2c-0.6,0.7-1.1,1.4-1.6,2.2
		c-0.2,0.2-0.3,0.4-0.4,0.7c-0.2,0.3-0.4,0.6-0.6,0.9L56.9,109C57.2,108.7,57.7,108.5,58.1,108.5L58.1,108.5z M89,137l0,2.2
		c0,0.5-0.2,0.9-0.6,1.2l-7.7-13.3c0.3-0.2,0.6-0.4,0.9-0.6c0.2-0.2,0.5-0.3,0.7-0.4c0.7-0.5,1.4-1,2.1-1.5l0,0l1.2-1
		C87.8,127.7,89,132.4,89,137L89,137z M88.3,117.7l-3.1,2.4c0,0,0,0,0,0l-2.6,2.1c-1.5,1.1-3,2.2-4.6,3.1c-1.1,0.6-2.3,1.2-3.5,1.7
		c0,0-0.1,0-0.1,0c-1.1,0.4-2.4,0.2-3.3-0.7c-0.9-0.9-1.1-2.2-0.6-3.3c0.5-1.2,1.1-2.4,1.7-3.5c0.9-1.6,1.9-3.2,3.1-4.7l2-2.6
		c0,0,0,0,0,0l2.4-3.2l40.5-46.3c3.7-4,9-6.3,14.4-6.3c0.9,0,1.9,0.1,2.8,0.2l1.7,0.2c0.7,0.1,1.2,0.6,1.3,1.3l0.2,1.8
		c0.9,6.4-1.4,12.8-6.1,17.2L88.3,117.7z M136.3,119.8c0,1.5-0.7,2.8-1.9,3.7l-16.2-28.1l9.4-8l1.6,2.8c4.7,8.1,7.1,17.4,7.1,26.8
		L136.3,119.8z M136.3,119.8"/>
	<path class="st0" d="M126.6,64.6c1.8-1.1,4.1-0.8,5.5,0.7c1.5,1.5,1.8,3.7,0.7,5.5c-0.4,0.7-0.2,1.7,0.5,2.1
		c0.7,0.4,1.7,0.2,2.1-0.5c1.8-3,1.3-6.8-1.2-9.2c-2.4-2.4-6.2-2.9-9.2-1.2c-0.5,0.3-0.8,0.8-0.8,1.3c0,0.5,0.3,1,0.8,1.3
		C125.5,64.9,126.1,64.9,126.6,64.6L126.6,64.6z M126.6,64.6"/>
</g>
</svg>
