<?xml version="1.0" encoding="utf-8"?>
<!-- Generator: Adobe Illustrator 22.0.1, SVG Export Plug-In . SVG Version: 6.00 Build 0)  -->
<svg version="1.1" id="Layer_1" xmlns="http://www.w3.org/2000/svg" xmlns:xlink="http://www.w3.org/1999/xlink" x="0px" y="0px"
	 viewBox="0 0 80 80" style="enable-background:new 0 0 80 80;" xml:space="preserve">
<style type="text/css">
	.st0{fill:#B5916F;}
	.st1{fill:#135FA7;}
	.st2{fill:#018BD2;}
	.st3{fill:none;}
	.st4{fill:#008BD2;}
	.st5{fill:#FFFFFF;}
	.st6{fill:#08A9E1;}
	.st7{fill:#F6F9F9;}
	.st8{fill:url(#SVGID_1_);}
	.st9{fill:#FFFFFF;stroke:#BABCBE;stroke-width:0.2278;stroke-miterlimit:10;}
	.st10{fill:#FFFFFF;stroke:#F2F2F2;stroke-width:0.2307;stroke-miterlimit:10;}
</style>
<g>
	<path class="st1" d="M39.5,27.9c-5.9,0-10.5,2.9-10.5,6.5s4.6,6.5,10.5,6.5c5.9,0,10.5-2.9,10.5-6.5S45.4,27.9,39.5,27.9L39.5,27.9
		z M45.5,37.2c-1.6,0.9-3.7,1.4-6,1.4c-2.3,0-4.4-0.5-6-1.4c-0.8-0.5-2.2-1.5-2.2-2.8c0-1.4,1.4-2.4,2.2-2.8c1.6-0.9,3.7-1.4,6-1.4
		c2.3,0,4.4,0.5,6,1.4c0.8,0.5,2.2,1.5,2.2,2.8C47.7,35.8,46.3,36.8,45.5,37.2L45.5,37.2z M45.5,37.2"/>
	<path class="st1" d="M41.3,62.2l-7.1-14.9c-0.1-0.3-0.3-0.5-0.6-0.6l-7.2-3c-0.3-0.1-0.6-0.1-0.9,0c-0.3,0.1-0.5,0.4-0.6,0.7
		L22.6,52c-0.1,0.3-0.1,0.6,0.1,0.8l7.1,14.9c0.2,0.4,0.6,0.7,1,0.7c0.2,0,0.3,0,0.5-0.1l9.6-4.5C41.4,63.5,41.6,62.8,41.3,62.2
		L41.3,62.2z M31.3,65.7l-6.4-13.5l1.9-6l5.6,2.4l6.4,13.5L31.3,65.7z M31.3,65.7"/>
	<path class="st1" d="M70.6,21.5h-1.3V19c0-0.6-0.5-1.1-1.1-1.1H57.4c-0.6,0-1.1,0.5-1.1,1.1v2.5h-1.8v-3.7c0-4.2-3.4-7.7-7.7-7.7
		h-9.6c-0.6,0-1.1,0.5-1.1,1.1c0,0.6,0.5,1.1,1.1,1.1h9.6c3,0,5.4,2.4,5.4,5.4v3.7h-2.7v-3.7c0-1.5-1.2-2.7-2.7-2.7H32.2
		c-1.5,0-2.7,1.2-2.7,2.7v3.7h-2.7v-3.7c0-3.2,2.3-5.4,5.8-5.4c0.6,0,1.1-0.5,1.1-1.1c0-0.6-0.5-1.1-1.1-1.1c-2.4,0-4.5,0.8-5.9,2.2
		c-1.4,1.4-2.2,3.3-2.2,5.4v3.7h-1.8V19c0-0.6-0.5-1.1-1.1-1.1H10.8c-0.6,0-1.1,0.5-1.1,1.1v2.5H8.4c-4.1,0-7.4,3.4-7.4,7.7v36.7
		c0,4.2,3.3,7.7,7.4,7.7h2c0.4,2.9,2.8,5.1,5.8,5.1c2.9,0,5.4-2.2,5.8-5.1h7.7c0.6,0,1.1-0.5,1.1-1.1c0-0.6-0.5-1.1-1.1-1.1h-9.4
		V23.8h38.3v19.9c-0.3,0-0.6-0.1-0.9-0.1h-5.4c-3.1,0-5.7,2.6-5.7,5.7v6.6c0,3.1,2.6,5.7,5.7,5.7h5.4c0.3,0,0.6,0,0.9-0.1v9.8H34.4
		c-0.6,0-1.1,0.5-1.1,1.1c0,0.6,0.5,1.1,1.1,1.1H57c0.4,2.9,2.8,5.2,5.8,5.2c2.9,0,5.4-2.3,5.8-5.2h2.1c4.1,0,7.4-3.4,7.4-7.7V29.2
		C78,24.9,74.7,21.5,70.6,21.5L70.6,21.5z M12,71.3H8.4c-2.8,0-5.1-2.4-5.1-5.4V29.2c0-3,2.3-5.4,5.1-5.4H12V71.3z M16.2,76.4
		c-1.7,0-3.1-1.2-3.4-2.8h6.9C19.3,75.2,17.9,76.4,16.2,76.4L16.2,76.4z M14.2,71.3V23.8h3.8v47.5H14.2z M20.4,21.5h-8.5v-1.3h8.5
		V21.5z M47.2,21.5H31.8v-3.7c0-0.2,0.2-0.4,0.4-0.4h14.7c0.2,0,0.4,0.2,0.4,0.4V21.5z M58.6,59.2c-0.3,0.1-0.6,0.1-0.9,0.1h-5.4
		c-1.9,0-3.4-1.5-3.4-3.4v-6.6c0-1.9,1.5-3.4,3.4-3.4h5.4c0.3,0,0.6,0,0.9,0.1V59.2z M62.8,76.5c-1.7,0-3.1-1.2-3.4-2.9h6.9
		C65.8,75.3,64.4,76.5,62.8,76.5L62.8,76.5z M60.9,45V23.8h3.8v47.5h-3.8V60.1c0-0.1,0-0.1,0-0.2V45.2C60.9,45.2,60.9,45.1,60.9,45
		L60.9,45z M67,21.5h-8.5v-1.3H67V21.5z M75.7,65.9c0,3-2.3,5.4-5.1,5.4H67V23.8h3.6c2.8,0,5.1,2.4,5.1,5.4V65.9z M75.7,65.9"/>
</g>
</svg>
