<?xml version="1.0" encoding="utf-8"?>
<!-- Generator: Adobe Illustrator 22.0.1, SVG Export Plug-In . SVG Version: 6.00 Build 0)  -->
<svg version="1.1" id="Layer_1" xmlns="http://www.w3.org/2000/svg" xmlns:xlink="http://www.w3.org/1999/xlink" x="0px" y="0px"
	 viewBox="0 0 80 80" style="enable-background:new 0 0 80 80;" xml:space="preserve">
<style type="text/css">
	.st0{fill:#B5916F;}
	.st1{fill:#135FA7;}
	.st2{fill:#018BD2;}
	.st3{fill:none;}
	.st4{fill:#008BD2;}
	.st5{fill:#FFFFFF;}
	.st6{fill:#08A9E1;}
	.st7{fill:#F6F9F9;}
	.st8{fill:url(#SVGID_1_);}
	.st9{fill:#FFFFFF;stroke:#BABCBE;stroke-width:0.2278;stroke-miterlimit:10;}
	.st10{fill:#FFFFFF;stroke:#F2F2F2;stroke-width:0.2307;stroke-miterlimit:10;}
</style>
<g>
	<path class="st1" d="M55.2,25.6h-8.9V10.4h1.3c0.7,0,1.3-0.6,1.3-1.3V4c0-0.7-0.6-1.3-1.3-1.3H32.4c-0.7,0-1.3,0.6-1.3,1.3v5.1
		c0,0.7,0.6,1.3,1.3,1.3h1.3v15.2h-8.9c-2.1,0-3.8,1.7-3.8,3.8v40.5c0,2.1,1.7,3.8,3.8,3.8v3.8c0,0.7,0.6,1.3,1.3,1.3h5.1
		c0.7,0,1.3-0.6,1.3-1.3v-3.8h15.2v3.8c0,0.7,0.6,1.3,1.3,1.3h5.1c0.7,0,1.3-0.6,1.3-1.3v-3.8c2.1,0,3.8-1.7,3.8-3.8V29.4
		C59,27.3,57.3,25.6,55.2,25.6L55.2,25.6z M33.7,5.3h12.7v2.5H33.7V5.3z M36.2,10.4h7.6v15.2h-7.6V10.4z M29.9,76.2h-2.5v-2.5h2.5
		V76.2z M52.7,76.2h-2.5v-2.5h2.5V76.2z M56.5,69.9c0,0.7-0.6,1.3-1.3,1.3H24.8c-0.7,0-1.3-0.6-1.3-1.3V29.4c0-0.7,0.6-1.3,1.3-1.3
		h30.4c0.7,0,1.3,0.6,1.3,1.3V69.9z M56.5,69.9"/>
	<rect x="38.7" y="33.2" class="st1" width="2.5" height="32.9"/>
	<rect x="29.9" y="33.2" class="st1" width="2.5" height="32.9"/>
	<rect x="47.6" y="33.2" class="st1" width="2.5" height="32.9"/>
</g>
</svg>
