<?xml version="1.0" encoding="utf-8"?>
<!-- Generator: Adobe Illustrator 22.0.1, SVG Export Plug-In . SVG Version: 6.00 Build 0)  -->
<svg version="1.1" id="Layer_1" xmlns="http://www.w3.org/2000/svg" xmlns:xlink="http://www.w3.org/1999/xlink" x="0px" y="0px"
	 viewBox="0 0 80 80" style="enable-background:new 0 0 80 80;" xml:space="preserve">
<style type="text/css">
	.st0{fill:#B5916F;}
	.st1{fill:#135FA7;}
	.st2{fill:#018BD2;}
	.st3{fill:none;}
	.st4{fill:#008BD2;}
	.st5{fill:#FFFFFF;}
	.st6{fill:#08A9E1;}
	.st7{fill:#F6F9F9;}
	.st8{fill:url(#SVGID_1_);}
	.st9{fill:#FFFFFF;stroke:#BABCBE;stroke-width:0.2278;stroke-miterlimit:10;}
	.st10{fill:#FFFFFF;stroke:#F2F2F2;stroke-width:0.2307;stroke-miterlimit:10;}
</style>
<g>
	<path class="st1" d="M58,8.1c-0.6-3-3.3-5.3-6.5-5.3c-0.7,0-1.3,0.6-1.3,1.3c0,0.7,0.6,1.3,1.3,1.3c2.2,0,4,1.8,4,4
		c0,2.2-1.8,4-4,4c-0.7,0-1.3,0.6-1.3,1.3c0,0.7,0.6,1.3,1.3,1.3c3.2,0,5.9-2.3,6.5-5.3h17.3v11.9H4V10.7h22.5
		c0.7,0,1.3-0.6,1.3-1.3c0-0.7-0.6-1.3-1.3-1.3H24c0.6-1.5,2-2.6,3.7-2.6c2.2,0,4,1.8,4,4c0,2.2-1.8,4-4,4c-0.7,0-1.3,0.6-1.3,1.3
		c0,0.7,0.6,1.3,1.3,1.3c3.6,0,6.6-3,6.6-6.6c0-3.6-3-6.6-6.6-6.6c-3.2,0-5.9,2.3-6.5,5.3h-20v70.1H78V8.1H58z M75.4,75.5H4V25.3
		h71.4V75.5z M75.4,75.5"/>
	<path class="st1" d="M35.7,5.4c2.2,0,4,1.8,4,4c0,2.2-1.8,4-4,4c-0.7,0-1.3,0.6-1.3,1.3c0,0.7,0.6,1.3,1.3,1.3c3.6,0,6.6-3,6.6-6.6
		c0-3.6-3-6.6-6.6-6.6c-0.7,0-1.3,0.6-1.3,1.3C34.4,4.9,35,5.4,35.7,5.4L35.7,5.4z M35.7,5.4"/>
	<path class="st1" d="M43.6,5.4c2.2,0,4,1.8,4,4c0,2.2-1.8,4-4,4c-0.7,0-1.3,0.6-1.3,1.3c0,0.7,0.6,1.3,1.3,1.3c3.6,0,6.6-3,6.6-6.6
		c0-3.6-3-6.6-6.6-6.6c-0.7,0-1.3,0.6-1.3,1.3C42.3,4.9,42.9,5.4,43.6,5.4L43.6,5.4z M43.6,5.4"/>
	<path class="st1" d="M18.5,46.4c4.4,0,7.9-3.6,7.9-7.9c0-4.4-3.6-7.9-7.9-7.9s-7.9,3.6-7.9,7.9C10.6,42.9,14.1,46.4,18.5,46.4
		L18.5,46.4z M18.5,33.2c2.9,0,5.3,2.4,5.3,5.3c0,2.9-2.4,5.3-5.3,5.3s-5.3-2.4-5.3-5.3C13.2,35.6,15.6,33.2,18.5,33.2L18.5,33.2z
		 M18.5,33.2"/>
	<path class="st1" d="M39.7,46.4c4.4,0,7.9-3.6,7.9-7.9c0-4.4-3.6-7.9-7.9-7.9s-7.9,3.6-7.9,7.9C31.7,42.9,35.3,46.4,39.7,46.4
		L39.7,46.4z M39.7,33.2c2.9,0,5.3,2.4,5.3,5.3c0,2.9-2.4,5.3-5.3,5.3c-2.9,0-5.3-2.4-5.3-5.3C34.4,35.6,36.7,33.2,39.7,33.2
		L39.7,33.2z M39.7,33.2"/>
	<path class="st1" d="M60.8,46.4c4.4,0,7.9-3.6,7.9-7.9c0-4.4-3.6-7.9-7.9-7.9s-7.9,3.6-7.9,7.9C52.9,42.9,56.4,46.4,60.8,46.4
		L60.8,46.4z M60.8,33.2c2.9,0,5.3,2.4,5.3,5.3c0,2.9-2.4,5.3-5.3,5.3c-2.9,0-5.3-2.4-5.3-5.3C55.5,35.6,57.9,33.2,60.8,33.2
		L60.8,33.2z M60.8,33.2"/>
	<path class="st1" d="M18.5,67.6c4.4,0,7.9-3.6,7.9-7.9c0-4.4-3.6-7.9-7.9-7.9s-7.9,3.6-7.9,7.9C10.6,64,14.1,67.6,18.5,67.6
		L18.5,67.6z M18.5,54.4c2.9,0,5.3,2.4,5.3,5.3c0,2.9-2.4,5.3-5.3,5.3s-5.3-2.4-5.3-5.3C13.2,56.7,15.6,54.4,18.5,54.4L18.5,54.4z
		 M18.5,54.4"/>
	<path class="st1" d="M39.7,67.6c4.4,0,7.9-3.6,7.9-7.9c0-4.4-3.6-7.9-7.9-7.9s-7.9,3.6-7.9,7.9C31.7,64,35.3,67.6,39.7,67.6
		L39.7,67.6z M39.7,54.4c2.9,0,5.3,2.4,5.3,5.3c0,2.9-2.4,5.3-5.3,5.3c-2.9,0-5.3-2.4-5.3-5.3C34.4,56.7,36.7,54.4,39.7,54.4
		L39.7,54.4z M39.7,54.4"/>
	<path class="st1" d="M62.1,66.3c0,0.7-0.6,1.3-1.3,1.3c-0.7,0-1.3-0.6-1.3-1.3c0-0.7,0.6-1.3,1.3-1.3C61.5,65,62.1,65.5,62.1,66.3
		L62.1,66.3z M62.1,66.3"/>
	<path class="st1" d="M56.8,65c0,0.7-0.6,1.3-1.3,1.3c-0.7,0-1.3-0.6-1.3-1.3c0-0.7,0.6-1.3,1.3-1.3C56.3,63.6,56.8,64.2,56.8,65
		L56.8,65z M56.8,65"/>
	<path class="st1" d="M67.4,65c0,0.7-0.6,1.3-1.3,1.3c-0.7,0-1.3-0.6-1.3-1.3c0-0.7,0.6-1.3,1.3-1.3C66.8,63.6,67.4,64.2,67.4,65
		L67.4,65z M67.4,65"/>
	<path class="st1" d="M67.4,54.4c0,0.7-0.6,1.3-1.3,1.3c-0.7,0-1.3-0.6-1.3-1.3c0-0.7,0.6-1.3,1.3-1.3
		C66.8,53.1,67.4,53.6,67.4,54.4L67.4,54.4z M67.4,54.4"/>
	<path class="st1" d="M56.8,54.4c0,0.7-0.6,1.3-1.3,1.3c-0.7,0-1.3-0.6-1.3-1.3c0-0.7,0.6-1.3,1.3-1.3
		C56.3,53.1,56.8,53.6,56.8,54.4L56.8,54.4z M56.8,54.4"/>
	<path class="st1" d="M59.5,57c0,0.7-0.6,1.3-1.3,1.3c-0.7,0-1.3-0.6-1.3-1.3c0-0.7,0.6-1.3,1.3-1.3C58.9,55.7,59.5,56.3,59.5,57
		L59.5,57z M59.5,57"/>
	<path class="st1" d="M64.8,57c0,0.7-0.6,1.3-1.3,1.3c-0.7,0-1.3-0.6-1.3-1.3c0-0.7,0.6-1.3,1.3-1.3C64.2,55.7,64.8,56.3,64.8,57
		L64.8,57z M64.8,57"/>
	<path class="st1" d="M62.1,59.7c0,0.7-0.6,1.3-1.3,1.3c-0.7,0-1.3-0.6-1.3-1.3c0-0.7,0.6-1.3,1.3-1.3
		C61.5,58.3,62.1,58.9,62.1,59.7L62.1,59.7z M62.1,59.7"/>
	<path class="st1" d="M59.5,62.3c0,0.7-0.6,1.3-1.3,1.3c-0.7,0-1.3-0.6-1.3-1.3c0-0.7,0.6-1.3,1.3-1.3C58.9,61,59.5,61.6,59.5,62.3
		L59.5,62.3z M59.5,62.3"/>
	<path class="st1" d="M64.8,62.3c0,0.7-0.6,1.3-1.3,1.3c-0.7,0-1.3-0.6-1.3-1.3c0-0.7,0.6-1.3,1.3-1.3C64.2,61,64.8,61.6,64.8,62.3
		L64.8,62.3z M64.8,62.3"/>
	<path class="st1" d="M68.7,59.7c0,0.7-0.6,1.3-1.3,1.3c-0.7,0-1.3-0.6-1.3-1.3c0-0.7,0.6-1.3,1.3-1.3
		C68.2,58.3,68.7,58.9,68.7,59.7L68.7,59.7z M68.7,59.7"/>
	<path class="st1" d="M55.5,59.7c0,0.7-0.6,1.3-1.3,1.3c-0.7,0-1.3-0.6-1.3-1.3c0-0.7,0.6-1.3,1.3-1.3
		C54.9,58.3,55.5,58.9,55.5,59.7L55.5,59.7z M55.5,59.7"/>
	<path class="st1" d="M62.1,53.1c0,0.7-0.6,1.3-1.3,1.3c-0.7,0-1.3-0.6-1.3-1.3c0-0.7,0.6-1.3,1.3-1.3
		C61.5,51.7,62.1,52.3,62.1,53.1L62.1,53.1z M62.1,53.1"/>
</g>
</svg>
