<?xml version="1.0" encoding="utf-8"?>
<!-- Generator: Adobe Illustrator 22.0.1, SVG Export Plug-In . SVG Version: 6.00 Build 0)  -->
<svg version="1.1" id="Layer_1" xmlns="http://www.w3.org/2000/svg" xmlns:xlink="http://www.w3.org/1999/xlink" x="0px" y="0px"
	 viewBox="0 0 80 80" style="enable-background:new 0 0 80 80;" xml:space="preserve">
<style type="text/css">
	.st0{fill:#B5916F;}
	.st1{fill:#135FA7;}
	.st2{fill:#018BD2;}
	.st3{fill:none;}
	.st4{fill:#008BD2;}
	.st5{fill:#FFFFFF;}
	.st6{fill:#08A9E1;}
	.st7{fill:#F6F9F9;}
	.st8{fill:url(#SVGID_1_);}
	.st9{fill:#FFFFFF;stroke:#BABCBE;stroke-width:0.2278;stroke-miterlimit:10;}
	.st10{fill:#FFFFFF;stroke:#F2F2F2;stroke-width:0.2307;stroke-miterlimit:10;}
</style>
<g>
	<path class="st1" d="M69.2,2.9C69.2,2.9,69.2,2.9,69.2,2.9c-1.2-1.2-2.7-1.8-4.4-1.8H14.3c-3.4,0-6.2,2.8-6.2,6.2v10.3
		c0,0.6,0.5,1.1,1.1,1.1h5.4c0.6,0,1.1-0.5,1.1-1.1c0-0.6-0.5-1.1-1.1-1.1h-4.3V7.3c0-2.2,1.8-3.9,3.9-3.9c1,0,2,0.4,2.8,1.1
		c0.7,0.7,1.2,1.7,1.2,2.8v69.2c0,0.4,0.3,0.8,0.7,1c0.4,0.2,0.9,0.1,1.2-0.2l4.3-3.7l4.3,3.7c0.4,0.4,1,0.4,1.5,0l4.3-3.7l4.3,3.7
		c0.4,0.4,1,0.4,1.5,0l4.3-3.7l4.3,3.7c0.4,0.4,1,0.4,1.5,0l4.3-3.7l4.3,3.7c0.4,0.4,1,0.4,1.5,0l4.3-3.7l4.3,3.7
		c0.2,0.2,0.5,0.3,0.7,0.3c0.2,0,0.3,0,0.5-0.1c0.4-0.2,0.7-0.6,0.7-1V7.3C71,5.6,70.4,4.1,69.2,2.9L69.2,2.9z M64.1,71.3L59.8,75
		l-4.3-3.7c-0.4-0.4-1-0.4-1.5,0L49.7,75l-4.3-3.7c-0.4-0.4-1-0.4-1.5,0L39.5,75l-4.3-3.7c-0.4-0.4-1-0.4-1.5,0L29.4,75l-4.3-3.7
		c-0.2-0.2-0.5-0.3-0.7-0.3c-0.3,0-0.5,0.1-0.7,0.3l-3.2,2.7V7.3c0-0.1,0-0.2,0-0.3c0,0,0-0.1,0-0.1c0-0.1,0-0.1,0-0.2
		c0,0,0-0.1,0-0.1c0-0.1,0-0.1,0-0.2c0,0,0-0.1,0-0.1c0-0.1,0-0.1,0-0.2c0,0,0-0.1,0-0.1c0-0.1,0-0.1,0-0.2c0,0,0-0.1,0-0.1
		c0-0.1,0-0.1,0-0.2c0,0,0-0.1,0-0.1c0-0.1,0-0.1-0.1-0.2c0,0,0,0,0-0.1C20,5.1,20,5,20,4.9c0,0,0,0,0-0.1c0-0.1-0.1-0.1-0.1-0.2
		c0,0,0-0.1,0-0.1c0-0.1-0.1-0.1-0.1-0.2c0,0,0-0.1-0.1-0.1c0-0.1-0.1-0.1-0.1-0.1c0,0,0-0.1-0.1-0.1c0,0-0.1-0.1-0.1-0.1
		c0,0,0-0.1-0.1-0.1c0,0-0.1-0.1-0.1-0.1c0,0,0-0.1-0.1-0.1c0-0.1-0.1-0.1-0.1-0.2c0,0,0,0,0-0.1c0,0,0,0,0,0h45.8
		c1,0,2,0.4,2.8,1.2c0.7,0.7,1.1,1.7,1.1,2.8v66.8l-3.2-2.7C65.1,71,64.5,71,64.1,71.3L64.1,71.3z M64.1,71.3"/>
	<path class="st1" d="M37,58.6c-0.2-0.5-0.5-0.9-0.9-1.2c-0.4-0.3-0.8-0.6-1.1-0.7c-0.3-0.2-0.8-0.4-1.3-0.6v-3.3
		c0.5,0,0.9,0.2,1.4,0.4c0.4,0.2,0.7,0.3,0.9,0.3c0.3,0,0.6-0.1,0.7-0.4c0.2-0.3,0.3-0.6,0.3-0.9c0-0.5-0.3-0.9-1-1.1
		c-0.7-0.2-1.4-0.4-2.2-0.4v-0.5c0-0.1-0.1-0.2-0.2-0.3c-0.1-0.1-0.3-0.1-0.4-0.1c-0.2,0-0.3,0-0.5,0.1c-0.1,0.1-0.2,0.2-0.2,0.3
		v0.5c-1.1,0.1-1.9,0.5-2.6,1.1c-0.7,0.6-1,1.5-1,2.6c0,0.5,0.1,0.9,0.2,1.3c0.2,0.4,0.3,0.7,0.5,0.9s0.5,0.5,0.9,0.7
		c0.4,0.2,0.7,0.4,0.9,0.5c0.2,0.1,0.6,0.2,1.1,0.4V62c-0.5,0-0.9-0.2-1.3-0.4c-0.4-0.2-0.7-0.5-1-0.7c-0.3-0.2-0.5-0.3-0.7-0.3
		c-0.3,0-0.5,0.1-0.7,0.4c-0.2,0.3-0.3,0.6-0.3,0.9c0,0.6,0.4,1.1,1.2,1.6s1.7,0.8,2.8,0.8v0.5c0,0.1,0.1,0.2,0.2,0.3
		c0.1,0.1,0.3,0.1,0.5,0.1c0.2,0,0.3,0,0.4-0.1c0.1-0.1,0.2-0.2,0.2-0.3v-0.6c1.1-0.2,2-0.6,2.6-1.3c0.6-0.7,1-1.6,1-2.7
		C37.3,59.6,37.2,59,37,58.6L37,58.6z M32.6,55.7c-0.5-0.2-0.9-0.4-1.1-0.6c-0.3-0.2-0.4-0.5-0.4-0.9c0-0.7,0.5-1.2,1.5-1.3V55.7z
		 M33.5,62v-3.3c0.5,0.2,0.8,0.4,1.1,0.7c0.2,0.3,0.4,0.6,0.4,1C35,61.3,34.5,61.8,33.5,62L33.5,62z M33.5,62"/>
	<path class="st1" d="M60.4,60.1H46c-0.6,0-1.1,0.5-1.1,1.1c0,0.6,0.5,1.1,1.1,1.1h14.4c0.6,0,1.1-0.5,1.1-1.1
		C61.5,60.6,61,60.1,60.4,60.1L60.4,60.1z M60.4,60.1"/>
	<path class="st1" d="M60.4,52.4H46c-0.6,0-1.1,0.5-1.1,1.1c0,0.6,0.5,1.1,1.1,1.1h14.4c0.6,0,1.1-0.5,1.1-1.1
		C61.5,52.9,61,52.4,60.4,52.4L60.4,52.4z M60.4,52.4"/>
	<path class="st1" d="M61.8,41.1H27.4c-0.6,0-1.1,0.5-1.1,1.1c0,0.6,0.5,1.1,1.1,1.1h34.4c0.6,0,1.1-0.5,1.1-1.1
		C62.9,41.6,62.4,41.1,61.8,41.1L61.8,41.1z M61.8,41.1"/>
	<path class="st1" d="M44.6,34.1H27.4c-0.6,0-1.1,0.5-1.1,1.1c0,0.6,0.5,1.1,1.1,1.1h17.2c0.6,0,1.1-0.5,1.1-1.1
		C45.7,34.6,45.2,34.1,44.6,34.1L44.6,34.1z M44.6,34.1"/>
	<path class="st1" d="M54.3,11c-0.3-0.5-1-0.6-1.6-0.3c-0.5,0.3-0.6,1-0.3,1.6c1.1,1.6,1.6,3.4,1.6,5.3c0,5.2-4.2,9.5-9.5,9.5
		s-9.5-4.2-9.5-9.5c0-5.2,4.2-9.5,9.5-9.5c1.6,0,3.1,0.4,4.5,1.1c0.5,0.3,1.2,0.1,1.5-0.4c0.3-0.5,0.1-1.2-0.4-1.5
		c-1.7-0.9-3.6-1.4-5.6-1.4c-6.5,0-11.7,5.2-11.7,11.7s5.2,11.7,11.7,11.7S56.3,24,56.3,17.6C56.3,15.2,55.6,13,54.3,11L54.3,11z
		 M54.3,11"/>
	<path class="st1" d="M50.2,14.8h-2.7V12c0-0.6-0.5-1.1-1.1-1.1h-3.4c-0.6,0-1.1,0.5-1.1,1.1v2.7H39c-0.6,0-1.1,0.5-1.1,1.1v3.4
		c0,0.6,0.5,1.1,1.1,1.1h2.7v2.7c0,0.6,0.5,1.1,1.1,1.1h3.4c0.6,0,1.1-0.5,1.1-1.1v-2.7h2.7c0.6,0,1.1-0.5,1.1-1.1v-3.4
		C51.3,15.3,50.8,14.8,50.2,14.8L50.2,14.8z M49,18.2h-2.7c-0.6,0-1.1,0.5-1.1,1.1V22H44v-2.7c0-0.6-0.5-1.1-1.1-1.1h-2.7V17h2.7
		c0.6,0,1.1-0.5,1.1-1.1v-2.7h1.2v2.7c0,0.6,0.5,1.1,1.1,1.1H49V18.2z M49,18.2"/>
</g>
</svg>
