<?xml version="1.0" encoding="utf-8"?>
<!-- Generator: Adobe Illustrator 22.0.1, SVG Export Plug-In . SVG Version: 6.00 Build 0)  -->
<svg version="1.1" id="Layer_1" xmlns="http://www.w3.org/2000/svg" xmlns:xlink="http://www.w3.org/1999/xlink" x="0px" y="0px"
	 viewBox="0 0 200 200" style="enable-background:new 0 0 200 200;" xml:space="preserve">
<style type="text/css">
	.st0{fill:#135FA7;}
	.st1{fill:#8F7049;}
	.st2{fill:#004289;}
	.st3{fill:#56BFEF;}
	.st4{fill:#1D4A7D;}
	.st5{fill:url(#SVGID_1_);}
	.st6{fill:#008BD2;}
	.st7{fill:#416DB1;}
	.st8{fill:none;stroke:#135FA7;stroke-width:3.0855;stroke-miterlimit:10;}
</style>
<g>
	<path class="st0" d="M134.6,55.5C134.6,55.5,134.6,55.5,134.6,55.5c-1.4-1.4-3.2-2.1-5.2-2.1H69.2c-4,0-7.3,3.3-7.3,7.3V73
		c0,0.7,0.6,1.3,1.3,1.3h6.4c0.7,0,1.3-0.6,1.3-1.3c0-0.7-0.6-1.3-1.3-1.3h-5.1V60.7c0-2.6,2.1-4.7,4.7-4.7c1.2,0,2.4,0.5,3.3,1.4
		c0.9,0.9,1.4,2.1,1.4,3.3v82.4c0,0.5,0.3,1,0.8,1.2c0.5,0.2,1,0.1,1.4-0.2l5.1-4.4l5.2,4.4c0.5,0.4,1.2,0.4,1.7,0l5.2-4.4l5.1,4.4
		c0.5,0.4,1.2,0.4,1.7,0l5.1-4.4l5.2,4.4c0.5,0.4,1.2,0.4,1.7,0l5.1-4.4l5.1,4.4c0.5,0.4,1.2,0.4,1.7,0l5.1-4.4l5.1,4.4
		c0.2,0.2,0.6,0.3,0.9,0.3c0.2,0,0.4,0,0.6-0.1c0.5-0.2,0.8-0.7,0.8-1.2V60.7C136.7,58.7,136,56.9,134.6,55.5L134.6,55.5z
		 M128.5,136.9l-5.1,4.4l-5.1-4.4c-0.5-0.4-1.2-0.4-1.7,0l-5.2,4.4l-5.2-4.4c-0.5-0.4-1.2-0.4-1.7,0l-5.1,4.4l-5.1-4.4
		c-0.5-0.4-1.2-0.4-1.7,0l-5.2,4.4l-5.2-4.4c-0.2-0.2-0.6-0.3-0.9-0.3c-0.3,0-0.6,0.1-0.9,0.3l-3.8,3.3V60.7c0-0.1,0-0.2,0-0.3
		c0,0,0-0.1,0-0.1c0-0.1,0-0.2,0-0.2c0,0,0-0.1,0-0.1c0-0.1,0-0.1,0-0.2c0,0,0-0.1,0-0.1c0-0.1,0-0.1,0-0.2c0,0,0-0.1,0-0.1
		c0-0.1,0-0.1,0-0.2c0,0,0-0.1,0-0.1c0-0.1,0-0.1-0.1-0.2c0,0,0-0.1,0-0.1c0-0.1-0.1-0.2-0.1-0.3c0,0,0,0,0-0.1
		c0-0.1-0.1-0.2-0.1-0.3c0,0,0-0.1,0-0.1c0-0.1-0.1-0.1-0.1-0.2c0,0,0-0.1-0.1-0.1c0-0.1-0.1-0.1-0.1-0.2c0,0,0-0.1-0.1-0.1
		c0-0.1-0.1-0.1-0.1-0.2c0,0,0-0.1-0.1-0.1c0-0.1-0.1-0.1-0.1-0.2c0,0,0-0.1-0.1-0.1c0-0.1-0.1-0.1-0.1-0.2c0,0,0-0.1-0.1-0.1
		c0-0.1-0.1-0.1-0.2-0.2c0,0,0-0.1-0.1-0.1c0,0,0,0,0,0h54.5c1.2,0,2.4,0.5,3.3,1.4c0.9,0.9,1.4,2.1,1.4,3.3v79.5l-3.8-3.3
		C129.7,136.5,129,136.5,128.5,136.9L128.5,136.9z M128.5,136.9"/>
	<path class="st0" d="M96.2,121.7c-0.2-0.6-0.6-1-1.1-1.4c-0.5-0.4-0.9-0.7-1.3-0.9c-0.4-0.2-0.9-0.4-1.5-0.7v-4
		c0.6,0,1.1,0.2,1.6,0.5c0.5,0.3,0.9,0.4,1,0.4c0.4,0,0.7-0.2,0.9-0.5c0.2-0.4,0.3-0.7,0.3-1c0-0.6-0.4-1-1.2-1.3
		c-0.8-0.3-1.7-0.4-2.6-0.5v-0.6c0-0.2-0.1-0.3-0.2-0.4c-0.2-0.1-0.3-0.2-0.5-0.2c-0.2,0-0.4,0.1-0.5,0.2c-0.2,0.1-0.2,0.2-0.2,0.4
		v0.6c-1.3,0.2-2.3,0.6-3.1,1.3c-0.8,0.7-1.2,1.7-1.2,3.1c0,0.6,0.1,1.1,0.3,1.5c0.2,0.5,0.4,0.8,0.6,1.1c0.2,0.3,0.6,0.6,1.1,0.8
		c0.5,0.3,0.8,0.5,1.1,0.6c0.3,0.1,0.7,0.3,1.3,0.5v4.5c-0.6-0.1-1.1-0.2-1.6-0.5c-0.5-0.3-0.9-0.6-1.2-0.8
		c-0.3-0.2-0.6-0.4-0.8-0.4c-0.3,0-0.6,0.2-0.9,0.5c-0.3,0.4-0.4,0.7-0.4,1.1c0,0.7,0.5,1.3,1.4,1.9s2.1,0.9,3.4,0.9v0.6
		c0,0.2,0.1,0.3,0.2,0.4c0.2,0.1,0.3,0.2,0.5,0.2c0.2,0,0.4-0.1,0.5-0.2c0.2-0.1,0.2-0.2,0.2-0.4v-0.7c1.3-0.2,2.3-0.7,3.1-1.5
		c0.8-0.8,1.2-1.9,1.2-3.3C96.6,122.9,96.5,122.3,96.2,121.7L96.2,121.7z M91,118.3c-0.6-0.2-1.1-0.5-1.4-0.8
		c-0.3-0.3-0.5-0.6-0.5-1.1c0-0.9,0.6-1.4,1.8-1.6V118.3z M92.1,125.8v-3.9c0.5,0.2,1,0.5,1.3,0.8c0.3,0.3,0.4,0.7,0.4,1.2
		C93.8,125,93.3,125.6,92.1,125.8L92.1,125.8z M92.1,125.8"/>
	<path class="st0" d="M124.1,123.6h-17.2c-0.7,0-1.3,0.6-1.3,1.3c0,0.7,0.6,1.3,1.3,1.3h17.2c0.7,0,1.3-0.6,1.3-1.3
		C125.4,124.2,124.8,123.6,124.1,123.6L124.1,123.6z M124.1,123.6"/>
	<path class="st0" d="M124.1,114.4h-17.2c-0.7,0-1.3,0.6-1.3,1.3c0,0.7,0.6,1.3,1.3,1.3h17.2c0.7,0,1.3-0.6,1.3-1.3
		C125.4,115,124.8,114.4,124.1,114.4L124.1,114.4z M124.1,114.4"/>
	<path class="st0" d="M125.8,100.9h-41c-0.7,0-1.3,0.6-1.3,1.3c0,0.7,0.6,1.3,1.3,1.3h41c0.7,0,1.3-0.6,1.3-1.3
		C127.1,101.5,126.5,100.9,125.8,100.9L125.8,100.9z M125.8,100.9"/>
	<path class="st0" d="M105.3,92.6H84.8c-0.7,0-1.3,0.6-1.3,1.3c0,0.7,0.6,1.3,1.3,1.3h20.5c0.7,0,1.3-0.6,1.3-1.3
		C106.6,93.2,106,92.6,105.3,92.6L105.3,92.6z M105.3,92.6"/>
	<path class="st0" d="M116.8,65.2c-0.4-0.6-1.2-0.8-1.9-0.4c-0.6,0.4-0.8,1.2-0.4,1.9c1.3,1.9,1.9,4,1.9,6.3c0,6.2-5,11.3-11.3,11.3
		c-6.2,0-11.3-5-11.3-11.3c0-6.2,5-11.3,11.3-11.3c1.9,0,3.7,0.5,5.4,1.4c0.6,0.4,1.5,0.1,1.8-0.5c0.4-0.6,0.1-1.5-0.5-1.8
		c-2-1.1-4.3-1.7-6.6-1.7c-7.7,0-13.9,6.2-13.9,13.9s6.2,13.9,13.9,13.9s13.9-6.2,13.9-13.9C119.2,70.2,118.4,67.5,116.8,65.2
		L116.8,65.2z M116.8,65.2"/>
	<path class="st0" d="M111.9,69.6h-3.3v-3.3c0-0.7-0.6-1.3-1.3-1.3h-4.1c-0.7,0-1.3,0.6-1.3,1.3v3.3h-3.3c-0.7,0-1.3,0.6-1.3,1.3V75
		c0,0.7,0.6,1.3,1.3,1.3h3.3v3.3c0,0.7,0.6,1.3,1.3,1.3h4.1c0.7,0,1.3-0.6,1.3-1.3v-3.3h3.3c0.7,0,1.3-0.6,1.3-1.3v-4.1
		C113.3,70.2,112.7,69.6,111.9,69.6L111.9,69.6z M110.6,73.7h-3.3c-0.7,0-1.3,0.6-1.3,1.3v3.3h-1.4V75c0-0.7-0.6-1.3-1.3-1.3H100
		v-1.4h3.3c0.7,0,1.3-0.6,1.3-1.3v-3.3h1.4v3.3c0,0.7,0.6,1.3,1.3,1.3h3.3V73.7z M110.6,73.7"/>
</g>
</svg>
