<?xml version="1.0" encoding="utf-8"?>
<!-- Generator: Adobe Illustrator 22.0.1, SVG Export Plug-In . SVG Version: 6.00 Build 0)  -->
<svg version="1.1" id="Layer_1" xmlns="http://www.w3.org/2000/svg" xmlns:xlink="http://www.w3.org/1999/xlink" x="0px" y="0px"
	 viewBox="0 0 80 80" style="enable-background:new 0 0 80 80;" xml:space="preserve">
<style type="text/css">
	.st0{fill:#B5916F;}
	.st1{fill:#135FA7;}
	.st2{fill:#018BD2;}
	.st3{fill:none;}
	.st4{fill:#008BD2;}
	.st5{fill:#FFFFFF;}
	.st6{fill:#08A9E1;}
	.st7{fill:#F6F9F9;}
	.st8{fill:url(#SVGID_1_);}
	.st9{fill:#FFFFFF;stroke:#BABCBE;stroke-width:0.2278;stroke-miterlimit:10;}
	.st10{fill:#FFFFFF;stroke:#F2F2F2;stroke-width:0.2307;stroke-miterlimit:10;}
</style>
<g>
	<path class="st1" d="M23.2,16.2c0-4-3.2-7.2-7.2-7.2c-4,0-7.2,3.2-7.2,7.2c0,4,3.2,7.2,7.2,7.2C19.9,23.4,23.2,20.2,23.2,16.2
		L23.2,16.2z M11,16.2c0-2.8,2.2-5,5-5c2.8,0,5,2.2,5,5c0,2.8-2.2,5-5,5C13.2,21.2,11,18.9,11,16.2L11,16.2z M11,16.2"/>
	<path class="st1" d="M41.4,12.4c0.6,0,1.1-0.5,1.1-1.1c0-0.6-0.5-1.1-1.1-1.1h-2.9c-0.6,0-1.1,0.5-1.1,1.1c0,0.6,0.5,1.1,1.1,1.1
		H41.4z M41.4,12.4"/>
	<path class="st1" d="M32.6,12.4h14.8c0.6,0,1.1-0.5,1.1-1.1c0-0.6-0.5-1.1-1.1-1.1H32.6c-0.6,0-1.1,0.5-1.1,1.1
		C31.4,11.9,31.9,12.4,32.6,12.4L32.6,12.4z M32.6,12.4"/>
	<path class="st1" d="M38.1,22.3h3.8c0.6,0,1.1-0.5,1.1-1.1c0-0.6-0.5-1.1-1.1-1.1h-3.8c-0.6,0-1.1,0.5-1.1,1.1
		C36.9,21.8,37.4,22.3,38.1,22.3L38.1,22.3z M38.1,22.3"/>
	<path class="st1" d="M38.8,20c-0.6,0-1.1,0.5-1.1,1.1c0,0.6,0.5,1.1,1.1,1.1h2.4c0.6,0,1.1-0.5,1.1-1.1c0-0.6-0.5-1.1-1.1-1.1H38.8
		z M38.8,20"/>
	<path class="st1" d="M27.5,17.3h25c0.6,0,1.1-0.5,1.1-1.1c0-0.6-0.5-1.1-1.1-1.1h-25c-0.6,0-1.1,0.5-1.1,1.1
		C26.4,16.8,26.9,17.3,27.5,17.3L27.5,17.3z M27.5,17.3"/>
	<path class="st1" d="M12.8,35.8h37.6c2.2,0,4-1.8,4-4c0-2.2-1.8-4-4-4H12.8c-2.2,0-4,1.8-4,4C8.7,34,10.6,35.8,12.8,35.8L12.8,35.8
		z M12.8,30h37.6c1,0,1.8,0.8,1.8,1.8c0,1-0.8,1.8-1.8,1.8H12.8c-1,0-1.8-0.8-1.8-1.8C11,30.8,11.8,30,12.8,30L12.8,30z M12.8,30"/>
	<path class="st1" d="M12.8,46.1h37.6c2.2,0,4-1.8,4-4c0-2.2-1.8-4-4-4H12.8c-2.2,0-4,1.8-4,4C8.7,44.2,10.6,46.1,12.8,46.1
		L12.8,46.1z M12.8,40.2h37.6c1,0,1.8,0.8,1.8,1.8c0,1-0.8,1.8-1.8,1.8H12.8c-1,0-1.8-0.8-1.8-1.8C11,41,11.8,40.2,12.8,40.2
		L12.8,40.2z M12.8,40.2"/>
	<path class="st1" d="M12.8,56.3h37.6c2.2,0,4-1.8,4-4c0-2.2-1.8-4-4-4H12.8c-2.2,0-4,1.8-4,4C8.7,54.5,10.6,56.3,12.8,56.3
		L12.8,56.3z M12.8,50.4h37.6c1,0,1.8,0.8,1.8,1.8c0,1-0.8,1.8-1.8,1.8H12.8c-1,0-1.8-0.8-1.8-1.8C11,51.2,11.8,50.4,12.8,50.4
		L12.8,50.4z M12.8,50.4"/>
	<path class="st1" d="M18.4,66.5h26.3c2.2,0,4-1.8,4-4c0-2.2-1.8-4-4-4H18.4c-2.2,0-4,1.8-4,4C14.3,64.7,16.2,66.5,18.4,66.5
		L18.4,66.5z M18.4,60.7h26.3c1,0,1.8,0.8,1.8,1.8s-0.8,1.8-1.8,1.8H18.4c-1,0-1.8-0.8-1.8-1.8S17.4,60.7,18.4,60.7L18.4,60.7z
		 M18.4,60.7"/>
	<path class="st1" d="M74.6,61.6h-4.2v-3.7c0-1-0.6-1.8-1.4-2.1l1.6-7.5c0.5-2.2-0.1-4.4-1.5-6.1c-1.4-1.6-3.3-2.5-5.4-2.5
		c-0.4,0-0.7,0-1,0.1v-34c0-2-1.7-3.7-3.7-3.7H5.6c-2,0-3.7,1.7-3.7,3.7v12c0,0.6,0.5,1.1,1.1,1.1c0.6,0,1.1-0.5,1.1-1.1v-12
		c0-0.8,0.7-1.5,1.5-1.5h53.3c0.8,0,1.5,0.7,1.5,1.5v34.7c-0.8,0.4-1.6,1-2.2,1.7c-0.8,1-1.4,2.2-1.6,3.5c-0.1,0.6,0.3,1.2,0.9,1.3
		c0.6,0.1,1.2-0.3,1.3-0.9c0.1-0.9,0.5-1.7,1.1-2.4c0.9-1.1,2.3-1.7,3.7-1.7c1.4,0,2.8,0.6,3.7,1.7c1,1.2,1.4,2.7,1,4.2l-1.7,7.8
		h-6.2l-1-4.8c-0.1-0.6-0.7-1-1.3-0.9c-0.6,0.1-1,0.7-0.9,1.3l1,4.5c-0.8,0.4-1.4,1.2-1.4,2.1v3.7h-4.2c-1.9,0-3.5,1.6-3.5,3.5V68
		c0,1.9,1.6,3.5,3.5,3.5h0.1l0.7,3c0.1,0.5,0.3,1,0.6,1.5H5.6c-0.8,0-1.5-0.7-1.5-1.5V22.8c0-0.6-0.5-1.1-1.1-1.1
		c-0.6,0-1.1,0.5-1.1,1.1v51.7c0,2,1.7,3.7,3.7,3.7l63.7,0c2.2,0,4.1-1.5,4.6-3.7l0.7-3h0.1c1.9,0,3.5-1.6,3.5-3.5v-2.8
		C78.1,63.2,76.5,61.6,74.6,61.6L74.6,61.6z M59.2,57.9C59.2,57.8,59.2,57.8,59.2,57.9l8.9-0.1c0.1,0,0.1,0,0.1,0.1v3.7h-9V57.9z
		 M71.7,74c-0.3,1.2-1.3,2-2.4,2H58.1c-1.2,0-2.2-0.8-2.4-2L55,71.5h17.2L71.7,74z M75.9,68c0,0.7-0.6,1.3-1.3,1.3H52.7
		c-0.7,0-1.3-0.6-1.3-1.3v-2.8c0-0.7,0.6-1.3,1.3-1.3h21.9c0.7,0,1.3,0.6,1.3,1.3V68z M75.9,68"/>
</g>
</svg>
