<?xml version="1.0" encoding="utf-8"?>
<!-- Generator: Adobe Illustrator 22.0.1, SVG Export Plug-In . SVG Version: 6.00 Build 0)  -->
<svg version="1.1" id="Layer_1" xmlns="http://www.w3.org/2000/svg" xmlns:xlink="http://www.w3.org/1999/xlink" x="0px" y="0px"
	 viewBox="0 0 200 200" style="enable-background:new 0 0 200 200;" xml:space="preserve">
<style type="text/css">
	.st0{fill:#135FA7;}
	.st1{fill:#8F7049;}
	.st2{fill:#004289;}
	.st3{fill:#56BFEF;}
	.st4{fill:#1D4A7D;}
	.st5{fill:url(#SVGID_1_);}
	.st6{fill:#008BD2;}
	.st7{fill:#416DB1;}
	.st8{fill:none;stroke:#135FA7;stroke-width:3.0855;stroke-miterlimit:10;}
</style>
<g>
	<path class="st0" d="M82.3,70.3c0-4.7-3.9-8.6-8.6-8.6c-4.7,0-8.6,3.9-8.6,8.6c0,4.7,3.9,8.6,8.6,8.6
		C78.5,78.9,82.3,75.1,82.3,70.3L82.3,70.3z M67.8,70.3c0-3.3,2.7-5.9,5.9-5.9c3.3,0,5.9,2.7,5.9,5.9c0,3.3-2.7,5.9-5.9,5.9
		C70.5,76.3,67.8,73.6,67.8,70.3L67.8,70.3z M67.8,70.3"/>
	<path class="st0" d="M104,65.8c0.7,0,1.3-0.6,1.3-1.3s-0.6-1.3-1.3-1.3h-3.5c-0.7,0-1.3,0.6-1.3,1.3s0.6,1.3,1.3,1.3H104z
		 M104,65.8"/>
	<path class="st0" d="M93.5,65.8h17.6c0.7,0,1.3-0.6,1.3-1.3s-0.6-1.3-1.3-1.3H93.5c-0.7,0-1.3,0.6-1.3,1.3S92.7,65.8,93.5,65.8
		L93.5,65.8z M93.5,65.8"/>
	<path class="st0" d="M100,77.5h4.6c0.7,0,1.3-0.6,1.3-1.3c0-0.7-0.6-1.3-1.3-1.3H100c-0.7,0-1.3,0.6-1.3,1.3
		C98.7,76.9,99.3,77.5,100,77.5L100,77.5z M100,77.5"/>
	<path class="st0" d="M100.8,74.9c-0.7,0-1.3,0.6-1.3,1.3c0,0.7,0.6,1.3,1.3,1.3h2.9c0.7,0,1.3-0.6,1.3-1.3c0-0.7-0.6-1.3-1.3-1.3
		H100.8z M100.8,74.9"/>
	<path class="st0" d="M87.4,71.7h29.7c0.7,0,1.3-0.6,1.3-1.3c0-0.7-0.6-1.3-1.3-1.3H87.4c-0.7,0-1.3,0.6-1.3,1.3
		C86.1,71.1,86.7,71.7,87.4,71.7L87.4,71.7z M87.4,71.7"/>
	<path class="st0" d="M70,93.7h44.7c2.7,0,4.8-2.2,4.8-4.8c0-2.7-2.2-4.8-4.8-4.8H70c-2.7,0-4.8,2.2-4.8,4.8
		C65.1,91.5,67.3,93.7,70,93.7L70,93.7z M70,86.7h44.7c1.2,0,2.2,1,2.2,2.2c0,1.2-1,2.2-2.2,2.2H70c-1.2,0-2.2-1-2.2-2.2
		C67.8,87.7,68.8,86.7,70,86.7L70,86.7z M70,86.7"/>
	<path class="st0" d="M70,105.8h44.7c2.7,0,4.8-2.2,4.8-4.8c0-2.7-2.2-4.8-4.8-4.8H70c-2.7,0-4.8,2.2-4.8,4.8
		C65.1,103.7,67.3,105.8,70,105.8L70,105.8z M70,98.9h44.7c1.2,0,2.2,1,2.2,2.2c0,1.2-1,2.2-2.2,2.2H70c-1.2,0-2.2-1-2.2-2.2
		C67.8,99.8,68.8,98.9,70,98.9L70,98.9z M70,98.9"/>
	<path class="st0" d="M70,118h44.7c2.7,0,4.8-2.2,4.8-4.8s-2.2-4.8-4.8-4.8H70c-2.7,0-4.8,2.2-4.8,4.8S67.3,118,70,118L70,118z
		 M70,111.1h44.7c1.2,0,2.2,1,2.2,2.2c0,1.2-1,2.2-2.2,2.2H70c-1.2,0-2.2-1-2.2-2.2C67.8,112,68.8,111.1,70,111.1L70,111.1z
		 M70,111.1"/>
	<path class="st0" d="M76.6,130.2H108c2.7,0,4.8-2.2,4.8-4.8c0-2.7-2.2-4.8-4.8-4.8H76.6c-2.7,0-4.8,2.2-4.8,4.8
		C71.8,128,74,130.2,76.6,130.2L76.6,130.2z M76.6,123.2H108c1.2,0,2.2,1,2.2,2.2s-1,2.2-2.2,2.2H76.6c-1.2,0-2.2-1-2.2-2.2
		S75.4,123.2,76.6,123.2L76.6,123.2z M76.6,123.2"/>
	<path class="st0" d="M143.5,124.4h-5v-4.4c0-1.1-0.7-2.1-1.7-2.5l1.9-8.9c0.6-2.6-0.1-5.3-1.8-7.3c-1.6-1.9-4-3-6.5-3
		c-0.4,0-0.8,0-1.2,0.1V57.8c0-2.4-2-4.4-4.4-4.4H61.4c-2.4,0-4.4,2-4.4,4.4V72c0,0.7,0.6,1.3,1.3,1.3c0.7,0,1.3-0.6,1.3-1.3V57.8
		c0-1,0.8-1.8,1.8-1.8h63.5c1,0,1.8,0.8,1.8,1.8v41.3c-1,0.5-1.9,1.2-2.6,2.1c-1,1.2-1.7,2.6-1.9,4.2c-0.1,0.7,0.4,1.4,1.1,1.5
		c0.7,0.1,1.4-0.4,1.5-1.1c0.2-1.1,0.6-2,1.3-2.9c1.1-1.3,2.7-2.1,4.4-2.1c1.7,0,3.3,0.8,4.4,2.1c1.2,1.4,1.6,3.2,1.2,5l-2,9.2h-7.4
		l-1.2-5.7c-0.2-0.7-0.9-1.2-1.6-1c-0.7,0.2-1.2,0.9-1,1.6l1.2,5.4c-1,0.4-1.7,1.4-1.7,2.5v4.4h-5c-2.3,0-4.2,1.9-4.2,4.2v3.4
		c0,2.3,1.9,4.2,4.2,4.2h0.1l0.8,3.6c0.1,0.6,0.4,1.2,0.7,1.8H61.4c-1,0-1.8-0.8-1.8-1.8V78.1c0-0.7-0.6-1.3-1.3-1.3
		c-0.7,0-1.3,0.6-1.3,1.3v61.5c0,2.4,2,4.4,4.4,4.4l75.8,0c2.7,0,4.9-1.8,5.5-4.4l0.8-3.6h0.1c2.3,0,4.2-1.9,4.2-4.2v-3.4
		C147.6,126.2,145.8,124.4,143.5,124.4L143.5,124.4z M125.1,119.9c0-0.1,0.1-0.1,0.1-0.1h10.5c0.1,0,0.1,0.1,0.1,0.1v4.4h-10.7
		V119.9z M140,139.1c-0.3,1.4-1.5,2.3-2.9,2.3h-13.3c-1.4,0-2.6-1-2.9-2.3l-0.7-3h20.5L140,139.1z M145,131.9c0,0.8-0.7,1.5-1.5,1.5
		h-26c-0.8,0-1.5-0.7-1.5-1.5v-3.4c0-0.8,0.7-1.5,1.5-1.5h26c0.8,0,1.5,0.7,1.5,1.5V131.9z M145,131.9"/>
</g>
</svg>
