<?xml version="1.0" encoding="utf-8"?>
<!-- Generator: Adobe Illustrator 22.0.1, SVG Export Plug-In . SVG Version: 6.00 Build 0)  -->
<svg version="1.1" id="Layer_1" xmlns="http://www.w3.org/2000/svg" xmlns:xlink="http://www.w3.org/1999/xlink" x="0px" y="0px"
	 viewBox="0 0 80 80" style="enable-background:new 0 0 80 80;" xml:space="preserve">
<style type="text/css">
	.st0{fill:#B5916F;}
	.st1{fill:#135FA7;}
	.st2{fill:#018BD2;}
	.st3{fill:none;}
	.st4{fill:#008BD2;}
	.st5{fill:#FFFFFF;}
	.st6{fill:#08A9E1;}
	.st7{fill:#F6F9F9;}
	.st8{fill:url(#SVGID_1_);}
	.st9{fill:#FFFFFF;stroke:#BABCBE;stroke-width:0.2278;stroke-miterlimit:10;}
	.st10{fill:#FFFFFF;stroke:#F2F2F2;stroke-width:0.2307;stroke-miterlimit:10;}
</style>
<g>
	<path class="st1" d="M44.3,36.5h-8.8c-0.7,0-1.3,0.6-1.3,1.3v12.6c0,0.7,0.6,1.3,1.3,1.3h8.8c0.7,0,1.3-0.6,1.3-1.3V37.7
		C45.6,37,45,36.5,44.3,36.5L44.3,36.5z M43.1,49.1h-6.3V39h6.3V49.1z M43.1,49.1"/>
	<path class="st1" d="M61,36.5h-8.8c-0.7,0-1.3,0.6-1.3,1.3v12.6c0,0.7,0.6,1.3,1.3,1.3H61c0.7,0,1.3-0.6,1.3-1.3V37.7
		C62.2,37,61.7,36.5,61,36.5L61,36.5z M59.7,49.1h-6.3V39h6.3V49.1z M59.7,49.1"/>
	<path class="st1" d="M44.3,56.7h-8.8c-0.7,0-1.3,0.6-1.3,1.3v12.6c0,0.7,0.6,1.3,1.3,1.3h8.8c0.7,0,1.3-0.6,1.3-1.3V58
		C45.6,57.3,45,56.7,44.3,56.7L44.3,56.7z M43.1,69.3h-6.3V59.2h6.3V69.3z M43.1,69.3"/>
	<path class="st1" d="M27.7,36.5h-8.8c-0.7,0-1.3,0.6-1.3,1.3v12.6c0,0.7,0.6,1.3,1.3,1.3h8.8c0.7,0,1.3-0.6,1.3-1.3V37.7
		C28.9,37,28.4,36.5,27.7,36.5L27.7,36.5z M26.4,49.1h-6.3V39h6.3V49.1z M26.4,49.1"/>
	<path class="st1" d="M61,56.7h-8.8c-0.7,0-1.3,0.6-1.3,1.3v12.6c0,0.7,0.6,1.3,1.3,1.3H61c0.7,0,1.3-0.6,1.3-1.3V58
		C62.2,57.3,61.7,56.7,61,56.7L61,56.7z M59.7,69.3h-6.3V59.2h6.3V69.3z M59.7,69.3"/>
	<path class="st1" d="M27.7,56.7h-8.8c-0.7,0-1.3,0.6-1.3,1.3v12.6c0,0.7,0.6,1.3,1.3,1.3h8.8c0.7,0,1.3-0.6,1.3-1.3V58
		C28.9,57.3,28.4,56.7,27.7,56.7L27.7,56.7z M26.4,69.3h-6.3V59.2h6.3V69.3z M26.4,69.3"/>
	<path class="st1" d="M72.8,75.6v-43H74c0.7,0,1.3-0.6,1.3-1.3v-6.3c0-0.7-0.6-1.3-1.3-1.3h-1.3v-5.1c0-0.7-0.6-1.3-1.3-1.3H69V3.6
		c0-0.7-0.6-1.3-1.3-1.3H12.1c-0.7,0-1.3,0.6-1.3,1.3v13.9H8.3c-0.7,0-1.3,0.6-1.3,1.3v5.1H5.8c-0.7,0-1.3,0.6-1.3,1.3v6.3
		c0,0.7,0.6,1.3,1.3,1.3h1.3v43H2v2.5h75.8v-2.5L72.8,75.6L72.8,75.6z M13.4,4.9h53.1v12.6H13.4V4.9z M9.6,20.1h60.6v3.8H9.6V20.1z
		 M70.2,75.6H9.6v-43h60.6V75.6z M8.3,30.2H7.1v-3.8h65.7v3.8H8.3z M8.3,30.2"/>
	<path class="st1" d="M36.3,9.2c-0.2-0.5-0.5-1-0.8-1.3c-0.4-0.4-0.8-0.7-1.3-0.9c-0.5-0.2-1.1-0.3-1.7-0.3c-0.6,0-1.2,0.1-1.7,0.3
		c-0.5,0.2-1,0.5-1.3,0.9c-0.4,0.4-0.6,0.8-0.8,1.3c-0.2,0.5-0.3,1.1-0.3,1.7c0,0.6,0.1,1.2,0.3,1.7c0.2,0.5,0.5,1,0.8,1.3
		c0.4,0.4,0.8,0.7,1.3,0.9c0.5,0.2,1.1,0.3,1.7,0.3c0.6,0,1.2-0.1,1.7-0.3c0.5-0.2,1-0.5,1.3-0.9c0.4-0.4,0.6-0.8,0.8-1.3
		c0.2-0.5,0.3-1.1,0.3-1.7C36.6,10.3,36.5,9.7,36.3,9.2L36.3,9.2z M34.8,12.1c-0.1,0.4-0.3,0.7-0.5,0.9c-0.2,0.2-0.5,0.4-0.8,0.6
		c-0.3,0.1-0.7,0.2-1.1,0.2c-0.4,0-0.8-0.1-1.1-0.2c-0.3-0.1-0.6-0.3-0.8-0.6c-0.2-0.2-0.4-0.6-0.5-0.9c-0.1-0.4-0.2-0.8-0.2-1.2
		c0-0.5,0.1-0.9,0.2-1.2c0.1-0.4,0.3-0.7,0.5-0.9c0.2-0.2,0.5-0.4,0.8-0.6C31.7,8.1,32,8,32.4,8c0.4,0,0.8,0.1,1.1,0.2
		c0.3,0.1,0.6,0.3,0.8,0.6c0.2,0.2,0.4,0.6,0.5,0.9C35,10,35,10.4,35,10.9C35,11.3,35,11.7,34.8,12.1L34.8,12.1z M34.8,12.1"/>
	<path class="st1" d="M25.2,6.8v3.5h-3.9V6.8h-1.5V15h1.5v-3.6h3.9V15h1.5V6.8H25.2z M25.2,6.8"/>
	<path class="st1" d="M55.7,13.7v-7h-1.5V15H59v-1.3H55.7z M55.7,13.7"/>
	<path class="st1" d="M37.5,6.8V8H40v7h1.5V8H44V6.8H37.5z M37.5,6.8"/>
	<path class="st1" d="M51.7,8V6.8h-5.2V15h5.2v-1.2H48v-2.3h2.9v-1.2H48V8H51.7z M51.7,8"/>
</g>
</svg>
