<?xml version="1.0" encoding="utf-8"?>
<!-- Generator: Adobe Illustrator 22.0.1, SVG Export Plug-In . SVG Version: 6.00 Build 0)  -->
<svg version="1.1" id="Layer_1" xmlns="http://www.w3.org/2000/svg" xmlns:xlink="http://www.w3.org/1999/xlink" x="0px" y="0px"
	 viewBox="0 0 80 80" style="enable-background:new 0 0 80 80;" xml:space="preserve">
<style type="text/css">
	.st0{fill:#B5916F;}
	.st1{fill:#135FA7;}
	.st2{fill:#018BD2;}
	.st3{fill:none;}
	.st4{fill:#008BD2;}
	.st5{fill:#FFFFFF;}
	.st6{fill:#08A9E1;}
	.st7{fill:#F6F9F9;}
	.st8{fill:url(#SVGID_1_);}
	.st9{fill:#FFFFFF;stroke:#BABCBE;stroke-width:0.2278;stroke-miterlimit:10;}
	.st10{fill:#FFFFFF;stroke:#F2F2F2;stroke-width:0.2307;stroke-miterlimit:10;}
</style>
<path class="st1" d="M73.7,49.8c-3.2-5.6-10.4-7.5-16-4.3l-5.9,3.4V36.2c0-1.6-0.5-3.1-1.5-4.4L42.9,22v-4.2
	c1.7-0.6,2.9-2.2,2.9-4.1V7c0-2.4-2-4.4-4.4-4.4H15.1c-2.4,0-4.4,2-4.4,4.4v6.7c0,1.9,1.2,3.5,2.9,4.1V22l-7.3,9.8
	c-0.9,1.3-1.5,2.8-1.5,4.4v28.4c0,4,3.3,7.3,7.3,7.3h23.5c3.3,5.5,10.4,7.3,15.9,4.1l17.8-10.3C74.9,62.6,76.9,55.4,73.7,49.8
	L73.7,49.8z M13.6,7c0-0.8,0.7-1.5,1.5-1.5h26.4c0.8,0,1.5,0.7,1.5,1.5v6.7c0,0.8-0.7,1.5-1.5,1.5H15.1c-0.8,0-1.5-0.7-1.5-1.5V7z
	 M8.6,33.6l7.6-10.2c0.2-0.3,0.3-0.6,0.3-0.9v-4.4H40v2.9H26.8c-0.8,0-1.5,0.7-1.5,1.5c0,0.8,0.7,1.5,1.5,1.5h13.9l7.2,9.6
	c0.5,0.6,0.8,1.4,0.8,2.1h-41C7.9,34.9,8.2,34.2,8.6,33.6L8.6,33.6z M12.2,69c-2.4,0-4.4-2-4.4-4.4v-1.5h26.6
	C33.9,65,33.9,67,34.5,69H12.2z M35.5,60.2H7.8V38.6h41v12l-8.9,5.1C38,56.8,36.6,58.3,35.5,60.2L35.5,60.2z M50.2,73.5
	c-4.2,2.4-9.6,1-12-3.2c-2.4-4.2-1-9.6,3.2-12l8-4.6l8.8,15.2L50.2,73.5z M67.9,63.2l-7.3,4.2l-8.8-15.2l7.3-4.2
	c4.2-2.4,9.6-1,12,3.2C73.6,55.5,72.1,60.8,67.9,63.2L67.9,63.2z M67.9,63.2"/>
</svg>
