<?xml version="1.0" encoding="utf-8"?>
<!-- Generator: Adobe Illustrator 22.0.1, SVG Export Plug-In . SVG Version: 6.00 Build 0)  -->
<svg version="1.1" id="Layer_1" xmlns="http://www.w3.org/2000/svg" xmlns:xlink="http://www.w3.org/1999/xlink" x="0px" y="0px"
	 viewBox="0 0 200 200" style="enable-background:new 0 0 200 200;" xml:space="preserve">
<style type="text/css">
	.st0{fill:#135FA7;}
	.st1{fill:#8F7049;}
	.st2{fill:#004289;}
	.st3{fill:#56BFEF;}
	.st4{fill:#1D4A7D;}
	.st5{fill:url(#SVGID_1_);}
	.st6{fill:#008BD2;}
	.st7{fill:#416DB1;}
	.st8{fill:none;stroke:#135FA7;stroke-width:3.0855;stroke-miterlimit:10;}
</style>
<g>
	<path class="st0" d="M57.2,103.2h83c2.2,0,4-1.8,4-4c0-2.2-1.8-4-4-4h-10.5l1.5-27.2c0-0.8-0.6-1.4-1.3-1.4h-4c0,0,0-0.1,0-0.1
		c0-1.8-1.6-3.3-3.8-3.8c0.6-0.9,0.9-2,0.9-2.9c0-1-0.3-1.8-1-2.4c-1.3-1.3-3.5-1.2-5.4,0c-0.5-2.2-2-3.8-3.8-3.8
		c-1.8,0-3.3,1.6-3.8,3.8c-1.9-1.2-4.1-1.3-5.4,0c-0.6,0.6-1,1.5-1,2.4c0,1,0.3,2,0.9,2.9c-2.2,0.5-3.8,2-3.8,3.8c0,0,0,0.1,0,0.1
		h-2.1c0,0,0-0.1,0-0.1c0-1.8-1.6-3.3-3.8-3.8c0.6-0.9,0.9-2,0.9-2.9c0-1-0.3-1.8-1-2.4c-1.3-1.3-3.5-1.2-5.4,0
		c-0.5-2.2-2-3.8-3.8-3.8c-1.8,0-3.3,1.6-3.8,3.8c-1.9-1.2-4.1-1.3-5.4,0c-0.6,0.6-1,1.5-1,2.4c0,1,0.3,2,0.9,2.9
		c-2.2,0.5-3.8,2-3.8,3.8c0,0,0,0.1,0,0.1h-4c-0.8,0-1.4,0.6-1.3,1.4l0.5,8.4c0,0.7,0.7,1.3,1.4,1.3c0.7,0,1.3-0.7,1.3-1.4l-0.4-7
		c17.6,0,41.8,0,59.5,0L127,95.2H70.3L69.6,82c0-0.7-0.7-1.3-1.4-1.3c-0.7,0-1.3,0.7-1.3,1.4l0.7,13.1H57.2c-2.2,0-4,1.8-4,4
		C53.2,101.4,55,103.2,57.2,103.2L57.2,103.2z M123.2,66.5C123.2,66.6,123.2,66.6,123.2,66.5l-5.5,0.1c0,0,0-0.1,0-0.1
		c0-0.5,1.1-1.3,2.8-1.3C122.1,65.2,123.2,66,123.2,66.5L123.2,66.5z M110.4,65.6c0.3-0.1,0.6-0.3,0.8-0.6c0.2-0.2,0.4-0.5,0.6-0.8
		c0.3,0.1,0.6,0.2,1,0.2c0.3,0,0.7-0.1,1-0.2c0.2,0.3,0.3,0.6,0.6,0.8c0.2,0.2,0.5,0.4,0.8,0.6c-0.1,0.3-0.2,0.6-0.2,1
		c0,0,0,0.1,0,0.1h-4.4c0,0,0-0.1,0-0.1C110.6,66.2,110.5,65.9,110.4,65.6L110.4,65.6z M119.6,59.1c0.2,0,0.4,0.1,0.6,0.2
		c0.1,0.1,0.2,0.4,0.2,0.5c0,0.6-0.3,1.5-1.2,2.3c-1.2,1.2-2.5,1.4-2.9,1c-0.1-0.1-0.2-0.4-0.2-0.5c0-0.6,0.3-1.5,1.2-2.3
		C118.1,59.4,119,59.1,119.6,59.1L119.6,59.1z M112.8,56.2c0.5,0,1.3,1.1,1.3,2.7c0,1.6-0.8,2.7-1.3,2.7c-0.5,0-1.3-1.1-1.3-2.7
		C111.5,57.3,112.3,56.2,112.8,56.2L112.8,56.2z M105.5,59.2c0.1-0.1,0.3-0.2,0.6-0.2c0.6,0,1.5,0.3,2.3,1.2
		c0.9,0.9,1.2,1.8,1.2,2.3c0,0.2,0,0.4-0.2,0.5c-0.4,0.4-1.7,0.2-2.9-1c-0.9-0.9-1.2-1.8-1.2-2.3C105.3,59.6,105.3,59.4,105.5,59.2
		L105.5,59.2z M102.4,66.5c0-0.5,1.1-1.3,2.8-1.3c1.7,0,2.8,0.8,2.8,1.3c0,0,0,0.1,0,0.1L102.4,66.5
		C102.4,66.6,102.4,66.6,102.4,66.5L102.4,66.5z M95,66.5C95,66.6,95,66.6,95,66.5l-5.5,0.1c0,0,0-0.1,0-0.1c0-0.5,1.1-1.3,2.8-1.3
		C93.9,65.2,95,66,95,66.5L95,66.5z M82.2,65.6c0.3-0.1,0.6-0.3,0.8-0.6c0.2-0.2,0.4-0.5,0.6-0.8c0.3,0.1,0.6,0.2,1,0.2
		c0.3,0,0.7-0.1,1-0.2c0.2,0.3,0.3,0.6,0.6,0.8c0.2,0.2,0.5,0.4,0.8,0.6c-0.1,0.3-0.2,0.6-0.2,1c0,0,0,0.1,0,0.1h-4.4
		c0,0,0-0.1,0-0.1C82.3,66.2,82.3,65.9,82.2,65.6L82.2,65.6z M91.4,59.1c0.2,0,0.4,0.1,0.6,0.2c0.1,0.1,0.2,0.4,0.2,0.5
		c0,0.6-0.3,1.5-1.2,2.3c-1.2,1.2-2.5,1.4-2.9,1c-0.1-0.1-0.2-0.4-0.2-0.5c0-0.6,0.3-1.5,1.2-2.3C89.8,59.4,90.8,59.1,91.4,59.1
		L91.4,59.1z M84.6,56.2c0.5,0,1.3,1.1,1.3,2.7c0,1.6-0.8,2.7-1.3,2.7c-0.5,0-1.3-1.1-1.3-2.7C83.2,57.3,84,56.2,84.6,56.2
		L84.6,56.2z M77.2,59.2c0.1-0.1,0.3-0.2,0.6-0.2c0.6,0,1.5,0.3,2.3,1.2c0.9,0.9,1.2,1.8,1.2,2.3c0,0.2,0,0.4-0.2,0.5
		c-0.4,0.4-1.7,0.2-2.9-1c-0.9-0.9-1.2-1.8-1.2-2.3C77,59.6,77.1,59.4,77.2,59.2L77.2,59.2z M74.2,66.5c0-0.5,1.1-1.3,2.8-1.3
		s2.8,0.8,2.8,1.3c0,0,0,0.1,0,0.1L74.2,66.5C74.2,66.6,74.2,66.6,74.2,66.5L74.2,66.5z M57.2,97.9h83c0.7,0,1.3,0.6,1.3,1.3
		c0,0.7-0.6,1.3-1.3,1.3h-83c-0.7,0-1.3-0.6-1.3-1.3C55.9,98.5,56.5,97.9,57.2,97.9L57.2,97.9z M57.2,97.9"/>
	<path class="st0" d="M117.1,73.3c0-0.7-0.6-1.3-1.3-1.3H73.2c-0.4,0-0.7,0.2-1,0.4c-0.3,0.3-0.4,0.6-0.4,1l1,17.9
		c0,0.7,0.6,1.3,1.3,1.3h49.1c0.7,0,1.3-0.6,1.3-1.3l1-17.9c0-0.8-0.6-1.4-1.3-1.4h-2.8c-0.7,0-1.3,0.6-1.3,1.3
		c0,0.7,0.6,1.3,1.3,1.3h1.4L122,89.9H75.4l-0.8-15.3h41.2C116.5,74.6,117.1,74,117.1,73.3L117.1,73.3z M117.1,73.3"/>
	<path class="st0" d="M112.7,77.6c-1.7,0-3.2,1.1-3.8,2.7H88.5c-0.6-1.6-2-2.7-3.8-2.7c-2.2,0-4,1.8-4,4c0,2.2,1.8,4,4,4
		c1.7,0,3.2-1.1,3.8-2.7h20.4c0.6,1.6,2,2.7,3.8,2.7c2.2,0,4-1.8,4-4C116.7,79.4,114.9,77.6,112.7,77.6L112.7,77.6z M84.7,83
		c-0.7,0-1.3-0.6-1.3-1.3c0-0.7,0.6-1.3,1.3-1.3c0.7,0,1.3,0.6,1.3,1.3C86.1,82.4,85.5,83,84.7,83L84.7,83z M112.7,83
		c-0.7,0-1.3-0.6-1.3-1.3c0-0.7,0.6-1.3,1.3-1.3c0.7,0,1.3,0.6,1.3,1.3C114,82.4,113.4,83,112.7,83L112.7,83z M112.7,83"/>
	<path class="st0" d="M75.9,117h-2.7c0.8-1.1,1.3-2.5,1.3-4c0-3.7-3-6.7-6.7-6.7c-3.7,0-6.7,3-6.7,6.7c0,1.5,0.5,2.9,1.3,4h-2.7
		c-3.7,0-6.7,3-6.7,6.7v19.5c0,0.7,0.6,1.3,1.3,1.3h5.2c0,0,0.1,0,0.1,0h16c0,0,0.1,0,0.1,0h5.2c0.7,0,1.3-0.6,1.3-1.3v-19.5
		C82.5,120,79.5,117,75.9,117L75.9,117z M63.9,113c0-2.2,1.8-4,4-4c2.2,0,4,1.8,4,4c0,2.2-1.8,4-3.9,4h-0.1
		C65.6,117,63.9,115.2,63.9,113L63.9,113z M58.5,141.9h-2.7v-18.2c0-1.7,1.1-3.2,2.7-3.8v5.1c0,0,0,0,0,0V141.9z M61.2,119.7h13.3
		v5.4c0,0,0,0,0,0v16.8H61.2V119.7z M79.9,141.9h-2.7v-22c1.6,0.5,2.7,2,2.7,3.8V141.9z M79.9,141.9"/>
	<path class="st0" d="M137.5,117h-2.7c0.8-1.1,1.3-2.5,1.3-4c0-3.7-3-6.7-6.7-6.7c-3.7,0-6.7,3-6.7,6.7c0,1.5,0.5,2.9,1.3,4h-2.7
		c-3.7,0-6.7,3-6.7,6.7v19.5c0,0.7,0.6,1.3,1.3,1.3h5.2c0,0,0.1,0,0.1,0h16c0,0,0.1,0,0.1,0h5.2c0.7,0,1.3-0.6,1.3-1.3v-19.5
		C144.2,120,141.2,117,137.5,117L137.5,117z M125.5,113c0-2.2,1.8-4,4-4c2.2,0,4,1.8,4,4c0,2.2-1.8,4-3.9,4h-0.1
		C127.3,117,125.5,115.2,125.5,113L125.5,113z M120.2,141.9h-2.7v-18.2c0-1.7,1.1-3.2,2.7-3.8v5.1c0,0,0,0,0,0V141.9z M122.9,119.7
		h13.3v5.4c0,0,0,0,0,0v16.8h-13.3V119.7z M141.5,141.9h-2.7v-22c1.6,0.5,2.7,2,2.7,3.8V141.9z M141.5,141.9"/>
	<path class="st0" d="M106.7,117H104c0.8-1.1,1.3-2.5,1.3-4c0-3.7-3-6.7-6.7-6.7c-3.7,0-6.7,3-6.7,6.7c0,1.5,0.5,2.9,1.3,4h-2.7
		c-3.7,0-6.7,3-6.7,6.7v19.5c0,0.7,0.6,1.3,1.3,1.3h5.2c0,0,0.1,0,0.1,0h8c0.7,0,1.3-0.6,1.3-1.3c0-0.7-0.6-1.3-1.3-1.3H92v-22.2
		h13.3v5.4c0,0,0,0,0,0v16.8h-1c-0.7,0-1.3,0.6-1.3,1.3c0,0.7,0.6,1.3,1.3,1.3h2.3c0,0,0.1,0,0.1,0h5.2c0.7,0,1.3-0.6,1.3-1.3v-19.5
		C113.4,120,110.4,117,106.7,117L106.7,117z M94.7,113c0-2.2,1.8-4,4-4c2.2,0,4,1.8,4,4c0,2.2-1.8,4-3.9,4h-0.1
		C96.4,117,94.7,115.2,94.7,113L94.7,113z M89.4,141.9h-2.7v-18.2c0-1.7,1.1-3.2,2.7-3.8v5.1c0,0,0,0,0,0V141.9z M110.7,141.9H108
		v-22c1.6,0.5,2.7,2,2.7,3.8V141.9z M110.7,141.9"/>
</g>
</svg>
