<?xml version="1.0" encoding="utf-8"?>
<!-- Generator: Adobe Illustrator 22.0.1, SVG Export Plug-In . SVG Version: 6.00 Build 0)  -->
<svg version="1.1" id="Layer_1" xmlns="http://www.w3.org/2000/svg" xmlns:xlink="http://www.w3.org/1999/xlink" x="0px" y="0px"
	 viewBox="0 0 80 80" style="enable-background:new 0 0 80 80;" xml:space="preserve">
<style type="text/css">
	.st0{fill:#B5916F;}
	.st1{fill:#135FA7;}
	.st2{fill:#018BD2;}
	.st3{fill:none;}
	.st4{fill:#008BD2;}
	.st5{fill:#FFFFFF;}
	.st6{fill:#08A9E1;}
	.st7{fill:#F6F9F9;}
	.st8{fill:url(#SVGID_1_);}
	.st9{fill:#FFFFFF;stroke:#BABCBE;stroke-width:0.2278;stroke-miterlimit:10;}
	.st10{fill:#FFFFFF;stroke:#F2F2F2;stroke-width:0.2307;stroke-miterlimit:10;}
</style>
<path class="st1" d="M62.7,4.7c-0.4-0.5-1.1-0.5-1.6-0.1c-0.5,0.4-0.5,1.1-0.1,1.6c3.4,3.7,4.2,9.9,3.4,14.4
	c-0.6,3.1-1.8,6.3-3.8,10c-0.4,0.7-0.8,1.4-1.2,2.1c-1.7,2.9-3.2,5.7-4.2,9.1h-24c-0.9-3.3-2.5-6.1-4.2-9.1
	c-0.4-0.7-0.8-1.4-1.2-2.1c-2-3.7-3.2-6.9-3.8-10c-1.1-6.2,0.8-14.2,6.7-16.7C31.1,3,34,3,36.9,4.1c0.1,0,0.2,0.1,0.4,0.1
	c3.9,1.3,8.2,1.3,12.1,0c0.1,0,0.2-0.1,0.4-0.1c2.6-1,5.4-1.1,7.5-0.4c0.6,0.2,1.2-0.1,1.4-0.7c0.2-0.6-0.1-1.2-0.7-1.4
	c-2.6-0.9-5.9-0.7-9,0.4c-0.1,0-0.2,0.1-0.3,0.1c-3.4,1.2-7.2,1.2-10.7,0c-0.1,0-0.2-0.1-0.3-0.1c-3.4-1.3-7-1.3-9.7-0.1
	c-3.3,1.4-5.8,4.3-7.2,8.3c-1.2,3.3-1.5,7.3-0.8,10.9c0.6,3.3,1.9,6.7,4,10.7c0.4,0.7,0.8,1.5,1.2,2.2c1.7,3.1,3.3,5.9,4.2,9.4v5
	c0,1.2,1,2.2,2.2,2.3l0.5,5.4c-1.7,0.6-2.8,2.4-2.5,4.2c0.3,1.6,1.6,2.8,3.2,3l0.2,1.9c-1.8,0.5-3,2.3-2.7,4.1c0.3,1.7,1.8,3,3.5,3
	c0.2,0,0.4,0,0.6-0.1l1.6-0.3l5.8,5.3c0.4,0.4,1,0.6,1.6,0.6c0.6,0,1.1-0.2,1.6-0.6l7.8-7.3c0.4-0.3,0.6-0.8,0.7-1.2
	c1.9-0.4,3.2-2.2,2.9-4.2c-0.2-1.3-1.1-2.3-2.3-2.7l0.2-2.3c0.9-0.2,1.6-0.7,2.1-1.5c0.6-0.8,0.8-1.8,0.6-2.8
	c-0.2-1-0.7-1.8-1.5-2.4c-0.2-0.1-0.4-0.3-0.6-0.3l0.2-1.9c1.2,0,2.2-1,2.2-2.3v-5c0.8-3.4,2.5-6.3,4.2-9.4c0.4-0.7,0.8-1.4,1.2-2.2
	c2.1-4,3.4-7.3,4-10.7C67.5,16.4,67,9.3,62.7,4.7L62.7,4.7z M51.9,61.5l-16.7,3L35,62.8l17-3.1L51.9,61.5z M43.5,75.4
	c0,0-0.1,0-0.1,0l-4.5-4.2l11.4-2.1L43.5,75.4z M53.1,66.3l-19,3.4c-0.7,0.1-1.4-0.4-1.6-1.1c-0.1-0.7,0.4-1.4,1.1-1.6l19-3.4
	c0.1,0,0.2,0,0.2,0c0.6,0,1.2,0.5,1.3,1.1C54.3,65.5,53.8,66.2,53.1,66.3L53.1,66.3z M54.6,56.6c-0.2,0.3-0.6,0.5-1,0.6l-20.1,3.6
	c-0.8,0.1-1.6-0.4-1.7-1.2c-0.1-0.8,0.4-1.6,1.2-1.7l5-0.9c0.6-0.1,1-0.7,0.9-1.3c-0.1-0.6-0.7-1-1.3-0.9l-3.3,0.6l-0.5-4.9h18.9
	l-0.1,1.6l-10,1.8c-0.6,0.1-1,0.7-0.9,1.3c0.1,0.6,0.7,1,1.3,0.9l10.1-1.8c0.4-0.1,0.8,0,1.1,0.2c0.3,0.2,0.5,0.6,0.6,1
	C54.9,55.9,54.8,56.3,54.6,56.6L54.6,56.6z M55,48.2C55,48.2,55,48.2,55,48.2l-23.4,0c0,0,0,0,0,0v-4.1H55V48.2z M55,48.2"/>
</svg>
