<?xml version="1.0" encoding="utf-8"?>
<!-- Generator: Adobe Illustrator 22.0.1, SVG Export Plug-In . SVG Version: 6.00 Build 0)  -->
<svg version="1.1" id="Layer_1" xmlns="http://www.w3.org/2000/svg" xmlns:xlink="http://www.w3.org/1999/xlink" x="0px" y="0px"
	 viewBox="0 0 200 200" style="enable-background:new 0 0 200 200;" xml:space="preserve">
<style type="text/css">
	.st0{fill:#135FA7;}
	.st1{fill:#8F7049;}
	.st2{fill:#004289;}
	.st3{fill:#56BFEF;}
	.st4{fill:#1D4A7D;}
	.st5{fill:url(#SVGID_1_);}
	.st6{fill:#008BD2;}
	.st7{fill:#416DB1;}
	.st8{fill:none;stroke:#135FA7;stroke-width:3.0855;stroke-miterlimit:10;}
</style>
<path class="st0" d="M121.4,58.2c-0.5-0.5-1.3-0.6-1.9-0.1c-0.5,0.5-0.6,1.3-0.1,1.9c4.1,4.4,4.9,11.7,4,16.9
	c-0.6,3.6-2.1,7.4-4.5,11.8c-0.5,0.8-0.9,1.7-1.4,2.5c-1.9,3.5-3.8,6.7-4.9,10.7H84.5c-1.1-3.9-3-7.2-4.9-10.7
	c-0.5-0.8-0.9-1.7-1.4-2.5c-2.4-4.4-3.8-8.1-4.5-11.8c-1.3-7.3,1-16.7,7.8-19.6c2.6-1.1,6-1,9.5,0.2c0.1,0.1,0.3,0.1,0.4,0.1
	c4.6,1.6,9.7,1.6,14.3,0c0.1,0,0.3-0.1,0.4-0.1c3.1-1.1,6.3-1.3,8.8-0.5c0.7,0.2,1.4-0.1,1.7-0.8c0.2-0.7-0.1-1.4-0.8-1.7
	c-3-1-6.9-0.8-10.5,0.5c-0.1,0-0.2,0.1-0.4,0.1c-4,1.4-8.5,1.4-12.5,0c-0.1,0-0.2-0.1-0.4-0.1c-4.1-1.5-8.2-1.6-11.4-0.2
	c-3.9,1.7-6.8,5-8.4,9.7c-1.4,3.9-1.7,8.6-1,12.8c0.7,3.9,2.2,7.9,4.7,12.5c0.5,0.9,0.9,1.7,1.4,2.5c2,3.6,3.9,7,4.9,11v5.9
	c0,1.5,1.2,2.6,2.6,2.6l0.6,6.3c-2,0.7-3.3,2.8-3,5c0.3,1.9,1.9,3.3,3.7,3.6l0.2,2.2c-2.1,0.5-3.5,2.7-3.1,4.9
	c0.4,2,2.2,3.5,4.2,3.5c0.2,0,0.5,0,0.8-0.1l1.9-0.3l6.8,6.3c0.5,0.5,1.2,0.7,1.8,0.7c0.7,0,1.3-0.2,1.8-0.7l9.2-8.5
	c0.4-0.4,0.7-0.9,0.8-1.5c2.3-0.4,3.8-2.6,3.4-4.9c-0.3-1.5-1.3-2.7-2.7-3.2l0.2-2.7c1-0.3,1.9-0.9,2.5-1.8c0.7-1,0.9-2.1,0.7-3.3
	c-0.2-1.2-0.9-2.2-1.8-2.8c-0.2-0.2-0.5-0.3-0.7-0.4l0.2-2.2c1.4,0,2.6-1.2,2.6-2.6v-5.9c1-4,2.9-7.4,4.9-11
	c0.5-0.8,0.9-1.7,1.4-2.5c2.5-4.7,4-8.6,4.7-12.5C127,71.9,126.4,63.6,121.4,58.2L121.4,58.2z M108.6,125L89,128.5l-0.2-2l20-3.6
	L108.6,125z M98.7,141.3c0,0-0.1,0-0.1,0l-5.3-4.9l13.4-2.4L98.7,141.3z M110.1,130.6l-22.4,4c-0.9,0.2-1.7-0.4-1.8-1.3
	c-0.2-0.9,0.4-1.7,1.3-1.8l22.4-4c0.1,0,0.2,0,0.3,0c0.8,0,1.4,0.5,1.6,1.3C111.5,129.6,110.9,130.5,110.1,130.6L110.1,130.6z
	 M111.8,119.2c-0.3,0.4-0.7,0.6-1.1,0.7l-23.6,4.3c-1,0.2-1.9-0.5-2-1.4c-0.2-1,0.5-1.9,1.4-2l5.9-1.1c0.7-0.1,1.2-0.8,1.1-1.5
	c-0.1-0.7-0.8-1.2-1.5-1.1l-3.9,0.7l-0.5-5.8h22.3l-0.2,1.9L97.8,116c-0.7,0.1-1.2,0.8-1.1,1.5c0.1,0.7,0.8,1.2,1.5,1.1l11.8-2.1
	c0.5-0.1,0.9,0,1.3,0.3c0.4,0.3,0.6,0.7,0.7,1.1C112.2,118.3,112.1,118.8,111.8,119.2L111.8,119.2z M112.4,109.3
	C112.4,109.3,112.3,109.3,112.4,109.3l-27.5,0c0,0,0,0,0,0v-4.8h27.5V109.3z M112.4,109.3"/>
</svg>
