<?xml version="1.0" encoding="utf-8"?>
<!-- Generator: Adobe Illustrator 22.0.1, SVG Export Plug-In . SVG Version: 6.00 Build 0)  -->
<svg version="1.1" id="Layer_1" xmlns="http://www.w3.org/2000/svg" xmlns:xlink="http://www.w3.org/1999/xlink" x="0px" y="0px"
	 viewBox="0 0 80 80" style="enable-background:new 0 0 80 80;" xml:space="preserve">
<style type="text/css">
	.st0{fill:#B5916F;}
	.st1{fill:#135FA7;}
	.st2{fill:#018BD2;}
	.st3{fill:none;}
	.st4{fill:#008BD2;}
	.st5{fill:#FFFFFF;}
	.st6{fill:#08A9E1;}
	.st7{fill:#F6F9F9;}
	.st8{fill:url(#SVGID_1_);}
	.st9{fill:#FFFFFF;stroke:#BABCBE;stroke-width:0.2278;stroke-miterlimit:10;}
	.st10{fill:#FFFFFF;stroke:#F2F2F2;stroke-width:0.2307;stroke-miterlimit:10;}
</style>
<g>
	<path class="st1" d="M48.9,12.3h-22c-1.9,0-3.4-1.5-3.4-3.4V4.5C23.4,2.6,25,1,26.9,1h22c1.9,0,3.4,1.5,3.4,3.4v4.4
		C52.4,10.8,50.8,12.3,48.9,12.3z M26.9,3.5c-0.5,0-1,0.4-1,1v4.4c0,0.5,0.4,1,1,1h22c0.5,0,1-0.4,1-1V4.5c0-0.5-0.4-1-1-1H26.9z"/>
	<path class="st1" d="M24.7,67.5c-1.9,0-3.4-1.5-3.4-3.4c0-1.9,1.5-3.4,3.4-3.4c1.9,0,3.4,1.5,3.4,3.4C28.1,66,26.6,67.5,24.7,67.5z
		 M24.7,63.1c-0.5,0-1,0.4-1,1c0,0.5,0.4,1,1,1c0.5,0,1-0.4,1-1C25.7,63.6,25.2,63.1,24.7,63.1z"/>
	<path class="st1" d="M24.7,32.3c-1.9,0-3.4-1.5-3.4-3.4c0-1.9,1.5-3.4,3.4-3.4c1.9,0,3.4,1.5,3.4,3.4
		C28.1,30.7,26.6,32.3,24.7,32.3z M24.7,27.9c-0.5,0-1,0.4-1,1c0,0.5,0.4,1,1,1c0.5,0,1-0.4,1-1C25.7,28.3,25.2,27.9,24.7,27.9z"/>
	<path class="st1" d="M64.4,78.7H11.5c-1.9,0-3.4-1.5-3.4-3.4V8.9C8,7,9.6,5.4,11.5,5.4h10.1v3.4c0,3,2.4,5.4,5.4,5.4h22
		c3,0,5.4-2.4,5.4-5.4V5.4h10.1c1.9,0,3.4,1.5,3.4,3.4v66.4C67.8,77.2,66.3,78.7,64.4,78.7z M11.5,7.9c-0.5,0-1,0.4-1,1v66.4
		c0,0.5,0.4,1,1,1h52.9c0.5,0,1-0.4,1-1V8.9c0-0.5-0.4-1-1-1h-7.6v1c0,4.3-3.5,7.9-7.9,7.9h-22c-4.3,0-7.9-3.5-7.9-7.9v-1H11.5z
		 M24.7,71.9c-4.3,0-7.9-3.5-7.9-7.9s3.5-7.9,7.9-7.9c4.3,0,7.9,3.5,7.9,7.9S29,71.9,24.7,71.9z M24.7,58.7c-3,0-5.4,2.4-5.4,5.4
		s2.4,5.4,5.4,5.4s5.4-2.4,5.4-5.4S27.7,58.7,24.7,58.7z M55.5,67.5H37.9c-1.9,0-3.4-1.5-3.4-3.4c0-1.9,1.5-3.4,3.4-3.4h17.6
		c1.9,0,3.4,1.5,3.4,3.4C59,66,57.4,67.5,55.5,67.5z M37.9,63.1c-0.5,0-1,0.4-1,1c0,0.5,0.4,1,1,1h17.6c0.5,0,1-0.4,1-1
		c0-0.5-0.4-1-1-1H37.9z M24.7,54.3c-0.9,0-1.8-0.4-2.4-1l-4.4-4.4c-0.7-0.7-1-1.5-1-2.4c0-0.9,0.4-1.8,1-2.4c0.7-0.7,1.5-1,2.4-1
		c0.9,0,1.8,0.4,2.4,1l1.3,1.3l2.5-4.1c1-1.6,3.1-2.1,4.8-1.1c1.6,1,2.1,3.1,1.1,4.8l0,0l-4.8,7.7c-0.6,0.9-1.5,1.5-2.5,1.6
		C24.9,54.3,24.8,54.3,24.7,54.3z M20.3,45.5c-0.3,0-0.5,0.1-0.7,0.3c-0.2,0.2-0.3,0.4-0.3,0.7c0,0.3,0.1,0.5,0.3,0.7l4.4,4.4
		c0.2,0.2,0.5,0.3,0.8,0.3c0.3,0,0.5-0.2,0.7-0.4l4.8-7.7l0,0c0.3-0.4,0.1-1-0.3-1.3c-0.4-0.3-1-0.1-1.3,0.3l-4.2,6.7L21,45.8
		C20.8,45.6,20.5,45.5,20.3,45.5z M55.5,49.9H37.9c-1.9,0-3.4-1.5-3.4-3.4S36,43,37.9,43h17.6c1.9,0,3.4,1.5,3.4,3.4
		S57.4,49.9,55.5,49.9z M37.9,45.5c-0.5,0-1,0.4-1,1c0,0.5,0.4,1,1,1h17.6c0.5,0,1-0.4,1-1c0-0.5-0.4-1-1-1H37.9z M24.7,36.7
		c-4.3,0-7.9-3.5-7.9-7.9s3.5-7.9,7.9-7.9c4.3,0,7.9,3.5,7.9,7.9S29,36.7,24.7,36.7z M24.7,23.5c-3,0-5.4,2.4-5.4,5.4
		s2.4,5.4,5.4,5.4s5.4-2.4,5.4-5.4S27.7,23.5,24.7,23.5z M55.5,32.3H37.9c-1.9,0-3.4-1.5-3.4-3.4c0-1.9,1.5-3.4,3.4-3.4h17.6
		c1.9,0,3.4,1.5,3.4,3.4C59,30.7,57.4,32.3,55.5,32.3z M37.9,27.9c-0.5,0-1,0.4-1,1c0,0.5,0.4,1,1,1h17.6c0.5,0,1-0.4,1-1
		c0-0.5-0.4-1-1-1H37.9z"/>
</g>
</svg>
