<?xml version="1.0" encoding="utf-8"?>
<!-- Generator: Adobe Illustrator 22.0.1, SVG Export Plug-In . SVG Version: 6.00 Build 0)  -->
<svg version="1.1" id="Layer_1" xmlns="http://www.w3.org/2000/svg" xmlns:xlink="http://www.w3.org/1999/xlink" x="0px" y="0px"
	 viewBox="0 0 200 200" style="enable-background:new 0 0 200 200;" xml:space="preserve">
<style type="text/css">
	.st0{fill:#135FA7;}
	.st1{fill:#8F7049;}
	.st2{fill:#004289;}
	.st3{fill:#56BFEF;}
	.st4{fill:#1D4A7D;}
	.st5{fill:url(#SVGID_1_);}
	.st6{fill:#008BD2;}
	.st7{fill:#416DB1;}
	.st8{fill:none;stroke:#135FA7;stroke-width:3.0855;stroke-miterlimit:10;}
</style>
<g>
	<path class="st1" d="M79.7,113c0-1.6-1.1-2.6-3.1-2.6c-0.8,0-1.4,0.1-1.7,0.2v5.2c0.3,0.1,0.8,0.1,1.3,0.1
		C78.4,115.9,79.7,114.8,79.7,113z"/>
	<path class="st1" d="M92.1,110.4c-0.9,0-1.5,0.1-1.8,0.2v11.6c0.3,0.1,0.9,0.1,1.4,0.1c3.6,0,6-2,6-6.2
		C97.7,112.4,95.6,110.4,92.1,110.4z"/>
	<path class="st1" d="M115.1,49.6H75.6c-5.8,0-10.5,4.7-10.5,10.5v38.8h-1c-2.3,0-4.2,1.9-4.2,4.2v25.6c0,2.3,1.9,4.2,4.2,4.2h1v4.7
		c0,5.8,4.7,10.5,10.5,10.5h54c5.8,0,10.5-4.7,10.5-10.5V74.4L115.1,49.6z M70.9,107.7c1.2-0.2,3-0.4,5.4-0.4c2.5,0,4.2,0.5,5.4,1.4
		c1.1,0.9,1.9,2.4,1.9,4.1c0,1.7-0.6,3.2-1.6,4.2c-1.4,1.3-3.4,1.9-5.8,1.9c-0.5,0-1,0-1.4-0.1v6.4h-4V107.7z M129.6,141.7h-54
		c-2.2,0-4.1-1.8-4.1-4.1v-4.7h50.3c2.3,0,4.2-1.9,4.2-4.2v-25.6c0-2.3-1.9-4.2-4.2-4.2H71.5V60.1c0-2.2,1.8-4.1,4.1-4.1l37.2,0
		v13.7c0,4,3.3,7.3,7.3,7.3l13.5,0l0.2,60.7C133.6,139.9,131.8,141.7,129.6,141.7z M86.3,125.2v-17.5c1.5-0.2,3.4-0.4,5.4-0.4
		c3.4,0,5.6,0.6,7.3,1.9c1.8,1.4,3,3.6,3,6.7c0,3.4-1.2,5.7-3,7.2c-1.9,1.6-4.7,2.3-8.2,2.3C88.7,125.4,87.3,125.3,86.3,125.2z
		 M115,114.8v3.3h-6.4v7.1h-4v-17.8h10.9v3.3h-6.8v4.1H115z"/>
</g>
</svg>
