<?xml version="1.0" encoding="utf-8"?>
<!-- Generator: Adobe Illustrator 22.0.1, SVG Export Plug-In . SVG Version: 6.00 Build 0)  -->
<svg version="1.1" id="Layer_1" xmlns="http://www.w3.org/2000/svg" xmlns:xlink="http://www.w3.org/1999/xlink" x="0px" y="0px"
	 viewBox="0 0 80 80" style="enable-background:new 0 0 80 80;" xml:space="preserve">
<style type="text/css">
	.st0{fill:#B5916F;}
	.st1{fill:#135FA7;}
	.st2{fill:#018BD2;}
	.st3{fill:none;}
	.st4{fill:#008BD2;}
	.st5{fill:#FFFFFF;}
	.st6{fill:#08A9E1;}
	.st7{fill:#F6F9F9;}
	.st8{fill:url(#SVGID_1_);}
	.st9{fill:#FFFFFF;stroke:#BABCBE;stroke-width:0.2278;stroke-miterlimit:10;}
	.st10{fill:#FFFFFF;stroke:#F2F2F2;stroke-width:0.2307;stroke-miterlimit:10;}
</style>
<g>
	<path class="st1" d="M25.6,23.5c-8.7,0-15.8,7.1-15.8,15.8c0,8.7,7.1,15.8,15.8,15.8c8.7,0,15.8-7.1,15.8-15.8
		C41.4,30.6,34.3,23.5,25.6,23.5L25.6,23.5z M37.3,33.4h-5.7c-0.5-2.7-1.4-4.9-2.3-6.7C32.8,27.8,35.7,30.2,37.3,33.4L37.3,33.4z
		 M29.5,39.3c0,1.2-0.1,2.3-0.2,3.3h-7.5c-0.1-1-0.2-2.1-0.2-3.3c0-1.2,0.1-2.3,0.2-3.3h7.5C29.4,37.1,29.5,38.1,29.5,39.3
		L29.5,39.3z M25.2,26.2c0.1,0,0.3,0,0.4,0c0.1,0,0.3,0,0.4,0c1,1.5,2.2,3.9,2.9,7.2h-6.6C23,30.1,24.2,27.7,25.2,26.2L25.2,26.2z
		 M21.8,26.7c-0.9,1.7-1.7,3.9-2.3,6.7h-5.7C15.5,30.2,18.3,27.8,21.8,26.7L21.8,26.7z M12.4,39.3c0-1.1,0.2-2.2,0.5-3.3h6.3
		c-0.1,1-0.2,2.1-0.2,3.3c0,1.2,0.1,2.3,0.2,3.3h-6.3C12.6,41.6,12.4,40.5,12.4,39.3L12.4,39.3z M13.9,45.3h5.7
		c0.6,2.7,1.4,5,2.3,6.7C18.3,50.9,15.5,48.5,13.9,45.3L13.9,45.3z M26,52.5c-0.1,0-0.3,0-0.4,0c-0.1,0-0.3,0-0.4,0
		c-0.9-1.5-2.2-3.9-2.9-7.2h6.6C28.1,48.6,26.9,51,26,52.5L26,52.5z M29.3,51.9c0.9-1.7,1.7-3.9,2.3-6.7h5.7
		C35.7,48.5,32.8,50.9,29.3,51.9L29.3,51.9z M32,42.6c0.1-1,0.2-2.1,0.2-3.3c0-1.2-0.1-2.3-0.2-3.3h6.3c0.3,1.1,0.5,2.2,0.5,3.3
		c0,1.1-0.2,2.2-0.5,3.3H32z M32,42.6"/>
	<rect x="12.4" y="63.1" class="st1" width="26.4" height="2.6"/>
	<path class="st1" d="M54.3,49.2l1.4-5.1l2.5,0.7l-1.4,5.1L54.3,49.2z M54.3,49.2"/>
	<path class="st1" d="M52.6,72.1l4.8-17.8l2.6,0.7l-4.8,17.8L52.6,72.1z M52.6,72.1"/>
	<path class="st1" d="M73.1,9.7L42.5,1.5c-0.5-0.1-0.9-0.2-1.4-0.2c-2.3,0-4.5,1.6-5.1,3.9l-2.8,10.3H5.7c-1.5,0-2.6,1.2-2.6,2.6V71
		c0,1.5,1.2,2.6,2.6,2.6h30.5l18.4,4.9c0.5,0.1,0.9,0.2,1.4,0.2c2.3,0,4.5-1.6,5.1-3.9l15.7-58.6C77.6,13.4,75.9,10.5,73.1,9.7
		L73.1,9.7z M5.7,71V18.2h39.6c1.5,0,2.6,1.2,2.6,2.6v47.5c0,1.5-1.2,2.6-2.6,2.6H5.7z M74.3,15.5L58.6,74.2c-0.3,1.2-1.4,2-2.5,2
		c-0.2,0-0.5,0-0.7-0.1l-9.2-2.5c2.5-0.4,4.5-2.6,4.5-5.2V47.4l1.4,0.4l1.4-5.1L50.8,42l-0.2,0.6v-21c0.8,0.2,1.8,0.5,2.7,0.7
		l3.1,10.2l2.2,0.6l-0.2-9.4c1.4,0.4,2.9,0.8,3.9,1l1.7,3l1.5,0.4L65.2,24l2.3-3.5L66,20.1l-3,1.7c-1-0.3-2.4-0.6-3.9-1l4.9-8.1
		l-2.2-0.6l-7.8,7.3c-1.5-0.4-3.2-0.9-4.1-1.1c-0.9-1.7-2.6-2.8-4.6-2.8H36L38.6,6c0.3-1.2,1.4-2,2.5-2c0.2,0,0.5,0,0.7,0.1
		l30.6,8.2c0.7,0.2,1.3,0.6,1.6,1.2C74.4,14.1,74.5,14.8,74.3,15.5L74.3,15.5z M74.3,15.5"/>
	<path class="st1" d="M57.2,39.6l0.7-2.6l2.5,0.7l-0.7,2.6L57.2,39.6z M57.2,39.6"/>
	<path class="st1" d="M53.8,41l0.7-2.6l2.5,0.7l-0.7,2.6L53.8,41z M53.8,41"/>
	<path class="st1" d="M52.1,37.5l0.7-2.6l2.5,0.7l-0.7,2.6L52.1,37.5z M52.1,37.5"/>
</g>
</svg>
