<?xml version="1.0" encoding="utf-8"?>
<!-- Generator: Adobe Illustrator 22.0.1, SVG Export Plug-In . SVG Version: 6.00 Build 0)  -->
<svg version="1.1" id="Layer_1" xmlns="http://www.w3.org/2000/svg" xmlns:xlink="http://www.w3.org/1999/xlink" x="0px" y="0px"
	 viewBox="0 0 200 200" style="enable-background:new 0 0 200 200;" xml:space="preserve">
<style type="text/css">
	.st0{fill:#135FA7;}
	.st1{fill:#8F7049;}
	.st2{fill:#004289;}
	.st3{fill:#56BFEF;}
	.st4{fill:#1D4A7D;}
	.st5{fill:url(#SVGID_1_);}
	.st6{fill:#008BD2;}
	.st7{fill:#416DB1;}
	.st8{fill:none;stroke:#135FA7;stroke-width:3.0855;stroke-miterlimit:10;}
</style>
<g>
	<path class="st0" d="M99.6,78.2c-7.8,0-14,3.8-14,8.7c0,4.9,6.1,8.7,14,8.7c7.8,0,14-3.8,14-8.7C113.6,82.1,107.5,78.2,99.6,78.2
		L99.6,78.2z M107.7,90.7c-2.1,1.2-5,1.9-8,1.9c-3.1,0-5.9-0.7-8-1.9c-1.1-0.6-2.9-1.9-2.9-3.8c0-1.8,1.8-3.1,2.9-3.8
		c2.1-1.2,5-1.9,8-1.9c3.1,0,5.9,0.7,8,1.9c1.1,0.6,2.9,1.9,2.9,3.8C110.6,88.8,108.8,90.1,107.7,90.7L107.7,90.7z M107.7,90.7"/>
	<path class="st0" d="M102.1,124l-9.4-19.8c-0.2-0.3-0.4-0.6-0.8-0.7l-9.6-4c-0.4-0.2-0.8-0.2-1.2,0c-0.4,0.2-0.7,0.5-0.8,0.9
		l-3.2,10.1c-0.1,0.4-0.1,0.8,0.1,1.1l9.4,19.8c0.3,0.5,0.8,0.9,1.4,0.9c0.2,0,0.4,0,0.7-0.1l12.7-6.1
		C102.1,125.7,102.5,124.8,102.1,124L102.1,124z M88.7,128.7l-8.5-17.9l2.5-7.9l7.5,3.2l8.5,18L88.7,128.7z M88.7,128.7"/>
	<path class="st0" d="M141.1,69.8h-1.8v-3.3c0-0.8-0.7-1.5-1.5-1.5h-14.3c-0.8,0-1.5,0.7-1.5,1.5v3.3h-2.3v-4.9
		c0-5.6-4.6-10.2-10.2-10.2H96.7c-0.8,0-1.5,0.7-1.5,1.5c0,0.8,0.7,1.5,1.5,1.5h12.7c4,0,7.2,3.2,7.2,7.2v4.9h-3.6v-4.9
		c0-2-1.6-3.5-3.5-3.5H89.9c-2,0-3.5,1.6-3.5,3.5v4.9h-3.6v-4.9c0-4.3,3.1-7.2,7.8-7.2c0.8,0,1.5-0.7,1.5-1.5c0-0.8-0.7-1.5-1.5-1.5
		c-3.2,0-5.9,1-7.9,3c-1.9,1.9-2.9,4.4-2.9,7.2v4.9h-2.5v-3.3c0-0.8-0.7-1.5-1.5-1.5H61.4c-0.8,0-1.5,0.7-1.5,1.5v3.3h-1.6
		c-5.4,0-9.9,4.6-9.9,10.2v48.9c0,5.6,4.4,10.2,9.9,10.2H61c0.5,3.8,3.8,6.8,7.7,6.8c3.9,0,7.2-3,7.7-6.8h10.3
		c0.8,0,1.5-0.7,1.5-1.5c0-0.8-0.7-1.5-1.5-1.5H74.1V72.8h51v26.5c-0.4-0.1-0.8-0.1-1.2-0.1h-7.2c-4.2,0-7.6,3.4-7.6,7.6v8.8
		c0,4.2,3.4,7.6,7.6,7.6h7.2c0.4,0,0.8,0,1.2-0.1v13.1H92.9c-0.8,0-1.5,0.7-1.5,1.5c0,0.8,0.7,1.5,1.5,1.5H123
		c0.5,3.9,3.8,6.9,7.7,6.9c3.9,0,7.2-3,7.7-6.9h2.7c5.4,0,9.9-4.6,9.9-10.2V80C150.9,74.3,146.5,69.8,141.1,69.8L141.1,69.8z
		 M63,136.1h-4.7c-3.8,0-6.8-3.2-6.8-7.2V80c0-4,3.1-7.2,6.8-7.2H63V136.1z M68.6,142.9c-2.2,0-4.1-1.6-4.6-3.7h9.2
		C72.7,141.3,70.9,142.9,68.6,142.9L68.6,142.9z M66,136.1V72.8h5.1v63.3H66z M74.2,69.7H62.9v-1.8h11.3V69.7z M109.9,69.8H89.4
		v-4.9c0-0.3,0.2-0.5,0.5-0.5h19.5c0.3,0,0.5,0.2,0.5,0.5V69.8z M125.2,119.9c-0.4,0.1-0.8,0.2-1.2,0.2h-7.2c-2.5,0-4.6-2-4.6-4.6
		v-8.8c0-2.5,2-4.6,4.6-4.6h7.2c0.4,0,0.8,0.1,1.2,0.2V119.9z M130.6,143c-2.2,0-4.1-1.6-4.6-3.8h9.2
		C134.7,141.4,132.9,143,130.6,143L130.6,143z M128.2,101.1V72.8h5.1v63.3h-5.1v-14.9c0-0.1,0-0.2,0-0.2v-19.6
		C128.2,101.3,128.2,101.2,128.2,101.1L128.2,101.1z M136.3,69.7H125v-1.8h11.3V69.7z M147.9,128.9c0,4-3.1,7.2-6.8,7.2h-4.7V72.8
		h4.7c3.8,0,6.8,3.2,6.8,7.2V128.9z M147.9,128.9"/>
</g>
</svg>
