<?xml version="1.0" encoding="utf-8"?>
<!-- Generator: Adobe Illustrator 22.0.1, SVG Export Plug-In . SVG Version: 6.00 Build 0)  -->
<svg version="1.1" id="Layer_1" xmlns="http://www.w3.org/2000/svg" xmlns:xlink="http://www.w3.org/1999/xlink" x="0px" y="0px"
	 viewBox="0 0 80 80" style="enable-background:new 0 0 80 80;" xml:space="preserve">
<style type="text/css">
	.st0{fill:#B5916F;}
	.st1{fill:#135FA7;}
	.st2{fill:#018BD2;}
	.st3{fill:none;}
	.st4{fill:#008BD2;}
	.st5{fill:#FFFFFF;}
	.st6{fill:#08A9E1;}
	.st7{fill:#F6F9F9;}
	.st8{fill:url(#SVGID_1_);}
	.st9{fill:#FFFFFF;stroke:#BABCBE;stroke-width:0.2278;stroke-miterlimit:10;}
	.st10{fill:#FFFFFF;stroke:#F2F2F2;stroke-width:0.2307;stroke-miterlimit:10;}
</style>
<g>
	<path class="st1" d="M64.8,30.2C64.8,30.2,64.8,30.2,64.8,30.2H3.1c-0.6,0-1.1,0.5-1.1,1.1c0,0,0,0,0,0v29.7c0,0.6,0.5,1.1,1.1,1.1
		c0,0,0,0,0,0h42c0.6,0,1.1-0.5,1.1-1.1c0-0.6-0.5-1.1-1.1-1.1h-41V32.3h59.7v2.6c0,0.6,0.5,1.1,1.1,1.1c0,0,0,0,0,0
		c0.6,0,1.1-0.5,1.1-1.1c0,0,0,0,0,0v-3.7C65.9,30.6,65.4,30.2,64.8,30.2L64.8,30.2z M64.8,30.2"/>
	<path class="st1" d="M60.1,25.2L10.7,14.1c-0.3-0.1-0.6,0-0.8,0.1c-0.2,0.2-0.4,0.4-0.5,0.7L7,26c-0.1,0.6,0.2,1.1,0.8,1.3
		c0.6,0.1,1.1-0.2,1.3-0.8l2.2-10.1l48.4,10.9c0.1,0,0.2,0,0.2,0c0.6,0,1.1-0.5,1.1-1.1C61,25.8,60.6,25.4,60.1,25.2L60.1,25.2z
		 M60.1,25.2"/>
	<path class="st1" d="M50.4,19.1L20.8,6.8c-0.5-0.2-1.1,0-1.4,0.5l-2.5,4.9c-0.3,0.5-0.1,1.2,0.4,1.4c0.5,0.3,1.2,0.1,1.4-0.4
		c0,0,0,0,0-0.1v0l2-4.1l28.7,12c0.5,0.2,1.2,0,1.4-0.6C51.2,20,51,19.3,50.4,19.1L50.4,19.1z M50.4,19.1"/>
	<path class="st1" d="M57.1,35.1h-9.8c-0.6,0-1.1,0.5-1.1,1.1c0,0.6,0.5,1.1,1.1,1.1h9.8c0.6,0,1.1-0.5,1.1-1.1
		C58.1,35.6,57.6,35.1,57.1,35.1L57.1,35.1z M57.1,35.1"/>
	<path class="st1" d="M34.7,35.2c-6,0-10.9,4.9-10.9,10.9c0,6,4.9,10.9,10.9,10.9c6,0,10.9-4.9,10.9-10.9
		C45.6,40,40.7,35.2,34.7,35.2L34.7,35.2z M34.7,54.9c-4.9,0-8.9-4-8.9-8.9c0-4.9,4-8.9,8.9-8.9c4.9,0,8.9,4,8.9,8.9
		C43.6,51,39.7,54.9,34.7,54.9L34.7,54.9z M34.7,54.9"/>
	<path class="st1" d="M64.8,38.6c-6.5,0-13.6,1.5-13.6,4.9v29.7c0,3.4,7,4.9,13.6,4.9c6.5,0,13.6-1.5,13.6-4.9V43.6
		C78.4,40.2,71.4,38.6,64.8,38.6L64.8,38.6z M75.9,73.2c-0.2,0.7-3.9,2.5-11.1,2.5c-7.2,0-10.9-1.8-11.1-2.5v-1.9
		c2.6,1.3,7,1.9,11.1,1.9c4.1,0,8.5-0.6,11.1-1.9V73.2z M75.9,68.3c-0.2,0.7-3.9,2.5-11.1,2.5c-7.2,0-10.9-1.8-11.1-2.5v-1.9
		c2.6,1.3,7,1.9,11.1,1.9c4.1,0,8.5-0.6,11.1-1.9V68.3z M75.9,63.3c-0.2,0.7-3.9,2.5-11.1,2.5c-7.2,0-10.9-1.8-11.1-2.5v-1.9
		c2.6,1.3,7,1.9,11.1,1.9c4.1,0,8.5-0.6,11.1-1.9V63.3z M75.9,58.4c-0.2,0.7-3.9,2.5-11.1,2.5c-7.2,0-10.9-1.8-11.1-2.5v-1.9
		c2.6,1.3,7,1.9,11.1,1.9c4.1,0,8.5-0.6,11.1-1.9V58.4z M75.9,53.4c-0.2,0.7-3.9,2.5-11.1,2.5c-7.2,0-10.9-1.8-11.1-2.5v-1.9
		c2.6,1.3,7,1.9,11.1,1.9c4.1,0,8.5-0.6,11.1-1.9V53.4z M75.9,48.5C75.7,49.2,72,51,64.8,51c-7.2,0-10.9-1.8-11.1-2.5v-1.9
		c2.6,1.3,7,1.9,11.1,1.9c4.1,0,8.5-0.6,11.1-1.9V48.5z M64.8,46c-7.2,0-10.9-1.8-11.1-2.4v0c0.2-0.7,3.9-2.5,11.1-2.5
		c7.2,0,10.9,1.8,11.1,2.5C75.7,44.3,72,46,64.8,46L64.8,46z M64.8,46"/>
	<path class="st1" d="M22.4,54.9H13L8.6,50v-8l4.9-4.8h8.9c0.6,0,1.1-0.5,1.1-1.1c0-0.6-0.5-1.1-1.1-1.1h-9.3
		c-0.3,0-0.5,0.1-0.7,0.3l-5.5,5.4c-0.2,0.2-0.3,0.5-0.3,0.9v8.8c0,0.3,0.1,0.5,0.3,0.7l5,5.5c0.2,0.2,0.5,0.3,0.8,0.3h9.8
		c0.6,0,1.1-0.5,1.1-1.1C23.4,55.3,23,54.9,22.4,54.9L22.4,54.9z M22.4,54.9"/>
	<path class="st1" d="M34.6,44.8h-1.2c-0.4,0-0.6-0.2-0.6-0.3c0-0.1,0.2-0.3,0.6-0.3h3.1c0.7,0,1.2-0.6,1.2-1.2
		c0-0.7-0.6-1.2-1.2-1.2h-1.2c0-0.7-0.6-1.2-1.2-1.2c-0.7,0-1.2,0.6-1.2,1.2v0.1c-1.4,0.2-2.4,1.3-2.5,2.7c0.1,1.6,1.5,2.9,3.1,2.8
		h1.2c0.4,0,0.6,0.2,0.6,0.3c0,0.1-0.2,0.3-0.6,0.3h-3.1c-0.7,0-1.2,0.6-1.2,1.2c0,0.7,0.6,1.2,1.2,1.2h1.2c0,0.7,0.6,1.2,1.2,1.2
		c0.7,0,1.2-0.6,1.2-1.2v-0.1c1.4-0.2,2.4-1.3,2.5-2.7C37.6,46,36.2,44.7,34.6,44.8L34.6,44.8z M34.6,44.8"/>
</g>
</svg>
