<?xml version="1.0" encoding="utf-8"?>
<!-- Generator: Adobe Illustrator 22.0.1, SVG Export Plug-In . SVG Version: 6.00 Build 0)  -->
<svg version="1.1" id="Layer_1" xmlns="http://www.w3.org/2000/svg" xmlns:xlink="http://www.w3.org/1999/xlink" x="0px" y="0px"
	 viewBox="0 0 200 200" style="enable-background:new 0 0 200 200;" xml:space="preserve">
<style type="text/css">
	.st0{fill:#135FA7;}
	.st1{fill:#8F7049;}
	.st2{fill:#004289;}
	.st3{fill:#56BFEF;}
	.st4{fill:#1D4A7D;}
	.st5{fill:url(#SVGID_1_);}
	.st6{fill:#008BD2;}
	.st7{fill:#416DB1;}
	.st8{fill:none;stroke:#135FA7;stroke-width:3.0855;stroke-miterlimit:10;}
</style>
<g>
	<path class="st0" d="M128.4,59.9c-0.7-3.6-3.9-6.3-7.8-6.3c-0.9,0-1.6,0.7-1.6,1.6c0,0.9,0.7,1.6,1.6,1.6c2.6,0,4.8,2.1,4.8,4.8
		c0,2.6-2.1,4.8-4.8,4.8c-0.9,0-1.6,0.7-1.6,1.6c0,0.9,0.7,1.6,1.6,1.6c3.8,0,7-2.7,7.8-6.3h20.8v14.3H63.5V63h27
		c0.9,0,1.6-0.7,1.6-1.6c0-0.9-0.7-1.6-1.6-1.6h-2.9c0.7-1.8,2.4-3.2,4.5-3.2c2.6,0,4.8,2.1,4.8,4.8c0,2.6-2.1,4.8-4.8,4.8
		c-0.9,0-1.6,0.7-1.6,1.6c0,0.9,0.7,1.6,1.6,1.6c4.4,0,7.9-3.6,7.9-7.9c0-4.4-3.6-7.9-7.9-7.9c-3.8,0-7,2.7-7.8,6.3H60.3v84.1h92
		V59.9H128.4z M149.1,140.8H63.5V80.5h85.7V140.8z M149.1,140.8"/>
	<path class="st0" d="M101.5,56.7c2.6,0,4.8,2.1,4.8,4.8c0,2.6-2.1,4.8-4.8,4.8c-0.9,0-1.6,0.7-1.6,1.6c0,0.9,0.7,1.6,1.6,1.6
		c4.4,0,7.9-3.6,7.9-7.9c0-4.4-3.6-7.9-7.9-7.9c-0.9,0-1.6,0.7-1.6,1.6C100,56,100.7,56.7,101.5,56.7L101.5,56.7z M101.5,56.7"/>
	<path class="st0" d="M111.1,56.7c2.6,0,4.8,2.1,4.8,4.8c0,2.6-2.1,4.8-4.8,4.8c-0.9,0-1.6,0.7-1.6,1.6c0,0.9,0.7,1.6,1.6,1.6
		c4.4,0,7.9-3.6,7.9-7.9c0-4.4-3.6-7.9-7.9-7.9c-0.9,0-1.6,0.7-1.6,1.6C109.5,56,110.2,56.7,111.1,56.7L111.1,56.7z M111.1,56.7"/>
	<path class="st0" d="M80.9,105.9c5.2,0,9.5-4.3,9.5-9.5c0-5.2-4.3-9.5-9.5-9.5c-5.2,0-9.5,4.3-9.5,9.5
		C71.4,101.6,75.7,105.9,80.9,105.9L80.9,105.9z M80.9,90c3.5,0,6.3,2.8,6.3,6.3s-2.8,6.3-6.3,6.3s-6.3-2.8-6.3-6.3S77.4,90,80.9,90
		L80.9,90z M80.9,90"/>
	<path class="st0" d="M106.3,105.9c5.2,0,9.5-4.3,9.5-9.5c0-5.2-4.3-9.5-9.5-9.5c-5.2,0-9.5,4.3-9.5,9.5
		C96.8,101.6,101.1,105.9,106.3,105.9L106.3,105.9z M106.3,90c3.5,0,6.3,2.8,6.3,6.3s-2.8,6.3-6.3,6.3s-6.3-2.8-6.3-6.3
		S102.8,90,106.3,90L106.3,90z M106.3,90"/>
	<path class="st0" d="M131.7,105.9c5.2,0,9.5-4.3,9.5-9.5c0-5.2-4.3-9.5-9.5-9.5c-5.2,0-9.5,4.3-9.5,9.5
		C122.2,101.6,126.4,105.9,131.7,105.9L131.7,105.9z M131.7,90c3.5,0,6.3,2.8,6.3,6.3s-2.8,6.3-6.3,6.3c-3.5,0-6.3-2.8-6.3-6.3
		S128.2,90,131.7,90L131.7,90z M131.7,90"/>
	<path class="st0" d="M80.9,131.2c5.2,0,9.5-4.3,9.5-9.5c0-5.2-4.3-9.5-9.5-9.5c-5.2,0-9.5,4.3-9.5,9.5
		C71.4,127,75.7,131.2,80.9,131.2L80.9,131.2z M80.9,115.4c3.5,0,6.3,2.8,6.3,6.3c0,3.5-2.8,6.3-6.3,6.3s-6.3-2.8-6.3-6.3
		C74.6,118.2,77.4,115.4,80.9,115.4L80.9,115.4z M80.9,115.4"/>
	<path class="st0" d="M106.3,131.2c5.2,0,9.5-4.3,9.5-9.5c0-5.2-4.3-9.5-9.5-9.5c-5.2,0-9.5,4.3-9.5,9.5
		C96.8,127,101.1,131.2,106.3,131.2L106.3,131.2z M106.3,115.4c3.5,0,6.3,2.8,6.3,6.3c0,3.5-2.8,6.3-6.3,6.3s-6.3-2.8-6.3-6.3
		C100,118.2,102.8,115.4,106.3,115.4L106.3,115.4z M106.3,115.4"/>
	<path class="st0" d="M133.3,129.7c0,0.9-0.7,1.6-1.6,1.6c-0.9,0-1.6-0.7-1.6-1.6c0-0.9,0.7-1.6,1.6-1.6
		C132.6,128.1,133.3,128.8,133.3,129.7L133.3,129.7z M133.3,129.7"/>
	<path class="st0" d="M126.9,128.1c0,0.9-0.7,1.6-1.6,1.6c-0.9,0-1.6-0.7-1.6-1.6c0-0.9,0.7-1.6,1.6-1.6
		C126.2,126.5,126.9,127.2,126.9,128.1L126.9,128.1z M126.9,128.1"/>
	<path class="st0" d="M139.6,128.1c0,0.9-0.7,1.6-1.6,1.6c-0.9,0-1.6-0.7-1.6-1.6c0-0.9,0.7-1.6,1.6-1.6
		C138.9,126.5,139.6,127.2,139.6,128.1L139.6,128.1z M139.6,128.1"/>
	<path class="st0" d="M139.6,115.4c0,0.9-0.7,1.6-1.6,1.6c-0.9,0-1.6-0.7-1.6-1.6c0-0.9,0.7-1.6,1.6-1.6
		C138.9,113.8,139.6,114.5,139.6,115.4L139.6,115.4z M139.6,115.4"/>
	<path class="st0" d="M126.9,115.4c0,0.9-0.7,1.6-1.6,1.6c-0.9,0-1.6-0.7-1.6-1.6c0-0.9,0.7-1.6,1.6-1.6
		C126.2,113.8,126.9,114.5,126.9,115.4L126.9,115.4z M126.9,115.4"/>
	<path class="st0" d="M130.1,118.6c0,0.9-0.7,1.6-1.6,1.6c-0.9,0-1.6-0.7-1.6-1.6c0-0.9,0.7-1.6,1.6-1.6
		C129.4,117,130.1,117.7,130.1,118.6L130.1,118.6z M130.1,118.6"/>
	<path class="st0" d="M136.4,118.6c0,0.9-0.7,1.6-1.6,1.6c-0.9,0-1.6-0.7-1.6-1.6c0-0.9,0.7-1.6,1.6-1.6
		C135.7,117,136.4,117.7,136.4,118.6L136.4,118.6z M136.4,118.6"/>
	<path class="st0" d="M133.3,121.7c0,0.9-0.7,1.6-1.6,1.6c-0.9,0-1.6-0.7-1.6-1.6c0-0.9,0.7-1.6,1.6-1.6
		C132.6,120.1,133.3,120.8,133.3,121.7L133.3,121.7z M133.3,121.7"/>
	<path class="st0" d="M130.1,124.9c0,0.9-0.7,1.6-1.6,1.6c-0.9,0-1.6-0.7-1.6-1.6c0-0.9,0.7-1.6,1.6-1.6
		C129.4,123.3,130.1,124,130.1,124.9L130.1,124.9z M130.1,124.9"/>
	<path class="st0" d="M136.4,124.9c0,0.9-0.7,1.6-1.6,1.6c-0.9,0-1.6-0.7-1.6-1.6c0-0.9,0.7-1.6,1.6-1.6
		C135.7,123.3,136.4,124,136.4,124.9L136.4,124.9z M136.4,124.9"/>
	<path class="st0" d="M141.2,121.7c0,0.9-0.7,1.6-1.6,1.6c-0.9,0-1.6-0.7-1.6-1.6c0-0.9,0.7-1.6,1.6-1.6
		C140.5,120.1,141.2,120.8,141.2,121.7L141.2,121.7z M141.2,121.7"/>
	<path class="st0" d="M125.3,121.7c0,0.9-0.7,1.6-1.6,1.6c-0.9,0-1.6-0.7-1.6-1.6c0-0.9,0.7-1.6,1.6-1.6
		C124.6,120.1,125.3,120.8,125.3,121.7L125.3,121.7z M125.3,121.7"/>
	<path class="st0" d="M133.3,113.8c0,0.9-0.7,1.6-1.6,1.6c-0.9,0-1.6-0.7-1.6-1.6c0-0.9,0.7-1.6,1.6-1.6
		C132.6,112.2,133.3,112.9,133.3,113.8L133.3,113.8z M133.3,113.8"/>
</g>
</svg>
