<?xml version="1.0" encoding="utf-8"?>
<!-- Generator: Adobe Illustrator 22.0.1, SVG Export Plug-In . SVG Version: 6.00 Build 0)  -->
<svg version="1.1" id="Layer_1" xmlns="http://www.w3.org/2000/svg" xmlns:xlink="http://www.w3.org/1999/xlink" x="0px" y="0px"
	 viewBox="0 0 80 80" style="enable-background:new 0 0 80 80;" xml:space="preserve">
<style type="text/css">
	.st0{fill:#B5916F;}
	.st1{fill:#135FA7;}
	.st2{fill:#018BD2;}
	.st3{fill:none;}
	.st4{fill:#008BD2;}
	.st5{fill:#FFFFFF;}
	.st6{fill:#08A9E1;}
	.st7{fill:#F6F9F9;}
	.st8{fill:url(#SVGID_1_);}
	.st9{fill:#FFFFFF;stroke:#BABCBE;stroke-width:0.2278;stroke-miterlimit:10;}
	.st10{fill:#FFFFFF;stroke:#F2F2F2;stroke-width:0.2307;stroke-miterlimit:10;}
</style>
<g>
	<path class="st1" d="M58.7,25.4L44.9,3c-0.5-0.8-1.3-1.3-2.2-1.3H18.5c-0.9,0-1.8,0.5-2.2,1.3l-4.3,7c-0.3,0.5-0.2,1.2,0.4,1.6
		c0.5,0.3,1.2,0.2,1.6-0.4l4.3-7C18.2,4.1,18.4,4,18.5,4h24.2c0.1,0,0.3,0.1,0.3,0.2l13.8,22.4c0.1,0.1,0.1,0.2,0,0.3L41.1,76.2
		c0,0.2-0.2,0.3-0.4,0.3H20.5c-0.2,0-0.3-0.1-0.4-0.3L4.4,26.9c0-0.1,0-0.2,0-0.3l7-11.4c0.3-0.5,0.2-1.2-0.4-1.6
		c-0.5-0.3-1.2-0.2-1.6,0.4l-7,11.4C2.1,26,2,26.8,2.2,27.5l15.7,49.4c0.3,1.1,1.4,1.8,2.5,1.8h20.3c1.2,0,2.2-0.7,2.5-1.8L59,27.5
		C59.2,26.8,59.1,26,58.7,25.4L58.7,25.4z M58.7,25.4"/>
	<path class="st1" d="M40.1,36.8c0-1.7-1.4-3.1-3.1-3.1h-3.3v-3.3c0-1.7-1.4-3.1-3.1-3.1c-1.7,0-3.1,1.4-3.1,3.1v3.3h-3.3
		c-1.7,0-3.1,1.4-3.1,3.1c0,1.7,1.4,3.1,3.1,3.1h3.3v10.2c0,1.7,1.4,3.1,3.1,3.1c1.7,0,3.1-1.4,3.1-3.1V39.9H37
		C38.7,39.9,40.1,38.5,40.1,36.8L40.1,36.8z M32.5,37.6c-0.6,0-1.1,0.5-1.1,1.1v11.3c0,0.5-0.4,0.8-0.8,0.8c-0.5,0-0.8-0.4-0.8-0.8
		V38.8c0-0.6-0.5-1.1-1.1-1.1h-4.4c-0.5,0-0.8-0.4-0.8-0.8c0-0.5,0.4-0.8,0.8-0.8h4.4c0.6,0,1.1-0.5,1.1-1.1v-4.4
		c0-0.5,0.4-0.8,0.8-0.8c0.5,0,0.8,0.4,0.8,0.8v4.4c0,0.6,0.5,1.1,1.1,1.1H37c0.5,0,0.8,0.4,0.8,0.8c0,0.5-0.4,0.8-0.8,0.8H32.5z
		 M32.5,37.6"/>
	<path class="st1" d="M27.1,54.1c-0.6,0-1.1,0.5-1.1,1.1s0.5,1.1,1.1,1.1h7c0.6,0,1.1-0.5,1.1-1.1s-0.5-1.1-1.1-1.1H27.1z
		 M27.1,54.1"/>
	<path class="st1" d="M50.9,25.2c0.6-0.5,0.8-1.4,0.4-2.1l-9-14.6c-0.6-1-1.7-1.6-2.9-1.6H21.8c-1.2,0-2.3,0.6-2.9,1.6l-9,14.6
		c-0.4,0.7-0.3,1.6,0.4,2.1c0.6,0.5,1,1.2,1,2c0,1-0.6,1.9-1.5,2.3c-0.7,0.3-1.1,1.1-0.9,1.9L21.7,72c0.3,1,1.2,1.6,2.2,1.6h13.2
		c1,0,1.9-0.7,2.2-1.6L45,54.4c0.2-0.6-0.1-1.2-0.7-1.4c-0.6-0.2-1.2,0.1-1.4,0.7l-5.6,17.6c0,0,0,0.1-0.1,0.1H24c0,0-0.1,0-0.1-0.1
		l-12.7-40c1.4-0.9,2.3-2.4,2.3-4.1c0-1.3-0.5-2.5-1.4-3.4l8.7-14.2c0.2-0.3,0.6-0.5,1-0.5h17.6c0.4,0,0.8,0.2,1,0.5l8.7,14.2
		c-0.9,0.9-1.4,2.1-1.4,3.4c0,1.7,0.9,3.3,2.3,4.1l-5.7,18c-0.2,0.6,0.1,1.2,0.7,1.4c0.6,0.2,1.2-0.1,1.4-0.7l5.9-18.5
		c0.2-0.8-0.1-1.6-0.9-1.9c-0.9-0.4-1.5-1.3-1.5-2.3C49.9,26.4,50.3,25.7,50.9,25.2L50.9,25.2z M50.9,25.2"/>
</g>
</svg>
