<?xml version="1.0" encoding="utf-8"?>
<!-- Generator: Adobe Illustrator 22.0.1, SVG Export Plug-In . SVG Version: 6.00 Build 0)  -->
<svg version="1.1" id="Layer_1" xmlns="http://www.w3.org/2000/svg" xmlns:xlink="http://www.w3.org/1999/xlink" x="0px" y="0px"
	 viewBox="0 0 200 200" style="enable-background:new 0 0 200 200;" xml:space="preserve">
<style type="text/css">
	.st0{fill:#135FA7;}
	.st1{fill:#8F7049;}
	.st2{fill:#004289;}
	.st3{fill:#56BFEF;}
	.st4{fill:#1D4A7D;}
	.st5{fill:url(#SVGID_1_);}
	.st6{fill:#008BD2;}
	.st7{fill:#416DB1;}
	.st8{fill:none;stroke:#135FA7;stroke-width:3.0855;stroke-miterlimit:10;}
</style>
<path class="st0" d="M184.3,95c0,0,0-0.1,0-0.1c0-0.1,0-0.1,0-0.2c0-0.1,0-0.3-0.1-0.4c0-0.1-0.1-0.2-0.1-0.3
	c-0.1-0.1-0.1-0.2-0.2-0.3c-0.1-0.1-0.2-0.2-0.3-0.2c-0.1,0-0.1-0.1-0.2-0.1c-0.9-0.5-20.9-13.2-40.4-14.1
	c-3.2-2.3-20-14.2-34.4-14.4C89.2,64.5,65,70.7,47.8,76l-2.9-4.1c-0.4-0.5-1-0.8-1.6-0.8H25c-0.6,0-1.1,0.2-1.4,0.6
	c-0.4,0.4-0.5,1-0.5,1.5l1.4,12.4c0,0,0,0,0,0c0,0,0,0,0,0l2.9,21.9c0.4,3.2,3.2,5.7,6.5,5.7h8.1c2.6,3.5,6.8,5.8,11.6,5.8
	c4.7,0,8.9-2.3,11.6-5.8h70.1c2.6,3.5,6.8,5.8,11.6,5.8c4.7,0,8.9-2.3,11.6-5.8h10.4c3.4,0,6.6-1.9,8.3-4.9l7-12.5c0,0,0-0.1,0-0.1
	c0.1-0.1,0.1-0.2,0.1-0.3C184.2,95.3,184.2,95.2,184.3,95z M176,102.2l-8.5-3.2l0-2.1H179L176,102.2z M136.1,79.1H76.8l-6.5-5.3
	c12.8-3,26.5-5.4,38.2-5.2C118.2,68.8,129.6,75,136.1,79.1z M42.3,74.9l1.6,2.3C36.6,79.5,31,81.6,28,82.7l-0.9-7.8H42.3z
	 M53.5,115.2c-5.9,0-10.6-4.8-10.6-10.6c0-5.9,4.8-10.6,10.6-10.6c5.9,0,10.6,4.8,10.6,10.6C64.2,110.5,59.4,115.2,53.5,115.2z
	 M146.7,115.2c-5.9,0-10.6-4.8-10.6-10.6c0-5.9,4.8-10.6,10.6-10.6c5.9,0,10.6,4.8,10.6,10.6C157.4,110.5,152.6,115.2,146.7,115.2z
	 M168.7,109.4h-8.3c0.5-1.5,0.9-3.1,0.9-4.8c0-8-6.5-14.5-14.5-14.5c-8,0-14.5,6.5-14.5,14.5c0,1.7,0.3,3.3,0.9,4.8h-66
	c0.5-1.5,0.9-3.1,0.9-4.8c0-8-6.5-14.5-14.5-14.5S39,96.6,39,104.6c0,1.7,0.3,3.3,0.9,4.8h-6c-1.3,0-2.5-1-2.7-2.3l-2.7-20.4
	c4.6-1.7,19.6-7.2,37.1-11.7l9.3,7.6c0.3,0.3,0.8,0.4,1.2,0.4h66.1c12.4,0.4,25.3,6.1,32.7,10h-9.3c-1.1,0-1.9,0.9-1.9,1.9l0,5.4
	c0,0.8,0.5,1.5,1.2,1.8l9.2,3.5l-0.5,0.9C172.6,108.3,170.7,109.4,168.7,109.4z"/>
</svg>
