<?xml version="1.0" encoding="utf-8"?>
<!-- Generator: Adobe Illustrator 22.0.1, SVG Export Plug-In . SVG Version: 6.00 Build 0)  -->
<svg version="1.1" id="Layer_1" xmlns="http://www.w3.org/2000/svg" xmlns:xlink="http://www.w3.org/1999/xlink" x="0px" y="0px"
	 viewBox="0 0 200 200" style="enable-background:new 0 0 200 200;" xml:space="preserve">
<style type="text/css">
	.st0{fill:#135FA7;}
	.st1{fill:#8F7049;}
	.st2{fill:#004289;}
	.st3{fill:#56BFEF;}
	.st4{fill:#1D4A7D;}
	.st5{fill:url(#SVGID_1_);}
	.st6{fill:#008BD2;}
	.st7{fill:#416DB1;}
	.st8{fill:none;stroke:#135FA7;stroke-width:3.0855;stroke-miterlimit:10;}
</style>
<g>
	<path class="st8" d="M110.2,58.5c1.5,0,2.7-1.2,2.7-2.7v-5.5c0-1.5-1.2-2.7-2.7-2.7H82.9c-1.5,0-2.7,1.2-2.7,2.7v5.5
		c0,1.5,1.2,2.7,2.7,2.7H110.2z"/>
	<path class="st8" d="M80.1,121.5c-1.5,0-2.7,1.2-2.7,2.7s1.2,2.7,2.7,2.7s2.7-1.2,2.7-2.7S81.6,121.5,80.1,121.5z"/>
	<path class="st8" d="M80.1,83.3c1.5,0,2.7-1.2,2.7-2.7s-1.2-2.7-2.7-2.7s-2.7,1.2-2.7,2.7S78.6,83.3,80.1,83.3z"/>
	<path class="st8" d="M63.7,53.1c-1.5,0-2.7,1.2-2.7,2.7v82.3c0,1.5,1.2,2.7,2.7,2.7h65.5c1.5,0,2.7-1.2,2.7-2.7V55.8
		c0-1.5-1.2-2.7-2.7-2.7h-10.9v2.7c0,4.5-3.7,8.2-8.2,8.2H82.9c-4.5,0-8.2-3.7-8.2-8.2v-2.7H63.7z M80.1,132.4
		c-4.5,0-8.2-3.7-8.2-8.2s3.7-8.2,8.2-8.2s8.2,3.7,8.2,8.2S84.6,132.4,80.1,132.4z M96.5,77.8h21.8c1.5,0,2.7,1.2,2.7,2.7
		s-1.2,2.7-2.7,2.7H96.5c-1.5,0-2.7-1.2-2.7-2.7S95,77.8,96.5,77.8z M96.5,99.7h21.8c1.5,0,2.7,1.2,2.7,2.7c0,1.5-1.2,2.7-2.7,2.7
		H96.5c-1.5,0-2.7-1.2-2.7-2.7C93.8,100.9,95,99.7,96.5,99.7z M96.5,121.5h21.8c1.5,0,2.7,1.2,2.7,2.7s-1.2,2.7-2.7,2.7H96.5
		c-1.5,0-2.7-1.2-2.7-2.7S95,121.5,96.5,121.5z M88.4,99.7l-6,9.6c-0.4,0.7-1.2,1.2-2,1.3c-0.1,0-0.2,0-0.3,0
		c-0.7,0-1.4-0.3-1.9-0.8l-5.5-5.5c-1.1-1.1-1.1-2.8,0-3.9c1.1-1.1,2.8-1.1,3.9,0l3,3l4.2-6.7c0.8-1.3,2.5-1.7,3.8-0.9
		C88.9,96.8,89.2,98.5,88.4,99.7z M80.1,72.4c4.5,0,8.2,3.7,8.2,8.2s-3.7,8.2-8.2,8.2s-8.2-3.7-8.2-8.2S75.6,72.4,80.1,72.4z"/>
</g>
</svg>
