<?xml version="1.0" encoding="utf-8"?>
<!-- Generator: Adobe Illustrator 22.0.1, SVG Export Plug-In . SVG Version: 6.00 Build 0)  -->
<svg version="1.1" id="Layer_1" xmlns="http://www.w3.org/2000/svg" xmlns:xlink="http://www.w3.org/1999/xlink" x="0px" y="0px"
	 viewBox="0 0 200 200" style="enable-background:new 0 0 200 200;" xml:space="preserve">
<style type="text/css">
	.st0{fill:#135FA7;}
	.st1{fill:#8F7049;}
	.st2{fill:#004289;}
	.st3{fill:#56BFEF;}
	.st4{fill:#1D4A7D;}
	.st5{fill:url(#SVGID_1_);}
	.st6{fill:#008BD2;}
	.st7{fill:#416DB1;}
	.st8{fill:none;stroke:#135FA7;stroke-width:3.0855;stroke-miterlimit:10;}
</style>
<g>
	<g>
		<polygon class="st6" points="156.2,90.3 151.5,90.3 115.7,76.9 100,82.9 98.6,79.4 115.6,72.8 152.2,86.4 156.2,86.4 		"/>
	</g>
	<g>
		<g>
			<path class="st2" d="M20.3,106.3c0.4,0.7,0.9,1.3,1.5,1.8c0.6,0.5,1.4,0.8,2.3,1c0.9,0.2,1.8,0.3,2.7,0.3c0.6,0,1.3-0.1,2-0.2
				c0.7-0.1,1.4-0.3,2-0.6c0.6-0.3,1.1-0.7,1.6-1.2c0.4-0.5,0.6-1.2,0.6-2c0-0.9-0.3-1.6-0.8-2.1c-0.6-0.5-1.3-1-2.2-1.3
				c-0.9-0.3-1.9-0.7-3-0.9c-1.1-0.3-2.3-0.6-3.4-0.9c-1.2-0.3-2.4-0.7-3.5-1.1c-1.1-0.4-2.1-1-3-1.7c-0.9-0.7-1.6-1.5-2.2-2.6
				c-0.6-1-0.8-2.3-0.8-3.7c0-1.6,0.4-3.1,1.1-4.3c0.7-1.2,1.6-2.2,2.7-3c1.1-0.8,2.4-1.4,3.8-1.8c1.4-0.4,2.9-0.6,4.3-0.6
				c1.7,0,3.3,0.2,4.8,0.6c1.5,0.4,2.9,1,4.1,1.8c1.2,0.8,2.1,1.9,2.8,3.2c0.7,1.3,1.1,2.9,1.1,4.7h-6.8c-0.1-0.9-0.3-1.7-0.6-2.4
				c-0.3-0.6-0.8-1.1-1.4-1.5c-0.6-0.3-1.2-0.6-1.9-0.8C27.3,87,26.5,87,25.6,87c-0.6,0-1.1,0.1-1.7,0.2c-0.6,0.1-1.1,0.3-1.5,0.6
				c-0.5,0.3-0.8,0.7-1.1,1.1c-0.3,0.4-0.4,1-0.4,1.7c0,0.6,0.1,1.1,0.4,1.5c0.2,0.4,0.7,0.7,1.4,1.1c0.7,0.3,1.7,0.7,2.9,1
				c1.2,0.3,2.8,0.7,4.8,1.3c0.6,0.1,1.4,0.3,2.5,0.7c1.1,0.3,2.1,0.8,3.2,1.5c1,0.7,1.9,1.6,2.7,2.8c0.8,1.1,1.1,2.6,1.1,4.4
				c0,1.5-0.3,2.8-0.8,4.1c-0.6,1.2-1.4,2.3-2.5,3.2c-1.1,0.9-2.5,1.6-4.2,2.1c-1.7,0.5-3.6,0.8-5.7,0.8c-1.8,0-3.5-0.2-5.1-0.7
				c-1.7-0.4-3.1-1.1-4.4-2c-1.3-0.9-2.3-2.1-3-3.5c-0.7-1.4-1.1-3.1-1.1-5.1h6.8C19.7,104.7,19.9,105.6,20.3,106.3z"/>
			<path class="st2" d="M49.2,82.3v31.9h-7V82.3H49.2z"/>
			<path class="st2" d="M58.9,106.3c0.4,0.7,0.9,1.3,1.5,1.8c0.6,0.5,1.4,0.8,2.3,1c0.9,0.2,1.8,0.3,2.7,0.3c0.6,0,1.3-0.1,2-0.2
				c0.7-0.1,1.4-0.3,2-0.6c0.6-0.3,1.1-0.7,1.6-1.2c0.4-0.5,0.6-1.2,0.6-2c0-0.9-0.3-1.6-0.8-2.1c-0.6-0.5-1.3-1-2.2-1.3
				c-0.9-0.3-1.9-0.7-3-0.9c-1.1-0.3-2.3-0.6-3.4-0.9c-1.2-0.3-2.4-0.7-3.5-1.1c-1.1-0.4-2.1-1-3-1.7c-0.9-0.7-1.6-1.5-2.2-2.6
				c-0.6-1-0.8-2.3-0.8-3.7c0-1.6,0.3-3.1,1-4.3c0.7-1.2,1.6-2.2,2.7-3c1.1-0.8,2.4-1.4,3.8-1.8c1.4-0.4,2.9-0.6,4.3-0.6
				c1.7,0,3.3,0.2,4.8,0.6c1.5,0.4,2.9,1,4.1,1.8c1.2,0.8,2.1,1.9,2.8,3.2c0.7,1.3,1.1,2.9,1.1,4.7h-6.8c-0.1-0.9-0.3-1.7-0.6-2.4
				c-0.3-0.6-0.8-1.1-1.4-1.5c-0.6-0.3-1.2-0.6-1.9-0.8C65.9,87,65.1,87,64.2,87c-0.6,0-1.1,0.1-1.7,0.2c-0.6,0.1-1.1,0.3-1.5,0.6
				c-0.5,0.3-0.8,0.7-1.1,1.1c-0.3,0.4-0.5,1-0.5,1.7c0,0.6,0.1,1.1,0.4,1.5c0.2,0.4,0.7,0.7,1.4,1.1c0.7,0.3,1.7,0.7,2.9,1
				c1.2,0.3,2.8,0.7,4.8,1.3c0.6,0.1,1.4,0.3,2.5,0.7c1.1,0.3,2.1,0.8,3.1,1.5c1,0.7,1.9,1.6,2.7,2.8c0.8,1.1,1.1,2.6,1.1,4.4
				c0,1.5-0.3,2.8-0.8,4.1c-0.6,1.2-1.4,2.3-2.5,3.2c-1.1,0.9-2.5,1.6-4.2,2.1c-1.7,0.5-3.6,0.8-5.7,0.8c-1.8,0-3.5-0.2-5.1-0.7
				c-1.7-0.4-3.1-1.1-4.4-2c-1.3-0.9-2.3-2.1-3-3.5c-0.7-1.4-1.1-3.1-1.1-5.1h6.8C58.3,104.7,58.5,105.6,58.9,106.3z"/>
			<path class="st2" d="M96.6,82.3l11.9,31.9h-7.3l-2.4-7.1H86.9l-2.5,7.1h-7.1l12.1-31.9H96.6z M97,101.8l-4-11.7h-0.1l-4.2,11.7
				H97z"/>
		</g>
		<g>
			<g>
				<path class="st6" d="M109.7,114.3H106V84.2h3.8v13.2h9.3V84.2h3.8v30.1H119v-13.7h-9.3V114.3z"/>
				<path class="st6" d="M140.7,105.5c0,1.3-0.1,2.5-0.2,3.7c-0.1,1.1-0.5,2.1-1,2.9c-0.5,0.8-1.3,1.5-2.4,1.9
					c-1,0.5-2.5,0.7-4.3,0.7c-1.8,0-3.2-0.2-4.2-0.7c-1-0.5-1.8-1.1-2.4-1.9c-0.5-0.8-0.9-1.8-1-2.9c-0.1-1.1-0.2-2.3-0.2-3.6V100
					c0-1.1,0.1-2.1,0.3-3c0.2-0.9,0.6-1.7,1.2-2.4c0.6-0.7,1.4-1.2,2.4-1.5c1-0.4,2.3-0.6,3.9-0.6c1.6,0,2.9,0.2,3.9,0.6
					c1,0.4,1.8,0.9,2.4,1.5c0.6,0.7,1,1.5,1.2,2.4c0.2,0.9,0.4,1.9,0.4,3V105.5z M137.3,101.7c0-0.9,0-1.7-0.1-2.5
					c-0.1-0.8-0.2-1.5-0.5-2c-0.3-0.6-0.7-1-1.3-1.3c-0.6-0.3-1.5-0.5-2.6-0.5c-1,0-1.8,0.1-2.4,0.4c-0.6,0.3-1,0.6-1.4,1.1
					c-0.3,0.5-0.5,1-0.6,1.6c-0.1,0.6-0.1,1.3-0.1,2v5.5c0,0.8,0,1.6,0.1,2.3c0.1,0.7,0.2,1.4,0.5,1.9c0.3,0.5,0.7,1,1.3,1.3
					c0.6,0.3,1.5,0.5,2.6,0.5s2-0.2,2.6-0.5c0.6-0.3,1-0.8,1.3-1.3c0.3-0.6,0.4-1.2,0.5-2c0.1-0.8,0.1-1.6,0.1-2.6V101.7z"/>
				<path class="st6" d="M157.4,94.4v21.1c0,1.2-0.1,2.2-0.3,3.2c-0.2,1-0.6,1.8-1.1,2.5c-0.6,0.7-1.4,1.2-2.4,1.6
					c-1,0.4-2.4,0.6-4,0.6c-1.4,0-2.6-0.2-3.6-0.5c-1-0.3-1.8-0.7-2.4-1.3c-0.6-0.6-1.1-1.3-1.3-2.1c-0.3-0.8-0.4-1.7-0.4-2.8h3.4
					c0,0.5,0,1,0.1,1.4c0.1,0.5,0.3,0.9,0.6,1.2c0.3,0.4,0.8,0.6,1.4,0.9c0.6,0.2,1.4,0.3,2.4,0.3c1.1,0,2-0.2,2.6-0.5
					c0.6-0.3,1.1-0.8,1.3-1.4s0.5-1.3,0.5-2.1c0.1-0.8,0.1-1.7,0.1-2.6c-1.1,0.5-2.6,0.8-4.5,0.8c-1.8,0-3.2-0.2-4.3-0.7
					c-1-0.5-1.8-1.1-2.4-1.9c-0.5-0.8-0.9-1.8-1-2.9c-0.2-1.1-0.2-2.3-0.2-3.6v-5.7c0-2.4,0.6-4.3,1.9-5.5c1.3-1.2,3.1-1.8,5.4-1.8
					c0.9,0,1.9,0.1,3,0.3c1.1,0.2,2.3,0.5,3.5,0.9L157.4,94.4z M154.1,95.9c-1.7-0.6-3.1-0.9-4.4-0.9c-1.6,0-2.8,0.4-3.5,1.3
					c-0.8,0.9-1.1,2-1.1,3.4v5.7c0,0.9,0,1.8,0.1,2.6c0.1,0.8,0.2,1.5,0.5,2c0.3,0.6,0.7,1,1.3,1.3c0.6,0.3,1.5,0.5,2.6,0.5
					c1,0,1.8-0.1,2.5-0.4c0.6-0.3,1.1-0.6,1.3-1.1c0.3-0.5,0.5-1,0.6-1.6c0.1-0.6,0.1-1.3,0.1-2v-1.3V95.9z"/>
				<path class="st6" d="M175.5,113.4c-2.6,0.9-5.1,1.3-7.4,1.3c-1.3,0-2.5-0.1-3.6-0.4c-1.1-0.2-2.1-0.7-2.9-1.2
					c-0.8-0.6-1.5-1.3-1.9-2.2c-0.4-0.9-0.7-1.9-0.7-3.2c0-1.1,0.2-2,0.7-2.7c0.4-0.7,1-1.3,1.8-1.7c0.7-0.4,1.6-0.7,2.5-0.9
					c1-0.2,1.9-0.3,2.9-0.3c0.9,0,1.8,0.1,2.7,0.2c0.9,0.1,1.7,0.4,2.5,0.7v-2.7c0-0.5,0-1-0.1-1.6c-0.1-0.6-0.3-1.1-0.6-1.6
					c-0.3-0.5-0.9-0.9-1.6-1.2c-0.7-0.3-1.7-0.5-3-0.5c-2.9,0-4.4,1.2-4.4,3.6h-3.3c0-0.9,0.2-1.7,0.5-2.5c0.3-0.8,0.8-1.5,1.4-2.1
					c0.6-0.6,1.5-1.1,2.5-1.4c1-0.4,2.2-0.5,3.6-0.5c1.8,0,3.2,0.2,4.3,0.7c1.1,0.4,1.9,1,2.5,1.7c0.6,0.7,1,1.5,1.2,2.4
					c0.2,0.9,0.3,1.8,0.3,2.7V113.4z M172.2,106.4c-0.3-0.4-0.9-0.7-1.9-1c-1-0.3-2.1-0.5-3.3-0.5c-0.6,0-1.1,0.1-1.7,0.2
					c-0.5,0.1-1,0.3-1.4,0.5c-0.4,0.2-0.7,0.5-1,0.9c-0.3,0.4-0.4,0.8-0.4,1.3c0,1.5,0.6,2.6,1.7,3.3c1.1,0.7,2.6,1,4.5,1
					c1.1,0,2.3-0.2,3.6-0.5V106.4z"/>
				<path class="st6" d="M177.9,96.6c0.2-0.9,0.7-1.6,1.3-2.2c0.7-0.6,1.6-1,2.7-1.2c1.1-0.2,2.6-0.4,4.4-0.4h3.8l-1.4,2.8h-2.1
					c-1.1,0-2.1,0.1-2.8,0.2c-0.7,0.1-1.3,0.3-1.7,0.7c-0.4,0.3-0.7,0.8-0.9,1.3c-0.2,0.6-0.2,1.3-0.2,2.2v14.3h-3.4V100
					C177.6,98.7,177.7,97.5,177.9,96.6z"/>
			</g>
		</g>
	</g>
</g>
</svg>
