<?xml version="1.0" encoding="utf-8"?>
<!-- Generator: Adobe Illustrator 22.0.1, SVG Export Plug-In . SVG Version: 6.00 Build 0)  -->
<svg version="1.1" id="Layer_1" xmlns="http://www.w3.org/2000/svg" xmlns:xlink="http://www.w3.org/1999/xlink" x="0px" y="0px"
	 viewBox="0 0 200 200" style="enable-background:new 0 0 200 200;" xml:space="preserve">
<style type="text/css">
	.st0{fill:#135FA7;}
	.st1{fill:#8F7049;}
	.st2{fill:#004289;}
	.st3{fill:#56BFEF;}
	.st4{fill:#1D4A7D;}
	.st5{fill:url(#SVGID_1_);}
	.st6{fill:#008BD2;}
	.st7{fill:#416DB1;}
	.st8{fill:none;stroke:#135FA7;stroke-width:3.0855;stroke-miterlimit:10;}
</style>
<g>
	<g>
		<path class="st4" d="M13.8,93c0.4,0.7,0.9,1.3,1.5,1.8c0.6,0.5,1.4,0.8,2.2,1c0.9,0.2,1.7,0.3,2.6,0.3c0.6,0,1.3-0.1,2-0.2
			c0.7-0.1,1.4-0.3,2-0.6c0.6-0.3,1.1-0.7,1.5-1.2c0.4-0.5,0.6-1.2,0.6-2c0-0.9-0.3-1.5-0.8-2.1c-0.5-0.5-1.3-1-2.1-1.3
			c-0.9-0.4-1.9-0.7-3-0.9c-1.1-0.3-2.2-0.6-3.4-0.9c-1.2-0.3-2.3-0.7-3.4-1.1c-1.1-0.4-2.1-1-3-1.7c-0.9-0.7-1.6-1.5-2.1-2.5
			c-0.5-1-0.8-2.2-0.8-3.7c0-1.6,0.3-3,1-4.2c0.7-1.2,1.6-2.2,2.7-3c1.1-0.8,2.4-1.4,3.8-1.8c1.4-0.4,2.8-0.6,4.2-0.6
			c1.6,0,3.2,0.2,4.7,0.6c1.5,0.4,2.9,1,4,1.8c1.2,0.8,2.1,1.9,2.8,3.1c0.7,1.3,1,2.8,1,4.6h-6.7c-0.1-0.9-0.3-1.7-0.6-2.3
			c-0.3-0.6-0.8-1.1-1.3-1.5c-0.6-0.4-1.2-0.6-1.9-0.7c-0.7-0.1-1.5-0.2-2.4-0.2c-0.6,0-1.1,0.1-1.7,0.2c-0.6,0.1-1.1,0.3-1.5,0.6
			c-0.5,0.3-0.8,0.7-1.1,1.1c-0.3,0.4-0.4,1-0.4,1.7c0,0.6,0.1,1.1,0.4,1.5c0.2,0.4,0.7,0.7,1.4,1.1c0.7,0.3,1.6,0.6,2.9,1
			c1.2,0.3,2.8,0.7,4.8,1.2c0.6,0.1,1.4,0.3,2.4,0.6c1,0.3,2.1,0.8,3.1,1.5c1,0.7,1.9,1.6,2.7,2.7c0.7,1.1,1.1,2.6,1.1,4.3
			c0,1.4-0.3,2.8-0.8,4c-0.6,1.2-1.4,2.3-2.5,3.2c-1.1,0.9-2.5,1.6-4.1,2.1c-1.6,0.5-3.5,0.7-5.7,0.7c-1.7,0-3.4-0.2-5-0.6
			c-1.6-0.4-3.1-1.1-4.3-2c-1.2-0.9-2.2-2.1-3-3.5c-0.7-1.4-1.1-3.1-1.1-5h6.7C13.2,91.4,13.4,92.2,13.8,93z"/>
		<path class="st4" d="M42.3,69.3v31.4h-6.9V69.3H42.3z"/>
		<path class="st4" d="M51.9,93c0.4,0.7,0.9,1.3,1.5,1.8c0.6,0.5,1.4,0.8,2.2,1c0.9,0.2,1.7,0.3,2.6,0.3c0.6,0,1.3-0.1,2-0.2
			c0.7-0.1,1.4-0.3,2-0.6c0.6-0.3,1.1-0.7,1.5-1.2c0.4-0.5,0.6-1.2,0.6-2c0-0.9-0.3-1.5-0.8-2.1c-0.5-0.5-1.3-1-2.1-1.3
			c-0.9-0.4-1.9-0.7-3-0.9c-1.1-0.3-2.2-0.6-3.4-0.9c-1.2-0.3-2.3-0.7-3.4-1.1c-1.1-0.4-2.1-1-3-1.7c-0.9-0.7-1.6-1.5-2.1-2.5
			c-0.5-1-0.8-2.2-0.8-3.7c0-1.6,0.3-3,1-4.2c0.7-1.2,1.6-2.2,2.7-3c1.1-0.8,2.4-1.4,3.8-1.8c1.4-0.4,2.8-0.6,4.2-0.6
			c1.6,0,3.2,0.2,4.7,0.6c1.5,0.4,2.9,1,4,1.8c1.2,0.8,2.1,1.9,2.8,3.1c0.7,1.3,1,2.8,1,4.6h-6.7c-0.1-0.9-0.3-1.7-0.6-2.3
			c-0.3-0.6-0.8-1.1-1.3-1.5c-0.6-0.4-1.2-0.6-1.9-0.7c-0.7-0.1-1.5-0.2-2.4-0.2c-0.6,0-1.1,0.1-1.7,0.2c-0.6,0.1-1.1,0.3-1.5,0.6
			c-0.5,0.3-0.8,0.7-1.1,1.1c-0.3,0.4-0.4,1-0.4,1.7c0,0.6,0.1,1.1,0.4,1.5c0.2,0.4,0.7,0.7,1.4,1.1c0.7,0.3,1.6,0.6,2.9,1
			c1.2,0.3,2.8,0.7,4.8,1.2c0.6,0.1,1.4,0.3,2.4,0.6c1,0.3,2.1,0.8,3.1,1.5c1,0.7,1.9,1.6,2.7,2.7c0.7,1.1,1.1,2.6,1.1,4.3
			c0,1.4-0.3,2.8-0.8,4c-0.6,1.2-1.4,2.3-2.5,3.2c-1.1,0.9-2.5,1.6-4.1,2.1c-1.6,0.5-3.5,0.7-5.7,0.7c-1.7,0-3.4-0.2-5-0.6
			c-1.6-0.4-3.1-1.1-4.3-2c-1.2-0.9-2.2-2.1-3-3.5c-0.7-1.4-1.1-3.1-1.1-5h6.7C51.3,91.4,51.5,92.2,51.9,93z"/>
		<path class="st4" d="M89.1,69.3l11.8,31.4h-7.2l-2.4-7H79.5l-2.5,7h-7L82,69.3H89.1z M89.5,88.6l-4-11.5h-0.1l-4.1,11.5H89.5z"/>
	</g>
	<g>
		<g>
			
				<linearGradient id="SVGID_1_" gradientUnits="userSpaceOnUse" x1="145.8302" y1="113.4128" x2="145.8302" y2="59.1206" gradientTransform="matrix(1 0 0 1 -1 0)">
				<stop  offset="0" style="stop-color:#D6D6D6"/>
				<stop  offset="0.1719" style="stop-color:#B8B8B8"/>
				<stop  offset="0.358" style="stop-color:#9F9F9F"/>
				<stop  offset="0.5527" style="stop-color:#8D8D8D"/>
				<stop  offset="0.7598" style="stop-color:#838383"/>
				<stop  offset="1" style="stop-color:#808080"/>
			</linearGradient>
			<path class="st5" d="M132.6,87.4c0,0,0-0.1,0-0.2c0.1-0.1,0.1-0.2,0.1-0.3c0-0.1,0.1-0.2,0.1-0.3c0.1-0.1,0.2-0.2,0.2-0.3
				c0.1-0.1,0.1-0.2,0.2-0.4c0.1-0.3,0.3-0.6,0.4-0.9c0.1-0.3,0.2-0.6,0.4-0.9c0.1-0.2,0.2-0.3,0.3-0.5c0.1-0.2,0.2-0.3,0.2-0.5
				c-0.1-0.2-0.1-0.4,0-0.5c0.1-0.2,0.2-0.3,0.3-0.5c0.1-0.2,0.3-0.5,0.5-0.7c0.2-0.2,0.3-0.5,0.2-0.8c0-0.1,0.1-0.1,0.1-0.1
				c0,0,0.1-0.1,0.1-0.1c0.1-0.1,0.2-0.2,0.3-0.4c0.1-0.2,0.2-0.4,0.3-0.6c0.1-0.2,0.2-0.4,0.3-0.6c0.1-0.2,0.1-0.4,0.2-0.5
				c0.1-0.7,0.3-1.3,0.4-1.7c0.2-0.4,0.4-0.9,0.8-1.4c0.1-0.1,0.2-0.2,0.2-0.4c0.3-0.7,0.6-1.3,0.9-2c0.3-0.6,0.6-1.3,1-1.9
				s0.7-1.3,0.9-2c0.2-0.7,0.5-1.3,0.9-2c0.4-0.8,0.7-1.5,0.6-2.2c0-0.7,0-1.4-0.1-2.2c0-0.1-0.1-0.3-0.2-0.5
				c-0.3-0.3-0.5-0.6-0.8-1c-0.3-0.3-0.7-0.5-1.2-0.6c-0.6-0.1-0.9-0.4-0.7-1c-0.2-0.1-0.5-0.2-0.7-0.3c-0.2-0.1-0.5-0.2-0.7-0.3
				c-0.1,0.1-0.3,0.1-0.5,0.2c-0.2,0.1-0.4,0.2-0.6,0.3c-1,0.7-2,1.5-2.9,2.3c-0.9,0.8-1.7,1.7-2.6,2.6c-1.1,1.1-2.1,2.3-3,3.5
				c-1,1.2-1.9,2.4-2.7,3.7c-0.6,1-1.3,1.9-1.9,2.9c-0.6,1-1.3,2-1.9,3c-0.6,1-1.3,2-1.9,3c-0.6,1-1.2,2-1.8,3
				c-0.8,1.3-1.5,2.6-2.3,4c-0.7,1.3-1.5,2.7-2.2,4c-0.6,1.1-1.2,2.2-1.8,3.2c-0.6,1.1-1.2,2.1-1.7,3.2c-0.1,0.1-0.1,0.1-0.2,0.2
				c-0.1,0.1-0.2,0.2-0.3,0.3c0.1-0.2,0.1-0.3,0.1-0.4c0-0.1,0-0.2,0-0.2c0.1-0.2,0.2-0.5,0.4-0.7c0.1-0.2,0.2-0.5,0.3-0.7
				c0.1-0.5,0.3-0.9,0.4-1.4c0.1-0.5,0.2-0.9,0.4-1.3c0.1-0.2,0.1-0.4,0.2-0.4c0.3-0.4,0.5-0.8,0.6-1.3c0.1-0.4,0.2-0.9,0.4-1.3
				c0.1-0.3,0.3-0.7,0.4-1c0.1-0.3,0.2-0.7,0.3-1c0.1-0.4,0.3-0.8,0.4-1.2c0.1-0.4,0.3-0.8,0.4-1.2c0-0.1,0-0.1,0-0.2
				c0-0.1,0-0.2,0-0.2c-0.1-0.2-0.1-0.4,0-0.5c0.2-0.3,0.3-0.6,0.4-0.9c0.1-0.3,0.1-0.6,0.2-0.9c0.1-0.4,0.2-0.7,0.3-1.1
				c0.2-0.4,0.3-0.7,0.5-1.1c0.1-0.4,0.2-0.7,0.3-1.1c0-0.4,0.1-0.8,0.3-1.1c0.3-0.9,0.6-1.7,0.8-2.6c0.2-0.9,0.5-1.7,0.7-2.6
				c0.1-0.3,0.2-0.7,0.3-1c0.1-0.3,0.2-0.7,0.2-1c0.1-0.4,0.2-0.9,0.3-1.3c0.1-0.5,0.1-0.9,0.2-1.4c0-0.4-0.1-0.7-0.4-1.1
				c-0.2-0.2-0.4-0.4-0.7-0.4c-0.3,0-0.5-0.2-0.7-0.4c-0.1-0.1-0.3-0.3-0.5-0.4c-0.2-0.1-0.4-0.2-0.7-0.3c-0.3-0.1-0.6-0.3-0.9-0.4
				c-0.3-0.1-0.6-0.1-1,0c-0.1,0-0.2,0-0.2-0.1c0-0.1,0-0.2-0.1-0.2c-0.1,0-0.1-0.1-0.2,0c-0.1,0-0.2,0-0.2,0.1c-0.1,0-0.1,0-0.2,0
				c-0.3-0.1-0.6-0.1-0.7,0.1c-0.2,0.2-0.4,0.3-0.6,0.4c-0.6,0.2-0.8,0.6-0.7,1.2c0,0.1-0.1,0.1-0.1,0.2c0,0.1-0.1,0.2-0.2,0.2
				c-0.5,0.9-0.9,1.8-1.4,2.7c-0.5,0.9-0.9,1.8-1.4,2.7c-0.5,1-1,1.9-1.5,2.9c-0.5,1-1,1.9-1.5,2.9c-0.4,0.7-0.7,1.5-1.1,2.2
				c-0.3,0.7-0.7,1.5-1,2.2c-0.2,0.4-0.4,0.8-0.6,1.2c-0.2,0.4-0.4,0.8-0.6,1.2c-0.2,0.6-0.5,1.2-0.7,1.8c-0.2,0.6-0.5,1.2-0.7,1.8
				c-0.7,1.6-1.3,3.3-1.8,4.9c-0.5,1.6-0.9,3.3-1,5c-0.1,0.8-0.1,1.5,0,2.2c0.1,0.7,0.3,1.4,0.7,2c0.1,0.2,0.3,0.4,0.5,0.5
				c0.2,0.1,0.3,0.2,0.5,0.3c0.2,0.1,0.4,0.1,0.6,0.2c0.2,0.1,0.3,0.2,0.5,0.2c0.2-0.3,0.4-0.5,0.4-0.6c0-0.1,0-0.3-0.1-0.7
				c-0.1-0.2-0.1-0.5-0.1-0.7c0-0.2,0.1-0.4,0.4-0.7c0.1-0.1,0.3-0.3,0.5-0.5c0.2-0.2,0.2-0.4,0.2-0.6c0.1-0.8,0.3-1.5,0.6-2.1
				c0.4-0.7,0.6-1.3,0.8-2c0.2-0.6,0.4-1.1,0.7-1.6c0.3-0.5,0.5-1.1,0.8-1.6c0.2-0.4,0.4-0.8,0.5-1.1c0.2-0.4,0.4-0.7,0.6-1.1
				c0.3-0.4,0.5-0.7,0.6-1c0.2-0.3,0.2-0.7,0.1-1c0.3-0.3,0.5-0.5,0.7-0.7c0.1-0.3,0.3-0.5,0.4-0.8c0.1-0.3,0.3-0.5,0.4-0.8
				c0.6-1,1.2-2.1,1.8-3.2c0.5-0.9,0.9-1.8,1.4-2.6c0.4-0.9,0.9-1.7,1.4-2.6c0.2-0.4,0.5-0.8,0.7-1.2c0.3-0.4,0.5-0.8,0.8-1.2
				c0.1-0.1,0.1-0.1,0.2-0.1c0.1,0,0.1-0.1,0.2-0.1c-0.1,0.4-0.1,0.7-0.2,1.1c-0.1,0.3-0.1,0.7-0.2,1c-0.2,0.9-0.4,1.7-0.6,2.6
				c-0.2,0.9-0.4,1.7-0.7,2.6c-0.3,1.2-0.7,2.3-1,3.5c-0.3,1.2-0.7,2.3-1,3.5c-0.3,1.1-0.7,2.2-1,3.3c-0.4,1.1-0.7,2.2-1,3.3
				c-0.1,0.5-0.3,1.1-0.4,1.6c-0.1,0.5-0.2,1.1-0.3,1.7c0,0.3,0,0.6,0,0.9c0,0.3,0.1,0.6,0.2,0.8c0.1,0.2,0.2,0.5,0.5,0.6
				c0.2,0.2,0.5,0.3,0.9,0.3l0.1,0c0.1,0.2,0.3,0.3,0.5,0.2c0.2-0.1,0.4-0.2,0.6-0.3c0.1-0.1,0.2-0.2,0.4-0.3
				c0.1-0.1,0.3-0.2,0.4-0.4c0.4-0.4,0.7-0.8,0.9-1.2c0.2-0.4,0.5-0.9,0.7-1.3c1.1-2.1,2.2-4.3,3.4-6.4c1.1-2.1,2.3-4.2,3.4-6.4
				c0.2-0.4,0.4-0.8,0.6-1.2c0.2-0.4,0.4-0.8,0.6-1.2c0.4-0.6,0.7-1.2,1.1-1.8c0.4-0.6,0.7-1.1,1.1-1.7c-0.1-0.3-0.1-0.5-0.1-0.7
				c0-0.2-0.1-0.4-0.1-0.7c0.1-0.1,0.2-0.1,0.3-0.2c0.1-0.1,0.2-0.1,0.2-0.2c0-0.3,0.1-0.6,0.4-0.7c0.2-0.1,0.4-0.3,0.5-0.4
				c0.1-0.1,0.2-0.1,0.2-0.3c0.3-0.4,0.5-0.8,0.8-1.2c0.3-0.4,0.5-0.8,0.7-1.2c0.2-0.6,0.6-1.2,1-1.8c0.4-0.5,0.8-1.1,1.1-1.7
				c0.1-0.2,0.3-0.5,0.5-0.7c0.2-0.2,0.4-0.4,0.5-0.7c0.9-1.5,2-2.9,3.3-4.1c0.1-0.1,0.1-0.1,0.2-0.2c0.1-0.1,0.1-0.1,0.2-0.2
				c0.2-0.5,0.5-0.9,0.9-1.3c0.4-0.4,0.7-0.7,1.1-1.1c0.2-0.2,0.4-0.4,0.6-0.6c0.2-0.2,0.5-0.4,0.9-0.6c0,0.2,0,0.3-0.1,0.4
				c0,0.1,0,0.2-0.1,0.2c-0.4,1-0.8,2-1.2,3c-0.4,1-0.8,2-1.2,3c-0.6,1.4-1.2,2.9-1.8,4.3c-0.6,1.4-1.2,2.8-1.8,4.3
				c-0.1,0.2-0.2,0.5-0.3,0.7c-0.1,0.2-0.2,0.5-0.3,0.7c-0.3,0.9-0.7,1.8-1,2.7c-0.4,0.9-0.7,1.8-1,2.8c-0.6,1.5-1.1,3-1.7,4.4
				c-0.5,1.5-1.1,2.9-1.6,4.4c-0.4,1.2-0.8,2.3-1.2,3.5c-0.4,1.2-0.7,2.4-1,3.6c-0.2,0.6-0.3,1.2-0.5,1.8c-0.1,0.6-0.3,1.2-0.4,1.8
				c-0.1,0.7-0.2,1.3-0.2,2c0,0.6-0.1,1.3-0.1,2c-0.1,1.1,0,2.1,0.3,3c0.2,0.6,0.5,1.1,0.9,1.5c0.2,0.2,0.4,0.3,0.7,0.4
				c0.3,0.1,0.5,0.1,0.8,0.3c0.9-0.6,1.4-1.4,1.6-2.5c0.1-0.5,0.2-1.1,0.2-1.6c0-0.5,0.2-1,0.6-1.5c0-0.1,0-0.1,0.1-0.2
				c0.1-0.4,0.1-0.8,0.2-1.3c0.1-0.4,0.2-0.9,0.2-1.3c0-0.1,0.1-0.1,0.1-0.2c0-0.1,0-0.2,0.1-0.2c0.4-0.9,0.7-1.8,0.7-2.7
				c0-0.1,0-0.1,0.1-0.3c0.2-0.2,0.3-0.5,0.5-0.7c0.2-0.3,0.2-0.5,0.1-0.9c0.2-0.3,0.3-0.6,0.4-0.9c0.1-0.3,0.2-0.6,0.3-1
				c0.4-0.8,0.7-1.5,0.9-2.3c0.2-0.8,0.4-1.5,0.8-2.3c0.1-0.4,0.3-0.7,0.4-1c0.1-0.3,0.3-0.7,0.4-1c0.1-0.1,0.1-0.3,0.2-0.4
				c0.1-0.1,0.1-0.2,0.2-0.4c0.1-0.1,0.2-0.3,0.2-0.5c0-0.2,0.1-0.3,0.2-0.5c0.1-0.2,0.2-0.3,0.3-0.5c0.1-0.2,0.1-0.3,0.2-0.6
				c0.1-0.2,0.1-0.5,0.2-0.7c0-0.2,0.2-0.5,0.3-0.7C132.6,87.5,132.6,87.5,132.6,87.4z M122.2,78.3c-0.1,0-0.1,0.1-0.2,0.2
				c-0.1-0.1-0.1-0.2-0.1-0.3c0-0.1,0.1-0.1,0.2-0.2c0.1,0.1,0.2,0.1,0.2,0.2C122.3,78.3,122.2,78.3,122.2,78.3z M133.3,64.2
				c0,0-0.1,0.1-0.1,0.1c-0.6,0.8-1.3,1.6-1.9,2.4c-0.6,0.8-1.3,1.6-1.9,2.4c-0.4,0.5-0.8,1-1.2,1.5c-0.4,0.5-0.8,1-1.2,1.6
				c-0.3,0.4-0.6,0.8-0.9,1.3c-0.3,0.4-0.5,0.9-0.8,1.3c-0.1,0.2-0.3,0.5-0.4,0.7c-0.1,0.3-0.3,0.5-0.6,0.9c0.1-0.4,0.2-0.7,0.2-0.9
				c0.1-0.3,0.1-0.6,0.2-0.8c0.1-0.2,0.3-0.4,0.4-0.6c0.1-0.2,0.2-0.4,0.4-0.4c0.1,0,0.2-0.1,0.3-0.2c0.1-0.1,0.1-0.2,0.2-0.3
				c0.1-0.1,0.1-0.2,0.2-0.2c0.1-0.1,0.2-0.1,0.4,0c-0.3-0.3-0.4-0.6-0.3-0.8c0.1-0.2,0.3-0.5,0.5-0.7c0,0.3,0,0.5,0,0.6
				c0.3-0.1,0.4-0.3,0.4-0.5c0-0.2,0-0.3-0.1-0.4c0.2-0.1,0.3-0.3,0.5-0.4c0.1-0.1,0.3-0.2,0.4-0.4c0.4-0.6,0.9-1.2,1.5-2
				c0-0.1-0.1-0.2-0.2-0.5c0.1-0.1,0.1-0.2,0.2-0.2c0.1,0,0.2,0,0.3,0c0.1,0,0.2,0,0.3,0c0.1-0.1,0.3-0.2,0.4-0.4
				c0.1-0.1,0.3-0.3,0.3-0.4c0.1-0.3,0.2-0.6,0.5-0.9c0.2-0.2,0.4-0.5,0.6-0.8c0.1-0.2,0.4-0.4,0.6-0.6c0.3-0.2,0.5-0.3,0.9-0.2
				C133.4,64.1,133.3,64.1,133.3,64.2z M133.9,63.6c-0.2,0.2-0.3,0.3-0.5,0.4c0-0.1-0.1-0.2-0.1-0.2c0-0.1-0.1-0.2-0.1-0.3
				c0.1-0.1,0.3-0.2,0.5-0.2c0.2-0.1,0.4-0.2,0.5-0.2c0,0,0,0.1,0.1,0.1C134.3,63.3,134.1,63.4,133.9,63.6z M135.2,62.3
				c-0.1,0.1-0.3,0.2-0.4,0.3c0.1-0.3,0.2-0.5,0.3-0.5c0.1-0.1,0.3-0.1,0.6-0.2C135.5,62.1,135.4,62.2,135.2,62.3z M122.1,105.5
				c-0.1,0.3-0.2,0.7-0.3,1c-0.2-0.9,0-1.6,0.5-2.1C122.3,104.8,122.2,105.2,122.1,105.5z M123,102c-0.1,0.3-0.1,0.6-0.2,1
				c0,0.1,0,0.3,0,0.4c0,0.1,0,0.3-0.1,0.4c-0.1,0.2-0.3,0.3-0.6,0.3c0.1-0.3,0.1-0.5,0.2-0.8c0.1-0.3,0.1-0.5,0.2-0.7
				c0.1-0.2,0.1-0.5,0.2-0.7c0-0.3,0.2-0.5,0.5-0.7C123.1,101.4,123.1,101.7,123,102z M122.9,100.6c0.1-0.1,0.1-0.3,0.2-0.4
				c0.1-0.1,0.2-0.3,0.2-0.6c0.1,0.4,0.1,0.6,0.1,0.7C123.4,100.3,123.2,100.5,122.9,100.6z M124.2,97.8c-0.1,0.2-0.1,0.5-0.2,0.7
				c-0.1,0.2-0.2,0.5-0.4,0.8c-0.1-0.2-0.1-0.4-0.1-0.6c0-0.2,0.1-0.3,0.1-0.5c0.1-0.1,0.1-0.3,0.2-0.5c0.1-0.2,0.1-0.3,0.1-0.5
				c0,0,0.1,0,0.1,0c0,0,0.1,0,0.1,0c0,0.1,0.1,0.2,0.1,0.3C124.3,97.6,124.3,97.7,124.2,97.8z M125.8,93.1c0,0.2-0.1,0.4-0.1,0.7
				c-0.1,0.2-0.1,0.5-0.2,0.7c-0.1,0.2-0.1,0.5-0.2,0.7c-0.1,0.2-0.1,0.4-0.2,0.5c-0.1,0.2-0.1,0.4-0.2,0.5
				c-0.1,0.2-0.3,0.3-0.6,0.4c0.1-0.2,0.1-0.4,0.1-0.6c0-0.2,0.1-0.4,0.1-0.6c0.1-0.5,0.3-0.9,0.4-1.4c0.1-0.4,0.3-0.9,0.5-1.3
				c0-0.1,0.1-0.1,0.2-0.2c0.1,0,0.2-0.1,0.3-0.1C125.8,92.7,125.8,92.9,125.8,93.1z M125.9,92.1c0,0.1,0,0.2-0.1,0.3
				c-0.1-0.1-0.1-0.3-0.1-0.3c0-0.1,0.1-0.2,0.2-0.4C126,91.9,126,92,125.9,92.1z M126.4,91.2c-0.1,0.1-0.2,0.2-0.5,0.3l0.4-0.9
				C126.4,90.8,126.4,91,126.4,91.2z M126.8,89.7c-0.1,0-0.1,0-0.1,0c0,0-0.1,0-0.1,0c0.1-0.1,0.1-0.3,0.2-0.4
				c0.1-0.1,0.1-0.3,0.2-0.4c0,0.2,0,0.4,0.1,0.5C127.1,89.5,127,89.6,126.8,89.7z M153.2,94.8c-0.2,0.1-0.3,0.2-0.5,0.3
				c-0.4,0.4-0.8,0.9-1.2,1.2c-0.4,0.4-0.8,0.7-1.3,1.1c-0.1,0.1-0.2,0.1-0.2,0.2c-0.1,0.1-0.2,0.1-0.2,0.2c-0.1,0-0.1,0-0.2,0
				c-0.1,0-0.1,0-0.2,0c0.1-0.1,0.1-0.1,0.1-0.1c0,0,0-0.1,0.1-0.1c0,0,0.1-0.1,0.1-0.1c0,0,0.1,0,0.1-0.1c0.2-0.2,0.4-0.4,0.6-0.6
				c0.2-0.2,0.4-0.4,0.5-0.6c0.1-0.1,0.1-0.1,0.2-0.2c0-0.1,0.1-0.2,0.2-0.2c0.7-0.7,1.4-1.5,2.1-2.2c0.7-0.7,1.4-1.5,2.1-2.2
				c0-0.1-0.1-0.1-0.1-0.1c0,0-0.1,0-0.1-0.1c-0.1,0.1-0.2,0.2-0.3,0.4c-0.1,0.1-0.2,0.2-0.3,0.3c-0.4,0.4-0.8,0.8-1.3,1.2
				c-0.4,0.4-0.9,0.8-1.3,1.1c-0.5,0.5-1,1-1.5,1.5c-0.5,0.5-1,0.9-1.5,1.4c-0.6,0.5-1.2,1.1-1.8,1.6c-0.6,0.5-1.2,1-1.9,1.5
				c-0.3,0.2-0.6,0.4-0.9,0.7c-0.4,0.3-0.8,0.6-1.2,0.8c-0.4,0.3-0.8,0.5-1.2,0.8c-0.4,0.2-0.7,0.5-1,0.6c-0.5,0.3-1.1,0.6-1.8,0.8
				c-0.7,0.2-1.4,0.2-2,0.2c-0.3-0.1-0.6-0.2-0.7-0.5c-0.1-0.1-0.1-0.3-0.2-0.5c0-0.2,0-0.3-0.1-0.5l-0.1-0.3
				c-0.1-0.2-0.1-0.3-0.2-0.4c-0.2-0.1-0.2-0.3-0.1-0.5c0.1-0.2,0.1-0.3,0-0.5c-0.2-0.4-0.2-0.7,0.1-0.9c0.1,0,0.1-0.1,0.2-0.2
				c0-0.1,0.1-0.3,0.1-0.4c0-0.1,0.1-0.3,0.1-0.4c-0.1-0.1-0.1-0.1-0.2-0.2c-0.1,0-0.1-0.1,0.1-0.3c0.1-0.1,0.1-0.1,0.1-0.2
				c0,0,0.1-0.1,0.1-0.2c0-0.1,0.1-0.1,0.1-0.2c0-0.1,0.1-0.1,0.1-0.1c0.3-0.2,0.5-0.4,0.4-0.7l0.3-0.1l0,0c0.4,0.1,0.9,0.1,1.5,0.1
				c0.6,0,1.2-0.1,1.5-0.2h0c0.1,0,0.2,0,0.4-0.1c0.5-0.1,0.9-0.3,1.4-0.4c0.5-0.1,0.9-0.4,1.3-0.7c0,0,0.1,0,0.1,0
				c0.2-0.1,0.4-0.3,0.6-0.4c0.2-0.1,0.4-0.2,0.6-0.4c0.1-0.1,0.3-0.2,0.4-0.4c0.1-0.1,0.3-0.2,0.4-0.4c0.2-0.1,0.4-0.3,0.6-0.4
				c0.2-0.1,0.4-0.3,0.5-0.4c0.2-0.2,0.4-0.5,0.5-0.7c0.2-0.2,0.4-0.4,0.7-0.6c0.1,0,0.2-0.1,0.2-0.3c0.1-0.2,0.2-0.4,0.3-0.6
				c0.1-0.2,0.3-0.4,0.5-0.6c0.2-0.2,0.3-0.4,0.5-0.6c0.2-0.2,0.4-0.5,0.5-0.7c0.2-0.3,0.4-0.5,0.5-0.8c0.3-0.4,0.6-0.8,0.8-1.2
				c0.2-0.3,0.3-0.5,0.5-0.8c0-0.1,0-0.1,0-0.2c0-0.1,0-0.1,0.1-0.2c0.1-0.1,0.2-0.2,0.2-0.4c0-0.1,0.1-0.3,0.1-0.4
				c0.1-0.2,0.1-0.3,0.1-0.5c0-0.2,0.1-0.3,0.1-0.5c0.1-0.2,0.1-0.3,0.3-0.5c0.1-0.2,0-0.3-0.2-0.5c0-0.1,0.1-0.1,0.1-0.2
				c0,0,0-0.1,0-0.1c-0.1-0.3-0.1-0.6,0-1c0.1-0.3,0.1-0.6,0-1c-0.1-0.3-0.3-0.6-0.3-0.9c-0.1-0.3-0.2-0.6-0.3-0.9
				c-0.1-0.2-0.1-0.4-0.2-0.6c0-0.2-0.1-0.4-0.1-0.6c0,0,0-0.1,0-0.1c-0.1-0.3-0.3-0.6-0.4-0.9c-0.1-0.3-0.4-0.5-0.7-0.7
				c-0.1-0.1-0.2-0.1-0.4-0.2c-0.1-0.1-0.2-0.2-0.3-0.3c-0.1-0.1-0.2-0.2-0.3-0.3c-0.1-0.1-0.3-0.1-0.4-0.2c0,0-0.1,0-0.1,0
				c0,0-0.1,0-0.1,0l-1.2-0.5c-0.1,0-0.1,0-0.3,0c-0.1,0.1-0.2,0.1-0.3,0.2c-0.1,0-0.2,0.1-0.2,0.2c-0.4,0.3-0.8,0.7-1.1,1
				c-0.4,0.3-0.7,0.7-1,1.2c-0.2,0.4-0.5,0.7-0.9,1c-0.3,0.3-0.7,0.6-0.9,1c-0.3,0.3-0.6,0.6-0.9,0.9c-0.3,0.3-0.6,0.6-0.8,1
				c-0.1,0.1-0.2,0.3-0.4,0.4c-0.2,0.1-0.2,0.3-0.1,0.6h-0.2c-0.2,0.1-0.5,0.2-0.7,0.4c-0.2,0.2-0.3,0.4-0.3,0.6
				c0.1,0.3,0,0.5-0.3,0.6c-0.1,0.1-0.2,0.3-0.2,0.4c-0.1,0.1-0.1,0.2-0.2,0.3c0,0-0.1,0-0.1,0c0,0,0,0-0.1,0c0-0.1,0.1-0.2,0.1-0.4
				c-0.5,0.7-1,1.3-1.5,1.8c0.1,0.1,0.1,0.2,0.2,0.2c0.1,0.1,0.1,0.1,0.2,0.2c-0.1,0-0.1,0-0.2,0c-0.1,0-0.1,0-0.2,0
				c0.1,0.3,0.1,0.5,0,0.6c-0.1,0.1-0.3,0.2-0.6,0.3c0,0-0.1,0-0.1,0c0,0,0,0-0.1,0c-0.1,0.1-0.1,0.3-0.2,0.4
				c-0.1,0.1-0.1,0.2-0.2,0.4c-0.1,0.1-0.2,0.3-0.3,0.4c-0.1,0.1-0.2,0.3-0.4,0.4c0.1,0.2,0,0.4-0.4,0.4c0.1,0.1,0.2,0.2,0.3,0.3
				l-0.4,0.3c0.1,0.1,0.1,0.1,0,0.2c0,0-0.1,0.1-0.2,0.1c-0.1,0.1-0.2,0.2-0.3,0.3c-0.1,0.1-0.1,0.2-0.1,0.2
				c0.1,0.2,0.2,0.4,0.1,0.4c-0.1,0.1-0.2,0.1-0.3,0.1l-0.1,0.4c-0.3,0.1-0.4,0.3-0.3,0.7c0,0.1,0,0.2-0.1,0.3
				c-0.4,0.1-0.5,0.4-0.3,0.7c-0.1,0.1-0.2,0.1-0.3,0.2c-0.1,0.4-0.3,0.8-0.5,1.3c-0.2,0.4-0.3,0.9-0.2,1.4c0,0.1,0,0.1,0,0.1
				c0,0.3-0.1,0.6-0.1,0.8c0,0.3-0.1,0.5-0.1,0.8c-0.1,0.4-0.1,0.8,0,1.2c0.1,0.4,0.2,0.8,0.3,1.2c0.1,0.2,0.1,0.3,0.2,0.5
				c0,0.1,0.1,0.3,0.2,0.4c0.1,0.1,0.2,0.3,0.3,0.4c0.1,0.1,0.2,0.3,0.3,0.4c0.1,0.1,0.1,0.3,0.2,0.4c0,0.1,0.1,0.2,0.2,0.3
				c0.3,0.3,0.5,0.7,0.7,1.2l0.1,0.3v0c0,0,0,0.1,0,0.1c0,0,0,0.1,0,0.1c0.1,0.1,0.2,0.3,0.3,0.4s0.2,0.3,0.4,0.4c0-0.1,0-0.2,0-0.3
				c0-0.1,0-0.1,0-0.2c0,0,0.1,0,0.1,0c0,0,0,0,0.1,0c0,0.2,0.1,0.4,0.2,0.5c0.1,0.1,0.3,0.1,0.5,0.1c0.2,0,0.3,0,0.5,0
				c0.2,0,0.3-0.1,0.4-0.3c0.1-0.2,0.3-0.3,0.6-0.1c0.3,0.3,0.7,0.4,1.1,0.4c0.4,0,0.8,0,1.1-0.1c0.4-0.1,0.7-0.1,1.1-0.3
				c0.4-0.1,0.7-0.3,1-0.5c0.1-0.1,0.4-0.2,0.7-0.4c0.3-0.2,0.6-0.4,0.9-0.6c0.3-0.2,0.6-0.4,0.9-0.6c0.3-0.2,0.5-0.3,0.7-0.4
				c0.1,0,0.1-0.1,0.2-0.1c0,0,0.1-0.1,0.2-0.1c0.4-0.3,0.8-0.7,1.1-1c0.4-0.3,0.7-0.7,1.1-1c0.4-0.4,0.7-0.7,1.1-0.9
				c0.4-0.3,0.7-0.7,0.9-1.1c0.1-0.1,0.1-0.1,0.1-0.1l0.4-0.4c0.1-0.1,0.1-0.1,0.2-0.2c0-0.1,0.1-0.1,0.2-0.2
				c0.1-0.1,0.1-0.1,0.2-0.1c0.1,0,0.1-0.1,0.2-0.1c0.3-0.3,0.6-0.6,0.9-0.9c0.3-0.3,0.6-0.6,0.9-0.9l0.7-0.7
				C153.6,94.8,153.4,94.7,153.2,94.8z M136.4,91.5c-0.1,0.1-0.2,0.1-0.2,0c-0.1,0-0.1,0,0-0.1c0.1-0.1,0.2-0.2,0.2-0.4
				c0.1-0.1,0.2-0.2,0.3-0.4c0,0,0.1,0,0.3,0c0.1,0.3,0,0.4-0.1,0.5C136.6,91.3,136.5,91.4,136.4,91.5z M136.9,92.8
				c0-0.3,0.1-0.6,0.3-0.9c0.2-0.2,0.4-0.4,0.7-0.4c-0.2,0.2-0.3,0.4-0.5,0.6C137.2,92.4,137.1,92.6,136.9,92.8z M144.6,93.2
				c0,0.1-0.1,0.2-0.1,0.3c-0.2,0.1-0.4,0.3-0.5,0.4c-0.2,0.1-0.4,0.2-0.6,0.4l-0.1-0.1l0.5-0.4c0.1-0.1,0.1-0.2,0.2-0.3
				c0.1-0.1,0.2-0.2,0.2-0.3c0.1-0.2,0.2-0.4,0.5-0.4C144.6,92.9,144.6,93,144.6,93.2z M145.3,92.5c-0.1,0.1-0.1,0.2-0.2,0.2
				c-0.1,0-0.2,0-0.4,0c0.1-0.1,0.1-0.1,0.1-0.2c0,0,0.1-0.1,0.1-0.2c0.1-0.1,0.2-0.1,0.3,0C145.2,92.4,145.2,92.4,145.3,92.5
				C145.3,92.5,145.3,92.5,145.3,92.5z M141.6,89.7c0.2-0.3,0.4-0.6,0.6-0.8c0-0.1,0-0.1,0-0.2c0-0.1,0-0.2,0-0.2
				c0.4-0.1,0.7-0.3,0.9-0.6c0.2-0.3,0.4-0.6,0.7-0.8c0.2-0.2,0.4-0.4,0.5-0.6c0.2-0.2,0.4-0.4,0.5-0.6c0.1-0.2,0.3-0.4,0.4-0.6
				c0.1-0.2,0.2-0.4,0.4-0.6c0-0.1,0.1-0.1,0.2-0.3c0.1-0.1,0.2-0.1,0.4-0.2c0.1-0.1,0.2-0.2,0.3-0.2c0.2-0.2,0.4-0.4,0.6-0.7
				c0.2-0.2,0.4-0.4,0.6-0.6c0.2-0.1,0.4-0.2,0.5-0.4c0.1-0.1,0.3-0.3,0.5-0.4c0.1-0.1,0.2-0.2,0.3-0.3c0.1-0.1,0.2-0.2,0.3-0.3
				c0.1,0,0.2-0.1,0.4-0.3c0.2-0.2,0.3-0.3,0.4-0.4c0.1-0.1,0.2-0.2,0.4-0.2c0.1,0,0.1,0,0.2,0.1c0,0.1,0.1,0.2,0.1,0.2
				c0,0.3,0,0.6,0,0.9c0,0.3,0,0.6-0.1,0.9c-0.1,0.9-0.3,1.6-0.7,2.4c-0.3,0.7-0.7,1.5-1.1,2.2c-0.1,0.1-0.1,0.1-0.1,0.2
				c0,0.1,0,0.2-0.1,0.2c0,0.1,0,0.2-0.1,0.2c-0.2,0.3-0.5,0.6-0.7,0.9c-0.2,0.3-0.5,0.6-0.7,0.9c-0.2,0.2-0.4,0.5-0.5,0.7
				c-0.2,0.2-0.4,0.5-0.6,0.7l-0.2,0.2c-0.3,0.4-0.6,0.8-0.9,1.1c-0.3,0.3-0.7,0.7-1.1,0.9c-0.1,0.1-0.3,0.2-0.4,0.3
				c-0.1,0.1-0.3,0.2-0.4,0.2l-1.3,0.9c-0.1,0.1-0.1,0.1-0.2,0.1c-0.1,0.1-0.2,0.1-0.3,0.1c-0.1,0-0.2,0.1-0.3,0.1
				c-0.1,0.1-0.2,0.1-0.3,0.1c-0.1,0-0.2,0-0.4,0.1c-0.1,0.1-0.3,0.1-0.4,0.1c-0.1,0-0.3,0.1-0.4,0.1c-0.2,0.1-0.5,0.1-0.7,0
				c-0.3-0.1-0.5-0.1-0.7-0.1l0.6-0.8l0.1-0.1c0.3-0.2,0.4-0.5,0.6-0.8c0.1-0.3,0.2-0.6,0.4-0.9c0.1-0.1,0.1-0.2,0.2-0.3
				c0.1-0.1,0.2-0.2,0.2-0.3l0.2-0.2c0.1-0.1,0.1-0.2,0.2-0.3c0.1-0.1,0.1-0.2,0.2-0.3c0.1-0.2,0.1-0.3,0.1-0.4
				c0-0.1,0.1-0.2,0.1-0.3c0-0.1,0.1-0.1,0.3-0.1c0,0,0.1,0,0.1,0c0.1,0,0.1-0.1,0.1-0.1C141.2,90.3,141.4,90,141.6,89.7z
				 M140.9,83.8c0.1-0.1,0.1-0.2,0.2-0.2c0,0,0.1,0,0.1,0c0,0.1,0,0.1,0,0.2c0,0.1,0,0.1-0.1,0.2c0,0.1-0.1,0.1-0.1,0.1
				c-0.1,0-0.1,0-0.2,0c0,0,0-0.1,0-0.1C140.7,83.9,140.8,83.9,140.9,83.8z M140.1,84.4c0.1-0.1,0.1-0.1,0.2-0.2c0,0,0.1,0,0.1,0
				c0,0,0.1,0.1,0.2,0.1c0.1,0,0.1,0.1,0.1,0.1c-0.1,0.1-0.1,0.2-0.2,0.3c0,0.1-0.1,0.2-0.2,0.2c-0.1,0-0.1,0-0.1-0.1
				c-0.2-0.1-0.3-0.2-0.4-0.3C140,84.5,140,84.4,140.1,84.4z M139.9,84.9c0.1,0,0.1,0,0.1,0.1c0,0.1,0.1,0.1,0.1,0.1
				c-0.1,0.1-0.2,0.2-0.3,0.2c-0.1,0-0.1,0-0.2,0c-0.1,0-0.1,0-0.2,0c0,0.1,0.1,0.2,0.1,0.2c0,0.1,0,0.1,0.1,0.2
				c-0.2-0.1-0.3-0.2-0.4-0.3C139.4,85,139.6,84.8,139.9,84.9z M134.2,94.6C134.2,94.6,134.2,94.6,134.2,94.6
				c-0.2-0.1-0.3-0.1-0.3-0.2c0-0.1,0-0.1,0-0.2c0-0.1,0-0.1,0-0.2c0.1,0,0.1,0,0.1,0C134.1,94.2,134.2,94.4,134.2,94.6
				C134.2,94.6,134.2,94.6,134.2,94.6z M134,93.9L134,93.9c0.1-0.3,0.2-0.5,0.3-0.8c0.1-0.2,0.2-0.4,0.4-0.7c0,0,0.1,0,0.1,0
				c0,0,0,0,0.1,0c0,0.1,0,0.1,0,0.2c0,0.1,0,0.1,0,0.1c-0.3,0.2-0.3,0.5-0.1,0.7c-0.1,0.1-0.3,0.2-0.4,0.2
				C134.2,93.8,134.1,93.8,134,93.9z M134.7,97.8c0,0,0,0-0.1,0c0,0,0-0.1,0-0.1c0,0,0-0.1,0-0.1c0.1-0.1,0.1-0.2,0.1-0.3
				c0-0.1,0.1-0.2,0.1-0.3c0.1,0.1,0.1,0.3,0.1,0.4C134.8,97.6,134.8,97.7,134.7,97.8z M134.9,92.3c-0.1,0-0.2-0.1-0.2-0.2
				c0.6-1.1,1.3-2.3,2-3.4c0.7-1.1,1.5-2.1,2.4-3.1c0.3,0.1,0.4,0.3,0.2,0.6c-0.1,0.1-0.2,0.2-0.3,0.4c-0.1,0.1-0.2,0.2-0.3,0.3
				c-0.1,0.1-0.3,0.3-0.5,0.4c0,0.1,0.1,0.3,0.1,0.6c-0.1,0.1-0.3,0.3-0.5,0.4c-0.2,0.1-0.3,0.3-0.3,0.6c0,0.1-0.1,0.1-0.2,0.2
				c-0.1,0.1-0.3,0.1-0.4,0.2l-0.3,0.1c0.1,0.3,0.2,0.4,0.2,0.5c0,0.1-0.2,0.1-0.5,0.3c-0.1,0.1-0.2,0.1-0.3,0.3
				c-0.1,0.1-0.1,0.2-0.2,0.4c0.1,0.1,0.1,0.1,0.1,0.1c0-0.1,0.1-0.1,0.1-0.2c0,0,0-0.1,0.1-0.2c0.1-0.1,0.2-0.1,0.2-0.1
				c0,0,0.1,0,0.1,0c0,0,0.1,0.1,0.1,0.1c0,0.1-0.1,0.1-0.1,0.1c0,0,0,0.1-0.1,0.1c-0.1,0.1-0.2,0.3-0.3,0.4
				c-0.1,0.1-0.2,0.3-0.4,0.4c-0.1,0-0.1-0.1-0.1-0.1c0,0-0.1,0-0.1-0.1c0,0.1,0,0.2,0,0.3c0,0.1,0,0.2,0,0.2c0,0.1-0.1,0.2-0.1,0.3
				c0,0.1-0.1,0.2-0.2,0.3C135.1,92.4,135,92.3,134.9,92.3z M135.5,95.7c-0.1,0.3-0.2,0.5-0.4,0.8H135c0-0.2,0-0.4,0.1-0.5
				c0.1-0.2,0.2-0.3,0.3-0.5c0.1-0.2,0.2-0.3,0.2-0.5c0-0.1,0.1-0.1,0.2-0.2c0,0.1,0,0.1,0.1,0.1C135.7,95.2,135.6,95.4,135.5,95.7z
				 M180.9,85.5C180.9,85.5,180.9,85.5,180.9,85.5c0,0.1,0.1,0,0.1,0C181,85.5,180.9,85.5,180.9,85.5z M192.2,64.4
				c-0.2-0.2-0.5-0.5-0.7-0.7c-0.3-0.3-0.6-0.3-1-0.2l0.1-0.4l-0.7-0.4c-0.1,0.1-0.2,0.1-0.4,0.1c-0.1,0-0.2-0.1-0.4-0.2
				c-0.2-0.2-0.5-0.3-0.7-0.3c-0.2,0-0.4,0.2-0.5,0.4c-0.2,0.4-0.5,0.8-0.7,1.1c-0.2,0.4-0.4,0.8-0.7,1.1c-0.6,1-1.2,1.9-1.8,2.9
				c-0.6,1-1.2,2-1.8,3c-0.3,0.4-0.5,0.8-0.8,1.1c-0.3,0.4-0.5,0.8-0.7,1.2c-0.1,0.2-0.2,0.4-0.3,0.6c-0.1,0.2-0.2,0.4-0.3,0.6
				c-0.1,0.2-0.3,0.5-0.4,0.7c-0.1,0.2-0.3,0.4-0.4,0.7h0.1c-0.2,0.4-0.4,0.8-0.6,1.1c-0.2,0.4-0.4,0.7-0.6,1.1
				c-0.1,0.2-0.2,0.5-0.3,0.7c-0.1,0.2-0.2,0.4-0.3,0.7c-0.1,0.3-0.3,0.6-0.5,0.9c-0.2,0.3-0.3,0.6-0.5,0.9
				c-0.1,0.1-0.2,0.2-0.3,0.2c-0.4-0.4-0.7-0.9-1.1-1.3c-0.4-0.4-0.7-0.9-1.1-1.3v0c-0.3-0.5-0.7-0.9-1.2-1.2
				c-0.5-0.3-1-0.6-1.5-0.8c0,0,0,0-0.1,0c-0.2,0-0.4,0-0.6-0.2c-0.1-0.1-0.3-0.3-0.4-0.4c-0.2-0.2-0.4-0.4-0.6-0.4
				c-0.2,0-0.5,0.1-0.7,0.1c-0.2,0-0.5,0.1-0.7,0.2c-0.6,0.3-1.2,0.7-1.8,1.1c-0.5,0.5-1.1,0.9-1.6,1.4c-0.5,0.5-1,1-1.4,1.6
				c-0.5,0.5-0.9,1.1-1.4,1.7c-0.3,0.4-0.6,0.8-0.9,1.3c-0.3,0.5-0.6,0.9-0.9,1.3c-0.2,0.3-0.3,0.5-0.5,0.8
				c-0.2,0.3-0.3,0.5-0.5,0.8c-0.1,0.2-0.3,0.4-0.4,0.6c0,0-0.1-0.1-0.1-0.1l-0.3-0.3c-0.1,0.1-0.2,0.2-0.4,0.4
				c-0.1,0.1-0.2,0.2-0.3,0.4c-0.1,0.1-0.2,0.3-0.2,0.4c-0.2,0.3-0.4,0.7-0.6,1c-0.3,0.4-0.6,0.8-0.9,1.2c-0.3,0.4-0.6,0.8-0.9,1.2
				c-0.1,0.1-0.1,0.1-0.1,0.2c0,0.1-0.1,0.1-0.1,0.2l0.1,0.1c0.6-0.6,1.1-1.3,1.6-1.9c0.5-0.7,1-1.3,1.5-2c0.1,0.1,0.1,0.1,0.1,0.2
				c0,0,0.1,0.1,0.1,0.1c0,0,0,0,0,0c0,0,0,0-0.1,0c0,0.1,0,0.1-0.1,0.2c-0.2,0.3-0.3,0.6-0.5,0.9c0,0,0,0-0.1,0c0,0,0,0.1-0.1,0.2
				c0,0.1,0,0.1,0,0.2c-0.1,0.2-0.2,0.3-0.2,0.5c0,0-0.1,0.1-0.1,0.1c-0.1,0.1-0.3,0.3-0.4,0.4c-0.1,0.2-0.3,0.4-0.4,0.6
				c-0.1,0.2-0.2,0.4-0.4,0.7c-0.1,0.2-0.3,0.3-0.4,0.5c-0.1,0.2-0.3,0.3-0.4,0.5c-0.1,0.2-0.3,0.3-0.5,0.5
				c-0.2,0.2-0.3,0.3-0.5,0.5c-0.1,0.1-0.2,0.2-0.3,0.3c-0.1,0.1-0.2,0.2-0.3,0.3c-0.1,0.1-0.2,0.1-0.2,0.2
				c-0.1,0.1-0.1,0.2-0.2,0.2c-0.2,0.1-0.3,0.2-0.3,0.3c0,0,0.1,0.2,0.3,0.3c0.2-0.1,0.4-0.2,0.6-0.3c0.2-0.1,0.3-0.3,0.4-0.6
				l0.1-0.1c0.1-0.1,0.2-0.3,0.4-0.4c0.1-0.1,0.2-0.2,0.3-0.4c0.1-0.2,0.2-0.3,0.4-0.4c0.1-0.1,0.3-0.2,0.4-0.4
				c0.1-0.2,0.2-0.3,0.3-0.4c-0.1,0.3-0.3,0.5-0.4,0.8c-0.2,0.4-0.4,0.9-0.6,1.4c-0.3,0.6-0.5,1.2-0.7,1.8c-0.1,0.4-0.2,0.8-0.4,1.2
				c-0.1,0.4-0.2,0.8-0.3,1.2c-0.1,0.4-0.1,0.8-0.2,1.1c0,0.4,0,0.7-0.1,1.1c0,0.3,0,0.6,0,0.9c0,0.3,0,0.6,0.1,0.9
				c0.2,1.1,0.8,2,1.8,2.7c0.1,0.1,0.2,0.1,0.4,0.2c0.1,0.1,0.2,0.1,0.3,0c0.2-0.1,0.3-0.1,0.4,0c0.1,0.1,0.2,0.1,0.4,0.2
				c0.3,0.2,0.6,0.3,0.7,0.3c0.2,0,0.4-0.1,0.7-0.4c0.5-0.4,0.9-0.9,1.3-1.4c0.4-0.5,0.7-1.1,1.1-1.6c0.1-0.1,0.2-0.3,0.3-0.4
				c0.1-0.1,0.2-0.2,0.3-0.4l2.6-3.4c0.2-0.3,0.5-0.6,0.7-0.9c0.3-0.3,0.5-0.6,0.7-0.9c0.2-0.2,0.4-0.4,0.6-0.6
				c0.2-0.2,0.3-0.5,0.3-0.8c0-0.1,0-0.1,0.1-0.2c0.1-0.1,0.1-0.1,0.2-0.2c0.1-0.1,0.1-0.1,0.2-0.2c0.1-0.1,0.1-0.1,0.1-0.2
				c0.3-0.6,0.7-1,1.2-1.5c0.5-0.4,0.9-0.9,1.3-1.3c0.2-0.2,0.5-0.5,0.7-0.7c0.2-0.2,0.5-0.4,0.7-0.7c0.1-0.1,0.2-0.2,0.3-0.3
				c0.1-0.1,0.2-0.2,0.3-0.3c0.2-0.2,0.5-0.5,0.7-0.7c0.2-0.2,0.5-0.4,0.7-0.7c0.2-0.1,0.3-0.3,0.5-0.4c0.2-0.1,0.3-0.3,0.2-0.6
				c0.1,0,0.1,0,0.1,0c0,0,0,0,0.1,0c0,0.1,0.1,0.1,0.1,0.2c0,0.1,0,0.2,0,0.2c-0.1,0.4-0.2,0.8-0.4,1.2c-0.1,0.4-0.3,0.8-0.4,1.2
				c-0.2,0.8-0.5,1.5-0.7,2.3c-0.2,0.7-0.4,1.5-0.6,2.3c-0.2,0.7-0.3,1.5-0.4,2.2c-0.1,0.7-0.2,1.5-0.4,2.2
				c-0.1,0.6-0.1,1.2-0.2,1.8c0,0.6-0.1,1.2-0.1,1.8c-0.1,0.7-0.1,1.4-0.1,2.1c0,0.7,0.1,1.4,0.2,2.1c0.2,1,0.5,2,1.1,2.9
				c0.2,0.4,0.5,0.8,0.9,1c0.3,0.3,0.7,0.6,1,0.8c0.1,0.1,0.3,0.2,0.4,0.2c0.2,0,0.3,0,0.5,0c0.1,0,0.2,0,0.2-0.1
				c0.1-0.1,0.2-0.1,0.2-0.2c-0.1-0.1-0.1-0.2-0.2-0.3c-0.1-0.1-0.1-0.2-0.3-0.2c-0.1-0.1-0.3-0.2-0.4-0.3c-0.1-0.1-0.1-0.2,0-0.4
				c0,0,0-0.1,0-0.1c0,0,0-0.1,0-0.1c0-0.1-0.1-0.3-0.1-0.5c0-0.2-0.1-0.3,0-0.5c0.1-0.4,0.1-0.8,0-1.3c-0.1-0.4-0.1-0.9,0-1.3
				c0.1-0.3,0-0.4-0.4-0.3c-0.1,0-0.1,0-0.2,0c-0.1,0-0.2,0-0.2,0c0-0.1,0-0.1,0-0.2c0.2,0,0.4-0.1,0.6-0.1c0.2,0,0.4-0.1,0.6-0.1
				c-0.3-0.3-0.4-0.5-0.5-0.6c0-0.1,0.1-0.2,0.3-0.3c-0.1-0.1-0.1-0.1-0.2-0.1c-0.1,0-0.1,0-0.2-0.1c0.1-0.4,0.2-0.8,0.3-1.1
				c0.1-0.4,0.2-0.7,0.3-1.1h-0.6v-0.1c0.1-0.1,0.3-0.1,0.4-0.2c0.1-0.1,0.3-0.1,0.4-0.2c-0.4,0-0.6-0.3-0.6-0.7
				c0-0.1,0-0.2,0.1-0.3c0.1-0.1,0.1-0.2,0.2-0.3c0.1-0.1,0.1-0.2,0.1-0.3c0-0.1,0-0.2,0-0.3c0,0,0,0,0,0c0.1-0.2,0.1-0.4,0.2-0.6
				c0.1-0.2,0.2-0.4,0.2-0.6c-0.1,0-0.1-0.1-0.2-0.1c-0.1,0-0.2-0.1-0.3-0.1c0.2-0.1,0.4-0.2,0.6-0.2c0.1-0.1,0.3-0.1,0.4-0.2
				c-0.1-0.1-0.2-0.1-0.3-0.1c-0.1,0-0.2-0.1-0.2-0.1c0-0.2,0.1-0.5,0.3-0.9c-0.1-0.3-0.1-0.6,0-1c0.2-0.4,0.5-0.7,0.9-1
				c-0.3-0.4-0.3-0.7-0.1-1c0.2-0.2,0.4-0.5,0.5-0.7c0-0.1-0.1-0.1-0.2-0.2c0.1-0.1,0.2-0.3,0.3-0.4c0.1-0.1,0.2-0.2,0.2-0.3
				c0-0.4,0.1-0.7,0.2-1c0.2-0.3,0.3-0.6,0.4-1c0.1-0.3,0.1-0.5,0.2-0.6c0.2-0.3,0.4-0.5,0.6-0.8c0.2-0.3,0.4-0.5,0.6-0.8
				c0,0-0.2-0.1-0.4-0.3c0.5-0.1,0.7-0.4,0.6-0.8c0,0,0-0.1,0.1-0.1c0.1-0.2,0.3-0.4,0.4-0.6c0.1-0.2,0.3-0.4,0.4-0.6h-0.4
				c0.1-0.1,0.2-0.3,0.3-0.4c0.1-0.1,0.2-0.3,0.2-0.4c0.1-0.1,0.1-0.3,0.2-0.5c0.1-0.2,0.1-0.3,0.3-0.3c0.2-0.1,0.3-0.1,0.4-0.2
				c0-0.1,0-0.2,0-0.4c0-0.1,0-0.1,0.1-0.2c0.1,0,0.1-0.1,0.2-0.2c0.1,0,0.1,0,0.2,0c0.1,0,0.2,0,0.2,0c-0.1-0.1-0.2-0.3-0.2-0.4
				c-0.1-0.1-0.1-0.3-0.2-0.4c0.3-0.1,0.4-0.1,0.4,0c0,0.1,0,0.3,0.1,0.4c0.1-0.2,0.3-0.3,0.4-0.5c0.1-0.2,0.2-0.3,0.3-0.5
				c0.1-0.1,0.1-0.2,0.2-0.3c0.1-0.1,0-0.2-0.2-0.3c0.1-0.1,0.1-0.2,0.2-0.3c0-0.1,0.1-0.2,0.2-0.2c0,0,0.1-0.1,0.2-0.2
				c0.1-0.1,0.2-0.2,0.3-0.3c0.1-0.1,0.2-0.2,0.3-0.3c0.1-0.1,0.1-0.2,0.1-0.2c-0.1-0.2-0.1-0.4,0-0.5c0.1-0.1,0.2-0.2,0.3-0.4
				c0.5-0.5,0.7-1,0.8-1.5c0.1-0.1,0.1-0.2,0.3-0.2c0.1,0,0.1-0.1,0.2-0.1c0.1,0,0.1-0.1,0.2-0.1h0.1v-0.1c0.3-0.2,0.6-0.5,0.8-0.9
				c0-0.1,0.1-0.1,0.1-0.1c0,0,0-0.1,0.1-0.1c0.1-0.1,0.2-0.2,0.2-0.3l0.7-0.9l0.4-0.4c0.1-0.1,0.3-0.3,0.4-0.5
				c0.1-0.2,0.1-0.5,0.2-0.7c0,0,0,0,0,0l0.5-0.7c0.1-0.2,0.3-0.4,0.4-0.6c0.1-0.2,0.2-0.4,0.4-0.5c0.1-0.2,0.2-0.3,0.4-0.5
				c0.1-0.1,0.2-0.3,0.4-0.5c0.2-0.2,0.3-0.5,0.5-0.7c0.2-0.2,0.3-0.5,0.5-0.7c0.3-0.3,0.4-0.6,0.5-0.9c0-0.3,0.1-0.7,0.2-1v0
				C192.9,65.7,192.6,65,192.2,64.4z M155.7,96.5c-0.1,0-0.1,0-0.2,0c0.1-0.1,0.1-0.3,0.1-0.4c0-0.1,0.1-0.3,0.1-0.4
				C156.2,95.8,156.2,96.1,155.7,96.5z M158.7,89.4c0.1-0.1,0.3-0.2,0.4-0.2c0,0,0.1,0,0.1,0c0,0,0.1,0.1,0.1,0.1
				c0,0.1,0,0.1-0.1,0.2c-0.1,0.1-0.2,0.1-0.3,0.1l-0.1,0.4c-0.1,0-0.2-0.1-0.3-0.1c-0.1,0-0.2,0-0.3-0.1c0-0.1,0-0.1,0-0.2
				C158.4,89.5,158.6,89.5,158.7,89.4z M158.1,90.4c0.1,0,0.2-0.1,0.4-0.1c0,0,0.1,0,0.1,0c0,0.1,0.1,0.1,0.1,0.1
				c-0.1,0.1-0.2,0.2-0.2,0.2c-0.1,0-0.2,0-0.3,0c-0.1,0-0.2,0-0.3,0c0,0,0-0.1,0-0.1c0,0,0-0.1,0-0.1
				C157.8,90.4,158,90.4,158.1,90.4z M156.5,96.1C156.5,96,156.5,96,156.5,96.1c0-0.1-0.1-0.1-0.1-0.1l0.7-1.2c0-0.1,0-0.2,0-0.3
				c0-0.1,0-0.2,0.1-0.3c0.1-0.2,0.3-0.4,0.4-0.6c0.1-0.2,0.3-0.4,0.4-0.6c0.2-0.3,0.4-0.7,0.4-1.2c0.1-0.2,0.1-0.4,0.3-0.4
				c0.1,0,0.4,0.1,0.7,0.3c-0.2,0.1-0.3,0.3-0.3,0.6c0,0.2-0.2,0.4-0.5,0.4c-0.1,0-0.1,0.1-0.1,0.2c0,0.1,0,0.3,0,0.4
				c-0.1,0.1-0.3,0.1-0.4,0.2c-0.1,0.1-0.1,0.2-0.1,0.5c0,0.1,0,0.1-0.1,0.2c-0.1,0.1-0.2,0.1-0.3,0.2l0,0l0,0.1
				c-0.1,0.3-0.2,0.5-0.3,0.8c-0.1,0.3-0.2,0.5-0.4,0.7c0,0.1-0.1,0.1-0.2,0.1C156.7,96,156.6,96,156.5,96.1z M172.3,86.9
				c0,0,0,0.1,0,0.1c-0.1,0.1-0.2,0.1-0.4,0.1c-0.1,0-0.2,0.1-0.4,0.1c0,0,0-0.1,0-0.1c0.1-0.1,0.2-0.1,0.2-0.2
				c0.1-0.1,0.2-0.1,0.3-0.2c0.1,0,0.2,0,0.3,0C172.3,86.8,172.3,86.9,172.3,86.9z M170.7,87.7c-0.1,0.1-0.1,0.1-0.1,0.2
				c0,0.1-0.1,0.1-0.1,0.1c-0.2,0.2-0.4,0.3-0.6,0.5c-0.2,0.2-0.4,0.3-0.6,0.6c-0.2,0.2-0.5,0.4-0.7,0.6c-0.2,0.2-0.4,0.4-0.7,0.7
				c-0.3,0.3-0.6,0.6-0.9,0.9c-0.3,0.3-0.6,0.6-0.8,0.9c-0.8,0.9-1.5,1.9-2.3,2.8c-0.8,0.9-1.5,1.8-2.3,2.8
				c-0.6,0.8-1.3,1.6-1.9,2.4c-0.6,0.8-1.2,1.6-1.8,2.4c-0.1,0.1-0.2,0.3-0.4,0.4c-0.1,0.1-0.3,0.3-0.4,0.4c-0.1,0.1-0.2,0.1-0.2,0
				c-0.1-0.1-0.2-0.1-0.2-0.2c0-0.2-0.1-0.4-0.1-0.6c0-0.2,0-0.4,0-0.6c0-0.1,0-0.1,0-0.1c0.1,0,0.1-0.1,0.1-0.1
				c0.1-0.1,0.2-0.3,0.3-0.5c0.1-0.2,0.1-0.4,0-0.6c0-0.1,0-0.1,0-0.2c0-0.1,0.1-0.1,0.2-0.2c0.1-0.1,0.1-0.1,0.2-0.2
				c0.1-0.1,0.1-0.1,0.2-0.2c0.1-0.2,0.1-0.4,0.2-0.6c0-0.2,0.1-0.4,0.2-0.6c0.4-0.2,0.7-0.6,0.7-1.2c0-0.1,0-0.1,0-0.1
				c0,0,0.1-0.1,0.1-0.1c0.1-0.1,0.1-0.3,0.2-0.4c0.1-0.1,0.1-0.3,0.2-0.5c0.3-0.1,0.5-0.3,0.5-0.7c0-0.3,0.1-0.6,0.2-1
				c0-0.1,0-0.1,0-0.2c0-0.1,0-0.1,0.1-0.1c0.3-0.1,0.5-0.3,0.6-0.6c0.2-0.2,0.3-0.5,0.5-0.8c0.1-0.2,0.2-0.5,0.3-0.7
				c0.1-0.2,0.3-0.5,0.6-0.6c0.2-0.1,0.4-0.3,0.5-0.6c0.1-0.3,0.3-0.5,0.4-0.7c0.3-0.5,0.6-0.9,1-1.4c0.3-0.5,0.7-1,1-1.5
				c0.2-0.3,0.5-0.6,0.7-0.9c0.2-0.3,0.4-0.6,0.7-0.8c0.1-0.1,0.2-0.3,0.4-0.4c0.1-0.1,0.2-0.2,0.4-0.4c0.4-0.4,0.8-0.9,1.3-1.3
				c0.4-0.4,0.9-0.9,1.3-1.3c0.3-0.2,0.6-0.4,0.9-0.6c0.3-0.2,0.7-0.4,1-0.5c0.3-0.1,0.6-0.3,0.9-0.4c0.3-0.1,0.6-0.2,0.9-0.4
				c0.1,0,0.2-0.1,0.3-0.3c0.1-0.1,0.1-0.2,0.2-0.3c0.1-0.1,0.1-0.2,0.2-0.4c0.3,0.3,0.6,0.6,0.8,0.8c0.3,0.3,0.5,0.5,0.8,0.8
				c0.1,0.1,0.3,0.3,0.4,0.4c0.1,0.1,0.2,0.3,0.4,0.4c0.2,0.2,0.2,0.3,0.2,0.4c-0.1,0.1-0.2,0.2-0.3,0.3c-0.3,0.2-0.6,0.5-0.9,0.7
				c-0.3,0.2-0.6,0.4-0.9,0.7C173.1,85.4,171.8,86.6,170.7,87.7z M175.4,83.9c-0.1,0.3-0.3,0.5-0.4,0.5c-0.1,0-0.3,0-0.5,0
				c0.1-0.1,0.3-0.2,0.4-0.3C175.1,84,175.3,84,175.4,83.9z M174.5,85.1c-0.1,0.1-0.3,0.2-0.5,0.2c-0.2,0-0.3,0.1-0.4,0.4
				c0,0-0.2,0-0.5,0.1c0.3-0.4,0.6-0.7,0.9-0.9c0.3-0.1,0.7-0.1,0.9,0c-0.1,0.1-0.2,0.1-0.3,0.1C174.6,85,174.5,85,174.5,85.1z
				 M173.9,98c0,0.1-0.1,0.2-0.1,0.3c0,0.1-0.1,0.2-0.2,0.3c-0.2-0.1-0.2-0.2-0.2-0.3c0.1-0.1,0.1-0.2,0.1-0.3c0-0.1,0-0.2,0-0.3
				c0-0.1,0-0.3,0-0.4c0.2,0.2,0.3,0.3,0.3,0.3C174,97.8,174,97.9,173.9,98z M174.3,96.5c0,0.1-0.1,0.3-0.1,0.5
				c-0.1-0.1-0.1-0.1-0.2-0.2c-0.1,0-0.1-0.1-0.1-0.2c0-0.1,0.1-0.2,0.1-0.3c0-0.1,0.1-0.2,0.1-0.3c0.1,0,0.2,0,0.3,0.1
				C174.4,96.3,174.4,96.4,174.3,96.5z M175.1,93.4c-0.2,0-0.3,0-0.5,0c-0.2,0-0.3,0-0.5-0.1c-0.1,0-0.1-0.1-0.2-0.2
				c0-0.1-0.1-0.2,0-0.2c0-0.1,0.1-0.2,0.3-0.4c0.1,0,0.2,0.1,0.4,0.2c0.1,0.1,0.3,0.3,0.5,0.6V93.4z M177,91.8
				c-0.1,0-0.3,0.1-0.4,0.2c0.2-0.3,0.3-0.5,0.4-0.5c0.1,0,0.2,0,0.4,0.2C177.3,91.7,177.1,91.8,177,91.8z M177.8,85.8
				c-0.1,0.1-0.2,0.3-0.3,0.4c0,0,0,0,0.2,0.1c-0.1,0.1-0.2,0.1-0.2,0.1c-0.1,0-0.1,0.1-0.2,0.1c-0.1,0.1-0.1,0.1-0.2,0.2
				c-0.1,0,0,0.1,0.1,0.3c0,0,0,0.1,0,0.1c0,0.1,0,0.1,0,0.1c0,0,0,0.1,0,0.1c-0.1,0.1-0.1,0.1-0.2,0.2c-0.1,0.1-0.2,0.1-0.2,0.2
				c0.1,0.1,0.1,0.3,0.2,0.4c-0.1,0-0.3-0.1-0.5-0.1c0.1,0.3,0.1,0.6,0.1,0.8c-0.2,0.1-0.4,0.2-0.7,0.3l0.3,0.3l-0.4,0.4
				c0,0.1,0.1,0.1,0.1,0.2c0,0.1,0.1,0.2,0.1,0.2c-0.3,0.1-0.5,0.2-0.6,0.3c0,0.1-0.1,0.2-0.1,0.3c0,0.1-0.1,0.2-0.1,0.3
				c0.1,0,0.1,0,0.2,0c0.1,0,0.2,0,0.3,0c-0.1,0.1-0.1,0.2-0.1,0.4c0,0.1-0.1,0.2-0.1,0.3c-0.1,0.1-0.1,0.3-0.1,0.5
				c0,0.1,0,0.1-0.1,0.2c-0.1,0.1-0.1,0.1-0.2,0.1c-0.1,0-0.2-0.1-0.3-0.1c-0.1,0-0.2-0.1-0.3-0.1c0.1-0.2,0.2-0.3,0.2-0.4
				c0-0.1-0.1-0.1-0.1-0.2c0-0.1,0-0.1,0-0.2c0.1-0.4,0.2-0.7,0.4-1.1c0.1-0.4,0.2-0.7,0.4-1.1c0.1-0.3,0.2-0.4,0.2-0.5
				c0.1-0.1,0.2-0.1,0.5-0.2c-0.2-0.5-0.1-0.8,0.3-1c-0.1-0.1,0-0.4,0.1-0.7c0.1-0.3,0.2-0.7,0.4-1c0.2-0.4,0.4-0.7,0.6-1
				c0.2-0.3,0.4-0.5,0.6-0.6c-0.1,0.2-0.1,0.3-0.2,0.5c-0.1,0.1-0.1,0.3-0.2,0.4c0.1,0.1,0.2,0.1,0.5,0.2
				C178,85.5,177.9,85.6,177.8,85.8z"/>
		</g>
	</g>
</g>
</svg>
