<?xml version="1.0" encoding="utf-8"?>
<!-- Generator: Adobe Illustrator 22.0.1, SVG Export Plug-In . SVG Version: 6.00 Build 0)  -->
<svg version="1.1" id="Layer_1" xmlns="http://www.w3.org/2000/svg" xmlns:xlink="http://www.w3.org/1999/xlink" x="0px" y="0px"
	 viewBox="0 0 80 80" style="enable-background:new 0 0 80 80;" xml:space="preserve">
<style type="text/css">
	.st0{fill:#B5916F;}
	.st1{fill:#135FA7;}
	.st2{fill:#018BD2;}
	.st3{fill:none;}
	.st4{fill:#008BD2;}
	.st5{fill:#FFFFFF;}
	.st6{fill:#08A9E1;}
	.st7{fill:#F6F9F9;}
	.st8{fill:url(#SVGID_1_);}
	.st9{fill:#FFFFFF;stroke:#BABCBE;stroke-width:0.2278;stroke-miterlimit:10;}
	.st10{fill:#FFFFFF;stroke:#F2F2F2;stroke-width:0.2307;stroke-miterlimit:10;}
</style>
<g>
	<path class="st1" d="M33.6,44.2c-1.7-0.2-3.1-1-3.4-2.6c-0.4-2.5-0.4-3.8,1.7-5.3c1.1-0.8,2.1-1.6,3.2-2.4c0.4,0.5,0.8,1,1.1,1.5
		c0.1,0.1-0.1,0.5-0.3,0.6c-1,0.8-2,1.5-3.1,2.3c-0.7,0.5-1,2.4-0.4,3c0.3,0.3,0.7,0.5,1.1,0.5c1.4,0.2,2.2,1.1,2.2,2.4
		c0,1,0,1.9,0,2.9c0,0.7,0.2,1.1,0.8,1.4c1.5,0.7,2.9,1.5,4.4,2.2c0.4,0.2,1,0.1,1.5,0c0.9-0.3,1.7-0.8,2.6-1.3
		c1.1-0.5,2-0.4,2.8,0.5c2.2,2.2,2.1,1.6,2,4.9c0,0.8-0.2,1.6-0.4,2.3c-0.4,1.2-0.9,2.3-1.4,3.5c-0.6,1.5-1.8,2.3-3.4,2.3
		c-0.1,0-0.1,0-0.2,0c-0.8,0.1-1.7-0.3-2.3,0.5c-0.8,1.2-1.4,2.5-0.8,4.1c0.1,0.3,0.3,0.6,0.4,0.8c0.6,1,1.2,1.9,1.9,3
		c8.6-6.6,12.1-15.1,10.8-25.8c0.7-0.1,1.4-0.2,2-0.4c1.8,8-0.8,21-12.5,28.6C32.9,81.1,18,79.5,8.5,69.7
		c-9.1-9.4-10.7-23.9-3.4-35.1c7.5-11.5,21-14.7,30.9-11.8c-0.2,0.7-0.3,1.3-0.5,2.1c-4.7-1.1-9.3-1.1-13.9,0.2c0,0.1,0,0.1,0,0.2
		c0.7,0.1,1.4,0.3,2.1,0.4c1.1,0.2,2.2,0.4,3.3,0.6c0.8,0.2,1.1,0.7,0.9,1.5c-0.3,0.8-0.6,1.6-0.8,2.5c-0.2,0.5-0.5,0.9-1,1
		c-1.8,0.3-2.9,1.3-3.5,2.9c-0.8,2-2.4,3.1-4.2,4.1c-1.8,1.1-3.6,1.7-5.7,1.9c-0.6,0-1.2,0.2-1.7,0.3c-0.3,0.1-0.8,0.2-0.8,0.3
		c0,0.5,0,1,0.2,1.5c0,0.2,0.3,0.3,0.5,0.5c0.7,0.6,1.4,1.3,1.3,2.5c0.2-0.2,0.5-0.3,0.7-0.5c0.8-0.8,1.5-0.7,2.1,0.4
		c0.4,0.8,0.8,1.5,1.1,2.3c0.2,0.4,0.4,0.6,0.9,0.6c1.6,0,3.1,0,4.7,0c0.8,0,1.4,0.3,1.8,1c0.6,1.1,1.3,2.1,1.9,3.2
		c0.2,0.4,0.5,0.6,1,0.5c0.8,0,1.6,0,2.3,0c0.9,0,1.4,0.5,1.2,1.4c-0.3,1.5-0.6,2.9-0.9,4.4c-0.1,0.3-0.3,0.7-0.6,1
		c-0.9,1-1.9,1.9-2.8,2.8c-0.2,0.2-0.4,0.6-0.4,1c-0.1,2.8,0.4,2.1-2,3.8c-1.5,1-2.2,2.1-1.9,3.8c0.1,0.6,0,1.2,0,1.8
		c0,0.8-0.6,1.2-1.4,1c-0.9-0.3-1.8-0.6-2.7-0.9c-0.3-0.1-0.7-0.5-0.8-0.8c-0.6-1.4-1.2-2.9-1.7-4.3c-0.1-0.3-0.2-0.7-0.2-1
		c0-2.5,0-4.9,0-7.4c0-0.5-0.1-0.8-0.7-0.9c-1-0.2-2-0.4-3-0.6c-0.4-0.1-0.8-0.4-0.9-0.7c-0.6-1.1-1.2-2.3-1.7-3.4
		C8,53.1,8,52.8,8,52.4c0-0.6,0-1.2,0-1.8c-0.1-0.8,0.1-1.4,0.8-1.9c0.1-0.1,0.2-0.3,0.4-0.5c-0.2-0.2-0.4-0.3-0.6-0.4
		c-1.1-0.7-2.1-1.5-3.3-2.2C4.7,45.2,4.2,44.8,4,44c0-0.2-0.1-0.3-0.3-0.6C1.5,50.6,2.7,62,12,69.9c9.2,7.8,21.4,7.7,29.7,2.6
		c-0.6-1-1.3-2.1-1.9-3.1c-0.9-1.4-1.1-3-0.7-4.6c0.3-1,0.7-1.9,1.3-2.7c0.6-0.9,1.6-1.4,2.7-1.4c2.8,0,2.5,0.1,3.5-2.4
		c0.7-1.6,1.3-3.1,1.1-4.9c-0.1-0.4-1.1-1.9-1.5-1.9c-0.2,0-0.4,0.1-0.5,0.1c-0.7,0.4-1.5,0.7-2.2,1.1c-1.2,0.6-2.3,0.6-3.5,0
		c-1.5-0.7-3-1.5-4.4-2.2c-1.3-0.7-2.1-1.8-2-3.3C33.6,46.3,33.6,45.2,33.6,44.2z M27.5,54.8c-0.8,0-1.5,0-2.1,0
		c-0.6,0-1.1-0.2-1.4-0.8c-0.7-1.2-1.4-2.3-2-3.4c-0.2-0.4-0.5-0.5-1-0.5c-1.7,0-3.4,0-5,0c-0.7,0-1.2-0.3-1.4-0.9
		c-0.3-0.7-0.7-1.3-1-2.1c-1.1,1.1-2.1,2.1-3.2,3.2c-0.1,0.1-0.1,0.3-0.1,0.4c0,1-0.1,2,0.5,2.9c0.3,0.4,0.5,1,0.8,1.4
		c0.2,0.3,0.5,0.5,0.8,0.6c1.1,0.3,2.3,0.5,3.4,0.7c0.8,0.2,1.1,0.5,1.1,1.3c0,1.7,0.1,3.5,0,5.2c-0.2,2.6,0.2,5,1.4,7.3
		c0,0,0,0,0,0.1c0.1,0.6,0.6,0.8,1.2,0.8c0-1,0-1.9,0-2.8c0-0.6,0.2-1,0.6-1.3c0.6-0.4,1.1-0.9,1.8-1.3c1.1-0.6,1.5-1.4,1.3-2.7
		c-0.1-0.7,0.2-1.3,0.7-1.8c0.7-0.7,1.3-1.5,2.1-2.1C27.2,57.9,27.1,56.4,27.5,54.8z M25.4,28.2c-0.6-0.1-1.1-0.2-1.7-0.3
		c-1.4-0.3-3-0.2-4.2-1.4c-0.5-0.5-1-0.4-1.7-0.1c-5.2,2.5-9.2,6.3-12,11.3c-0.7,1.3-0.9,2.4-0.4,3.9C6,43,6.6,44.1,8,44.8
		c0.6,0.3,1.2,0.8,1.8,1.2c0.2-0.8,0-1.3-0.5-1.8C8.7,43.6,8.2,43,8,42.4c-0.2-0.9-0.1-1.8,0-2.8c0-0.6,0.4-1,1-1.1
		c1-0.2,2.1-0.3,3.1-0.5c1.5-0.3,3-0.3,4.4-1.1c2.2-1.2,4-2.7,5-5.1c0.6-1.3,1.5-2.1,2.9-2.3C25.1,29.5,25.4,29,25.4,28.2z"/>
	<path class="st1" d="M39.9,18.1c0-0.9,0.8-1.4,1.8-1c4,1.7,8.1,3.3,12.1,5c3.8,1.6,7.7,3.2,11.5,4.8c0.5,0.2,1.1,0.5,1.1,1.1
		c0,0.7-0.4,1-0.9,1.3c-2.5,1.6-5,3.1-7.5,4.7c-0.4,0.2-0.5,0.5-0.4,1c0.3,1.1,0.4,2.3,0.7,3.5c0.1,0.5,0.1,1-0.4,1.3
		c-0.4,0.2-0.9,0.2-1.3,0.1c-1.1-0.4-2.1-1-3.2-1.5c-0.5-0.3-0.8-0.2-1.2,0.2c-2.1,2-4.3,4-6.4,6.1c-0.4,0.4-0.9,0.7-1.5,0.5
		c-0.6-0.2-0.7-0.7-0.8-1.2c-0.4-2.5-0.7-4.9-1-7.4c-0.6-4.3-1.2-8.5-1.8-12.8C40.4,21.8,40.1,20,39.9,18.1z M45.5,41.5
		c0.2-0.1,0.2,0,0.3-0.1c1.7-1.6,3.4-3.1,5-4.7c0.1-0.1,0.1-0.5,0-0.7c-2.4-4-4.9-7.9-7.3-11.9c-0.1-0.1-0.1-0.3-0.1-0.5
		c-0.1,0.1-0.2,0.2-0.3,0.2C43.8,29.8,44.6,35.6,45.5,41.5z M46.2,21.5c0,0.1-0.1,0.1-0.1,0.2c0.2,0.3,0.4,0.5,0.7,0.8
		c3,3.2,6.1,6.3,9.1,9.5c0.3,0.4,0.5,0.3,0.9,0.1c1.7-1.1,3.5-2.2,5.3-3.3c0.2-0.1,0.3-0.2,0.6-0.5C57.1,26,51.6,23.7,46.2,21.5z
		 M55.4,36.8c0.1,0,0.2-0.1,0.3-0.1c-0.3-0.9-0.5-1.9-1-2.6c-1.5-1.8-3.2-3.5-4.9-5.2c-0.4-0.4-0.8-0.8-1.2-1.2
		c-0.1,0-0.1,0.1-0.2,0.1c1.4,2.3,2.9,4.6,4.2,6.9C53.2,35.9,54.3,36.3,55.4,36.8z"/>
	<path class="st1" d="M66.1,49.2c-1-0.1-1.9-0.2-2.8-0.4c-2.2-0.6-3.7-1.9-4.2-4.3c-0.3-1.6,0.2-2.9,1.3-4.1c0.5-0.5,1-0.5,1.5-0.1
		c0.5,0.4,0.5,1,0,1.6c-0.7,0.8-1,1.6-0.6,2.6c0.4,1.1,1.3,1.9,2.4,2.2c0.8,0.2,1.7,0.3,2.6,0.3c0.2,0,0.5-0.3,0.6-0.5
		c0.6-1,1.1-2.1,1.8-3c0.7-1,1.7-1.7,3-1.6c1,0.1,1.9,0.5,2.3,1.6c0.4,1.1,0,2.1-0.7,2.9c-1.1,1.2-2.6,1.9-4.2,2.3
		c-0.7,0.2-0.9,0.5-0.9,1.1c-0.2,2,0.8,3.5,2.3,4.7c2.4,2,5.1,2.7,8.1,2.5c1.1,0,1.3,0.1,1.4,0.9c0,0.8-0.4,1.2-1.4,1.2
		c-3,0.1-5.9-0.5-8.4-2.1C67.4,55.1,65.6,52.7,66.1,49.2z M69.6,45.9c0.1,0.1,0.1,0.1,0.2,0.2c0.5-0.3,1.1-0.7,1.6-1
		c0.2-0.1,0.2-0.5,0.3-0.7c-0.3,0-0.6-0.1-0.8,0.1C70.4,44.8,70,45.4,69.6,45.9z"/>
</g>
</svg>
