<?xml version="1.0" encoding="utf-8"?>
<!-- Generator: Adobe Illustrator 22.0.1, SVG Export Plug-In . SVG Version: 6.00 Build 0)  -->
<svg version="1.1" id="Layer_1" xmlns="http://www.w3.org/2000/svg" xmlns:xlink="http://www.w3.org/1999/xlink" x="0px" y="0px"
	 viewBox="0 0 200 200" style="enable-background:new 0 0 200 200;" xml:space="preserve">
<style type="text/css">
	.st0{fill:#135FA7;}
	.st1{fill:#8F7049;}
	.st2{fill:#004289;}
	.st3{fill:#56BFEF;}
	.st4{fill:#1D4A7D;}
	.st5{fill:url(#SVGID_1_);}
	.st6{fill:#008BD2;}
	.st7{fill:#416DB1;}
	.st8{fill:none;stroke:#135FA7;stroke-width:3.0855;stroke-miterlimit:10;}
</style>
<g>
	<g>
		<g>
			<g>
				<path class="st2" d="M25.6,102.5c-0.2-0.4-0.4-0.8-0.6-1.2c-0.2-0.4-0.4-0.8-0.5-1.2L8.1,57.2c0-0.1,0-0.2,0-0.3
					c0-0.1,0-0.2,0-0.3c0-0.6,0.4-0.9,1.2-0.9h10.3c0.8,0,1.4,0.4,1.7,1.2l9.7,29c0.9-2.4,1.7-4.8,2.5-7.3s1.6-4.8,2.4-7.3
					c0.8-2.4,1.6-4.8,2.4-7.3c0.8-2.4,1.6-4.8,2.5-7.3c0.3-0.8,0.9-1.2,1.8-1.2h10c0.5,0,0.8,0.1,1,0.3c0.2,0.2,0.3,0.4,0.3,0.7
					c0,0.2,0,0.3,0,0.3v0.1L37.2,100c-0.1,0.3-0.2,0.6-0.4,1c-0.1,0.4-0.3,0.7-0.5,1c-0.2,0.3-0.4,0.6-0.7,0.8
					c-0.3,0.2-0.5,0.3-0.9,0.3h-7.9C26.2,103.1,25.8,102.9,25.6,102.5z"/>
				<path class="st2" d="M155.4,101.7l-16.7-43.2l-0.8-1.8c-0.1-0.2-0.3-0.4-0.6-0.6c-0.3-0.2-0.6-0.3-0.9-0.3h-8.2
					c-0.2,0-0.4,0-0.5,0.1c-0.2,0.1-0.4,0.2-0.5,0.3c-0.2,0.1-0.3,0.3-0.4,0.4c-0.1,0.2-0.2,0.3-0.2,0.4l-17.3,44.8
					c-0.2,0.4-0.1,0.7,0.1,1c0.3,0.2,0.6,0.3,1,0.3h9.4c0.8,0,1.3-0.4,1.6-1.2c0.4-1.1,0.8-2.2,1.2-3.2c0.4-1.1,0.8-2.2,1.2-3.2
					h16.9c0.4,1.1,0.8,2.2,1.2,3.2c0.2,0.6,0.3,0.8,0.5,1.4c0.6-3.6,2.4-9.5,3.4-10.2c1.1-0.8,6.6,2.3,6,4.5
					c-0.1,0.4-2.7,6.5-3.4,8.6l5.6,0c0.6,0,1-0.1,1.2-0.4C155.5,102.5,155.5,102.1,155.4,101.7z M127.3,85.3
					c0.4-1.1,0.8-2.2,1.2-3.5c0.4-1.2,0.8-2.5,1.2-3.8c0.4-1.3,0.8-2.5,1.2-3.8c0.4-1.3,0.8-2.4,1.2-3.5l4.9,14.6H127.3z"/>
				<path class="st2" d="M67.1,97.6V57.2c0-0.4-0.2-0.8-0.5-1c-0.4-0.3-0.7-0.4-1-0.4h-9.4c-0.5,0-0.8,0.1-1.1,0.4
					c-0.2,0.3-0.3,0.6-0.3,1v44.5c0,0.9,0.5,1.4,1.4,1.4h9.2L67.1,97.6z"/>
				<g>
					<path class="st3" d="M70.8,111.1c0.7-3.8,1.7-7.7,2.9-11.6c-0.3-0.4-0.6-0.7-1-1.1c-0.4-0.4-0.8-0.7-1.3-0.9
						c-0.4-0.3-0.9-0.5-1.3-0.6c-0.4-0.1-0.7-0.2-1-0.2c-1,2.9-1.8,5.9-2.4,9c-0.6,3.1-1,6.2-1.3,9.2c-0.3,3-0.4,6-0.4,8.9
						c0,2.9,0.2,5.5,0.4,7.9c0.2,2.4,0.6,4.5,1,6.3c0.4,1.8,0.9,3.1,1.5,4c0.1,0,0.2,0.1,0.4,0.1c0.2,0,0.4,0,0.6-0.1
						c0.2-0.1,0.4-0.2,0.6-0.3c0.2-0.2,0.3-0.4,0.3-0.7c-0.1-2.3-0.8-5.5-0.9-8.7c-0.1-3.2-0.1-6.5,0.2-10.1
						C69.6,118.6,70.1,114.9,70.8,111.1z"/>
					<path class="st3" d="M135.9,103.5c0.2,0.2,0.4,0.5,0.6,0.6c0.2,0.2,0.4,0.2,0.6,0.1c0.6-0.3,1.2-0.7,1.9-1.2
						c0.7-0.5,1.1-0.8,1.2-1.1c0.2-0.4,0.3-0.8,0.3-1.2c-0.1-0.4-0.2-0.8-0.3-1.1c-0.2-0.3-0.3-0.5-0.5-0.7c-0.2-0.1-0.3-0.1-0.3,0
						c0,0.2-0.2,0.5-0.5,0.7c-0.2,0.3-0.5,0.5-0.9,0.8c-0.4,0.3-0.7,0.6-1.1,0.8c-0.4,0.3-0.8,0.5-1.1,0.7c-0.2,0.1-0.2,0.3-0.2,0.6
						C135.5,103,135.7,103.2,135.9,103.5z"/>
					<path class="st3" d="M184.4,108.2c-0.2,0-0.5,0-0.8,0.2c-0.3,0.2-0.6,0.5-0.9,1c-1.1,2.2-2.3,4-3.6,5.4
						c-1.3,1.5-2.5,2.6-3.6,3.3c-1.2,0.7-2.2,1.1-3.1,1.1c-0.9,0-1.6-0.3-2-1.1c1.5-0.1,2.7-0.5,3.8-1.3c1.1-0.8,2-1.7,2.7-2.7
						c0.7-1.1,1.2-2.2,1.5-3.5c0.3-1.2,0.4-2.4,0.2-3.5c-0.2-1.1-0.6-2-1.2-2.7c-0.6-0.7-1.5-1.2-2.7-1.2c-0.7,0-1.4,0.1-2.2,0.3
						c-0.8,0.3-1.5,0.7-2.3,1.3c-0.7,0.6-1.4,1.5-2.1,2.5c-0.7,1-1.2,2.3-1.6,3.8c-0.1,0.5-0.2,0.9-0.3,1.4c0,0.1-0.1,0.1-0.1,0.1
						c-0.4,0.8-0.9,1.6-1.4,2.4c-0.5,0.8-1,1.6-1.5,2.2c-0.5,0.7-0.9,1.2-1.3,1.6c-0.4,0.4-0.7,0.6-1,0.5c-0.3-0.1-0.3-0.5-0.2-1.4
						c0.1-0.8,0.4-2,0.8-3.3c0.4-1.4,0.9-3,1.6-4.8c0.7-1.8,1.4-3.6,2.1-5.6c0.8-1.9,1.5-3.8,2.3-5.7c0.8-1.9,1.6-3.7,2.3-5.3
						c-0.1-0.5-0.4-0.9-0.7-1.3c-0.3-0.4-0.7-0.7-1.1-1c-0.4-0.3-0.8-0.6-1.2-0.7c-0.4-0.2-0.7-0.3-1-0.3c-1.2,2.5-2.3,5-3.3,7.5
						c-1,2.5-1.9,4.9-2.7,7.3c-0.7,2-1.2,4-1.6,5.8c-0.3,0.4-0.6,0.7-0.9,1c-0.7,0.6-1.4,1-2.1,1.3c0.1-1.1,0.1-2.1,0-3.1
						c-0.1-1-0.4-1.9-0.8-2.7c-0.4-0.8-1-1.5-1.7-2c-0.7-0.5-1.6-0.9-2.7-1.1c-1.2-0.2-2.3,0-3.3,0.3c0.6-1.9,1.2-3.8,1.8-5.6
						c0.6-1.8,1.3-3.5,1.9-5c-0.2-0.4-0.5-0.9-0.8-1.2c-0.4-0.4-0.8-0.7-1.2-0.9c-0.4-0.3-0.8-0.5-1.2-0.6c-0.4-0.2-0.7-0.2-1-0.2
						c-0.6,1.5-1.1,3.3-1.7,5.2c-0.6,1.9-1.2,3.9-1.7,6c-0.5,2.1-1,4.1-1.4,6.2c-0.2,1.2-0.4,2.4-0.6,3.5c0,0,0,0.1-0.1,0.1
						c-0.3,0.7-0.6,1.4-1,2.2c-0.4,0.8-0.8,1.7-1.2,2.5c-0.4,0.9-0.8,1.6-1.3,2.3c-0.4,0.7-0.8,1.3-1.2,1.7c-0.4,0.4-0.7,0.6-1,0.6
						c-0.3,0-0.4-0.3-0.4-0.9c0-0.5,0.1-1.2,0.2-2.1c0.2-0.8,0.4-1.8,0.7-2.8c0.3-1,0.6-2,0.9-3c0.3-1,0.6-1.9,0.9-2.8
						c0.3-0.9,0.5-1.6,0.7-2.1c-0.3-0.9-0.9-1.5-1.7-1.9c-0.8-0.4-1.5-0.6-2-0.6c-0.2,0.6-0.6,1.5-1,2.6c-0.4,1.1-0.8,2.4-1.2,3.7
						c-0.3,0.9-0.4,1.9-0.6,2.9c-0.5,1-1,1.9-1.6,2.7c-1.1,1.6-2.2,2.8-3.2,3.7c-1.1,0.9-2,1.4-2.9,1.5c-0.9,0.1-1.6-0.2-2.1-0.8
						c1.4-0.3,2.6-0.9,3.6-1.7c1-0.9,1.8-1.9,2.4-3c0.6-1.1,1-2.3,1.1-3.6c0.2-1.3,0.1-2.4-0.2-3.5c-0.3-1-0.8-1.9-1.5-2.6
						c-0.7-0.7-1.6-1-2.8-0.9c-0.7,0-1.4,0.2-2.1,0.6c-0.7,0.4-1.4,0.9-2.1,1.6c-0.6,0.7-1.2,1.6-1.8,2.7c-0.5,1.1-0.9,2.4-1.1,4
						c-0.1,0.5-0.1,0.9-0.2,1.4c0,0.1-0.1,0.2-0.1,0.3c-0.3,0.8-0.7,1.7-1.1,2.6c-0.4,0.9-0.8,1.7-1.1,2.4c-0.4,0.7-0.7,1.3-1.1,1.8
						c-0.4,0.5-0.7,0.7-0.9,0.6c-0.4,0-0.6-0.6-0.5-1.8c0.1-1.1,0.3-2.5,0.7-4c0.3-1.5,0.7-3,1.2-4.6c0.4-1.5,0.7-2.7,1-3.5
						c-0.4-0.9-1-1.5-1.8-1.9c-0.8-0.4-1.5-0.5-2.1-0.5c-0.5,0.8-1,1.6-1.5,2.3c-0.5,0.7-1,1.4-1.5,1.9c-0.5,0.6-0.9,1-1.3,1.3
						c-0.4,0.3-0.7,0.5-0.9,0.5c0.1-0.2,0.2-0.5,0.4-0.9c0.2-0.4,0.3-0.7,0.3-0.9c-0.2-0.3-0.4-0.6-0.8-0.9
						c-0.4-0.3-0.7-0.5-1.1-0.8c-0.4-0.2-0.7-0.4-1-0.5c-0.3-0.1-0.5-0.2-0.5-0.2c-0.2,0.2-0.4,0.6-0.6,1.1
						c-0.2,0.5-0.4,1.1-0.6,1.7c-0.2,0.6-0.4,1.2-0.5,1.7c-0.2,0.5-0.2,1-0.3,1.2c0.2,0.7,0.6,1.2,1.1,1.6c-0.8,2.2-1.7,4.1-2.8,5.5
						c-1.4,1.9-2.6,3.1-3.8,3.6c-1.2,0.5-2.1,0.2-2.8-0.8c-0.7-1-0.8-2.9-0.4-5.6c0.3-1.8,0.7-3.1,1.2-3.9c0.5-0.8,1-1.3,1.4-1.2
						c0.4,0,0.8,0.5,1,1.3c0.2,0.8,0.2,2,0,3.6c0.5,0.1,1-0.1,1.7-0.4c0.7-0.3,1.1-0.8,1.3-1.3c0.3-1.6,0.3-2.9,0-4.1
						c-0.3-1.1-0.8-2-1.5-2.6c-0.7-0.6-1.5-0.9-2.5-0.9c-1,0-1.9,0.4-2.8,1c-0.9,0.7-1.7,1.7-2.4,3.1c-0.7,1.4-1.2,3.1-1.4,5.3
						c-0.1,0.6-0.1,1.1-0.1,1.7c-0.3,0.8-0.6,1.6-0.8,2.5c-0.3,0.9-0.6,1.7-0.9,2.5c-0.3,0.7-0.6,1.3-0.9,1.8
						c-0.3,0.5-0.6,0.7-0.9,0.7c-0.2,0-0.4-0.2-0.5-0.7c-0.1-0.5-0.1-1.2,0-2c0.1-0.8,0.2-1.7,0.3-2.7c0.1-1,0.3-1.9,0.5-2.8
						c0.2-0.9,0.3-1.8,0.5-2.5c0.1-0.8,0.2-1.3,0.3-1.7c-0.4-0.8-1.1-1.4-1.9-1.7c-0.8-0.3-1.5-0.4-2-0.4c0,0,0,0-0.1,0
						c-0.2,0-0.5,0.2-0.9,0.5c-0.4,0.3-0.9,0.7-1.5,1.2c-0.6,0.5-1.1,1.2-1.7,1.9c-0.6,0.8-1.1,1.7-1.6,2.7c0.3-1.6,0.4-2.4,0.8-4.1
						c-0.2-0.4-0.4-0.7-0.8-1c-0.4-0.3-0.8-0.5-1.2-0.6c-0.4-0.1-0.8-0.2-1.2-0.2c-0.4,0-0.7,0.1-0.9,0.3c-0.3,1.9-0.5,3.8-0.7,5.7
						c-0.2,1.9-0.3,3.6-0.3,5.3c0,1.6,0.1,3.1,0.2,4.5c0.2,1.3,0.5,2.5,0.9,3.3c0.1,0.1,0.2,0.1,0.4,0.1c0.2,0,0.4,0.1,0.6,0
						c0.2,0,0.4-0.1,0.6-0.3c0.2-0.2,0.4-0.4,0.4-0.7c0-0.3,0-0.8,0-1.2c0-0.4,0-0.9,0-1.4c0.1-1.4,0.4-2.7,0.8-3.8
						c0.4-1.1,0.9-2.1,1.5-3c0.6-0.9,1.1-1.6,1.7-2.2c0.6-0.6,1.1-1.1,1.6-1.4c-0.2,1.3-0.3,2.6-0.3,3.9c0,1.4,0.1,2.6,0.3,3.7
						c0.2,1.1,0.6,2.1,1.2,2.8c0.6,0.7,1.4,1.1,2.4,1.1c0.7,0,1.4-0.5,2.1-1.4c0.7-0.9,1.3-2.1,1.9-3.5c0.1-0.3,0.3-0.7,0.4-1
						c0,0.1,0,0.1,0,0.2c0.5,1.5,1.3,2.6,2.3,3.2c1,0.6,2.1,0.8,3.4,0.5c1.3-0.3,2.6-1,3.9-2.2c1.3-1.2,2.5-2.8,3.7-4.8
						c0.8-1.4,1.5-3,2.1-4.8c0.5,0,1.1-0.1,1.8-0.3c1-0.3,2-0.7,3-1.4c-0.2,1.3-0.3,2.5-0.4,3.7c-0.1,1.2,0,2.3,0.2,3.3
						c0.2,1,0.6,1.8,1.1,2.4c0.5,0.6,1.3,0.9,2.3,1c0.7,0.1,1.5-0.3,2.2-1.3c0.7-0.9,1.5-2,2.2-3.4c0.2-0.5,0.5-0.9,0.7-1.4
						c0,0.2,0.1,0.4,0.1,0.5c0.5,1.6,1.2,2.7,2.2,3.4c1,0.7,2.2,0.9,3.5,0.7c1.4-0.2,2.7-0.8,4.1-1.9c1.3-1,2.5-2.3,3.7-4
						c0,0.1,0,0.2,0,0.3c0.1,1.2,0.4,2.2,0.9,3c0.5,0.8,1.3,1.3,2.4,1.4c0.7,0.1,1.5-0.3,2.3-1.1c0.8-0.9,1.6-2,2.3-3.3
						c0.4-0.7,0.8-1.5,1.3-2.3c0,0.7,0,1.4,0,2.1c0.1,1.6,0.3,2.8,0.7,3.8c0.1,0.1,0.2,0.1,0.4,0.2c0.2,0.1,0.4,0.1,0.7,0.1
						c0.2,0,0.5-0.1,0.7-0.2c0.2-0.1,0.4-0.3,0.4-0.6c0-0.4,0-0.7,0.1-1.1c0.9,0.8,2,1.3,3.2,1.5c1,0.1,2,0,2.9-0.3
						c0.9-0.4,1.7-0.9,2.4-1.6c0.7-0.7,1.3-1.5,1.9-2.5c0.5-1,0.9-2.7,1.3-3.1c0.3-0.3,1.7-0.7,2.7-1.3c-0.1,1-0.2,2-0.2,2.8
						c0,1.6,0.3,2.8,0.7,3.8s1.3,1.5,2.4,1.6c0.7,0.1,1.5-0.4,2.5-1.4c0.9-1,1.8-2.2,2.7-3.6c0.1-0.1,0.1-0.2,0.2-0.3
						c0,0.1,0,0.2,0,0.3c0.3,1.6,0.9,2.8,1.8,3.6c0.9,0.8,2.1,1.2,3.5,1.1c1.4,0,2.8-0.5,4.4-1.4c1.5-0.9,3.1-2.3,4.7-4.1
						c1.6-1.8,3-4,4.2-6.7c0.2-0.6,0.3-1,0.2-1.3C184.8,108.5,184.7,108.3,184.4,108.2z M121.6,116.2c0.2-1,0.5-2,0.9-3
						c0.4-0.9,0.8-1.7,1.3-2.3c0.5-0.6,1-0.9,1.5-0.7c0.3,0.1,0.6,0.4,0.7,0.8c0.1,0.4,0.1,1,0,1.6c-0.1,0.6-0.3,1.3-0.5,2
						c-0.3,0.7-0.6,1.4-1,2c-0.4,0.6-0.9,1.1-1.4,1.5c-0.5,0.4-1.1,0.7-1.8,0.7C121.3,118.1,121.4,117.2,121.6,116.2z M150.7,117.3
						c-0.3,0.6-0.6,1.1-1,1.6c-0.4,0.4-0.8,0.8-1.3,1c-0.5,0.2-0.9,0.3-1.5,0.2c-0.6-0.1-1.1-0.5-1.5-1c-0.4-0.5-0.6-1.2-0.7-2
						c-0.1-0.8-0.2-1.6-0.1-2.5c0.1-0.9,0.3-1.7,0.6-2.5c0.3-0.8,0.7-1.5,1.2-2.2c0.5-0.6,1-1.1,1.6-1.4c-0.4,1.8-0.2,3.3,0.5,4.5
						c0.7,1.2,1.7,1.9,3,2.4C151.2,116,151,116.7,150.7,117.3z M151,111.4c-0.2-0.6-0.1-1.3,0.2-2.2c0.3,0.4,0.5,1,0.6,1.6
						c0.1,0.6,0.1,1.3,0.1,2C151.4,112.5,151.1,112,151,111.4z M170.5,113c0.3-1,0.8-1.9,1.3-2.8c0.5-0.9,1-1.6,1.6-2.1
						c0.6-0.5,1.1-0.7,1.6-0.6c0.3,0.1,0.5,0.4,0.6,0.9c0.1,0.4,0,1-0.1,1.6c-0.1,0.6-0.4,1.3-0.8,2c-0.4,0.7-0.8,1.3-1.2,1.8
						c-0.5,0.5-1,1-1.6,1.4c-0.6,0.4-1.2,0.5-1.9,0.5C170,114.9,170.2,114.1,170.5,113z"/>
				</g>
				<g>
					<path class="st3" d="M63.4,139.2c-3.5,0.9-6.9,2-10.3,3.1c-0.5,0.2-2,0.6-1.8,1.5c0.2,0.8,1.8,0.5,2.3,0.3
						c3.4-1.1,6.9-2.1,10.3-3.1c0.5-0.1,2-0.7,1.8-1.5C65.5,138.8,63.9,139.1,63.4,139.2L63.4,139.2z"/>
				</g>
				<g>
					<path class="st3" d="M176.2,126.8c-34.5-3.2-70.6,1.4-104,10.1c-2.5,0.6-2,2.5,0.5,1.8c32.3-8.5,67.4-13,100.9-9.8
						C174.8,128.9,178.5,127,176.2,126.8L176.2,126.8z"/>
				</g>
			</g>
			<path class="st2" d="M112.7,73.1c-0.6-2-1.4-3.9-2.5-5.7c-1.1-1.8-2.3-3.4-3.8-4.8c-1.5-1.4-3.1-2.6-4.9-3.7
				c-1.8-1-3.7-1.8-5.8-2.4c-2.1-0.6-4.2-0.8-6.5-0.8H73.5c-0.5,0-0.9,0.1-1.1,0.4c-0.2,0.3-0.4,0.6-0.4,1.1v39.3
				c2.4,1.4,3.6,2.8,3,4.6c-0.2,0.7-0.5,1.4-0.7,1.9h14.8c2.2,0,4.4-0.3,6.5-0.8c2.1-0.5,4-1.3,5.8-2.3c1.8-1,3.4-2.2,4.9-3.6
				c1.5-1.4,2.7-3,3.8-4.8c1.1-1.8,1.9-3.6,2.5-5.7c0.6-2,0.9-4.2,0.9-6.4C113.6,77.3,113.3,75.1,112.7,73.1z M100.4,84.1
				c-0.6,1.4-1.4,2.7-2.4,3.7c-1,1.1-2.2,1.9-3.6,2.6c-1.4,0.6-2.9,1-4.5,1.2c-0.5,0-0.9,0.1-1.4,0.1c-0.5,0-0.9,0-1.4,0h-2.7V67.2
				h4.2c1.7,0,3.4,0.3,4.9,0.9c1.5,0.6,2.9,1.5,4,2.6c1.1,1.1,2.1,2.4,2.7,3.9c0.7,1.5,1,3.1,1,4.9C101.3,81.2,101,82.7,100.4,84.1z
				"/>
		</g>
	</g>
	<g>
		<path class="st3" d="M183.6,124.9c0.5,0,0.9,0.2,1.2,0.6c0.3,0.4,0.5,0.8,0.4,1.3c0,0.5-0.2,0.9-0.6,1.2c-0.4,0.3-0.8,0.5-1.2,0.5
			c-0.5,0-0.9-0.2-1.2-0.6c-0.3-0.3-0.4-0.8-0.4-1.3c0-0.5,0.2-0.9,0.5-1.2C182.7,125.1,183.1,124.9,183.6,124.9z M192.7,97.4
			c0.2,0.1,0.4,0.2,0.7,0.4c0.2,0.2,0.5,0.4,0.7,0.7c0.2,0.3,0.4,0.7,0.6,1.1c0.2,0.4,0.3,0.9,0.4,1.4c-0.1,0.2-0.3,0.9-0.8,2
			c-0.5,1.1-1,2.4-1.6,4c-0.6,1.6-1.3,3.2-2.1,5c-0.8,1.8-1.5,3.5-2.2,5.2c-0.7,1.6-1.3,3.1-1.8,4.4c-0.5,1.3-0.9,2.1-1.1,2.6
			c-0.4-0.1-0.7-0.5-1.1-1c-0.4-0.5-0.6-0.9-0.7-1.2c0.3-1.1,0.7-2.4,1.3-4.1c0.6-1.6,1.2-3.3,1.8-5.1c0.6-1.8,1.3-3.5,2-5.3
			s1.3-3.4,1.9-4.8c0.6-1.4,1.1-2.7,1.4-3.6C192.4,98.1,192.6,97.6,192.7,97.4z"/>
	</g>
</g>
</svg>
