<?xml version="1.0" encoding="utf-8"?>
<!-- Generator: Adobe Illustrator 22.0.1, SVG Export Plug-In . SVG Version: 6.00 Build 0)  -->
<svg version="1.1" id="Layer_1" xmlns="http://www.w3.org/2000/svg" xmlns:xlink="http://www.w3.org/1999/xlink" x="0px" y="0px"
	 viewBox="0 0 80 80" style="enable-background:new 0 0 80 80;" xml:space="preserve">
<style type="text/css">
	.st0{fill:#B5916F;}
	.st1{fill:#135FA7;}
	.st2{fill:#018BD2;}
	.st3{fill:none;}
	.st4{fill:#008BD2;}
	.st5{fill:#FFFFFF;}
	.st6{fill:#08A9E1;}
	.st7{fill:#F6F9F9;}
	.st8{fill:url(#SVGID_1_);}
	.st9{fill:#FFFFFF;stroke:#BABCBE;stroke-width:0.2278;stroke-miterlimit:10;}
	.st10{fill:#FFFFFF;stroke:#F2F2F2;stroke-width:0.2307;stroke-miterlimit:10;}
</style>
<g>
	<path class="st2" d="M64.2,57.4c-0.7,0-1.2-0.3-1.6-0.7c-0.4-0.5-0.6-1.1-0.4-1.8c0.2-1.4,1.5-2.5,2.9-2.5c0.7,0,1.2,0.3,1.6,0.7
		c0.4,0.5,0.5,1.1,0.4,1.8C66.9,56.3,65.6,57.4,64.2,57.4z M65.1,52.6c-1.3,0-2.5,1.1-2.7,2.3c-0.1,0.6,0,1.2,0.4,1.6
		c0.4,0.4,0.9,0.7,1.5,0.7c1.3,0,2.5-1,2.7-2.3c0.1-0.6,0-1.2-0.4-1.6C66.2,52.9,65.7,52.6,65.1,52.6z"/>
	<path class="st3" d="M76.4,47.6c-0.3-0.1-2.4-0.5-3.6-0.5c0,0,0.3,3,3.5,3c0.8,0,1,0,1,0s-0.1-1.7-0.1-1.9
		C77.1,48,76.8,47.7,76.4,47.6z"/>
	<path class="st3" d="M60.8,33.3c-0.2,1.9-0.5,6.7-0.6,8.2c2.4,0.2,5,0.4,7,0.4c0,0-5.6-7.9-6-8.3C61.1,33.5,60.9,33.4,60.8,33.3z"
		/>
	<path class="st2" d="M63.8,60.7c-1.6,0-3-0.6-3.9-1.8c-1-1.1-1.3-2.6-1-4.2c0.5-3.1,3.5-5.6,6.7-5.6c1.6,0,3,0.6,3.9,1.7
		c1,1.1,1.3,2.6,1,4.2C69.9,58.2,66.9,60.7,63.8,60.7z M65.5,50.8c-2.3,0-4.5,1.9-4.9,4.2c-0.2,1.1,0,2.1,0.7,2.8
		c0.6,0.7,1.5,1.1,2.6,1.1c2.3,0,4.5-1.9,4.9-4.2c0.2-1.1,0-2.1-0.7-2.8C67.5,51.2,66.6,50.8,65.5,50.8z M64.2,58.2
		c-0.9,0-1.7-0.4-2.2-1c-0.5-0.6-0.8-1.5-0.6-2.4c0.3-1.7,2-3.1,3.7-3.1c0.9,0,1.7,0.4,2.2,1c0.5,0.6,0.8,1.5,0.6,2.4
		C67.6,56.8,66,58.2,64.2,58.2z M65.1,53.4c-0.9,0-1.8,0.8-2,1.7c-0.1,0.4,0,0.7,0.2,1c0.2,0.2,0.5,0.4,0.9,0.4
		c0.9,0,1.8-0.8,1.9-1.7c0.1-0.4,0-0.7-0.2-1C65.8,53.5,65.5,53.4,65.1,53.4z"/>
	<path class="st2" d="M16,57.4c-0.6,0-1.2-0.3-1.6-0.7c-0.4-0.5-0.6-1.1-0.5-1.8c0.3-1.4,1.6-2.5,2.9-2.5c0.7,0,1.2,0.3,1.6,0.7
		c0.4,0.5,0.6,1.1,0.4,1.8C18.7,56.3,17.4,57.4,16,57.4z M16.9,52.6c-1.2,0-2.5,1-2.7,2.3c-0.1,0.6,0,1.2,0.4,1.6
		c0.4,0.4,0.9,0.6,1.5,0.6c1.3,0,2.5-1,2.7-2.3c0.1-0.6,0-1.2-0.4-1.6C18,52.9,17.5,52.6,16.9,52.6z"/>
	<path class="st3" d="M60.1,33.1c-0.2,0-5.4-0.3-5.7-0.3c-0.3,0-0.7,0.3-0.8,0.7C53.4,34,53.1,39,53,39.4c-0.1,0.4,0.3,1.5,1.5,1.6
		c0.6,0.1,2.6,0.3,5.1,0.5c0.1-1.7,0.6-6.8,0.7-8.4C60.2,33.1,60.2,33.1,60.1,33.1z"/>
	<path class="st2" d="M15.6,60.7c-1.6,0-3-0.6-3.9-1.7c-1-1.1-1.3-2.6-1-4.2c0.6-3.2,3.5-5.6,6.7-5.6c1.6,0,3,0.6,3.9,1.7
		c0.9,1.1,1.3,2.6,1,4.2C21.7,58.2,18.7,60.7,15.6,60.7z M17.3,50.8c-2.3,0-4.5,1.9-4.9,4.2c-0.2,1.1,0,2.1,0.7,2.8
		c0.6,0.7,1.5,1.1,2.6,1.1c2.3,0,4.5-1.9,4.9-4.2c0.2-1.1,0-2.1-0.6-2.8C19.3,51.2,18.4,50.8,17.3,50.8z M16,58.2
		c-0.9,0-1.7-0.3-2.2-1c-0.5-0.6-0.8-1.5-0.6-2.4l0,0c0.3-1.7,2-3.1,3.7-3.1c0.9,0,1.7,0.4,2.2,1c0.5,0.6,0.8,1.5,0.6,2.4
		C19.4,56.8,17.7,58.2,16,58.2z M14.9,55.1c-0.1,0.4,0,0.7,0.2,1c0.2,0.2,0.5,0.4,0.9,0.4c0.9,0,1.8-0.8,1.9-1.7
		c0.1-0.4,0-0.7-0.2-1c-0.2-0.2-0.5-0.4-0.9-0.4C16,53.4,15.1,54.2,14.9,55.1z"/>
	<path class="st4" d="M42,57.5H35c-0.3,0-0.5-0.1-0.7-0.3c0-0.1-0.1-0.1-0.1-0.2H22.9c-0.8,0-1.5-0.5-1.7-1.3c0,0,0,0,0,0
		c0-0.2,0-0.3,0-0.7c0-0.9,0-3.1-0.9-4.1c-0.3-0.3-0.7-0.5-1.2-0.5c-0.1,0-0.3,0-0.5-0.1c-0.3-0.1-0.7-0.2-1.1-0.2
		c-0.6,0-1.2,0.1-1.4,0.2c-0.1,0-0.2,0-0.3,0c-2,0-3.1,2.6-3.9,4.2c-0.4,0.9-0.6,1.4-1,1.7c0,0,0,0-0.1,0c-0.3,0.2-0.5,0.2-0.7,0.2
		c-0.1,0-0.1,0-0.1,0c-0.1,0.1-0.3,0.1-0.4,0.1H9.2c-0.2,0.1-0.4,0.2-0.6,0.1c-0.5,0-1.2,0-1.8,0c-1.5,0.1-2.9,0.1-3.8-0.5
		c-1.7-0.2-2.7-0.9-3-2.2c0-0.1,0-0.2,0-0.3c0.1-0.3,0.1-0.5,0.2-0.8c0-0.2,0.1-0.4,0.1-0.6c0-0.2,0.2-0.4,0.4-0.6
		C0.7,52,0.8,52,0.9,51.9c0.2-1.5,0.5-3.2,0.7-4.7c0.1-0.6,0.2-1.2,0.3-1.7c0-0.1,0.1-0.3,0.2-0.5c0.9-4.5,2-8.6,3.1-12.8
		c0.2-0.6,0.3-1.3,0.5-1.9c0-0.1,0.1-0.3,0.2-0.4c0-0.1,0-0.1,0-0.2l0-0.1c0-0.2,0.1-0.3,0.2-0.5c0,0,0.1-0.1,0.1-0.2
		c0.1-0.2,0.1-0.3,0.2-0.5c0.3-1.9,1.4-3.1,3.1-3.3c0,0,0.1,0,0.1,0h8.4l0.2-1.2H17c-0.3,0-0.5-0.1-0.7-0.3
		c-0.2-0.2-0.2-0.5-0.2-0.7l0.4-2.6c0.1-0.4,0.4-0.7,0.9-0.7h27.8c0.3,0,0.5,0.1,0.7,0.3c0.2,0.2,0.2,0.5,0.2,0.7l-0.5,2.6
		c-0.1,0.4-0.4,0.7-0.9,0.7H43l-0.2,1.2h3.8l-0.1-0.3c-0.1-0.3-0.1-0.7,0.1-0.9l1.2-1.4c0.2-0.2,0.4-0.3,0.7-0.3h3.5
		c0.3,0,0.7,0.2,0.8,0.5l0.7,1.5c0.1,0.3,0.1,0.7-0.1,0.9L53,25.1c0.3,0,0.6,0.1,0.9,0.1c0.3,0,0.5,0.1,0.8,0.1c0.2,0,0.3,0,0.5,0.1
		h0.1c0.2,0,0.4,0,0.5,0.1c0.1,0,0.2,0,0.3,0.1c0.1,0,0.2,0.1,0.4,0.1c0.8,0.3,1.6,0.6,2.3,1.2c0.7,0.3,1.2,0.8,1.8,1.5
		c0.2,0.1,0.3,0.2,0.4,0.3l0.2,0.2c0.3,0.3,0.5,0.6,0.7,0.9c0.6,0.7,1.1,1.2,1.6,1.7c0,0,0.1,0.1,0.1,0.1c2.1,2.4,4.2,5,6.2,7.6
		c0.2,0,0.3,0,0.4,0c0.5,0.1,0.7,0.4,0.9,0.7c0.4,0,0.7,0.2,0.8,0.6c0.1,0.2,0.2,0.3,0.4,0.6c0.1,0.1,0.1,0.2,0.2,0.3
		c1.9,1.4,3.6,2.7,5.1,4.1c0.1,0.1,0.1,0.2,0.2,0.3c0.1,0.1,0.1,0.2,0.2,0.4c0.2,0.4,0.5,0.9,0.7,1.6c0,0.1,0,0.2,0,0.3c0,0,0,0,0,0
		c0.1,0.1,0.2,0.4,0.3,0.7c0,0.1,0,0.2,0,0.3c0,0,0,0.1,0,0.1c0,0.2-0.1,0.4-0.1,0.6c0,0.1,0.1,0.2,0.1,0.3c0,0.2,0,0.4-0.2,0.6
		c0,0,0,0,0,0c0.2,0.3,0.3,0.6,0.3,0.8c0,0.1,0,0.2-0.1,0.3c0,0.1-0.1,0.1-0.1,0.2c0.1,0.2,0.1,0.4,0.1,0.6l0,0
		c-0.2,1-0.6,3.4-4.5,4.1c-0.5,0.1-1.4,0.1-2.4,0.2c-0.4,0-0.8,0-1.3,0.1c-0.3,0-0.6-0.1-0.9-0.3c-0.1-0.1-0.5-0.5-0.5-1.8
		c0-3.8-1.5-4.4-2.9-4.6c-0.1,0-0.2,0-0.4,0c-0.4,0-1.2,0-1.5,0c-0.1,0-0.2,0-0.2,0c-2.6,0-4.1,4-4.6,5.7l0,0.1c0,0,0,0,0,0
		c-0.2,0.6-1,1.1-1.5,1.1c-2.7,0-5.4,0-8,0c-2.4,0-4.9,0-7.3,0c0,0-0.1,0.1-0.1,0.1C42.5,57.4,42.3,57.5,42,57.5z M35.7,55.8h5.6
		c0.1-0.3,0.4-0.4,0.7-0.4c2.7,0,5.4,0,8,0c2.6,0,5.2,0,7.9,0c0,0,0,0,0,0c1.4-4.4,3.6-6.8,6.2-6.8c0.2,0,0.4,0,0.6,0
		c0.4,0,0.8,0,1.1,0c0.2,0,0.3,0,0.4,0c0,0,0.1,0,0.1,0c3.8,0.3,4.6,3.6,4.6,6.3c0,0.1,0,0.3,0,0.4c0.3,0,0.6,0,0.8,0
		c1,0,1.8-0.1,2.2-0.1c2.1-0.3,2.7-1.2,2.9-2c0,0,0,0,0,0c-0.2-0.2-0.2-0.4-0.2-0.7c0-0.1,0.1-0.4,0.1-0.6c-0.1-0.1-0.1-0.2-0.2-0.4
		c0-0.1,0-0.2,0-0.3c-0.1-0.1-0.1-0.3-0.1-0.6c0-0.3,0.2-0.5,0.3-0.6c0-0.1,0-0.1,0-0.2c0-0.2,0.1-0.4,0.2-0.5c0,0,0,0,0-0.1
		c-0.1-0.2-0.4-0.6-0.3-1.1c-0.1-0.3-0.2-0.5-0.4-0.8c-0.1-0.1-0.1-0.2-0.2-0.3c-1.5-1.3-3.1-2.6-5-4c-0.1-0.1-0.1-0.1-0.2-0.2
		c-0.1-0.1-0.1-0.2-0.2-0.3c-0.1-0.2-0.3-0.3-0.4-0.5c-0.3,0-0.6-0.2-0.8-0.5c0,0,0,0,0,0c-0.1,0-0.2,0-0.3,0
		c-0.2,0-0.5-0.1-0.6-0.3c-2.1-2.7-4.4-5.5-6.6-8c-0.6-0.5-1.1-1.1-1.8-1.9c0,0,0,0,0,0c-0.2-0.3-0.5-0.6-0.7-0.9
		c-0.1-0.1-0.3-0.1-0.4-0.3c-0.5-0.6-1-1-1.5-1.3c-0.1,0-0.2-0.1-0.2-0.2c-0.4-0.4-1.1-0.6-1.8-0.9c-0.1,0-0.2-0.1-0.2-0.1h-0.1
		c-0.2,0-0.4,0-0.5-0.1h0c-0.2,0-0.4,0-0.6-0.1c0,0,0,0-0.1,0c-0.2,0-0.4,0-0.6-0.1c-0.7-0.1-1.3-0.2-2.1-0.2c-0.1,0-0.2,0-0.3-0.1
		h-0.1c-0.3,0-0.5-0.1-0.7-0.3c-0.2-0.2-0.2-0.5-0.2-0.7l0.1-0.6c0.1-0.4,0.4-0.7,0.9-0.7h0.1l0.2-0.2l-0.2-0.5h-2.5l-0.6,0.7
		c0.2,0,0.5,0.1,0.6,0.3c0.2,0.2,0.2,0.5,0.2,0.7l-0.1,0.5c-0.1,0.4-0.4,0.7-0.9,0.7h-6.3c-0.3,0-0.5-0.1-0.7-0.3
		c-0.2-0.2-0.2-0.5-0.2-0.7l0.5-3c0.1-0.4,0.4-0.7,0.9-0.7h1.8l0.1-0.9h-26l-0.1,0.9h1.5c0.3,0,0.5,0.1,0.7,0.3
		c0.2,0.2,0.2,0.5,0.2,0.7l-0.5,3c-0.1,0.4-0.4,0.7-0.9,0.7H9.9c-0.7,0.1-1.4,0.5-1.6,2c0,0.2-0.1,0.3-0.2,0.5c0,0-0.1,0.1-0.1,0.2
		C8,29.5,7.9,29.8,7.7,30c0,0.1,0,0.1,0,0.2c0,0.1-0.1,0.4-0.3,0.6c-0.2,0.6-0.3,1.1-0.5,1.7c-1.2,4.3-2.3,8.4-3.1,12.9
		c0,0.2-0.1,0.4-0.2,0.6c-0.1,0.5-0.2,1-0.3,1.5c-0.3,1.8-0.6,3.6-0.8,5.2c0,0.2-0.1,0.4-0.3,0.6c-0.1,0.1-0.2,0.1-0.3,0.2
		c0,0,0,0.1,0,0.1c0,0.2-0.1,0.4-0.1,0.6c0.1,0.2,0.4,0.5,1.6,0.6c0.2,0,0.4,0.1,0.5,0.2c0.4,0.4,1.8,0.3,2.9,0.3c0.6,0,1.1,0,1.7,0
		c0.1-0.1,0.3-0.1,0.3-0.1c0,0,0.1,0,0.1,0h0.4c0.2-0.1,0.3-0.1,0.4-0.1c0,0,0,0,0.1,0c0.1-0.2,0.3-0.6,0.4-0.9
		c0.9-2,2.3-5.2,5.4-5.3c0,0,0,0,0,0c0.3-0.1,1.1-0.2,1.8-0.2c0.6,0,1.2,0.1,1.5,0.2c0.1,0,0.1,0,0.1,0c1,0,1.8,0.3,2.4,1
		c1.5,1.5,1.4,4.1,1.4,5.3c0,0.1,0,0.1,0,0.2H35c0.3,0,0.5,0.1,0.7,0.4C35.7,55.7,35.7,55.8,35.7,55.8z M8.9,55.4
		C8.9,55.4,8.9,55.4,8.9,55.4C8.9,55.4,8.9,55.4,8.9,55.4z M8.9,55.4C8.9,55.4,8.9,55.4,8.9,55.4C8.9,55.4,8.9,55.4,8.9,55.4z
		 M58,55.3L58,55.3L58,55.3z M58.1,55.3C58.1,55.3,58.1,55.3,58.1,55.3C58.1,55.3,58.1,55.3,58.1,55.3
		C58.1,55.3,58.1,55.3,58.1,55.3z M77.2,52.1C77.2,52.1,77.2,52.1,77.2,52.1C77.2,52.1,77.2,52.1,77.2,52.1z M78.1,51.4L78.1,51.4
		L78.1,51.4z M65.2,49.3c0,0.2-0.1,0.4-0.2,0.6C65.1,49.8,65.2,49.6,65.2,49.3z M77.3,49L77.3,49L77.3,49z M15.6,48.9
		C15.6,48.9,15.6,48.9,15.6,48.9C15.6,48.9,15.7,48.9,15.6,48.9C15.7,48.9,15.7,48.9,15.6,48.9z M19,48.9C19,48.9,19,48.9,19,48.9
		C19,48.9,19,48.9,19,48.9z M70.2,40.9L70.2,40.9L70.2,40.9z M7.5,30.3L7.5,30.3L7.5,30.3z M6,30.1C6,30.1,6,30.1,6,30.1
		S6,30.1,6,30.1z M8.1,29.2C8.1,29.2,8.1,29.2,8.1,29.2C8.1,29.2,8.1,29.2,8.1,29.2z M8.1,29.1C8.1,29.1,8.1,29.1,8.1,29.1L8.1,29.1
		z M60.7,28.6C60.7,28.6,60.7,28.6,60.7,28.6C60.7,28.6,60.7,28.6,60.7,28.6z M60.7,28.6C60.7,28.6,60.7,28.6,60.7,28.6
		C60.7,28.6,60.7,28.6,60.7,28.6z M55.4,27.1C55.4,27.1,55.4,27.1,55.4,27.1C55.4,27.1,55.4,27.1,55.4,27.1z M50.8,26.2
		C50.8,26.2,50.8,26.2,50.8,26.2C50.8,26.2,50.8,26.2,50.8,26.2z"/>
	<path class="st4" d="M40.8,26.6H19.6l0.8-4.7h21.2L40.8,26.6z M21.7,24.9h17.7l0.2-1.2H21.9L21.7,24.9z"/>
	<path class="st4" d="M59.6,42.4C59.6,42.4,59.6,42.4,59.6,42.4c-2.5-0.2-4.5-0.5-5.2-0.5c-0.9-0.1-1.5-0.6-1.8-1
		c-0.4-0.5-0.6-1.1-0.5-1.6c0-0.1,0.1-0.6,0.1-1.2c0.3-3.2,0.4-4.3,0.4-4.6l0,0c0.2-0.8,0.9-1.4,1.7-1.4c0.2,0,1.4,0.1,3.3,0.1
		c1.1,0.1,2.3,0.1,2.5,0.1c0.1,0,0.2,0,0.3,0c0.5,0,0.8,0.5,0.8,0.9c-0.1,1.6-0.6,6.7-0.7,8.3c0,0.2-0.1,0.4-0.3,0.6
		C60,42.3,59.8,42.4,59.6,42.4z M53.9,39.4c0,0.1,0.1,0.6,0.8,0.7c0,0,0,0,0,0c0.6,0.1,2.2,0.3,4.2,0.4c0.1-1.8,0.4-4.8,0.6-6.6
		c-0.4,0-1,0-1.8-0.1c-1.2-0.1-2.7-0.1-3.1-0.1c0,0,0,0,0,0.1c-0.1,0.3-0.3,3.1-0.4,4.4C53.9,38.9,53.9,39.3,53.9,39.4
		C53.9,39.4,53.9,39.4,53.9,39.4z M53.9,39.5C53.9,39.5,53.9,39.5,53.9,39.5C53.9,39.5,53.9,39.5,53.9,39.5z"/>
	<path class="st4" d="M67.2,42.8c-1.7,0-4.1-0.1-7.1-0.4c-0.5,0-0.8-0.5-0.8-0.9c0-0.6,0.4-6.1,0.6-8.3c0-0.3,0.2-0.5,0.5-0.7
		c0.3-0.1,0.6-0.1,0.8,0c0.2,0.1,0.4,0.3,0.6,0.5c0.5,0.6,5.2,7.1,6.1,8.4c0.2,0.3,0.2,0.6,0.1,0.9C67.8,42.6,67.5,42.8,67.2,42.8z
		 M61.1,40.7c1.7,0.1,3.2,0.2,4.4,0.3c-1.4-1.9-3-4.2-4-5.5C61.3,37.3,61.2,39.5,61.1,40.7z"/>
	<path class="st4" d="M76.3,51c-3.1,0-4.2-2.5-4.4-3.8c0-0.2,0.1-0.5,0.2-0.7c0.2-0.2,0.4-0.3,0.6-0.3c1.3,0,3.4,0.4,3.8,0.5
		c0.7,0.1,1.2,0.7,1.3,1.2c0,0.1,0.1,0.3,0.2,2.1c0,0.5-0.3,0.9-0.8,0.9C77.3,50.9,77.1,51,76.3,51z M74.1,48c0.3,0.6,1,1.2,2.2,1.2
		c0,0,0,0,0,0c0-0.3,0-0.6-0.1-0.8c0,0,0,0,0,0c0,0,0,0,0,0C76,48.4,75,48.2,74.1,48z"/>
	<g>
		<g>
			<path class="st4" d="M16.1,35c-0.5,2.9,2.3,3.2,3.4,3.2c2,0,4.3-0.7,4.7-3.1c0.3-1.6-0.9-2.2-2.1-2.6c-1.2-0.4-2.4-0.5-2.4-1.1
				c0.1-0.5,0.7-0.6,1.1-0.6c0.3,0,0.6,0.1,0.8,0.2c0.2,0.1,0.3,0.4,0.2,0.7h2.6c0.3-2.2-1.3-2.9-3.2-2.9c-1.8,0-3.7,0.9-4.1,2.9
				c-0.3,1.8,1.2,2.2,2.6,2.6c1.4,0.4,1.8,0.5,1.7,1c-0.1,0.7-0.8,0.8-1.3,0.8c-0.5,0-1.1-0.1-1.2-0.6c0-0.2,0-0.4,0-0.6H16.1z"/>
			<polygon class="st4" points="25,38 27.8,38 29.4,29.1 26.6,29.1 			"/>
			<path class="st4" d="M29.6,35c-0.5,2.9,2.4,3.2,3.4,3.2c2,0,4.3-0.7,4.7-3.1c0.3-1.6-0.8-2.2-2.1-2.6c-1.2-0.4-2.4-0.5-2.4-1.1
				c0.1-0.5,0.7-0.6,1.1-0.6c0.3,0,0.6,0.1,0.8,0.2c0.2,0.1,0.3,0.4,0.2,0.7h2.6c0.3-2.2-1.3-2.9-3.2-2.9c-1.8,0-3.8,0.9-4.1,2.9
				c-0.3,1.8,1.2,2.2,2.6,2.6c1.4,0.4,1.8,0.5,1.7,1c-0.1,0.7-0.8,0.8-1.3,0.8c-0.5,0-1.1-0.1-1.2-0.6c0-0.2,0-0.4,0-0.6H29.6z"/>
			<path class="st4" d="M45.3,29.1h-2.7L37.7,38h2.8l0.6-1.3h2.8l0.2,1.3h2.8L45.3,29.1z M42,34.8l1.3-2.8h0l0.3,2.8H42z"/>
		</g>
		<g>
			<path class="st4" d="M14,47.3h-0.5l-0.4-2.1h-2.4l-1.1,2.1H9.1l3.3-6.3H13L14,47.3z M13.1,44.7l-0.4-2c-0.1-0.4-0.1-0.8-0.1-1.2
				h0c-0.1,0.4-0.3,0.7-0.5,1.1L11,44.7H13.1z"/>
			<path class="st4" d="M18.5,41.6c-0.1-0.1-0.5-0.3-1-0.3c-1,0-1.4,0.6-1.5,1.1c-0.1,0.7,0.2,1,1,1.4c0.9,0.4,1.4,0.9,1.2,1.8
				c-0.2,0.9-1,1.7-2.3,1.7c-0.5,0-1.1-0.2-1.4-0.4l0.3-0.4c0.3,0.2,0.8,0.4,1.3,0.4c0.9,0,1.5-0.5,1.6-1.2c0.1-0.7-0.1-1.1-1-1.4
				c-0.9-0.3-1.4-0.9-1.3-1.7c0.1-0.9,1-1.6,2.1-1.6c0.6,0,1,0.1,1.2,0.3L18.5,41.6z"/>
			<path class="st4" d="M20.1,41h0.5l-1.1,6.3h-0.5L20.1,41z"/>
			<path class="st4" d="M24.5,41.6c-0.1-0.1-0.5-0.3-1.1-0.3c-0.9,0-1.4,0.6-1.5,1.1c-0.1,0.7,0.2,1,1,1.4c1,0.4,1.4,0.9,1.2,1.8
				c-0.2,0.9-1,1.7-2.3,1.7c-0.5,0-1.1-0.2-1.4-0.4l0.3-0.4C21,46.8,21.5,47,22,47c0.9,0,1.5-0.5,1.7-1.2c0.1-0.7-0.2-1.1-1-1.4
				c-0.9-0.3-1.4-0.9-1.3-1.7c0.2-0.9,1.1-1.6,2.1-1.6c0.6,0,1,0.1,1.2,0.3L24.5,41.6z"/>
			<path class="st4" d="M29.6,41.5h-2l-1,5.8h-0.5l1-5.8h-2l0.1-0.4h4.4L29.6,41.5z"/>
			<path class="st4" d="M32.3,47.3H29l1.1-6.3h3.1l-0.1,0.4h-2.6l-0.4,2.3h2.4l-0.1,0.4h-2.4l-0.5,2.6h2.7L32.3,47.3z"/>
			<path class="st4" d="M37.5,47.3h-0.5l-1.6-3.5c-0.3-0.7-0.6-1.4-0.8-2.1l0,0c-0.1,0.8-0.2,1.5-0.4,2.5l-0.5,3h-0.5l1.1-6.3h0.5
				l1.6,3.6c0.4,0.8,0.6,1.4,0.8,2l0,0c0.1-0.9,0.2-1.6,0.4-2.6l0.5-3h0.5L37.5,47.3z"/>
			<path class="st4" d="M43,47.1c-0.3,0.1-0.9,0.3-1.7,0.3c-1.5,0-2.7-1-2.4-3.2c0.4-1.9,1.8-3.3,3.7-3.3c0.8,0,1.2,0.2,1.4,0.3
				l-0.2,0.4c-0.3-0.1-0.7-0.3-1.2-0.3c-1.6,0-2.8,1.1-3.1,2.9C39.2,45.9,40,47,41.6,47c0.5,0,1-0.1,1.4-0.3L43,47.1z"/>
			<path class="st4" d="M45,41h0.5l-1.1,6.3h-0.5L45,41z"/>
			<path class="st4" d="M50.1,47.3h-0.5l-0.4-2.1h-2.4l-1.1,2.1h-0.5l3.3-6.3H49L50.1,47.3z M49.2,44.7l-0.3-2
				c-0.1-0.4-0.1-0.8-0.1-1.2h0c-0.2,0.4-0.3,0.7-0.5,1.1L47,44.7H49.2z"/>
		</g>
	</g>
</g>
</svg>
