<?xml version="1.0" encoding="utf-8"?>
<!-- Generator: Adobe Illustrator 22.0.1, SVG Export Plug-In . SVG Version: 6.00 Build 0)  -->
<svg version="1.1" id="Layer_1" xmlns="http://www.w3.org/2000/svg" xmlns:xlink="http://www.w3.org/1999/xlink" x="0px" y="0px"
	 viewBox="0 0 80 80" style="enable-background:new 0 0 80 80;" xml:space="preserve">
<style type="text/css">
	.st0{fill:#B5916F;}
	.st1{fill:#135FA7;}
	.st2{fill:#018BD2;}
	.st3{fill:none;}
	.st4{fill:#008BD2;}
	.st5{fill:#FFFFFF;}
	.st6{fill:#08A9E1;}
	.st7{fill:#F6F9F9;}
	.st8{fill:url(#SVGID_1_);}
	.st9{fill:#FFFFFF;stroke:#BABCBE;stroke-width:0.2278;stroke-miterlimit:10;}
	.st10{fill:#FFFFFF;stroke:#F2F2F2;stroke-width:0.2307;stroke-miterlimit:10;}
</style>
<g>
	<g>
		<path class="st1" d="M1.2,41.5c0,0.1,0,0.1,0.1,0.2c0,0,0,0,0,0.1l3.4,6c0.8,1.4,2.4,2.3,4,2.3h5C15,51.8,17,53,19.3,53
			c2.3,0,4.3-1.1,5.6-2.8h33.8c1.3,1.7,3.3,2.8,5.6,2.8c2.3,0,4.3-1.1,5.6-2.8h3.9c1.6,0,2.9-1.2,3.1-2.7l1.4-10.6c0,0,0,0,0,0
			c0,0,0,0,0,0l0.7-6c0-0.3-0.1-0.5-0.2-0.7c-0.2-0.2-0.4-0.3-0.7-0.3h-8.8c-0.3,0-0.6,0.1-0.8,0.4l-1.4,2c-8.3-2.6-20-5.5-29.3-5.4
			c-6.9,0.1-15.1,5.8-16.6,6.9C11.6,34.1,2,40.2,1.6,40.5c0,0,0,0-0.1,0.1c0,0-0.1,0.1-0.1,0.1c0,0-0.1,0.1-0.1,0.2
			c0,0,0,0.1-0.1,0.1c0,0.1,0,0.1,0,0.2c0,0,0,0.1,0,0.1c0,0,0,0,0,0.1C1.2,41.4,1.2,41.5,1.2,41.5z M3.7,42.2h5.5l0,1l-4.1,1.5
			L3.7,42.2z M37.7,28.6c5.7-0.1,12.3,1,18.5,2.5L53,33.7H24.4C27.5,31.7,33,28.7,37.7,28.6z M77,31.6l-0.4,3.8
			c-1.4-0.5-4.2-1.5-7.7-2.7l0.8-1.1H77z M59.1,46c0-2.8,2.3-5.1,5.1-5.1c2.8,0,5.1,2.3,5.1,5.1c0,2.8-2.3,5.1-5.1,5.1
			C61.4,51.1,59.1,48.8,59.1,46z M14.1,46c0-2.8,2.3-5.1,5.1-5.1c2.8,0,5.1,2.3,5.1,5.1c0,2.8-2.3,5.1-5.1,5.1
			C16.4,51.1,14.1,48.8,14.1,46z M6.3,46.9L6,46.4l4.4-1.7c0.4-0.1,0.6-0.5,0.6-0.9l0-2.6c0-0.5-0.4-0.9-0.9-0.9H5.6
			c3.6-1.9,9.8-4.6,15.8-4.8h31.9c0.2,0,0.4-0.1,0.6-0.2l4.5-3.7c8.5,2.2,15.7,4.8,17.9,5.6L75,47.1c-0.1,0.6-0.6,1.1-1.3,1.1h-2.9
			c0.3-0.7,0.4-1.5,0.4-2.3c0-3.9-3.1-7-7-7c-3.9,0-7,3.1-7,7c0,0.8,0.2,1.6,0.4,2.3H25.8c0.3-0.7,0.4-1.5,0.4-2.3c0-3.9-3.1-7-7-7
			c-3.9,0-7,3.1-7,7c0,0.8,0.2,1.6,0.4,2.3h-4C7.7,48.3,6.8,47.7,6.3,46.9z"/>
		<path class="st1" d="M64.2,53.3c-2.2,0-4.3-1-5.7-2.8H25c-1.4,1.8-3.5,2.8-5.7,2.8c-2.2,0-4.3-1-5.7-2.8H8.7c-1.8,0-3.4-1-4.3-2.5
			l-3.4-6c0,0,0-0.1,0-0.1c0-0.1,0-0.1-0.1-0.2l0,0l0.3-0.1l-0.3,0.1c0-0.1,0-0.1,0-0.2c0,0,0-0.1,0-0.1c0-0.1,0-0.1,0-0.1
			c0,0,0,0,0,0c0-0.1,0-0.2,0.1-0.3c0-0.1,0.1-0.1,0.1-0.2c0-0.1,0.1-0.1,0.1-0.2c0.1-0.1,0.1-0.1,0.2-0.2c0,0,0.1-0.1,0.1-0.1
			C1.8,40,11.5,33.9,21,33.4c1.7-1.3,9.8-6.9,16.7-6.9c9.4-0.1,21,2.8,29.2,5.4l1.3-1.8c0.2-0.3,0.6-0.5,1-0.5H78
			c0.4,0,0.7,0.2,0.9,0.4c0.2,0.3,0.3,0.6,0.3,1l-0.7,6v0.1l0,0l-1.4,10.5c-0.2,1.7-1.7,3-3.4,3H70C68.6,52.2,66.5,53.3,64.2,53.3z
			 M24.7,49.8h34.1l0.1,0.1c1.3,1.7,3.2,2.7,5.3,2.7c2.1,0,4-1,5.3-2.7l0.1-0.1h4.1c1.4,0,2.6-1.1,2.8-2.5l1.4-10.5l0,0l0-0.1v-0.1
			l0,0l0.7-5.9c0-0.2,0-0.4-0.2-0.5c-0.1-0.1-0.3-0.2-0.5-0.2h-8.8c-0.2,0-0.4,0.1-0.5,0.3l-1.5,2.2l-0.2-0.1
			c-8.2-2.5-19.9-5.5-29.2-5.4c-6.8,0.1-14.9,5.7-16.4,6.9L21.2,34l-0.1,0c-9.3,0.4-18.7,6.4-19.3,6.8c0,0,0,0-0.1,0.1
			c0,0-0.1,0.1-0.1,0.1c0,0,0,0.1-0.1,0.1c0,0,0,0.1,0,0.1c0,0,0,0.1,0,0.1c0,0,0,0,0,0.1c0,0,0,0,0,0c0,0,0,0.1,0,0.1l-0.3,0.1
			l0.3-0.1l0,0c0,0,0,0.1,0,0.1c0,0,0,0,0,0.1l3.4,6c0.8,1.3,2.2,2.2,3.7,2.2h5.2l0.1,0.1c1.3,1.7,3.2,2.7,5.3,2.7s4-1,5.3-2.7
			L24.7,49.8z M0.8,41.4C0.8,41.4,0.8,41.4,0.8,41.4C0.8,41.4,0.8,41.4,0.8,41.4z M78,36.6C78,36.6,78,36.6,78,36.6L78,36.6z
			 M64.2,51.4c-3,0-5.4-2.4-5.4-5.4c0-3,2.4-5.4,5.4-5.4c3,0,5.4,2.4,5.4,5.4C69.7,49,67.2,51.4,64.2,51.4z M64.2,41.1
			c-2.7,0-4.8,2.2-4.8,4.8c0,2.7,2.2,4.8,4.8,4.8c2.7,0,4.8-2.2,4.8-4.8C69.1,43.3,66.9,41.1,64.2,41.1z M19.3,51.4
			c-3,0-5.4-2.4-5.4-5.4c0-3,2.4-5.4,5.4-5.4s5.4,2.4,5.4,5.4C24.7,49,22.3,51.4,19.3,51.4z M19.3,41.1c-2.7,0-4.8,2.2-4.8,4.8
			c0,2.7,2.2,4.8,4.8,4.8s4.8-2.2,4.8-4.8C24.1,43.3,21.9,41.1,19.3,41.1z M73.7,48.6h-3.3l0.1-0.4c0.3-0.8,0.4-1.5,0.4-2.2
			c0-3.7-3-6.7-6.7-6.7c-3.7,0-6.7,3-6.7,6.7c0,0.7,0.1,1.4,0.4,2.2l0.1,0.4H25.4l0.1-0.4c0.3-0.8,0.4-1.5,0.4-2.2
			c0-3.7-3-6.7-6.7-6.7c-3.7,0-6.7,3-6.7,6.7c0,0.7,0.1,1.4,0.4,2.2l0.1,0.4H8.7C7.6,48.6,6.6,48,6,47l0,0l-0.4-0.7l4.8-1.8
			c0.2-0.1,0.4-0.3,0.4-0.6l0-2.6c0-0.3-0.3-0.6-0.6-0.6H4.4l1.1-0.6c7.3-3.8,12.7-4.7,15.9-4.9l31.9,0c0.1,0,0.3,0,0.4-0.1l4.6-3.8
			l0.2,0c8.2,2.1,15.3,4.6,17.9,5.6l0.2,0.1l-1.3,10.1C75.2,48,74.5,48.6,73.7,48.6z M71.2,48h2.5c0.5,0,0.9-0.4,1-0.9l1.3-9.6
			c-2.8-1-9.6-3.5-17.5-5.5l-4.4,3.6c-0.2,0.2-0.5,0.3-0.8,0.3H21.4c-3,0.1-7.8,0.9-14.5,4.2h3.2c0.7,0,1.2,0.6,1.2,1.2l0,2.6
			c0,0.5-0.3,1-0.8,1.2l-4.1,1.5l0.1,0.1C7,47.5,7.8,48,8.7,48h3.6c-0.2-0.7-0.3-1.3-0.3-2c0-4,3.3-7.3,7.3-7.3c4,0,7.3,3.3,7.3,7.3
			c0,0.7-0.1,1.3-0.3,2h31c-0.2-0.7-0.3-1.3-0.3-2c0-4,3.3-7.3,7.3-7.3c4,0,7.3,3.3,7.3,7.3C71.5,46.6,71.4,47.3,71.2,48z M5,45.2
			l-1.8-3.3h6.4l0,1.6L5,45.2z M4.2,42.5l1.1,1.9L8.9,43l0-0.5H4.2z M76.8,35.8l-0.4-0.1c-1.6-0.6-4.3-1.6-7.7-2.7l-0.4-0.1l1.1-1.6
			h7.8L76.8,35.8z M69.4,32.6c3,1,5.3,1.8,6.9,2.4l0.3-3h-6.8L69.4,32.6z M53.1,34H23.4l0.9-0.6c3-1.9,8.6-5.1,13.4-5.1
			c5-0.1,11.2,0.8,18.5,2.5l0.6,0.1L53.1,34z M25.5,33.4h27.4l2.6-2.1c-7-1.6-13-2.4-17.8-2.4h0C33.5,29,28.5,31.5,25.5,33.4z"/>
	</g>
</g>
</svg>
