<?xml version="1.0" encoding="utf-8"?>
<!-- Generator: Adobe Illustrator 22.0.1, SVG Export Plug-In . SVG Version: 6.00 Build 0)  -->
<svg version="1.1" id="Layer_1" xmlns="http://www.w3.org/2000/svg" xmlns:xlink="http://www.w3.org/1999/xlink" x="0px" y="0px"
	 viewBox="0 0 80 80" style="enable-background:new 0 0 80 80;" xml:space="preserve">
<style type="text/css">
	.st0{fill:#FFFFFF;}
</style>
<g>
	<g>
		<g>
			<path class="st0" d="M17.3,73v0.5H15v-2.9h2.2v0.5h-1.5v0.6H17v0.5h-1.4V73H17.3z"/>
			<path class="st0" d="M17.4,73.3l0.2-0.5c0.2,0.2,0.6,0.3,1,0.3c0.4,0,0.6-0.1,0.6-0.3c0-0.5-1.7-0.2-1.7-1.3
				c0-0.5,0.4-0.9,1.2-0.9c0.4,0,0.7,0.1,1,0.3l-0.2,0.5c-0.3-0.2-0.6-0.2-0.8-0.2c-0.4,0-0.6,0.2-0.6,0.3c0,0.5,1.7,0.2,1.7,1.2
				c0,0.5-0.4,0.9-1.2,0.9C18.2,73.6,17.7,73.5,17.4,73.3z"/>
			<path class="st0" d="M20,72.1c0-0.9,0.7-1.5,1.6-1.5c0.5,0,0.9,0.2,1.2,0.5l-0.4,0.4c-0.2-0.2-0.4-0.3-0.7-0.3
				c-0.5,0-0.9,0.4-0.9,0.9c0,0.6,0.4,0.9,0.9,0.9c0.3,0,0.5-0.1,0.7-0.3l0.4,0.4c-0.3,0.3-0.7,0.5-1.2,0.5C20.7,73.6,20,73,20,72.1
				z"/>
			<path class="st0" d="M23,72.3v-1.6h0.7v1.6c0,0.6,0.2,0.8,0.7,0.8c0.4,0,0.7-0.2,0.7-0.8v-1.6h0.7v1.6c0,0.9-0.5,1.3-1.3,1.3
				C23.5,73.6,23,73.1,23,72.3z"/>
			<path class="st0" d="M28.5,73v0.5h-2.3v-2.9h2.2v0.5h-1.5v0.6h1.4v0.5h-1.4V73H28.5z"/>
			<path class="st0" d="M28.8,70.6h0.7V73H31v0.6h-2.2V70.6z"/>
			<path class="st0" d="M33.2,72.9h-1.4l-0.3,0.6h-0.7l1.3-2.9h0.7l1.3,2.9h-0.7L33.2,72.9z M32.9,72.4l-0.5-1.1L32,72.4H32.9z"/>
			<path class="st0" d="M35.3,70.6h1.3c1,0,1.6,0.6,1.6,1.5c0,0.9-0.7,1.5-1.6,1.5h-1.3V70.6z M36.6,73c0.6,0,1-0.3,1-0.9
				c0-0.6-0.4-0.9-1-0.9H36V73H36.6z"/>
			<path class="st0" d="M40.9,73v0.5h-2.3v-2.9h2.2v0.5h-1.5v0.6h1.4v0.5h-1.4V73H40.9z"/>
			<path class="st0" d="M42.9,71.2v0.8h1.4v0.5h-1.4v1.1h-0.7v-2.9h2.2v0.5H42.9z"/>
			<path class="st0" d="M44.5,72.1c0-0.9,0.7-1.5,1.6-1.5c0.9,0,1.6,0.6,1.6,1.5c0,0.9-0.7,1.5-1.6,1.5C45.2,73.6,44.5,73,44.5,72.1
				z M47.1,72.1c0-0.6-0.4-0.9-0.9-0.9s-0.9,0.4-0.9,0.9c0,0.6,0.4,0.9,0.9,0.9S47.1,72.7,47.1,72.1z"/>
			<path class="st0" d="M50,73.6l-0.6-0.8h0h-0.6v0.8h-0.7v-2.9h1.3c0.8,0,1.3,0.4,1.3,1.1c0,0.4-0.2,0.8-0.6,0.9l0.7,0.9H50z
				 M49.3,71.2h-0.6v1h0.6c0.4,0,0.6-0.2,0.6-0.5C50,71.4,49.7,71.2,49.3,71.2z"/>
			<path class="st0" d="M53.7,73.6l0-1.8l-0.9,1.5h-0.3l-0.9-1.4v1.7H51v-2.9h0.6l1.1,1.8l1.1-1.8h0.6l0,2.9H53.7z"/>
			<path class="st0" d="M56.8,72.9h-1.4l-0.3,0.6h-0.7l1.3-2.9h0.7l1.3,2.9H57L56.8,72.9z M56.6,72.4l-0.5-1.1l-0.5,1.1H56.6z"/>
			<path class="st0" d="M57.7,72.1c0-0.9,0.7-1.5,1.6-1.5c0.5,0,0.9,0.2,1.2,0.5L60,71.5c-0.2-0.2-0.4-0.3-0.7-0.3
				c-0.5,0-0.9,0.4-0.9,0.9c0,0.6,0.4,0.9,0.9,0.9c0.3,0,0.5-0.1,0.7-0.3l0.4,0.4c-0.3,0.3-0.7,0.5-1.2,0.5
				C58.3,73.6,57.7,73,57.7,72.1z"/>
			<path class="st0" d="M60.8,70.6h0.7v2.9h-0.7V70.6z"/>
			<path class="st0" d="M61.8,72.1c0-0.9,0.7-1.5,1.6-1.5c0.9,0,1.6,0.6,1.6,1.5c0,0.9-0.7,1.5-1.6,1.5C62.5,73.6,61.8,73,61.8,72.1
				z M64.3,72.1c0-0.6-0.4-0.9-0.9-0.9c-0.5,0-0.9,0.4-0.9,0.9c0,0.6,0.4,0.9,0.9,0.9C63.9,73,64.3,72.7,64.3,72.1z M63.6,69.8h0.7
				l-0.8,0.6H63L63.6,69.8z"/>
			<path class="st0" d="M68,70.6v2.9h-0.6L66,71.8v1.8h-0.7v-2.9h0.6l1.5,1.8v-1.8H68z"/>
			<path class="st0" d="M20.6,75.1h1.3c1,0,1.6,0.6,1.6,1.5c0,0.9-0.7,1.5-1.6,1.5h-1.3V75.1z M21.9,77.5c0.6,0,1-0.3,1-0.9
				c0-0.6-0.4-0.9-1-0.9h-0.6v1.8H21.9z"/>
			<path class="st0" d="M26.2,77.5V78h-2.3v-2.9h2.2v0.5h-1.5v0.6h1.4v0.5h-1.4v0.7H26.2z"/>
			<path class="st0" d="M27.5,75.1h0.7V78h-0.7V75.1z"/>
			<path class="st0" d="M31.5,75.1V78h-0.6l-1.5-1.8V78h-0.7v-2.9h0.6l1.5,1.8v-1.8H31.5z"/>
			<path class="st0" d="M32.6,75.7h-0.9v-0.6h2.6v0.6h-0.9V78h-0.7V75.7z"/>
			<path class="st0" d="M36.7,77.5V78h-2.3v-2.9h2.2v0.5h-1.5v0.6h1.4v0.5h-1.4v0.7H36.7z"/>
			<path class="st0" d="M38.9,78l-0.6-0.8h0h-0.6V78H37v-2.9h1.3c0.8,0,1.3,0.4,1.3,1.1c0,0.4-0.2,0.8-0.6,0.9l0.7,0.9H38.9z
				 M38.3,75.7h-0.6v1h0.6c0.4,0,0.6-0.2,0.6-0.5C38.9,75.8,38.7,75.7,38.3,75.7z"/>
			<path class="st0" d="M42.6,78l0-1.8l-0.9,1.5h-0.3l-0.9-1.4V78H40v-2.9h0.6l1.1,1.8l1.1-1.8h0.6l0,2.9H42.6z"/>
			<path class="st0" d="M46.1,77.5V78h-2.3v-2.9H46v0.5h-1.5v0.6h1.4v0.5h-1.4v0.7H46.1z"/>
			<path class="st0" d="M46.4,75.1h1.3c1,0,1.6,0.6,1.6,1.5c0,0.9-0.7,1.5-1.6,1.5h-1.3V75.1z M47.7,77.5c0.6,0,1-0.3,1-0.9
				c0-0.6-0.4-0.9-1-0.9h-0.6v1.8H47.7z"/>
			<path class="st0" d="M49.7,75.1h0.7V78h-0.7V75.1z"/>
			<path class="st0" d="M52.9,77.4h-1.4L51.3,78h-0.7l1.3-2.9h0.7l1.3,2.9h-0.7L52.9,77.4z M52.7,76.9l-0.5-1.1l-0.5,1.1H52.7z"/>
			<path class="st0" d="M55.9,78l-0.6-0.8h0h-0.6V78H54v-2.9h1.3c0.8,0,1.3,0.4,1.3,1.1c0,0.4-0.2,0.8-0.6,0.9l0.7,0.9H55.9z
				 M55.2,75.7h-0.6v1h0.6c0.4,0,0.6-0.2,0.6-0.5C55.9,75.8,55.6,75.7,55.2,75.7z"/>
			<path class="st0" d="M56.9,75.1h0.7V78h-0.7V75.1z"/>
			<path class="st0" d="M57.9,76.6c0-0.9,0.7-1.5,1.6-1.5c0.9,0,1.6,0.6,1.6,1.5c0,0.9-0.7,1.5-1.6,1.5
				C58.6,78.1,57.9,77.4,57.9,76.6z M60.5,76.6c0-0.6-0.4-0.9-0.9-0.9s-0.9,0.4-0.9,0.9c0,0.6,0.4,0.9,0.9,0.9S60.5,77.1,60.5,76.6z
				"/>
			<path class="st0" d="M61.3,77.8l0.2-0.5c0.2,0.2,0.6,0.3,1,0.3c0.4,0,0.6-0.1,0.6-0.3c0-0.5-1.7-0.2-1.7-1.3
				c0-0.5,0.4-0.9,1.2-0.9c0.4,0,0.7,0.1,1,0.3l-0.2,0.5c-0.3-0.2-0.6-0.2-0.8-0.2c-0.4,0-0.6,0.2-0.6,0.3c0,0.5,1.7,0.2,1.7,1.2
				c0,0.5-0.4,0.9-1.2,0.9C62,78.1,61.5,78,61.3,77.8z"/>
		</g>
	</g>
	<g>
		<g>
			<path class="st0" d="M23.5,27.1c0-0.1,0-0.2,0.1-0.3c0.1-0.1,0.2-0.1,0.3-0.1h8.6c0.1,0,0.2,0,0.3,0.1c0.1,0.1,0.1,0.2,0.1,0.3
				v2.1c0,0.1,0,0.2-0.1,0.3c-0.1,0.1-0.2,0.1-0.3,0.1h-5.6v2.1h4.3c0.1,0,0.2,0,0.3,0.1c0.1,0.1,0.1,0.1,0.1,0.3V34
				c0,0.1,0,0.2-0.1,0.2c-0.1,0.1-0.2,0.1-0.3,0.1h-4.3v2.2h5.8c0.3,0,0.4,0.1,0.4,0.4v2.2c0,0.1,0,0.1-0.1,0.2
				c0,0.2-0.1,0.2-0.4,0.2h-8.7c-0.1,0-0.2,0-0.3-0.1c-0.1-0.1-0.1-0.2-0.1-0.3V27.1z"/>
			<path class="st0" d="M34,27.1c0-0.1,0-0.2,0.1-0.3s0.1-0.1,0.2-0.1h8.3c0.1,0,0.2,0,0.3,0.1c0.1,0.1,0.1,0.2,0.1,0.3v2.1
				c0,0.1,0,0.2-0.1,0.3c-0.1,0.1-0.2,0.1-0.3,0.1h-5.3v2.7h3.9c0.1,0,0.2,0,0.3,0.1c0.1,0.1,0.1,0.2,0.1,0.3v2.1
				c0,0.1,0,0.2-0.1,0.3c-0.1,0.1-0.2,0.1-0.3,0.1h-3.9v4c0,0.2-0.1,0.4-0.4,0.4h-2.6c-0.2,0-0.3-0.1-0.3-0.4V27.1z"/>
			<path class="st0" d="M43.8,27.1c0-0.1,0-0.2,0.1-0.3s0.2-0.1,0.3-0.1h2.5c0.1,0,0.2,0,0.3,0.1c0.1,0.1,0.1,0.2,0.1,0.3v12.1
				c0,0.3-0.1,0.4-0.4,0.4h-2.5c-0.3,0-0.4-0.1-0.4-0.4V27.1z"/>
			<path class="st0" d="M50.3,35.4c0.1,0.1,0.2,0.2,0.4,0.3c0.2,0.1,0.3,0.3,0.5,0.4c0.3,0.2,0.6,0.3,0.9,0.5
				c0.3,0.1,0.6,0.2,0.9,0.2c0.3,0,0.5,0,0.7-0.1c0.2-0.1,0.4-0.2,0.5-0.3c0.1-0.1,0.2-0.2,0.2-0.4c0-0.1,0.1-0.3,0.1-0.5
				c0-0.2-0.1-0.3-0.2-0.5c-0.1-0.1-0.3-0.3-0.5-0.4c-0.2-0.1-0.4-0.2-0.6-0.3c-0.2-0.1-0.4-0.1-0.6-0.2c-0.7-0.2-1.3-0.5-1.8-0.8
				c-0.5-0.3-1-0.6-1.3-0.9c-0.3-0.3-0.6-0.7-0.8-1.1c-0.2-0.4-0.3-0.9-0.3-1.4c0-0.5,0.1-1,0.3-1.5c0.2-0.4,0.5-0.8,0.9-1.1
				s0.9-0.6,1.4-0.7c0.6-0.2,1.2-0.3,1.9-0.3c0.5,0,1,0.1,1.5,0.2c0.5,0.1,1,0.3,1.4,0.6c0.2,0.1,0.4,0.2,0.6,0.4
				c0.2,0.1,0.3,0.2,0.5,0.4c0.1,0.1,0.2,0.2,0.3,0.3c0.1,0.1,0.1,0.2,0.1,0.3s0,0.1-0.1,0.2c0,0.1-0.1,0.1-0.2,0.2l-1.3,1.4
				c-0.1,0.1-0.2,0.1-0.3,0.1c-0.1,0-0.2,0-0.2-0.1c-0.1,0-0.1-0.1-0.2-0.2l-0.1-0.1c-0.1-0.1-0.2-0.2-0.4-0.3
				c-0.1-0.1-0.3-0.2-0.5-0.3c-0.2-0.1-0.3-0.2-0.5-0.2c-0.2-0.1-0.4-0.1-0.5-0.1c-0.2,0-0.4,0-0.5,0c-0.2,0-0.3,0.1-0.4,0.2
				c-0.1,0.1-0.2,0.2-0.3,0.3c-0.1,0.1-0.1,0.2-0.1,0.4c0,0.2,0,0.3,0.1,0.4c0.1,0.1,0.2,0.2,0.4,0.3c0.2,0.1,0.4,0.2,0.6,0.3
				c0.2,0.1,0.5,0.2,0.8,0.3c0.6,0.2,1.2,0.4,1.7,0.6c0.5,0.2,1,0.5,1.3,0.8c0.4,0.3,0.7,0.7,0.9,1.1c0.2,0.4,0.3,0.9,0.3,1.5
				c0,0.6-0.1,1.2-0.4,1.7c-0.3,0.5-0.6,1-1.1,1.3c-0.5,0.4-1,0.6-1.6,0.8c-0.6,0.2-1.3,0.3-2,0.3c-0.7,0-1.3-0.1-2-0.4
				c-0.6-0.2-1.2-0.6-1.8-1c-0.2-0.2-0.4-0.3-0.6-0.5c-0.2-0.2-0.3-0.3-0.4-0.4l0,0c0,0,0,0,0,0c0,0,0,0,0,0c0,0,0,0,0,0
				c0,0,0,0,0,0c-0.1-0.1-0.2-0.3-0.2-0.3c0-0.1,0.1-0.2,0.2-0.3l1.5-1.4c0.1-0.1,0.2-0.1,0.3-0.1c0.1,0,0.1,0,0.2,0.1
				C50.1,35.2,50.2,35.3,50.3,35.4z"/>
		</g>
	</g>
	<path class="st0" d="M69.6,50.5c-2.6,3.2-5.7,5.6-9,7.7c-4.6,2.8-9.6,4.7-14.9,5.6c-5.2,0.9-10.3,0.7-15.4-0.9
		c-2-0.6-4-1.5-5.8-2.6c9.9,3.3,19.1,2,27.8-3.6c4.8-3.1,8.6-7.3,11.1-12.6c-2.6-0.4-5.1-0.7-7.6-1.1c0.1-0.1,0.1-0.1,0.1-0.1
		c6.2-2.5,12.2-5.5,18.1-8.5c1.6-0.8,3.4-1.5,5-2.2c0.2-0.1,0.3-0.1,0.5-0.2c-2.9,8-5.7,16-8.6,24.1C70.1,54.3,70.1,52.4,69.6,50.5z
		"/>
	<path class="st0" d="M8.5,11.9c1.1,1.6,1.2,3.6,1.8,5.4c0.2-0.2,0.3-0.4,0.5-0.6c3.2-4,7.1-7.1,11.6-9.5c4-2.2,8.2-3.7,12.6-4.5
		c6.7-1.2,13.1-0.5,19.3,2.5c0.2,0.1,0.3,0.2,0.5,0.3c-1.1-0.3-2.2-0.6-3.4-0.8c-5.3-1-10.6-0.6-15.7,1.2C30.8,7.6,26.6,10.3,23,14
		c-2.5,2.6-4.6,5.6-6,8.9c-0.2,0.6-0.2,0.6,0.4,0.7c2.3,0.2,4.6,0.4,7,0.6c-0.1,0.1-0.1,0.2-0.2,0.2c-5.9,2.7-11.6,6-17.3,9.2
		c-1.8,1-3.7,1.8-5.5,2.7c-0.1,0-0.2,0.1-0.3,0.1C3.5,28.2,6,20.1,8.5,11.9z"/>
	<path class="st0" d="M15.3,33.1c0,0.6-0.1,1-0.1,1.5c-0.1,6.3,2.3,11.4,7.1,15.5c3.3,2.9,7.2,4.6,11.5,5.5
		c5.1,1.1,10.1,0.9,15.1-0.9c2.9-1.1,5.5-2.7,7.6-5c0.1-0.1,0.2-0.3,0.3-0.4c0.1,0,0.1,0.1,0.2,0.1c-0.6,0.9-1.2,1.8-1.9,2.6
		c-2.9,3.5-6.7,5.5-10.9,6.8c-3.9,1.2-7.9,1.5-12,1c-4.9-0.5-9.5-2.1-13.5-5.1c-2.2-1.7-4.1-3.7-5.4-6.2c-1.6-2.7-2.8-5.6-3.2-8.8
		c-0.2-1.2-0.2-2.4,0.2-3.5c0.5-1.4,1.5-2.3,2.9-2.7C13.9,33.3,14.6,33.2,15.3,33.1z"/>
	<path class="st0" d="M24.9,15.4c0.1-0.3,0.1-0.7,0.3-0.9c0.7-0.8,1.5-1.5,2.3-2.2c4.1-3.1,8.7-4.9,13.8-5.5c6-0.6,11.7,0.3,17,3.1
		c4.9,2.6,8.6,6.5,10.7,11.7c1.1,2.7,1.5,5.4,1.6,8.3c0,0.2-0.1,0.4-0.2,0.4c-1.7,0.9-3.4,1.7-5.1,2.6c-0.1,0-0.1,0-0.3,0.1
		c0-0.7,0-1.5,0-2.2c-0.2-5.5-2.3-10.2-6.2-14c-4.1-3.9-9-6.1-14.5-6.8c-4.9-0.7-9.7,0-14.3,2.1c-1.7,0.8-3.2,1.8-4.6,2.9
		c-0.1,0.1-0.2,0.2-0.3,0.2C25.2,15.4,25.1,15.4,24.9,15.4z"/>
	<path class="st0" d="M7.7,60.6c-3.1,0-5.6-2.5-5.6-5.5c0-3.1,2.5-5.6,5.5-5.6c3.2,0,5.7,2.4,5.7,5.6C13.3,58.1,10.8,60.6,7.7,60.6z
		"/>
	<path class="st0" d="M67.6,12.9c-3.1,0-5.6-2.5-5.5-5.6c0-3.1,2.5-5.6,5.6-5.6c3.1,0,5.5,2.5,5.5,5.6C73.2,10.5,70.7,13,67.6,12.9z
		"/>
</g>
</svg>
