<?xml version="1.0" encoding="utf-8"?>
<!-- Generator: Adobe Illustrator 22.0.1, SVG Export Plug-In . SVG Version: 6.00 Build 0)  -->
<svg version="1.1" id="Layer_1" xmlns="http://www.w3.org/2000/svg" xmlns:xlink="http://www.w3.org/1999/xlink" x="0px" y="0px"
	 viewBox="0 0 80 80" style="enable-background:new 0 0 80 80;" xml:space="preserve">
<style type="text/css">
	.st0{fill:#B5916F;}
	.st1{fill:#135FA7;}
	.st2{fill:#018BD2;}
	.st3{fill:none;}
	.st4{fill:#008BD2;}
	.st5{fill:#FFFFFF;}
	.st6{fill:#08A9E1;}
	.st7{fill:#F6F9F9;}
	.st8{fill:url(#SVGID_1_);}
	.st9{fill:#FFFFFF;stroke:#BABCBE;stroke-width:0.2278;stroke-miterlimit:10;}
	.st10{fill:#FFFFFF;stroke:#F2F2F2;stroke-width:0.2307;stroke-miterlimit:10;}
</style>
<g>
	<g>
		<g>
			<path class="st1" d="M39.4,2.4C18.6,2.4,1.8,19.2,1.8,40s16.9,37.6,37.6,37.6S77,60.7,77,40S60.1,2.4,39.4,2.4z M39.4,74.5
				C20.4,74.5,4.9,59,4.9,40S20.4,5.5,39.4,5.5S73.9,21,73.9,40S58.4,74.5,39.4,74.5z"/>
			<path class="st1" d="M39.4,14.9c-8.6,0-15.7,7-15.7,15.7v1.6c0,0.9,0.7,1.6,1.6,1.6h6.3c0.9,0,1.6-0.7,1.6-1.6v-1.6
				c0-3.5,2.8-6.3,6.3-6.3s6.3,2.8,6.3,6.3s-2.8,6.3-6.3,6.3c-3.5,0-6.3,2.8-6.3,6.3V51c0,0.9,0.7,1.6,1.6,1.6h6.3
				c0.9,0,1.6-0.7,1.6-1.6v-5c7.2-1.5,12.5-7.8,12.5-15.4C55.1,21.9,48,14.9,39.4,14.9z M40.8,43c-0.8,0.1-1.4,0.8-1.4,1.6v4.8h-3.1
				v-6.3c0-1.7,1.4-3.1,3.1-3.1c5.2,0,9.4-4.2,9.4-9.4s-4.2-9.4-9.4-9.4S30,25.4,30,30.6h-3.1c0-6.9,5.6-12.5,12.5-12.5
				s12.5,5.6,12.5,12.5C51.9,37,47.1,42.3,40.8,43z"/>
			<path class="st1" d="M37.8,55.7c-2.6,0-4.7,2.1-4.7,4.7s2.1,4.7,4.7,4.7c2.6,0,4.7-2.1,4.7-4.7S40.4,55.7,37.8,55.7z M37.8,61.9
				c-0.9,0-1.6-0.7-1.6-1.6s0.7-1.6,1.6-1.6s1.6,0.7,1.6,1.6S38.7,61.9,37.8,61.9z"/>
		</g>
	</g>
</g>
</svg>
