<?xml version="1.0" encoding="utf-8"?>
<!-- Generator: Adobe Illustrator 22.0.1, SVG Export Plug-In . SVG Version: 6.00 Build 0)  -->
<svg version="1.1" id="Layer_1" xmlns="http://www.w3.org/2000/svg" xmlns:xlink="http://www.w3.org/1999/xlink" x="0px" y="0px"
	 viewBox="0 0 80 80" style="enable-background:new 0 0 80 80;" xml:space="preserve">
<style type="text/css">
	.st0{fill:#B5916F;}
	.st1{fill:#135FA7;}
	.st2{fill:#018BD2;}
	.st3{fill:none;}
	.st4{fill:#008BD2;}
	.st5{fill:#FFFFFF;}
	.st6{fill:#08A9E1;}
	.st7{fill:#F6F9F9;}
	.st8{fill:url(#SVGID_1_);}
	.st9{fill:#FFFFFF;stroke:#BABCBE;stroke-width:0.2278;stroke-miterlimit:10;}
	.st10{fill:#FFFFFF;stroke:#F2F2F2;stroke-width:0.2307;stroke-miterlimit:10;}
</style>
<g>
	<path class="st1" d="M80,40.8l-4.4-4.4v-1.9h-6.9L23.1,15.5L0,24.4l0.7,1.8L1.3,26v38.2h8.1h16.1h50.2V40.8H80z M32.8,38.8v-0.9
		h41.5l0.9,0.9H32.8z M11.4,62.3V42.7h12.1v19.5H11.4z M9.4,40.7v21.5H3.3v-37l19.8-7.6l44,18.3H30.8v4.9H32v21.5h-6.5V40.7H9.4z
		 M73.7,62.3H34V40.8h39.8V62.3z"/>
	<path class="st1" d="M54.1,57.3V43.5H36v13.8H54.1z M38,51.4h6.1v4H38V51.4z M46.1,55.3v-4h6.1v4H46.1z M52.1,49.4h-6.1v-4h6.1
		V49.4z M44.1,45.5v4H38v-4H44.1z"/>
	<path class="st1" d="M13.9,50.3c-1.2,0-2.2,1-2.2,2.2c0,1.2,1,2.2,2.2,2.2s2.2-1,2.2-2.2C16.1,51.3,15.1,50.3,13.9,50.3z
		 M13.9,52.7c-0.1,0-0.2-0.1-0.2-0.2c0-0.1,0.1-0.2,0.2-0.2c0.1,0,0.2,0.1,0.2,0.2C14.1,52.6,14,52.7,13.9,52.7z"/>
</g>
</svg>
