<?xml version="1.0" encoding="utf-8"?>
<!-- Generator: Adobe Illustrator 22.0.1, SVG Export Plug-In . SVG Version: 6.00 Build 0)  -->
<svg version="1.1" id="Layer_1" xmlns="http://www.w3.org/2000/svg" xmlns:xlink="http://www.w3.org/1999/xlink" x="0px" y="0px"
	 viewBox="0 0 80 80" style="enable-background:new 0 0 80 80;" xml:space="preserve">
<style type="text/css">
	.st0{fill:#B5916F;}
	.st1{fill:#135FA7;}
	.st2{fill:#018BD2;}
	.st3{fill:none;}
	.st4{fill:#008BD2;}
	.st5{fill:#FFFFFF;}
	.st6{fill:#08A9E1;}
	.st7{fill:#F6F9F9;}
	.st8{fill:url(#SVGID_1_);}
	.st9{fill:#FFFFFF;stroke:#BABCBE;stroke-width:0.2278;stroke-miterlimit:10;}
	.st10{fill:#FFFFFF;stroke:#F2F2F2;stroke-width:0.2307;stroke-miterlimit:10;}
</style>
<g>
	<path class="st0" d="M40.1,49.3L40.1,49.3c-0.9,0-1.7-0.1-2.6-0.4c-0.8-0.3-1.7-0.7-2.6-1.2c-0.8-0.5-1.6-1-2.2-1.4
		c-0.6-0.4-1.3-0.9-2.2-1.6c-0.9-0.6-1.4-1-1.7-1.2c-2.6-1.8-6.2-4.3-10.6-7.4c-4.8-3.4-7.4-5.1-8.3-5.8c-1.8-1.2-3.5-2.9-5.1-5
		c-1.7-2.2-2.5-4.4-2.5-6.4c0-2.4,0.7-4.5,2-6.2c1.4-1.8,3.4-2.7,6-2.7h59.6c2.2,0,4,0.8,5.6,2.3c1.6,1.6,2.4,3.5,2.4,5.6
		c0,2.4-0.8,4.8-2.2,7c-1.4,2.1-3.2,3.9-5.3,5.4c-10.2,7-16.5,11.4-19,13.2c-0.3,0.2-0.9,0.6-1.7,1.2c-0.9,0.7-1.6,1.2-2.2,1.6
		c-0.6,0.4-1.3,0.9-2.2,1.4c-0.9,0.5-1.8,1-2.6,1.2C41.7,49.1,40.9,49.3,40.1,49.3z M10.3,13c-1.6,0-2.8,0.5-3.6,1.5
		c-0.9,1.1-1.4,2.6-1.4,4.3c0,1.4,0.6,2.9,1.9,4.6c1.4,1.8,2.8,3.3,4.4,4.3l0,0c0.9,0.6,3.5,2.4,8.3,5.8c4.5,3.1,8,5.6,10.6,7.4
		c0.3,0.2,0.8,0.6,1.7,1.2c0.9,0.6,1.6,1.1,2.1,1.5c0.6,0.4,1.2,0.8,2,1.3c0.7,0.4,1.4,0.8,2,1c0.6,0.2,1.1,0.3,1.6,0.3h0.1
		c0.5,0,1-0.1,1.6-0.3c0.6-0.2,1.3-0.5,2-1c0.8-0.5,1.5-0.9,2-1.3c0.6-0.4,1.3-0.9,2.1-1.5c0.9-0.6,1.5-1,1.7-1.2
		c2.5-1.7,8.8-6.1,19-13.2c1.8-1.3,3.3-2.8,4.6-4.6c1.2-1.7,1.7-3.4,1.7-5.3c0-1.4-0.5-2.5-1.5-3.5c-1-1-2.1-1.5-3.5-1.5H10.3z"/>
	<path class="st0" d="M69.9,70H10.3c-2.2,0-4.1-0.8-5.6-2.3c-1.6-1.6-2.3-3.4-2.3-5.6V29.9c0-0.6,0.4-1.2,1-1.4
		c0.6-0.2,1.2-0.1,1.6,0.4c1.1,1.2,2.4,2.3,3.8,3.3c9.7,6.6,16.5,11.3,20.2,14c1.5,1.1,2.7,2,3.7,2.6c0.9,0.6,2.1,1.2,3.6,1.8
		c1.4,0.6,2.7,0.9,3.9,0.9h0.1c1.2,0,2.5-0.3,3.9-0.9c1.5-0.6,2.7-1.2,3.6-1.8c1-0.6,2.2-1.5,3.7-2.6c4.6-3.3,11.4-8,20.2-14
		c1.4-1,2.7-2.1,3.8-3.3c0.4-0.5,1.1-0.6,1.6-0.4c0.6,0.2,1,0.8,1,1.4V62c0,2.2-0.8,4.1-2.3,5.6C73.9,69.2,72,70,69.9,70z M5.3,33.4
		V62c0,1.4,0.5,2.5,1.5,3.5c1,1,2.1,1.5,3.5,1.5h59.6c1.4,0,2.5-0.5,3.5-1.5c1-1,1.5-2.1,1.5-3.5V33.4c-0.5,0.4-1.1,0.9-1.7,1.3
		c-8.8,6-15.6,10.6-20.1,13.9c-1.5,1.1-2.8,2-3.8,2.7c-1,0.7-2.4,1.4-4.1,2.1c-1.8,0.7-3.5,1.1-5,1.1H40c-1.6,0-3.3-0.4-5-1.1
		c-1.7-0.7-3-1.4-4.1-2.1c-1-0.7-2.3-1.6-3.8-2.7C23.5,45.9,16.7,41.3,7,34.7C6.4,34.3,5.8,33.8,5.3,33.4z"/>
</g>
</svg>
