<svg id="Layer_1" data-name="Layer 1" xmlns="http://www.w3.org/2000/svg" viewBox="0 0 80 80"><defs><style>.cls-1{fill:#135fa7;}</style></defs><title>iconos</title><path class="cls-1" d="M51.64,17.48H31.38a3.17,3.17,0,0,1-3.17-3.17V10.26a3.17,3.17,0,0,1,3.17-3.17H51.64a3.18,3.18,0,0,1,3.18,3.17v4.05A3.18,3.18,0,0,1,51.64,17.48ZM31.38,9.38a.88.88,0,0,0-.88.88v4.05a.88.88,0,0,0,.88.88H51.64a.88.88,0,0,0,.89-.88V10.26a.88.88,0,0,0-.89-.88Z"/><path class="cls-1" d="M29.36,68.27a3.17,3.17,0,1,1,3.17-3.17A3.18,3.18,0,0,1,29.36,68.27Zm0-4a.88.88,0,1,0,.88.88A.89.89,0,0,0,29.36,64.22Z"/><path class="cls-1" d="M29.36,35.85a3.17,3.17,0,1,1,3.17-3.17A3.18,3.18,0,0,1,29.36,35.85Zm0-4.05a.88.88,0,1,0,.88.88A.89.89,0,0,0,29.36,31.8Z"/><path class="cls-1" d="M65.83,78.54H17.2A3.17,3.17,0,0,1,14,75.37V14.31a3.17,3.17,0,0,1,3.17-3.17h9.25v3.17a4.93,4.93,0,0,0,4.93,4.93H51.64a4.94,4.94,0,0,0,4.94-4.93V11.14h9.25A3.17,3.17,0,0,1,69,14.31V75.37A3.17,3.17,0,0,1,65.83,78.54ZM17.2,13.43a.87.87,0,0,0-.88.88V75.37a.87.87,0,0,0,.88.88H65.83a.88.88,0,0,0,.88-.88V14.31a.88.88,0,0,0-.88-.88h-7v.88a7.23,7.23,0,0,1-7.23,7.22H31.38a7.23,7.23,0,0,1-7.22-7.22v-.88Zm12.16,58.9a7.23,7.23,0,1,1,7.22-7.23A7.23,7.23,0,0,1,29.36,72.33Zm0-12.16a4.94,4.94,0,1,0,4.93,4.93A4.94,4.94,0,0,0,29.36,60.17Zm28.36,8.1H41.51a3.17,3.17,0,1,1,0-6.34H57.72a3.17,3.17,0,1,1,0,6.34Zm-16.21-4a.88.88,0,1,0,0,1.76H57.72a.88.88,0,0,0,0-1.76Zm-12.15-8.1a3.2,3.2,0,0,1-2.25-.93l-4.05-4.06a3.12,3.12,0,0,1-.93-2.24,3.17,3.17,0,0,1,5.42-2.24l1.24,1.24,2.34-3.72a3.17,3.17,0,0,1,5.37,3.37h0L32,54.63a3.19,3.19,0,0,1-2.33,1.47ZM25.3,48a.88.88,0,0,0-.62,1.51l4.05,4a.89.89,0,0,0,.73.25.87.87,0,0,0,.64-.41l4.46-7.09h0a.88.88,0,0,0-1.49-.93L29.2,51.54l-3.27-3.27A.88.88,0,0,0,25.3,48Zm32.42,4.05H41.51a3.17,3.17,0,1,1,0-6.34H57.72a3.17,3.17,0,0,1,0,6.34ZM41.51,48a.88.88,0,0,0,0,1.76H57.72a.88.88,0,0,0,0-1.76Zm-12.15-8.1a7.23,7.23,0,1,1,7.22-7.23A7.23,7.23,0,0,1,29.36,39.91Zm0-12.16a4.94,4.94,0,1,0,4.93,4.93A4.94,4.94,0,0,0,29.36,27.75Zm28.36,8.1H41.51a3.17,3.17,0,1,1,0-6.34H57.72a3.17,3.17,0,1,1,0,6.34ZM41.51,31.8a.88.88,0,0,0,0,1.76H57.72a.88.88,0,1,0,0-1.76Z"/></svg>