<?xml version="1.0" encoding="utf-8"?>
<!-- Generator: Adobe Illustrator 22.0.1, SVG Export Plug-In . SVG Version: 6.00 Build 0)  -->
<svg version="1.1" id="Layer_1" xmlns="http://www.w3.org/2000/svg" xmlns:xlink="http://www.w3.org/1999/xlink" x="0px" y="0px"
	 viewBox="0 0 80 80" style="enable-background:new 0 0 80 80;" xml:space="preserve">
<style type="text/css">
	.st0{fill:#B5916F;}
	.st1{fill:#135FA7;}
	.st2{fill:#018BD2;}
	.st3{fill:none;}
	.st4{fill:#008BD2;}
	.st5{fill:#FFFFFF;}
	.st6{fill:#08A9E1;}
	.st7{fill:#F6F9F9;}
	.st8{fill:url(#SVGID_1_);}
	.st9{fill:#FFFFFF;stroke:#BABCBE;stroke-width:0.2278;stroke-miterlimit:10;}
	.st10{fill:#FFFFFF;stroke:#F2F2F2;stroke-width:0.2307;stroke-miterlimit:10;}
</style>
<g>
	<g>
		<path class="st0" d="M50.2,73.8H30.5c-1.1,0-2.1-0.4-2.9-1.2c-0.8-0.8-1.2-1.8-1.2-2.9c0-0.7,0.3-1.4,0.8-2.5
			c0.4-0.7,0.8-1.6,1.2-2.5c0.1-0.3,0.2-0.5,0.3-0.8H9.4c-2.1,0-4-0.8-5.5-2.3c-1.5-1.5-2.3-3.4-2.3-5.5v-42c0-2.1,0.8-4,2.3-5.5
			C5.4,7,7.3,6.2,9.4,6.2h61.8c2.1,0,4,0.8,5.5,2.3c1.5,1.5,2.3,3.4,2.3,5.5v42c0,2.1-0.8,4-2.3,5.5c-1.5,1.5-3.4,2.3-5.5,2.3H52.1
			c0.1,0.2,0.2,0.5,0.3,0.7c0.4,1,0.8,1.8,1.2,2.6c0.6,1.1,0.8,1.8,0.8,2.4c0,1.1-0.4,2.1-1.2,2.9C52.3,73.4,51.3,73.8,50.2,73.8z
			 M29.6,69.7c0,0.2,0.1,0.3,0.3,0.5c0.2,0.2,0.4,0.3,0.6,0.3h19.8c0.2,0,0.4,0,0.6-0.3c0.2-0.2,0.2-0.3,0.3-0.5
			c0-0.1-0.1-0.4-0.4-1c-0.4-0.8-0.9-1.8-1.3-2.9c-0.5-1.2-0.7-2.4-0.7-3.6v-1.6h22.7c1.3,0,2.3-0.4,3.2-1.3
			c0.9-0.9,1.3-1.9,1.3-3.2v-42c0-1.3-0.4-2.3-1.3-3.2c-0.9-0.9-1.9-1.3-3.2-1.3H9.4c-1.3,0-2.3,0.4-3.2,1.3
			c-0.9,0.9-1.3,1.9-1.3,3.2v42c0,1.3,0.4,2.3,1.3,3.2c0.9,0.9,1.9,1.3,3.2,1.3h22.7v1.6c0,1.2-0.2,2.4-0.7,3.6
			c-0.4,1.1-0.9,2-1.3,2.9C29.7,69.4,29.7,69.7,29.6,69.7z M71.3,49.1H9.4c-0.8,0-1.5-0.3-2-0.8c-0.6-0.6-0.8-1.3-0.8-2V14.1
			c0-0.8,0.3-1.5,0.8-2c0.6-0.6,1.3-0.9,2-0.9h61.8c0.8,0,1.5,0.3,2,0.8c0.6,0.6,0.9,1.3,0.9,2v32.1c0,0.8-0.3,1.5-0.8,2
			C72.7,48.8,72,49.1,71.3,49.1z M9.9,45.8h61V14.5h-61V45.8z"/>
	</g>
</g>
</svg>
