<?xml version="1.0" encoding="utf-8"?>
<!-- Generator: Adobe Illustrator 22.0.1, SVG Export Plug-In . SVG Version: 6.00 Build 0)  -->
<svg version="1.1" id="Layer_1" xmlns="http://www.w3.org/2000/svg" xmlns:xlink="http://www.w3.org/1999/xlink" x="0px" y="0px"
	 viewBox="0 0 80 80" style="enable-background:new 0 0 80 80;" xml:space="preserve">
<style type="text/css">
	.st0{fill:#B5916F;}
	.st1{fill:#135FA7;}
	.st2{fill:#018BD2;}
	.st3{fill:none;}
	.st4{fill:#008BD2;}
	.st5{fill:#FFFFFF;}
	.st6{fill:#08A9E1;}
	.st7{fill:#F6F9F9;}
	.st8{fill:url(#SVGID_1_);}
	.st9{fill:#FFFFFF;stroke:#BABCBE;stroke-width:0.2278;stroke-miterlimit:10;}
	.st10{fill:#FFFFFF;stroke:#F2F2F2;stroke-width:0.2307;stroke-miterlimit:10;}
</style>
<g>
	<path class="st0" d="M25.2,27.7c0,3.7,0.1,7.1,0,10.5c-0.1,2.8,0.8,4,3.7,3.9c14.8-0.1,29.5-0.1,44.3,0c2.9,0,3.8-1.3,3.8-4
		c-0.1-7.2-0.1-14.5,0-21.7c0-3-1.3-4-4.2-4c-14.5,0.1-29,0.1-43.5,0c-1.9,0-3.4,0.4-4.8,1.8c-0.5,0.6-1.5,1-2.1,0.1
		c-0.3-0.4-0.1-1.3,0.1-1.9c0.8-1.8,2.3-2.6,4.3-2.6c16.1,0,32.3,0,48.4,0c3.1,0,4.6,2,4.7,4.7c0.2,8.6,0.2,17.2-0.1,25.8
		c-0.1,3.2-2.4,4.7-5.6,4.7c-15.6,0-31.2,0-46.7,0c-3.5,0-5.3-1.9-5.4-5.3c-0.1-3,0.1-6-0.1-9C21.9,28.8,22.8,27.8,25.2,27.7z"/>
	<path class="st0" d="M27.5,58.8c-0.9,0-1.9-0.4-2.9-1.4c-1.3-1.3-2.7-2.7-4-4c-3.2-3.2-6.6-6.6-9.8-9.9c-0.7-0.7-1.2-1.7-1.3-2.7
		l0-0.2c-0.3-1.8-0.7-3.7-0.5-5.7c1-14.4,2.3-15.9,16.4-19c0.2,0,0.3-0.1,0.5-0.1c1.8-0.4,5.1-1.2,6.3,2.7c0.4,1.5,0.3,2.8-0.3,3.9
		c-0.7,1.2-2,2-3.9,2.4c0,0-0.1,0-0.1,0l0,0c-0.9,0.5-2,0.8-3,1.1c-2.2,0.6-3.5,1-3.9,2.5c-1.6,6.1-1.3,11.2,0.9,15.6
		c1,2,3.1,3,6.3,3c0,0,0,0,0,0c2.2,0,4.4,0,6.9,0l5.6,0l-1,1.7c-2.7,4.7-6.3,7.4-9.7,9.6C29.2,58.5,28.4,58.8,27.5,58.8z M28.4,17.6
		c-0.5,0-1.1,0.1-2,0.3c-0.2,0-0.4,0.1-0.6,0.1c-13.1,3-13.7,3.6-14.7,17c-0.1,1.7,0.2,3.4,0.5,5.2l0,0.2c0.1,0.6,0.4,1.2,0.7,1.5
		c3.3,3.3,6.6,6.7,9.8,9.9c1.3,1.3,2.7,2.7,4,4c0.9,0.9,1.5,0.8,2.2,0.3c3.1-2,5.7-4.1,7.9-7.1l-1.5,0c-2.4,0-4.7,0-6.9,0
		c0,0,0,0,0,0c-2.8,0-6.5-0.7-8.3-4.3c-2.5-4.9-2.8-10.5-1.1-17.2c0.7-2.8,3.4-3.5,5.5-4.1c1-0.3,1.9-0.5,2.6-0.9l0,0
		c0.1-0.1,0.4-0.2,0.6-0.3c1.3-0.3,2.1-0.7,2.5-1.3c0.3-0.5,0.3-1.2,0.1-2.1C29.6,17.9,29.3,17.6,28.4,17.6z M27.8,24.6
		C27.8,24.6,27.8,24.6,27.8,24.6C27.8,24.6,27.8,24.6,27.8,24.6z"/>
	<path class="st0" d="M54.1,18.3c5.9,0,11.7,0.1,17.6-0.1c3.8-0.1,2.8,2.5,2.8,4.4c0,1.9,1.3,4.6-2.7,4.5c-11.9-0.1-23.7-0.1-35.6,0
		c-4.3,0-2.3-3.1-2.6-5c-0.3-2.1-0.4-4.1,2.9-3.9C42.3,18.5,48.2,18.3,54.1,18.3z"/>
	<path class="st0" d="M19.2,70.1c-2.1,0-3.7-1.6-4.3-2.2c-2.1-2.1-4.2-4.2-6.3-6.2c-2.1-2.1-4.3-4.3-6.5-6.4c-1.5-1.5-2.2-3-2.2-4.5
		c0-1.6,0.8-3.2,2.5-4.8c3.6-3.5,6.2-3.5,9.6-0.2c2.9,2.8,5.7,5.7,8.5,8.5c1.3,1.3,2.6,2.6,3.9,3.9c0.1,0.1,0.2,0.2,0.3,0.3
		c1,0.9,2.1,2,1.9,3.4c-0.1,4.2-2.7,6-4.9,7.4l0,0C20.9,69.9,20,70.1,19.2,70.1z M7.4,45.6c-1,0-2,0.7-3.4,2
		c-1.2,1.2-1.8,2.2-1.8,3.2c0,0.9,0.5,1.8,1.6,2.8c2.2,2.1,4.4,4.3,6.5,6.4c2,2,4.2,4.1,6.2,6.2c1.9,1.9,3,1.8,4,1.1l0,0
		c2-1.4,3.8-2.6,3.9-5.7l0-0.2c0-0.3-0.8-1.1-1.2-1.5c-0.1-0.1-0.2-0.2-0.3-0.3c-1.3-1.3-2.6-2.6-3.9-3.9c-2.8-2.8-5.6-5.6-8.5-8.4
		C9.2,46.2,8.3,45.6,7.4,45.6z"/>
	<path class="st0" d="M47.7,33.2c-3.8,0-7.6,0-11.5,0c-1,0-2.5,0.4-2.6-1.1c-0.2-1.7,1.4-1.3,2.4-1.3c7.9,0,15.8,0,23.7,0
		c0.9,0,2.2-0.2,2.2,1.1c0.1,1.7-1.4,1.3-2.4,1.3C55.6,33.3,51.7,33.2,47.7,33.2z"/>
	<path class="st0" d="M47.8,38c-4.1,0-8.2,0-12.3,0c-0.8,0-1.8,0.1-1.9-1.1c-0.1-1.4,1-1.4,1.9-1.4c8.2,0,16.4,0,24.5,0
		c0.8,0,1.8-0.1,1.9,1.1c0.2,1.5-1,1.4-1.9,1.4C56,38,51.9,38,47.8,38z"/>
</g>
</svg>
