<?xml version="1.0" encoding="utf-8"?>
<!-- Generator: Adobe Illustrator 22.0.1, SVG Export Plug-In . SVG Version: 6.00 Build 0)  -->
<svg version="1.1" id="Layer_1" xmlns="http://www.w3.org/2000/svg" xmlns:xlink="http://www.w3.org/1999/xlink" x="0px" y="0px"
	 viewBox="0 0 80 80" style="enable-background:new 0 0 80 80;" xml:space="preserve">
<style type="text/css">
	.st0{fill:#B5916F;}
	.st1{fill:#135FA7;}
	.st2{fill:#018BD2;}
	.st3{fill:none;}
	.st4{fill:#008BD2;}
	.st5{fill:#FFFFFF;}
	.st6{fill:#08A9E1;}
	.st7{fill:#F6F9F9;}
	.st8{fill:url(#SVGID_1_);}
	.st9{fill:#FFFFFF;stroke:#BABCBE;stroke-width:0.2278;stroke-miterlimit:10;}
	.st10{fill:#FFFFFF;stroke:#F2F2F2;stroke-width:0.2307;stroke-miterlimit:10;}
</style>
<g>
	<g>
		<g>
			<g>
				<rect x="26.4" y="15.1" class="st1" width="14.8" height="2"/>
			</g>
			<g>
				<rect x="49.5" y="15.1" class="st1" width="6.9" height="2"/>
			</g>
			<g>
				<path class="st1" d="M45.2,21.5c-2.9,0-5.2-2.4-5.2-5.2c0-2.9,2.4-5.2,5.2-5.2c2.9,0,5.2,2.4,5.2,5.2
					C50.5,19.1,48.1,21.5,45.2,21.5z M45.2,12.9c-1.8,0-3.3,1.5-3.3,3.3c0,1.8,1.5,3.3,3.3,3.3c1.8,0,3.3-1.5,3.3-3.3
					C48.5,14.4,47,12.9,45.2,12.9z"/>
			</g>
		</g>
		<g>
			<g>
				<g>
					<g>
						<g>
							<g>
								<path class="st1" d="M25,21v-5.2c0-8.1,6.6-14.6,14.6-14.6c4.9,0,9.3,3.3,10.5,8.1c0.3,1.2-1.6,1.7-1.9,0.5
									c-3-11.5-21.3-7.2-21.3,6V21C26.9,22.3,25,22.3,25,21z"/>
								<path class="st1" d="M25.9,22.5c-0.7,0-1.5-0.5-1.5-1.4v-5.2c0-8.3,6.8-15.1,15.1-15.1c5.2,0,9.7,3.5,11,8.5
									c0.2,0.9-0.3,1.6-1,1.8c-0.7,0.2-1.5-0.1-1.8-1c-0.9-3.5-3.9-6.9-9.7-6.2c-5.3,0.7-10.7,5.1-10.7,12.1V21
									C27.4,22,26.6,22.5,25.9,22.5z M39.6,1.7c-7.8,0-14.2,6.3-14.2,14.2V21c0,0.4,0.4,0.5,0.5,0.5c0.1,0,0.5,0,0.5-0.5v-5.2
									c0-7.6,5.8-12.4,11.6-13.1c5.3-0.7,9.5,2,10.7,6.9c0.1,0.4,0.5,0.4,0.6,0.3c0.1,0,0.5-0.2,0.3-0.6
									C48.4,4.9,44.3,1.7,39.6,1.7z"/>
							</g>
						</g>
					</g>
				</g>
			</g>
			<g>
				<g>
					<g>
						<g>
							<g>
								<path class="st1" d="M56.2,21.7c-0.5,0-1-0.4-1-1V13c0-3.9-4.1-7-8.3-6.8c-1.3,0.1-1.4-1.9-0.1-1.9c2.8-0.1,5.7,0.9,7.7,2.9
									c1.7,1.6,2.6,3.7,2.6,5.8v7.7C57.2,21.2,56.8,21.7,56.2,21.7z"/>
								<path class="st1" d="M56.2,22.2c-0.8,0-1.5-0.7-1.5-1.5V13c0-1.5-0.7-2.9-1.9-4.1c-1.5-1.5-3.7-2.3-5.9-2.2
									c-0.5,0-1-0.2-1.3-0.6c-0.3-0.5-0.3-1.1-0.1-1.5c0.2-0.5,0.7-0.7,1.2-0.7c3-0.1,5.9,1,8,3c1.8,1.7,2.8,3.9,2.8,6.2v7.7
									C57.7,21.5,57,22.2,56.2,22.2z M47.3,5.7c2.3,0,4.7,0.9,6.3,2.5c1.4,1.3,2.2,3,2.2,4.8v7.7c0,0.3,0.2,0.5,0.5,0.5
									c0.3,0,0.5-0.2,0.5-0.5V13c0-2-0.9-4-2.5-5.5c-1.9-1.8-4.6-2.8-7.3-2.7c-0.2,0-0.3,0.1-0.4,0.2c-0.1,0.2-0.1,0.4,0,0.6
									c0.1,0.1,0.2,0.2,0.4,0.2C47.1,5.7,47.2,5.7,47.3,5.7z"/>
							</g>
						</g>
					</g>
				</g>
			</g>
			<g>
				<g>
					<g>
						<g>
							<g>
								<path class="st1" d="M39.3,69.8c-1.3,0-1.3-1.9,0-1.9C40.6,67.9,40.6,69.8,39.3,69.8z"/>
								<path class="st1" d="M39.3,70.3c-0.9,0-1.4-0.7-1.4-1.4c0-0.4,0.1-0.7,0.4-1c0.3-0.3,0.6-0.5,1.1-0.5c0.9,0,1.4,0.7,1.4,1.4
									c0,0.4-0.1,0.7-0.4,1C40.1,70.1,39.7,70.3,39.3,70.3z M39.3,68.4c-0.2,0-0.3,0-0.3,0.1c-0.1,0.1-0.1,0.2-0.1,0.3
									c0,0.1,0,0.5,0.5,0.5c0.2,0,0.3,0,0.3-0.1c0.1-0.1,0.1-0.2,0.1-0.3C39.8,68.7,39.7,68.4,39.3,68.4z"/>
							</g>
						</g>
					</g>
				</g>
			</g>
			<g>
				<g>
					<g>
						<g>
							<g>
								<path class="st1" d="M23.7,64.3c-1.3,0-1.3-1.9,0-1.9C25,62.4,25,64.3,23.7,64.3z"/>
								<path class="st1" d="M23.7,64.8c-0.9,0-1.4-0.7-1.4-1.4c0-0.4,0.1-0.7,0.4-1c0.3-0.3,0.6-0.5,1.1-0.5c0.9,0,1.4,0.7,1.4,1.4
									c0,0.4-0.1,0.7-0.4,1C24.6,64.6,24.2,64.8,23.7,64.8z M23.7,62.9c-0.2,0-0.3,0-0.3,0.1c-0.1,0.1-0.1,0.2-0.1,0.3
									c0,0.1,0,0.5,0.5,0.5c0.2,0,0.3,0,0.3-0.1c0.1-0.1,0.1-0.2,0.1-0.3C24.2,63.2,24.2,62.9,23.7,62.9z"/>
							</g>
						</g>
					</g>
				</g>
			</g>
			<g>
				<g>
					<g>
						<g>
							<g>
								<path class="st1" d="M39.3,74.6c-1.3,0-1.3-1.9,0-1.9C40.6,72.7,40.6,74.6,39.3,74.6z"/>
								<path class="st1" d="M39.3,75.1c-0.9,0-1.4-0.7-1.4-1.4c0-0.4,0.1-0.7,0.4-1c0.3-0.3,0.6-0.5,1.1-0.5c0.9,0,1.4,0.7,1.4,1.4
									c0,0.4-0.1,0.7-0.4,1C40.1,74.9,39.7,75.1,39.3,75.1z M39.3,73.2c-0.2,0-0.3,0-0.3,0.1c-0.1,0.1-0.1,0.2-0.1,0.3
									c0,0.1,0,0.5,0.5,0.5c0.2,0,0.3,0,0.3-0.1c0.1-0.1,0.1-0.2,0.1-0.3C39.8,73.5,39.7,73.2,39.3,73.2z"/>
							</g>
						</g>
					</g>
				</g>
			</g>
			<g>
				<g>
					<g>
						<g>
							<g>
								<path class="st1" d="M55.2,29.7c-0.1,0-0.1,0-0.2,0c-0.5-0.1-0.9-0.6-0.8-1.1c0.2-0.9,0.8-1.3,1.2-1.6
									c0.5-0.4,1-0.7,1.4-2.1c0.5-2.1,0.1-3-0.1-3.1c-0.2-0.1-0.4,0-0.6,0.1c-0.4,0.3-1,0.2-1.3-0.2c-0.3-0.4-0.2-1,0.2-1.3
									c0.9-0.6,2-0.7,2.8-0.1c0.9,0.6,1.7,2,0.9,5.2c-0.5,2.1-1.5,2.8-2.1,3.3c-0.4,0.3-0.4,0.3-0.4,0.4
									C56.1,29.4,55.7,29.7,55.2,29.7z"/>
								<path class="st1" d="M55.2,30.2c-0.1,0-0.2,0-0.3,0c-0.8-0.2-1.3-0.9-1.2-1.7c0.2-1.1,0.9-1.6,1.4-1.9
									c0.5-0.3,0.9-0.6,1.2-1.8c0.4-1.8,0.2-2.4,0.1-2.6c0,0-0.1,0-0.1,0c-0.3,0.2-0.7,0.3-1.1,0.2c-0.4-0.1-0.7-0.3-0.9-0.6
									c-0.5-0.7-0.3-1.6,0.4-2c1.1-0.7,2.4-0.8,3.4-0.1c1,0.7,2,2.2,1.1,5.7c-0.6,2.3-1.7,3.1-2.3,3.5c-0.1,0.1-0.2,0.1-0.2,0.2
									C56.5,29.8,55.9,30.2,55.2,30.2z M56.5,21.2c0.2,0,0.3,0,0.5,0.1c0.2,0.2,1,0.9,0.3,3.7c-0.4,1.6-1,2-1.6,2.4
									c-0.4,0.3-0.9,0.6-1,1.3c-0.1,0.3,0.1,0.5,0.4,0.6c0,0,0.1,0,0.1,0c0.2,0,0.4-0.2,0.5-0.4c0.1-0.3,0.3-0.4,0.6-0.7
									c0.6-0.4,1.5-1,1.9-3c0.6-2.3,0.3-4-0.7-4.7c-0.7-0.4-1.5-0.4-2.3,0.1c-0.2,0.2-0.3,0.4-0.1,0.7c0.1,0.1,0.2,0.2,0.3,0.2
									c0.1,0,0.3,0,0.4-0.1C56,21.2,56.2,21.2,56.5,21.2z"/>
							</g>
						</g>
					</g>
				</g>
			</g>
			<g>
				<g>
					<g>
						<g>
							<g>
								<path class="st1" d="M25,29c0-0.1,0-0.1-0.4-0.4c-0.6-0.5-1.6-1.1-2.1-3.3c-1.3-5.4,1.9-6.4,3.8-5.1c1,0.7-0.1,2.3-1.1,1.6
									c-1-0.7-1.3,1-0.8,3.1c0.6,2.6,2.2,1.9,2.6,3.7c0.1,0.5-0.2,1-0.8,1.1C25.6,29.8,25.1,29.5,25,29z"/>
								<path class="st1" d="M25.9,30.2c-0.7,0-1.2-0.4-1.4-1.1c0,0-0.1-0.1-0.2-0.2c-0.7-0.5-1.8-1.3-2.3-3.5
									c-0.9-3.7,0.3-5.2,1.1-5.7c1-0.7,2.3-0.6,3.4,0.1c0.4,0.3,0.7,0.8,0.6,1.3c0,0.5-0.4,1-0.9,1.2c-0.5,0.2-1,0.2-1.4-0.1
									c0,0-0.1,0-0.1-0.1c-0.1,0.2-0.3,1.1,0.1,2.6c0.3,1.2,0.8,1.6,1.3,1.9c0.5,0.4,1.1,0.8,1.3,1.8c0.2,0.8-0.4,1.6-1.1,1.7
									C26.1,30.2,26,30.2,25.9,30.2z M25.4,28.9c0.1,0.3,0.3,0.4,0.6,0.4c0.3-0.1,0.4-0.3,0.4-0.6c-0.1-0.7-0.4-0.9-0.9-1.2
									c-0.6-0.4-1.3-0.9-1.7-2.5c-0.3-1.4-0.4-3.1,0.3-3.7c0.2-0.1,0.6-0.3,1.2,0.1c0.2,0.1,0.3,0.1,0.4,0.1
									c0.2-0.1,0.3-0.3,0.3-0.4c0-0.2-0.1-0.3-0.2-0.4c-0.7-0.5-1.6-0.5-2.3-0.1c-1,0.7-1.3,2.4-0.7,4.7c0.5,1.9,1.3,2.5,1.9,3
									C25.2,28.4,25.4,28.6,25.4,28.9z M25,29L24.5,29c0,0,0,0,0,0L25,29z"/>
							</g>
						</g>
					</g>
				</g>
			</g>
			<g>
				<g>
					<g>
						<g>
							<g>
								<path class="st1" d="M40.7,45.6l-0.1,0l-0.1,0c-7.5,0-14-7-15.5-16.7c-0.2-1.3,1.7-1.6,1.9-0.3c1.3,8.7,7,15.1,13.6,15.1
									l0.1,0l0.1,0c6.6,0,12.3-6.3,13.6-15.1c0.1-0.5,0.6-0.9,1.1-0.8c0.5,0.1,0.9,0.6,0.8,1.1C54.7,38.6,48.2,45.6,40.7,45.6z"/>
								<path class="st1" d="M40.7,46.1h-0.2c-7.8,0-14.5-7.2-16-17.1c-0.1-0.9,0.5-1.5,1.2-1.6c0.7-0.1,1.5,0.3,1.7,1.2
									c1.3,8.5,6.8,14.6,13.1,14.6l0.1,0l0.1,0c6.3,0,11.8-6.2,13.1-14.6c0.1-0.4,0.3-0.7,0.6-1c0.3-0.2,0.7-0.3,1.1-0.3
									c0.4,0.1,0.7,0.3,1,0.6c0.2,0.3,0.3,0.7,0.3,1.1C55.2,38.9,48.4,46.1,40.7,46.1z M25.9,28.3C25.9,28.3,25.9,28.3,25.9,28.3
									c-0.2,0-0.6,0.1-0.5,0.5c1.4,9.4,7.7,16.3,15,16.3l0.1,0l0.1,0c7.3,0,13.6-6.8,15-16.3c0-0.1,0-0.3-0.1-0.4
									c-0.1-0.1-0.2-0.2-0.3-0.2c-0.1,0-0.3,0-0.4,0.1c-0.1,0.1-0.2,0.2-0.2,0.3c-1.3,9-7.3,15.5-14.1,15.5l-0.1,0l-0.1,0
									c-6.8,0-12.7-6.5-14.1-15.5C26.3,28.4,26.1,28.3,25.9,28.3z"/>
							</g>
						</g>
					</g>
				</g>
			</g>
			<g>
				<g>
					<g>
						<g>
							<g>
								<path class="st1" d="M47,78.5H14c-0.5,0-1-0.4-1-1c0,0,0-14.6,0-14.7c0.5-7.5,5-13.9,11-16.8c1.2-0.5,2,1.2,0.8,1.7
									c-5.3,2.5-9.5,8.3-9.9,15.1v15h32C48.2,77.9,48.2,78.5,47,78.5z"/>
								<path class="st1" d="M47,79H14c-0.8,0-1.5-0.7-1.5-1.5v0c0-14.6,0-14.7,0-14.7c0.5-7.4,4.9-14.2,11.3-17.2
									c0.5-0.2,1-0.2,1.4,0.1c0.4,0.3,0.7,0.8,0.7,1.4c0,0.5-0.3,0.9-0.8,1.2c-5.5,2.6-9.3,8.3-9.7,14.7v14.5H47
									c1.3,0,1.4,0.5,1.4,0.8C48.4,78.5,48.2,79,47,79z M24.5,46.4c-0.1,0-0.1,0-0.2,0.1c-6.1,2.9-10.3,9.3-10.8,16.4
									c0,0.2,0,13.1,0,14.6v0c0,0.3,0.2,0.5,0.5,0.5h0.5l0-15.1c0.4-6.7,4.4-12.8,10.2-15.5c0.2-0.1,0.3-0.2,0.3-0.4
									c0-0.2-0.1-0.4-0.2-0.5C24.7,46.5,24.6,46.4,24.5,46.4z"/>
							</g>
						</g>
					</g>
				</g>
			</g>
			<g>
				<g>
					<g>
						<g>
							<g>
								<path class="st1" d="M66.1,77.5V62.9c-0.4-7-4.9-13.3-11.1-15.6c-0.5-0.2-0.8-0.7-0.6-1.2c0.2-0.5,0.7-0.8,1.2-0.6
									C63.3,48.4,68,56.6,68,62.9v14.6C68,78.8,66.1,78.8,66.1,77.5z"/>
								<path class="st1" d="M67,79c-0.7,0-1.5-0.5-1.5-1.4V62.9c-0.4-6.8-4.8-12.9-10.8-15.2c-0.4-0.1-0.7-0.4-0.8-0.8
									c-0.2-0.4-0.2-0.7,0-1.1c0.1-0.4,0.4-0.7,0.8-0.8c0.4-0.2,0.7-0.2,1.1,0c7.9,3,12.7,11.4,12.7,17.8v14.6
									C68.5,78.5,67.7,79,67,79z M55.3,45.9c-0.1,0-0.1,0-0.2,0c-0.1,0.1-0.2,0.1-0.3,0.3c0,0.1,0,0.2,0,0.4
									c0.1,0.1,0.1,0.2,0.3,0.2c6.4,2.4,10.9,8.9,11.4,16l0,0v14.6c0,0.2,0,0.3,0.1,0.4c0.1,0.1,0.2,0.1,0.3,0.1
									c0.1,0,0.5,0,0.5-0.5V62.9c0-6.1-4.5-14.1-12-16.9C55.4,45.9,55.4,45.9,55.3,45.9z"/>
							</g>
						</g>
					</g>
				</g>
			</g>
			<g>
				<g>
					<g>
						<g>
							<g>
								<path class="st1" d="M34,76.2c0-11-0.2-10.8,0.6-11.2c1.3-0.6,15.5-2.9,16.4-19.5c0-0.5,0.5-0.9,1-0.9c0.5,0,0.9,0.5,0.9,1
									c-0.4,7.5-3.6,17.2-16.9,21v9.6C35.9,77.5,34,77.5,34,76.2z"/>
								<path class="st1" d="M35,77.6c-0.7,0-1.5-0.5-1.5-1.4c0-2.4,0-4.2,0-5.7c0-2.6,0-3.9,0.1-4.6c0.1-0.8,0.3-1.1,0.8-1.3l0,0
									c0.2-0.1,0.4-0.1,0.8-0.2c9.7-2.8,14.8-9.1,15.3-18.8c0-0.8,0.7-1.4,1.5-1.4c0.4,0,0.8,0.2,1,0.5c0.3,0.3,0.4,0.7,0.4,1
									C53,53.3,49.7,63.1,36.4,67v9.2C36.4,77.1,35.7,77.6,35,77.6z M51.9,45.2c-0.3,0-0.5,0.2-0.5,0.5
									c-0.3,6.5-2.7,11.6-7.1,15.2c-3.5,2.9-7.3,4-8.9,4.4c-0.3,0.1-0.6,0.2-0.7,0.2l0,0c-0.1,0-0.1,0.1-0.1,0.1
									c-0.2,0.2-0.1,1.8-0.1,4.9c0,1.5,0,3.3,0,5.7c0,0.4,0.4,0.5,0.5,0.5c0.1,0,0.5,0,0.5-0.5v-9.9l0.4-0.1
									C48.8,62.5,52,53,52.4,45.7c0-0.1,0-0.2-0.1-0.3C52.2,45.2,52,45.2,51.9,45.2C51.9,45.2,51.9,45.2,51.9,45.2z"/>
							</g>
						</g>
					</g>
				</g>
			</g>
			<g>
				<g>
					<g>
						<g>
							<g>
								<path class="st1" d="M40,64.8c-7.6-3.2-12.8-11-12-19.4c0.1-1.3,2.1-1.1,1.9,0.2c-0.1,0.6-0.1,1.1-0.1,1.7
									c0,6.6,4.5,13.1,10.9,15.8c0.5,0.2,0.7,0.8,0.5,1.3C41,64.8,40.5,65,40,64.8z"/>
								<path class="st1" d="M40.3,65.4c-0.2,0-0.4,0-0.6-0.1l0,0c-8.1-3.4-13.1-11.6-12.3-19.9c0.1-0.9,0.9-1.4,1.6-1.3
									c0.7,0.1,1.4,0.6,1.3,1.6c-0.1,0.5-0.1,1.1-0.1,1.7c0,6.4,4.4,12.7,10.6,15.3c0.4,0.2,0.6,0.4,0.8,0.8
									c0.1,0.4,0.1,0.8,0,1.1C41.4,65,40.9,65.4,40.3,65.4z M40.2,64.4c0.2,0.1,0.5,0,0.6-0.3c0-0.1,0.1-0.2,0-0.4
									c0-0.1-0.1-0.2-0.3-0.3c-6.6-2.8-11.2-9.5-11.2-16.2c0-0.6,0-1.2,0.1-1.8c0-0.4-0.3-0.5-0.4-0.5c-0.1,0-0.5,0-0.5,0.4
									C27.7,53.3,32.5,61.1,40.2,64.4L40.2,64.4z"/>
							</g>
						</g>
					</g>
				</g>
			</g>
			<path class="st1" d="M23.7,68c-2.5,0-4.6-2.1-4.6-4.6c0-2.5,2.1-4.6,4.6-4.6c2.5,0,4.6,2.1,4.6,4.6C28.4,65.9,26.3,68,23.7,68z
				 M23.7,60.7c-1.5,0-2.7,1.2-2.7,2.7c0,1.5,1.2,2.7,2.7,2.7c1.5,0,2.7-1.2,2.7-2.7C26.4,61.9,25.2,60.7,23.7,60.7z"/>
			<path class="st1" d="M23.7,58.2c-2.8,0-5.1,2.3-5.1,5.1c0,2.8,2.3,5.1,5.1,5.1s5.1-2.3,5.1-5.1C28.8,60.5,26.6,58.2,23.7,58.2z
				 M23.7,67.5c-2.3,0-4.1-1.9-4.1-4.1c0-2.3,1.9-4.1,4.1-4.1s4.1,1.9,4.1,4.1C27.9,65.6,26,67.5,23.7,67.5z"/>
			<g>
				<g>
					<g>
						<g>
							<g>
								<path class="st1" d="M22.7,76.7v-6c0-0.5,0.4-1,1-1c0.5,0,1,0.4,1,1v6C24.6,78,22.7,78,22.7,76.7z"/>
								<path class="st1" d="M23.6,78.2c-0.4,0-0.7-0.1-1-0.4c-0.3-0.3-0.5-0.7-0.5-1.1v-6c0-0.8,0.7-1.5,1.5-1.5
									c0.8,0,1.5,0.7,1.5,1.5v6C25.1,77.7,24.4,78.2,23.6,78.2z M23.6,70.2c-0.3,0-0.5,0.2-0.5,0.5v6c0,0.4,0.4,0.5,0.5,0.5
									c0.1,0,0.5,0,0.5-0.5v-6C24.1,70.4,23.9,70.2,23.6,70.2z"/>
							</g>
						</g>
					</g>
				</g>
			</g>
			<g>
				<g>
					<g>
						<g>
							<g>
								<path class="st1" d="M37.5,27.7h-3.4c-1.3,0-1.3-1.9,0-1.9h3.4c0.5,0,1,0.4,1,1C38.5,27.3,38.1,27.7,37.5,27.7z"/>
								<path class="st1" d="M37.5,28.2h-3.4c-0.9,0-1.4-0.8-1.4-1.5c0-0.4,0.1-0.7,0.4-1c0.3-0.3,0.7-0.5,1.1-0.5h3.4
									c0.8,0,1.5,0.7,1.5,1.5C39,27.5,38.3,28.2,37.5,28.2z M34.1,26.3c-0.4,0-0.5,0.4-0.5,0.5c0,0.1,0,0.5,0.5,0.5h3.4
									c0.3,0,0.5-0.2,0.5-0.5c0-0.3-0.2-0.5-0.5-0.5H34.1z"/>
							</g>
						</g>
					</g>
				</g>
			</g>
			<g>
				<g>
					<g>
						<g>
							<g>
								<path class="st1" d="M48.3,27.7h-3.4c-1.3,0-1.3-1.9,0-1.9h3.4c0.5,0,1,0.4,1,1C49.3,27.3,48.8,27.7,48.3,27.7z"/>
								<path class="st1" d="M48.3,28.2h-3.4c-0.9,0-1.4-0.8-1.4-1.5c0-0.4,0.1-0.7,0.4-1c0.3-0.3,0.7-0.5,1.1-0.5h3.4
									c0.8,0,1.5,0.7,1.5,1.5C49.7,27.5,49.1,28.2,48.3,28.2z M44.9,26.3c-0.2,0-0.3,0-0.4,0.1c-0.1,0.1-0.1,0.2-0.1,0.3
									c0,0.1,0,0.5,0.5,0.5h3.4c0.3,0,0.5-0.2,0.5-0.5c0-0.3-0.2-0.5-0.5-0.5H44.9z"/>
							</g>
						</g>
					</g>
				</g>
			</g>
			<g>
				<g>
					<g>
						<g>
							<g>
								<path class="st1" d="M40.7,39.4c-1.5,0-3-0.6-4.4-1.6c-0.4-0.3-0.5-0.9-0.2-1.4c0.3-0.4,0.9-0.5,1.4-0.2
									c2.1,1.6,4.4,1.6,6.6,0c0.4-0.3,1-0.2,1.4,0.2c0.3,0.4,0.2,1-0.2,1.4C43.7,38.9,42.2,39.4,40.7,39.4z"/>
								<path class="st1" d="M40.7,39.9c-1.6,0-3.3-0.6-4.7-1.7c-0.3-0.2-0.5-0.6-0.6-1c-0.1-0.4,0-0.8,0.3-1.1
									c0.2-0.3,0.6-0.5,1-0.6c0.4-0.1,0.8,0,1.1,0.3c2,1.5,4,1.5,6,0c0.3-0.2,0.7-0.3,1.1-0.3c0.4,0.1,0.7,0.3,1,0.6
									c0.2,0.3,0.3,0.7,0.3,1.1c-0.1,0.4-0.3,0.7-0.6,1C44,39.3,42.3,39.9,40.7,39.9z M36.8,36.6C36.8,36.6,36.8,36.6,36.8,36.6
									c-0.2,0-0.3,0.1-0.4,0.2c-0.1,0.1-0.1,0.2-0.1,0.4s0.1,0.2,0.2,0.3c1.3,1,2.7,1.5,4.1,1.5c1.4,0,2.8-0.5,4.1-1.5
									c0.1-0.1,0.2-0.2,0.2-0.3c0-0.1,0-0.3-0.1-0.4c-0.1-0.1-0.2-0.2-0.3-0.2c-0.1,0-0.3,0-0.4,0.1c-2.3,1.8-4.8,1.8-7.1,0
									C37,36.6,36.9,36.6,36.8,36.6z"/>
							</g>
						</g>
					</g>
				</g>
			</g>
			<g>
				<g>
					<g>
						<path class="st1" d="M60.6,72.9c0.9-2.7,1.9-4.8,1.1-8.4c-0.5-2.3-2.5-3.8-4.8-3.8h-2.7c-4.9,0-6.2,5.8-4.4,10.3l0.7,1.9
							c0.5,1.2-1.3,1.9-1.8,0.7l-0.7-1.9c-2.3-5.9-0.1-13,6.2-13h2.7c6.2,0,8.4,6.8,6.4,12.5l-0.8,2.2C62,74.8,60.1,74.1,60.6,72.9z
							"/>
						<path class="st1" d="M49.4,74.7c-0.5,0-1.1-0.3-1.3-0.9l-0.7-1.9c-1.4-3.7-1.2-7.8,0.7-10.5c1.4-2,3.4-3.1,6-3.1h2.7
							c2.5,0,4.5,1,5.9,3c1.8,2.6,2.2,6.6,1,10.2l-0.8,2.2c-0.2,0.5-0.6,0.9-1.1,0.9c-0.5,0.1-1.1-0.1-1.4-0.5
							c-0.3-0.4-0.4-0.9-0.2-1.4l0,0c0.1-0.3,0.2-0.5,0.3-0.8c0.8-2.3,1.5-4.2,0.8-7.3c-0.5-2-2.3-3.4-4.4-3.4h-2.7
							c-1.6,0-2.8,0.6-3.6,1.8c-1.3,1.9-1.5,5.1-0.4,7.8l0.7,1.9c0.3,0.9-0.2,1.6-0.8,1.9C49.8,74.7,49.6,74.7,49.4,74.7z
							 M54.1,59.3c-2.2,0-4,0.9-5.2,2.7c-1.7,2.5-1.9,6.3-0.6,9.6l0.7,1.9c0.2,0.4,0.5,0.3,0.6,0.3c0.1,0,0.4-0.2,0.3-0.6l-0.7-1.9
							c-1.2-3.1-1-6.6,0.5-8.7c1-1.5,2.5-2.3,4.4-2.3h2.7c2.5,0,4.7,1.7,5.3,4.2c0.8,3.4,0,5.6-0.8,7.9c-0.1,0.2-0.2,0.5-0.3,0.8
							c-0.1,0.2,0,0.3,0.1,0.4c0.1,0.1,0.3,0.2,0.5,0.2c0.2,0,0.3-0.1,0.3-0.3l0.8-2.2c1.2-3.3,0.8-7-0.8-9.3
							c-1.2-1.7-2.9-2.5-5.1-2.5H54.1z"/>
					</g>
				</g>
			</g>
			<g>
				<g>
					<g>
						<g>
							<g>
								<path class="st1" d="M51.2,78.3l-1.9-1.4c-1.3-1-1.5-2.8-0.6-4.1c1-1.3,2.8-1.5,4.1-0.6l1.9,1.4c0.4,0.3,0.5,0.9,0.2,1.4
									l-2.3,3.1C52.2,78.5,51.6,78.6,51.2,78.3z M50.5,75.3l1.1,0.8l1.2-1.6l-1.1-0.8C50.6,73,49.4,74.5,50.5,75.3z"/>
								<path class="st1" d="M51.8,78.9c-0.3,0-0.6-0.1-0.9-0.3l0,0L49,77.3c-1.5-1.1-1.8-3.3-0.7-4.8c1.1-1.5,3.3-1.8,4.8-0.7
									l1.9,1.4c0.6,0.5,0.8,1.4,0.3,2l-2.3,3.1C52.6,78.7,52.2,78.9,51.8,78.9z M51.5,77.9c0.2,0.2,0.5,0.1,0.7-0.1l2.3-3.1
									c0.2-0.2,0.1-0.5-0.1-0.7l-1.9-1.4c-1.1-0.8-2.6-0.6-3.4,0.5c-0.8,1.1-0.6,2.6,0.5,3.4L51.5,77.9z M51.7,76.8l-1.5-1.1
									c-0.4-0.3-0.7-0.8-0.6-1.3c0.1-0.5,0.4-1,0.9-1.2c0.5-0.2,1-0.1,1.4,0.2l1.5,1.1L51.7,76.8z M50.8,74.9l0.7,0.5l0.6-0.8
									l-0.7-0.5c-0.2-0.1-0.3-0.1-0.5-0.1c-0.2,0.1-0.3,0.3-0.3,0.4C50.6,74.7,50.6,74.8,50.8,74.9L50.8,74.9z"/>
							</g>
						</g>
					</g>
				</g>
			</g>
			<g>
				<g>
					<g>
						<g>
							<g>
								<path class="st1" d="M58.5,78.1l-2.3-3.1c-0.3-0.4-0.2-1,0.2-1.4c1.9-1.4,2.5-2.2,4-1.9c2.6,0.4,3.4,3.7,1.3,5.2l-1.9,1.4
									C59.4,78.6,58.8,78.5,58.5,78.1z M58.3,74.6l1.2,1.6l1.1-0.8c1-0.8-0.1-2.3-1.2-1.6L58.3,74.6z"/>
								<path class="st1" d="M59.3,78.9c-0.1,0-0.1,0-0.2,0c-0.4-0.1-0.7-0.3-1-0.6l-2.3-3.1c-0.5-0.6-0.3-1.6,0.3-2
									c0.3-0.2,0.5-0.4,0.7-0.6c1.4-1,2.2-1.7,3.6-1.5c1.4,0.2,2.5,1.2,2.8,2.5c0.3,1.4-0.1,2.7-1.3,3.6l-1.9,1.4
									C59.9,78.8,59.6,78.9,59.3,78.9z M59.9,72.1c-0.8,0-1.4,0.4-2.5,1.3c-0.2,0.2-0.5,0.4-0.8,0.6c-0.2,0.2-0.3,0.5-0.1,0.7
									l2.3,3.1c0.1,0.1,0.2,0.2,0.3,0.2c0.1,0,0.3,0,0.4-0.1l1.9-1.4c1-0.7,1.1-1.8,0.9-2.5c-0.2-0.8-0.8-1.6-2-1.8
									C60.2,72.1,60,72.1,59.9,72.1z M59.4,76.8l-1.8-2.4l1.5-1.1c0.8-0.6,1.6-0.3,2.1,0.3c0.4,0.6,0.5,1.5-0.3,2.1L59.4,76.8z
									 M59,74.7l0.6,0.8l0.7-0.5c0.4-0.3,0.1-0.6,0.1-0.7c0-0.1-0.3-0.4-0.7-0.1L59,74.7z"/>
							</g>
						</g>
					</g>
				</g>
			</g>
			<g>
				<g>
					<g>
						<g>
							<g>
								<path class="st1" d="M28.4,46.2c-0.3-0.4-0.2-1,0.2-1.4c0.4-0.3,1-0.2,1.4,0.2c2.5,3.3,6.4,5.2,10.6,5.2
									c4.2,0,8.1-2,10.6-5.3c0.3-0.4,0.9-0.5,1.4-0.2c0.4,0.3,0.5,0.9,0.2,1.4C46.7,54.2,34.4,54.2,28.4,46.2z"/>
								<path class="st1" d="M40.5,52.6c-5,0-9.5-2.3-12.5-6.2h0c-0.5-0.6-0.4-1.6,0.3-2c0.6-0.5,1.6-0.4,2,0.3
									c2.4,3.2,6.2,5,10.2,5c4,0,7.8-1.9,10.2-5.1c0.2-0.3,0.6-0.5,1-0.6c0.4-0.1,0.8,0,1.1,0.3c0.6,0.5,0.8,1.4,0.3,2
									C50.1,50.4,45.5,52.6,40.5,52.6C40.5,52.6,40.5,52.6,40.5,52.6z M28.8,45.9c2.8,3.7,7.1,5.8,11.7,5.8c0,0,0,0,0,0
									c4.7,0,9-2.1,11.7-5.9c0.2-0.2,0.1-0.5-0.1-0.7c-0.1-0.1-0.2-0.1-0.4-0.1c-0.1,0-0.2,0.1-0.3,0.2c-2.6,3.4-6.7,5.5-11,5.5
									c-4.3,0-8.4-2-11-5.4c-0.2-0.2-0.5-0.3-0.7-0.1C28.6,45.4,28.6,45.7,28.8,45.9L28.8,45.9z"/>
							</g>
						</g>
					</g>
				</g>
			</g>
			<g>
				<g>
					<g>
						<g>
							<g>
								<path class="st1" d="M22.8,58.8c0-0.3-0.6-7.6,5.1-13.8c0.9-0.9,2.3,0.4,1.4,1.3c-5.2,5.6-4.6,12.3-4.6,12.4
									c0,0.5-0.3,1-0.9,1.1C23.3,59.7,22.8,59.3,22.8,58.8z"/>
								<path class="st1" d="M23.7,60.2c-0.7,0-1.4-0.6-1.5-1.3c0-0.3-0.7-7.8,5.3-14.2c0.6-0.7,1.5-0.6,2.1-0.1
									c0.5,0.5,0.7,1.4,0.1,2.1c-5,5.4-4.5,11.9-4.5,12c0,0.4-0.1,0.8-0.3,1.1c-0.2,0.3-0.6,0.5-1,0.5
									C23.8,60.1,23.8,60.2,23.7,60.2z M28.6,45.1c-0.1,0-0.2,0-0.3,0.2c-5.6,6.1-5,13.2-5,13.5v0c0,0.3,0.3,0.5,0.5,0.4
									c0.1,0,0.2-0.1,0.3-0.2c0.1-0.1,0.1-0.2,0.1-0.3c0-0.1-0.6-7,4.8-12.7c0.3-0.3,0-0.6,0-0.7C28.9,45.2,28.8,45.1,28.6,45.1z"
									/>
							</g>
						</g>
					</g>
				</g>
			</g>
			<g>
				<g>
					<g>
						<g>
							<g>
								<path class="st1" d="M54.5,59.6c0-0.1,0.9-7.1-3.4-13.4c-0.7-1.1,0.9-2.1,1.6-1.1c4.7,6.9,3.7,14.5,3.7,14.8
									C56.2,61.2,54.3,60.9,54.5,59.6z"/>
								<path class="st1" d="M55.4,61.2c-0.1,0-0.1,0-0.2,0c-0.7-0.1-1.4-0.7-1.2-1.6c0-0.1,0.9-7-3.3-13.1c-0.3-0.4-0.4-1-0.1-1.4
									c0.2-0.5,0.7-0.8,1.3-0.9c0.5,0,1,0.2,1.3,0.6c4.8,7.1,3.8,14.8,3.8,15.1C56.8,60.8,56.1,61.2,55.4,61.2z M51.9,45.2
									C51.9,45.2,51.9,45.2,51.9,45.2c-0.2,0-0.4,0.1-0.5,0.3c-0.1,0.1-0.1,0.3,0.1,0.4c4.4,6.4,3.5,13.7,3.5,13.8l0,0
									c-0.1,0.4,0.3,0.5,0.4,0.5c0.1,0,0.5,0,0.5-0.4c0-0.3,1-7.7-3.6-14.5C52.2,45.2,52.1,45.2,51.9,45.2z"/>
							</g>
						</g>
					</g>
				</g>
			</g>
		</g>
		<g>
			<g>
				<g>
					<g>
						<g>
							<path class="st1" d="M45.3,17.1c-1.3,0-1.3-1.9,0-1.9C46.5,15.1,46.5,17.1,45.3,17.1z"/>
							<path class="st1" d="M45.3,17.6c-0.9,0-1.4-0.7-1.4-1.4c0-0.4,0.1-0.7,0.4-1c0.3-0.3,0.6-0.5,1.1-0.5c0.9,0,1.4,0.7,1.4,1.4
								c0,0.4-0.1,0.7-0.4,1C46.1,17.4,45.7,17.6,45.3,17.6z M45.3,15.6c-0.2,0-0.3,0-0.3,0.1c-0.1,0.1-0.1,0.2-0.1,0.3
								c0,0.1,0,0.5,0.5,0.5c0.2,0,0.3,0,0.3-0.1c0.1-0.1,0.1-0.2,0.1-0.3C45.7,16,45.7,15.6,45.3,15.6z"/>
						</g>
					</g>
				</g>
			</g>
		</g>
	</g>
</g>
</svg>
