<svg id="Layer_1" data-name="Layer 1" xmlns="http://www.w3.org/2000/svg" xmlns:xlink="http://www.w3.org/1999/xlink" viewBox="0 0 187.92 55.79"><defs><style>.cls-1{fill:#1d4a7d;}.cls-2{fill:url(#linear-gradient);}</style><linearGradient id="linear-gradient" x1="251.42" y1="-61.94" x2="251.42" y2="-116.23" gradientTransform="translate(-112 117)" gradientUnits="userSpaceOnUse"><stop offset="0" stop-color="#d6d6d6"/><stop offset="0.17" stop-color="#b9b9b9"/><stop offset="0.36" stop-color="#a0a0a0"/><stop offset="0.55" stop-color="#8e8e8e"/><stop offset="0.76" stop-color="#838383"/><stop offset="1" stop-color="gray"/></linearGradient></defs><title>logotipos</title><path class="cls-1" d="M8.41,34.63a4.8,4.8,0,0,0,1.52,1.78,6.47,6.47,0,0,0,2.22,1,10.49,10.49,0,0,0,2.64.33,12.75,12.75,0,0,0,2-.16,6.79,6.79,0,0,0,2-.59,4.28,4.28,0,0,0,1.54-1.21,3,3,0,0,0,.62-2,2.77,2.77,0,0,0-.81-2.07A6.5,6.5,0,0,0,18,30.45a22.56,22.56,0,0,0-3-.93c-1.12-.26-2.25-.55-3.39-.88a28.62,28.62,0,0,1-3.44-1.08,11.54,11.54,0,0,1-3-1.65A7.85,7.85,0,0,1,3,23.38,7.73,7.73,0,0,1,2.2,19.7a8.22,8.22,0,0,1,1-4.2,9.29,9.29,0,0,1,2.71-3,11.66,11.66,0,0,1,3.79-1.76A15.78,15.78,0,0,1,14,10.19a20.37,20.37,0,0,1,4.74.55,11.79,11.79,0,0,1,4,1.79,9,9,0,0,1,2.79,3.15,9.61,9.61,0,0,1,1,4.64H19.86a5.49,5.49,0,0,0-.6-2.33,4,4,0,0,0-1.34-1.46A5.83,5.83,0,0,0,16,15.78a12.27,12.27,0,0,0-2.35-.22,8,8,0,0,0-1.68.18,4.51,4.51,0,0,0-1.52.62,3.91,3.91,0,0,0-1.12,1.1,3,3,0,0,0-.44,1.67,2.87,2.87,0,0,0,.35,1.5,3.25,3.25,0,0,0,1.39,1.06,17.74,17.74,0,0,0,2.86,1q1.83.5,4.78,1.24c.59.12,1.4.33,2.44.64A11.55,11.55,0,0,1,23.82,26a9.55,9.55,0,0,1,2.66,2.71,7.69,7.69,0,0,1,1.12,4.34,9.55,9.55,0,0,1-.83,4,8.63,8.63,0,0,1-2.49,3.19,11.83,11.83,0,0,1-4.1,2.1,19.24,19.24,0,0,1-5.65.75,20,20,0,0,1-5-.64,12.81,12.81,0,0,1-4.32-2A9.82,9.82,0,0,1,2.2,37a10.26,10.26,0,0,1-1.06-5H7.83A5.65,5.65,0,0,0,8.41,34.63Z"/><path class="cls-1" d="M36.85,10.94V42.38H29.94V10.94Z"/><path class="cls-1" d="M46.45,34.63A4.9,4.9,0,0,0,48,36.41a6.47,6.47,0,0,0,2.22,1,10.49,10.49,0,0,0,2.64.33,12.75,12.75,0,0,0,2-.16,7,7,0,0,0,2-.59,4.37,4.37,0,0,0,1.54-1.21,3.06,3.06,0,0,0,.61-2,2.77,2.77,0,0,0-.81-2.07A6.39,6.39,0,0,0,56,30.45a22.56,22.56,0,0,0-3-.93c-1.12-.26-2.25-.55-3.39-.88a28.62,28.62,0,0,1-3.44-1.08,11.54,11.54,0,0,1-3-1.65,7.7,7.7,0,0,1-2.13-2.53,7.61,7.61,0,0,1-.82-3.68,8.13,8.13,0,0,1,1-4.2,9.26,9.26,0,0,1,2.7-3,11.66,11.66,0,0,1,3.79-1.76A15.8,15.8,0,0,1,52,10.19a20.35,20.35,0,0,1,4.73.55,11.79,11.79,0,0,1,4,1.79,9.14,9.14,0,0,1,2.8,3.15,9.73,9.73,0,0,1,1,4.64H57.9A5.49,5.49,0,0,0,57.3,18,3.94,3.94,0,0,0,56,16.53,5.83,5.83,0,0,0,54,15.78a12.19,12.19,0,0,0-2.35-.22,7.83,7.83,0,0,0-1.67.18,4.35,4.35,0,0,0-1.52.62,3.82,3.82,0,0,0-1.13,1.1,3,3,0,0,0-.44,1.67,2.78,2.78,0,0,0,.36,1.5,3.15,3.15,0,0,0,1.38,1.06,18.09,18.09,0,0,0,2.86,1q1.83.5,4.78,1.24c.59.12,1.4.33,2.45.64A11.64,11.64,0,0,1,61.86,26a9.3,9.3,0,0,1,2.66,2.71,7.69,7.69,0,0,1,1.13,4.34,9.56,9.56,0,0,1-.84,4,8.63,8.63,0,0,1-2.49,3.19,11.87,11.87,0,0,1-4.09,2.1,19.35,19.35,0,0,1-5.66.75,20.12,20.12,0,0,1-5-.64,12.81,12.81,0,0,1-4.32-2,9.82,9.82,0,0,1-3-3.48,10.38,10.38,0,0,1-1.06-5h6.7A5.77,5.77,0,0,0,46.45,34.63Z"/><path class="cls-1" d="M83.66,10.94,95.41,42.38H88.23l-2.37-7H74.1l-2.47,7H64.68L76.57,10.94Zm.39,19.29-4-11.54H80L75.91,30.23Z"/><path class="cls-2" d="M127.16,29.06a.25.25,0,0,1,0-.15.65.65,0,0,0,.11-.29.79.79,0,0,1,.11-.29,3.43,3.43,0,0,0,.24-.33,1.43,1.43,0,0,0,.2-.37,6.12,6.12,0,0,0,.35-.9,8.52,8.52,0,0,1,.36-.91,2.16,2.16,0,0,1,.33-.5.57.57,0,0,0,.15-.47.79.79,0,0,1,0-.55,2.52,2.52,0,0,1,.29-.46,4,4,0,0,1,.53-.68.91.91,0,0,0,.22-.82.31.31,0,0,1,.08-.1l.14-.12a1.51,1.51,0,0,0,.28-.41q.16-.29.33-.6a3.37,3.37,0,0,0,.29-.61,5.15,5.15,0,0,0,.15-.53,9.54,9.54,0,0,1,.42-1.7,5.82,5.82,0,0,1,.82-1.39,1.05,1.05,0,0,0,.22-.35c.32-.67.63-1.32.92-2a20.79,20.79,0,0,1,1-1.91,11.94,11.94,0,0,0,.95-2,19.4,19.4,0,0,1,.86-2,4.35,4.35,0,0,0,.64-2.23c0-.72,0-1.44-.07-2.18a.93.93,0,0,0-.17-.48c-.27-.32-.54-.65-.82-1a1.8,1.8,0,0,0-1.21-.57c-.65-.06-.9-.38-.75-1l-.7-.27-.75-.26-.51.22a4.29,4.29,0,0,0-.55.31,24.8,24.8,0,0,0-2.86,2.27c-.88.8-1.73,1.66-2.55,2.57q-1.59,1.68-3,3.46a45.55,45.55,0,0,0-2.73,3.72c-.65,1-1.29,1.94-1.92,2.9s-1.25,2-1.87,3-1.28,2-1.91,3-1.24,2-1.83,3q-1.14,2-2.27,4l-2.22,4c-.62,1.08-1.21,2.16-1.79,3.23s-1.15,2.14-1.73,3.2l-.2.17a2.71,2.71,0,0,0-.33.31,3.78,3.78,0,0,0,.11-.4,2,2,0,0,0,0-.22c.12-.23.23-.47.35-.72s.22-.49.31-.73c.15-.47.27-.93.37-1.39s.23-.9.38-1.34a1.15,1.15,0,0,1,.17-.44,3.27,3.27,0,0,0,.58-1.28,7.33,7.33,0,0,1,.39-1.32,5.86,5.86,0,0,0,.36-1c.08-.33.19-.68.3-1l.42-1.17.42-1.17a.32.32,0,0,0,0-.22.39.39,0,0,1,0-.22.8.8,0,0,1,0-.53,2.78,2.78,0,0,0,.36-.85c0-.28.13-.58.22-.91a3.58,3.58,0,0,1,.33-1.1c.16-.35.31-.72.46-1.1a3.47,3.47,0,0,0,.26-1.1,3.94,3.94,0,0,1,.27-1.14c.29-.86.55-1.71.79-2.58s.47-1.72.7-2.58c.09-.32.19-.65.29-1a8.9,8.9,0,0,0,.24-1,10.26,10.26,0,0,0,.27-1.34c.06-.45.11-.92.17-1.39a1.44,1.44,0,0,0-.39-1,1,1,0,0,0-.71-.4,1.12,1.12,0,0,1-.75-.4,1.69,1.69,0,0,0-.53-.35l-.66-.31c-.29-.14-.58-.29-.85-.44a1.33,1.33,0,0,0-1,0q-.18,0-.18-.09a.33.33,0,0,0-.08-.24.28.28,0,0,0-.22,0,1,1,0,0,0-.25.07.31.31,0,0,1-.19,0c-.33-.12-.57-.09-.73.1a1.37,1.37,0,0,1-.59.42,1,1,0,0,0-.71,1.19l-.11.24a.66.66,0,0,1-.15.25c-.47.91-.94,1.79-1.41,2.66s-.94,1.76-1.41,2.66-1,1.94-1.54,2.89-1,1.93-1.5,2.93c-.38.73-.74,1.47-1.08,2.2s-.68,1.47-1,2.2l-.62,1.23-.62,1.24c-.23.58-.46,1.18-.7,1.78s-.48,1.2-.75,1.78c-.67,1.65-1.28,3.28-1.8,4.91a22.54,22.54,0,0,0-1,5,10.2,10.2,0,0,0,0,2.21,4.93,4.93,0,0,0,.75,2,1.67,1.67,0,0,0,.46.51l.51.28a4.3,4.3,0,0,1,.55.2l.55.24a3.07,3.07,0,0,0,.42-.59,1.4,1.4,0,0,0-.07-.68,2.14,2.14,0,0,1-.13-.66,1,1,0,0,1,.35-.67,5.81,5.81,0,0,0,.47-.5.88.88,0,0,0,.24-.55A5.45,5.45,0,0,1,96,41a9.83,9.83,0,0,0,.84-2.05,12,12,0,0,1,.66-1.62c.27-.53.53-1.07.8-1.63l.52-1.15a6.54,6.54,0,0,1,.62-1.06,7.3,7.3,0,0,0,.64-1,1.27,1.27,0,0,0,.06-1,7.91,7.91,0,0,0,.71-.7l.44-.82c.14-.28.29-.55.44-.81.59-1,1.19-2.1,1.8-3.22.47-.88.93-1.75,1.37-2.62s.91-1.74,1.41-2.62a13.24,13.24,0,0,1,.75-1.19c.26-.38.52-.77.79-1.19a.58.58,0,0,1,.18-.11.73.73,0,0,0,.22-.11q-.09.59-.18,1.08c-.06.34-.13.67-.22,1-.21.85-.42,1.71-.64,2.58s-.45,1.72-.68,2.58c-.32,1.17-.66,2.34-1,3.52s-.68,2.35-1,3.52-.66,2.22-1,3.3-.69,2.19-1,3.3c-.15.53-.28,1.07-.4,1.61a13.46,13.46,0,0,0-.26,1.65c0,.3,0,.59,0,.88a2.66,2.66,0,0,0,.15.82,1.29,1.29,0,0,0,.47.62,1.81,1.81,0,0,0,.94.28l.09.05a.48.48,0,0,0,.53.22,2.39,2.39,0,0,0,.62-.31,2.91,2.91,0,0,1,.37-.33c.13-.11.27-.23.42-.38a5.17,5.17,0,0,0,.92-1.21c.24-.42.47-.87.71-1.34q1.67-3.21,3.36-6.39c1.14-2.11,2.27-4.24,3.42-6.38.2-.41.4-.81.59-1.21a13.27,13.27,0,0,1,.64-1.17c.35-.61.72-1.22,1.1-1.8s.74-1.15,1.06-1.68a7.45,7.45,0,0,1-.13-.75c0-.2-.08-.42-.14-.66l.29-.17q.15-.09.15-.18a.89.89,0,0,1,.36-.7,5,5,0,0,0,.52-.44.69.69,0,0,0,.23-.27c.26-.41.54-.8.83-1.19a4.31,4.31,0,0,0,.66-1.23,6.29,6.29,0,0,1,1-1.78,10.08,10.08,0,0,0,1.15-1.74,3.82,3.82,0,0,1,.55-.68,3.87,3.87,0,0,0,.55-.69,17.78,17.78,0,0,1,3.3-4.14l.18-.17.17-.18a4.13,4.13,0,0,1,.93-1.27,11.55,11.55,0,0,0,1.06-1.15,3,3,0,0,1,.64-.64c.24-.19.53-.4.85-.63q0,.25-.06.39a1,1,0,0,1-.07.22l-1.23,3-1.23,3q-.88,2.16-1.77,4.27c-.58,1.41-1.19,2.83-1.8,4.27-.09.24-.19.48-.31.73s-.22.49-.31.72c-.32.91-.66,1.82-1,2.71s-.69,1.81-1,2.75q-.84,2.25-1.65,4.45t-1.57,4.45c-.41,1.17-.8,2.35-1.16,3.52s-.72,2.36-1,3.57c-.17.61-.34,1.23-.48,1.85a16.74,16.74,0,0,0-.35,1.85,12.31,12.31,0,0,0-.2,2c0,.64-.06,1.3-.11,2a6,6,0,0,0,.31,3,3.33,3.33,0,0,0,.87,1.49,1.62,1.62,0,0,0,.73.36,3.55,3.55,0,0,1,.82.26,3.65,3.65,0,0,0,1.58-2.47,8.43,8.43,0,0,0,.2-1.58,2.76,2.76,0,0,1,.55-1.54.26.26,0,0,1,.09-.18c.06-.41.13-.83.22-1.27s.16-.87.22-1.28a.64.64,0,0,0,.06-.22,1,1,0,0,1,.07-.22,9.18,9.18,0,0,0,.75-2.69.66.66,0,0,1,.09-.26c.17-.24.34-.48.5-.73a1,1,0,0,0,.11-.86,2.46,2.46,0,0,0,.42-.92,5.29,5.29,0,0,1,.33-1,11.24,11.24,0,0,0,.86-2.29,15.81,15.81,0,0,1,.77-2.29c.15-.35.29-.7.42-1s.26-.67.37-1a3.21,3.21,0,0,1,.18-.37,3.21,3.21,0,0,0,.18-.37,1.93,1.93,0,0,0,.19-.47,2.07,2.07,0,0,1,.2-.46,5.7,5.7,0,0,0,.31-.5,1.6,1.6,0,0,0,.18-.56c.05-.23.11-.46.15-.7a1.38,1.38,0,0,1,.33-.66C127.17,29.14,127.18,29.1,127.16,29.06ZM116.76,20a1.14,1.14,0,0,0-.17.15c-.09-.14-.12-.23-.09-.26a1,1,0,0,1,.18-.22c.11.06.17.13.17.22S116.82,19.94,116.76,20ZM127.9,5.81l-.13.11c-.64.79-1.29,1.58-1.94,2.36s-1.26,1.56-1.85,2.35c-.41.5-.81,1-1.21,1.52s-.78,1-1.16,1.57a11.34,11.34,0,0,0-.88,1.25c-.27.43-.55.86-.84,1.3-.15.23-.29.48-.44.73s-.34.53-.57.85c.09-.35.16-.66.22-.94s.11-.55.17-.82a3.07,3.07,0,0,0,.4-.61.83.83,0,0,1,.4-.44.43.43,0,0,0,.26-.2l.18-.31a.73.73,0,0,1,.22-.24.68.68,0,0,1,.44,0c-.33-.32-.42-.59-.29-.81a4.79,4.79,0,0,1,.55-.73,3.9,3.9,0,0,0,0,.62c.27-.15.41-.3.42-.46a.7.7,0,0,0-.06-.42l.46-.4a2.75,2.75,0,0,0,.37-.39c.44-.56.94-1.24,1.5-2a3.75,3.75,0,0,0-.22-.48Q124,9,124.12,9a1,1,0,0,1,.28,0,.33.33,0,0,0,.29,0c.14-.12.29-.25.44-.4a1.23,1.23,0,0,0,.31-.44,2.18,2.18,0,0,1,.46-.86c.22-.24.43-.5.64-.77a3.1,3.1,0,0,1,.64-.55,1.31,1.31,0,0,1,.85-.23A.64.64,0,0,1,127.9,5.81Zm.62-.57-.45.43c0-.08,0-.16-.08-.23s-.06-.19-.09-.31a3.19,3.19,0,0,1,.49-.24l.53-.25a.23.23,0,0,0,.08.14C128.86,4.92,128.7,5.08,128.52,5.24ZM129.8,4a4.59,4.59,0,0,0-.44.33,1.55,1.55,0,0,1,.28-.53,1.76,1.76,0,0,1,.6-.17A4.55,4.55,0,0,1,129.8,4ZM116.72,47.14c-.09.32-.18.66-.26,1A2.22,2.22,0,0,1,117,46C116.9,46.44,116.81,46.81,116.72,47.14Zm.86-3.48c-.08.32-.14.64-.2,1a1.84,1.84,0,0,0,0,.39,1.08,1.08,0,0,1-.09.4.65.65,0,0,1-.57.26c0-.26.11-.53.17-.79a5.92,5.92,0,0,1,.22-.75,2.94,2.94,0,0,0,.18-.75,1,1,0,0,1,.53-.7C117.72,43,117.65,43.33,117.58,43.66Zm-.11-1.41a3.49,3.49,0,0,1,.2-.44c.07-.15.15-.34.24-.58a1.67,1.67,0,0,1,.09.67C118,42,117.79,42.1,117.47,42.25Zm1.32-2.78a4,4,0,0,1-.24.69l-.38.77a1.12,1.12,0,0,1-.09-.58,2.43,2.43,0,0,1,.14-.48c0-.15.11-.3.17-.46a1.39,1.39,0,0,0,.09-.47.15.15,0,0,0,.09,0l.09,0a1.75,1.75,0,0,0,.13.29A.24.24,0,0,1,118.79,39.47Zm1.56-4.71c0,.21-.08.43-.11.66s-.12.47-.17.71-.14.47-.22.7l-.18.53a4,4,0,0,1-.22.53,1,1,0,0,1-.57.4,3.47,3.47,0,0,0,.11-.6,2.07,2.07,0,0,1,.11-.55c.14-.47.29-.92.44-1.37s.31-.88.48-1.32c0-.05.06-.11.18-.15l.25-.13C120.42,34.38,120.39,34.58,120.35,34.76Zm.18-1a1.67,1.67,0,0,1-.06.29,1.25,1.25,0,0,1-.1-.31,1.24,1.24,0,0,1,.22-.4C120.57,33.53,120.54,33.67,120.53,33.77Zm.42-1a.74.74,0,0,1-.49.33l.44-.88A.74.74,0,0,1,121,32.8Zm.48-1.47-.13,0a.23.23,0,0,0-.13,0c.06-.14.12-.29.19-.44a3.49,3.49,0,0,0,.2-.44,1.6,1.6,0,0,0,.09.53C121.71,31.11,121.64,31.24,121.43,31.33Zm26.33,5.13a1,1,0,0,0-.46.33A15.44,15.44,0,0,1,146.11,38c-.41.38-.84.75-1.28,1.1a1.16,1.16,0,0,0-.24.2,1.59,1.59,0,0,1-.24.2.23.23,0,0,1-.2,0,.53.53,0,0,0-.2-.05.37.37,0,0,0,.11-.13.26.26,0,0,1,.11-.09l.09-.06.09-.07.55-.55c.19-.19.37-.39.55-.59a1,1,0,0,0,.15-.2c.05-.07.1-.16.16-.24.67-.74,1.37-1.47,2.09-2.21s1.43-1.48,2.13-2.24a.27.27,0,0,0-.08-.11l-.09-.07-.27.35a1.47,1.47,0,0,1-.3.31c-.42.42-.83.81-1.26,1.19l-1.3,1.15c-.5.5-1,1-1.49,1.45s-1,.94-1.55,1.41l-1.85,1.58c-.61.53-1.24,1-1.89,1.55-.26.17-.58.4-1,.68s-.75.56-1.16.83l-1.19.8-1,.64a6.44,6.44,0,0,1-1.85.77,4.93,4.93,0,0,1-2,.15,1.11,1.11,0,0,1-.75-.49,1,1,0,0,1-.15-.46c0-.16,0-.31-.07-.46l-.13-.26c-.06-.21-.13-.33-.22-.36a.36.36,0,0,1-.09-.52.43.43,0,0,0,0-.49.7.7,0,0,1,.09-.92.47.47,0,0,0,.18-.22l.09-.44a1.71,1.71,0,0,1,.13-.44.91.91,0,0,0-.24-.16c-.11,0-.09-.14.06-.28a.35.35,0,0,0,.11-.16A.55.55,0,0,1,131,40a1.34,1.34,0,0,0,.07-.18.18.18,0,0,1,.11-.13.63.63,0,0,0,.39-.71l.27-.13,0,0a6.35,6.35,0,0,0,1.54.08,8,8,0,0,0,1.54-.17H135a1.4,1.4,0,0,0,.4-.09c.46-.15.93-.29,1.4-.42a3.91,3.91,0,0,0,1.33-.68s.07,0,.13,0,.4-.28.59-.4a4.29,4.29,0,0,0,.55-.4,4.87,4.87,0,0,0,.42-.35c.13-.12.27-.23.42-.35s.36-.29.57-.44a4.12,4.12,0,0,0,.53-.44,6.07,6.07,0,0,0,.55-.73,1.71,1.71,0,0,1,.68-.59c.09,0,.16-.12.22-.27a2.18,2.18,0,0,1,.31-.57,5.25,5.25,0,0,1,.46-.62,4.44,4.44,0,0,0,.47-.61c.17-.24.35-.49.52-.75l.53-.79a8.65,8.65,0,0,0,.84-1.24,7.48,7.48,0,0,0,.48-.83.46.46,0,0,0,0-.2.28.28,0,0,1,.09-.2.63.63,0,0,0,.24-.37,1.38,1.38,0,0,1,.11-.42,3.83,3.83,0,0,0,.13-.51l.09-.5a1.76,1.76,0,0,1,.26-.51c.12-.16,0-.33-.22-.51a1,1,0,0,1,.09-.15.21.21,0,0,0,0-.11,1.47,1.47,0,0,1,0-1,1.22,1.22,0,0,0,0-1,3.94,3.94,0,0,1-.33-.88,4.89,4.89,0,0,0-.33-.92,1.76,1.76,0,0,1-.15-.62,2.39,2.39,0,0,0-.12-.57.18.18,0,0,1,0-.09,9,9,0,0,0-.44-.88,2.05,2.05,0,0,0-.7-.71,1.74,1.74,0,0,1-.36-.22,1.42,1.42,0,0,1-.3-.3.83.83,0,0,0-.31-.31l-.4-.18a.15.15,0,0,1-.09,0l-.09,0-1.18-.53a.31.31,0,0,0-.27,0,2.26,2.26,0,0,1-.26.16.71.71,0,0,0-.22.15c-.41.33-.79.65-1.15,1a7.54,7.54,0,0,0-1,1.17,4.67,4.67,0,0,1-.85,1,9.85,9.85,0,0,0-1,1c-.29.33-.59.64-.88.93a5.68,5.68,0,0,0-.79,1,1.4,1.4,0,0,1-.38.39c-.16.12-.2.31-.11.58h-.17a1.54,1.54,0,0,0-.71.44c-.23.23-.34.44-.31.61.06.33,0,.52-.26.58l-.22.35-.18.26a.08.08,0,0,1-.06,0l-.07,0c0-.06.07-.18.13-.35l-1.45,1.84.17.25.18.2a.59.59,0,0,1-.2,0,.38.38,0,0,0-.19,0,.93.93,0,0,1,0,.55,1.8,1.8,0,0,1-.58.33.06.06,0,0,0-.06,0l-.07,0a1.78,1.78,0,0,1-.2.39c-.07.12-.14.24-.2.36l-.33.41a2.79,2.79,0,0,1-.37.42c.15.24,0,.36-.4.36a2.19,2.19,0,0,1,.27.3l-.4.27c.06.09.07.15,0,.17l-.15.14a1.47,1.47,0,0,0-.29.28c-.1.13-.14.21-.11.24.15.24.17.39.07.45a1.62,1.62,0,0,1-.33.13l-.09.35a.49.49,0,0,0-.26.66.36.36,0,0,1-.14.26c-.44.15-.52.4-.26.75-.15.06-.24.13-.26.22-.15.41-.31.83-.49,1.26a3.16,3.16,0,0,0-.22,1.38.2.2,0,0,1,0,.14c0,.29-.07.57-.11.83s-.08.55-.11.84a3.78,3.78,0,0,0,0,1.21,11.15,11.15,0,0,0,.29,1.21c0,.18.11.34.15.49a1.89,1.89,0,0,0,.2.44l.28.44a2.08,2.08,0,0,1,.44.85.71.71,0,0,0,.25.34,2.77,2.77,0,0,1,.66,1.23l.13.26v.05a.12.12,0,0,1,0,.08.14.14,0,0,1,0,.09,4.23,4.23,0,0,1,.3.42,3.12,3.12,0,0,0,.36.42,1.23,1.23,0,0,1,0-.29,1.5,1.5,0,0,0,0-.2.08.08,0,0,0,.07,0l.06,0a.54.54,0,0,0,.25.46.85.85,0,0,0,.46.11,2.92,2.92,0,0,0,.5.05c.17,0,.29-.11.38-.31a.34.34,0,0,1,.57-.09,1.61,1.61,0,0,0,1.06.4,7.3,7.3,0,0,0,1.14-.09,6.55,6.55,0,0,0,1.1-.27,3.65,3.65,0,0,0,1-.52l.66-.42.9-.6.9-.57c.3-.17.53-.31.71-.4a.53.53,0,0,0,.15-.08l.16-.09q.57-.48,1.14-1l1.1-1a9.09,9.09,0,0,1,1.12-1,3,3,0,0,0,.95-1.12c.09-.09.13-.12.13-.09l.4-.4a.8.8,0,0,0,.15-.17l.16-.18a.31.31,0,0,1,.19-.11.33.33,0,0,0,.2-.11c.3-.29.58-.59.86-.88l.9-.92.75-.75A.76.76,0,0,0,147.76,36.46ZM131,33.18c-.09.08-.17.08-.22,0s-.14,0,0-.13a3.75,3.75,0,0,0,.24-.36,2.82,2.82,0,0,1,.29-.35s.12,0,.26,0c.09.26.05.44-.13.53A.84.84,0,0,0,131,33.18Zm.48,1.32a1.16,1.16,0,0,1,.26-.86,1.09,1.09,0,0,1,.71-.42l-.49.64Zm7.68.33a.4.4,0,0,1-.11.28,4.29,4.29,0,0,1-.55.4l-.59.35-.13-.13.53-.4a1.6,1.6,0,0,1,.22-.26l.22-.26a.48.48,0,0,1,.48-.36C139.21,34.57,139.19,34.7,139.17,34.83Zm.69-.64q-.09.18-.18.18a1.54,1.54,0,0,1-.44,0,.55.55,0,0,0,.11-.15.46.46,0,0,1,.11-.16.24.24,0,0,1,.31,0,.12.12,0,0,1,.09,0A.06.06,0,0,1,139.86,34.19Zm-3.7-2.84a8.63,8.63,0,0,1,.57-.82.24.24,0,0,0,0-.19,2,2,0,0,1,0-.25,1.57,1.57,0,0,0,.88-.61q.31-.43.66-.84l.55-.55a5.51,5.51,0,0,0,.51-.59,4.05,4.05,0,0,0,.37-.62,4.71,4.71,0,0,1,.38-.62,1.55,1.55,0,0,1,.22-.26c.11-.06.23-.12.35-.2a1.5,1.5,0,0,0,.31-.24q.3-.31.57-.66a2.09,2.09,0,0,1,.62-.57,2.73,2.73,0,0,0,.53-.4,2.68,2.68,0,0,1,.48-.4,2.91,2.91,0,0,0,.33-.26l.33-.31a1.7,1.7,0,0,0,.35-.31l.35-.35a.55.55,0,0,1,.4-.18c.06,0,.11.05.15.14a.43.43,0,0,1,.07.22c0,.29,0,.58,0,.88a3.73,3.73,0,0,1-.06.88,9.19,9.19,0,0,1-.66,2.38,17.85,17.85,0,0,1-1.15,2.15.46.46,0,0,0-.11.22.85.85,0,0,1-.06.22.28.28,0,0,1-.09.22l-.71.88-.7.89c-.18.23-.36.47-.55.7s-.39.47-.6.7l-.17.18a7.12,7.12,0,0,1-.9,1.12,8.73,8.73,0,0,1-1.13,1,2.78,2.78,0,0,1-.44.29,4.77,4.77,0,0,0-.44.24l-1.32.92a.26.26,0,0,1-.18.09,1.51,1.51,0,0,1-.33.13,1,1,0,0,0-.28.14,2,2,0,0,1-.31.11l-.4.06a3,3,0,0,1-.39.13,3.24,3.24,0,0,0-.4.14,1.35,1.35,0,0,1-.75,0,3.33,3.33,0,0,0-.75-.09l.58-.83.08-.09a1.84,1.84,0,0,0,.55-.8,9.35,9.35,0,0,1,.38-.88,1.11,1.11,0,0,1,.22-.3,1.74,1.74,0,0,0,.22-.27l.22-.22.17-.33.18-.33a1.34,1.34,0,0,0,.09-.4,2.34,2.34,0,0,1,.09-.28c0-.07.11-.1.26-.07s.07,0,.13,0a.56.56,0,0,0,.14-.09Q135.89,31.77,136.16,31.35Zm-.68-5.92.19-.22a.12.12,0,0,1,.09,0,.45.45,0,0,0,0,.2.28.28,0,0,1-.09.2.14.14,0,0,1-.13.09.39.39,0,0,0-.18,0,.17.17,0,0,1,0-.13Zm-.8.59a1,1,0,0,1,.2-.15.19.19,0,0,1,.11,0l.16.09.13.09a2.13,2.13,0,0,1-.16.28,2.36,2.36,0,0,1-.15.25.08.08,0,0,1-.09-.09,2.68,2.68,0,0,1-.4-.31C134.54,26.16,134.61,26.1,134.68,26Zm-.15.51a.1.1,0,0,1,.11.07.22.22,0,0,0,.11.13c-.12.13-.21.19-.27.19a.25.25,0,0,1-.17,0,.57.57,0,0,0-.18,0c0,.09.05.17.07.22a1.27,1.27,0,0,0,.06.18,3.29,3.29,0,0,0-.44-.26C134,26.68,134.24,26.5,134.53,26.53Zm-5.75,9.73s0,0,0,0c-.21-.11-.31-.19-.31-.22a.17.17,0,0,1,0-.17.41.41,0,0,0,.05-.18.25.25,0,0,1,.13,0c.06.12.11.27.18.45S128.8,36.26,128.78,36.26Zm-.2-.71-.08-.08c.14-.24.28-.47.39-.69s.25-.44.4-.68l.07,0a.06.06,0,0,0,.06,0,.21.21,0,0,0,0,.17c0,.06,0,.1,0,.13-.3.24-.33.47-.09.71l-.37.22Zm.71,3.88s0,0-.13,0a.16.16,0,0,0,0-.08.29.29,0,0,1,0-.09,2.33,2.33,0,0,0,.13-.31,2.56,2.56,0,0,1,.14-.31.72.72,0,0,1,.06.42A.4.4,0,0,1,129.29,39.43Zm.22-5.48a1,1,0,0,1-.22-.16q1-1.71,2-3.39a16.18,16.18,0,0,1,2.42-3.08q.48.22.18.57l-.27.36a1.42,1.42,0,0,1-.3.3,2.73,2.73,0,0,1-.53.4c0,.09.07.28.13.57a2.57,2.57,0,0,1-.49.38.72.72,0,0,0-.3.59.48.48,0,0,1-.25.18l-.37.17-.26.14q.21.39.15.48a1.32,1.32,0,0,1-.46.26.69.69,0,0,0-.29.27c-.07.12-.14.23-.2.35a.26.26,0,0,0,.14.09,1.66,1.66,0,0,0,.06-.16l.07-.15a.35.35,0,0,1,.22-.13s.06,0,.11,0a.12.12,0,0,1,.06.09l-.06.11s0,.05-.07.11l-.33.41a3.48,3.48,0,0,1-.37.42l-.11-.06L130,33a1.52,1.52,0,0,0,0,.29.45.45,0,0,1,0,.24,1.85,1.85,0,0,1-.11.31l-.16.26A1.74,1.74,0,0,0,129.51,34Zm.59,3.41a5.61,5.61,0,0,1-.37.79h-.13a1.06,1.06,0,0,1,.08-.48c.09-.18.19-.35.29-.51a2.55,2.55,0,0,0,.24-.5q0-.09.18-.18a.08.08,0,0,0,.09.09A7.11,7.11,0,0,0,130.1,37.36ZM186.75,6.1,186,5.37a1,1,0,0,0-1-.2l.09-.35-.66-.4a1,1,0,0,1-.35.11.51.51,0,0,1-.4-.19.78.78,0,0,0-.7-.29.73.73,0,0,0-.53.37c-.24.39-.46.77-.68,1.15s-.45.76-.69,1.14c-.58,1-1.19,1.94-1.8,2.91s-1.22,2-1.81,3c-.26.38-.52.76-.77,1.15s-.49.77-.72,1.18l-.33.58a3.79,3.79,0,0,0-.29.57l-.42.66-.42.66h.09l-.59,1.12q-.28.56-.6,1.08c-.12.24-.23.46-.33.68s-.21.45-.33.69-.3.62-.46.9a9.46,9.46,0,0,0-.46.9,1.21,1.21,0,0,1-.27.22c-.38-.44-.75-.88-1.1-1.32s-.7-.86-1.05-1.28v0a3.56,3.56,0,0,0-1.24-1.23c-.5-.3-1-.58-1.49-.84,0,0,0,0-.09,0a.58.58,0,0,1-.55-.18l-.42-.44a.78.78,0,0,0-.62-.35c-.23,0-.47.06-.72.11a2.41,2.41,0,0,0-.73.24,7.64,7.64,0,0,0-1.78,1.12c-.55.46-1.07.93-1.57,1.43s-1,1-1.43,1.57l-1.39,1.65c-.32.41-.63.84-.94,1.3s-.63.9-.95,1.34l-.51.79c-.16.27-.32.53-.5.79s-.26.41-.4.61l-.13-.12-.26-.26-.36.35-.28.37a1.27,1.27,0,0,0-.24.42c-.18.32-.39.66-.62,1l-.95,1.17c-.3.4-.62.8-.94,1.21a.35.35,0,0,0-.11.18.55.55,0,0,1-.11.17l.08.09a22.27,22.27,0,0,0,1.63-1.91c.5-.67,1-1.35,1.5-2.05l.13.15.08.1,0,0a.08.08,0,0,0-.06,0,.84.84,0,0,1-.05.2c-.17.3-.31.6-.46.9h-.06s0,.06-.07.16a.61.61,0,0,1,0,.17l-.25.48-.08.07a2.52,2.52,0,0,0-.4.4,6.08,6.08,0,0,0-.39.64c-.12.22-.25.45-.4.68l-.42.51-.42.5a3.82,3.82,0,0,1-.48.51,3.82,3.82,0,0,0-.48.51,2.91,2.91,0,0,0-.33.26l-.29.26a.92.92,0,0,0-.22.22,1.06,1.06,0,0,1-.18.22c-.2.15-.31.25-.31.29s.09.16.27.33l.59-.33a.79.79,0,0,0,.38-.55l.13-.13a2.52,2.52,0,0,1,.4-.4,1.08,1.08,0,0,0,.3-.39,2.12,2.12,0,0,1,.38-.44l.42-.4a2.69,2.69,0,0,1,.33-.41c-.12.25-.26.51-.38.76-.2.44-.41.9-.61,1.37a10.64,10.64,0,0,0-.67,1.8c-.11.41-.23.81-.35,1.19a7.62,7.62,0,0,0-.26,1.19,6.43,6.43,0,0,0-.16,1.12c0,.37,0,.74-.06,1.13v.85a4.26,4.26,0,0,0,.09.86,4.11,4.11,0,0,0,1.85,2.69l.37.2c.13.07.23.08.29,0a.51.51,0,0,1,.44-.05l.35.22A1.53,1.53,0,0,0,153,47a1.26,1.26,0,0,0,.69-.35A7.36,7.36,0,0,0,155,45.24c.38-.53.75-1.07,1.1-1.63a4.4,4.4,0,0,1,.26-.39l.27-.36,2.64-3.43a8.13,8.13,0,0,1,.75-.9,9.82,9.82,0,0,0,.75-.91,4.43,4.43,0,0,1,.59-.64,1,1,0,0,0,.33-.81.22.22,0,0,1,.09-.17l.18-.18.17-.18a.64.64,0,0,0,.13-.17A6.34,6.34,0,0,1,163.41,34a15.17,15.17,0,0,0,1.32-1.34c.24-.24.47-.46.71-.68s.47-.45.7-.69.23-.22.33-.3a3.13,3.13,0,0,0,.33-.31c.24-.24.47-.46.71-.66s.47-.43.7-.66a2.39,2.39,0,0,1,.52-.38.5.5,0,0,0,.23-.55.2.2,0,0,0,.11,0,.08.08,0,0,1,.07,0,.93.93,0,0,1,.08.22.28.28,0,0,1,0,.22c-.11.41-.24.81-.37,1.19s-.28.78-.43,1.19l-.69,2.26c-.22.75-.42,1.51-.6,2.27s-.33,1.46-.45,2.18-.24,1.46-.36,2.22-.15,1.24-.18,1.85-.07,1.24-.13,1.85-.09,1.4-.09,2.09a12.59,12.59,0,0,0,.18,2.1,8.76,8.76,0,0,0,1.07,2.9,4,4,0,0,0,.86,1c.32.27.65.55,1,.81a.74.74,0,0,0,.44.22,2.8,2.8,0,0,0,.48,0,.31.31,0,0,0,.24-.12,2.23,2.23,0,0,1,.24-.19c-.06-.09-.11-.19-.17-.29a.64.64,0,0,0-.27-.24,2.13,2.13,0,0,1-.35-.27c-.09-.08-.07-.22,0-.39a.07.07,0,0,0,0-.09.14.14,0,0,1,0-.09c0-.14-.06-.31-.11-.48a1.18,1.18,0,0,1,0-.49,2.87,2.87,0,0,0,0-1.27,2.41,2.41,0,0,1,0-1.28c.09-.3,0-.4-.35-.31a.32.32,0,0,1-.22,0,.38.38,0,0,0-.22,0,.25.25,0,0,0,0-.17l.55-.09.55-.09a3.28,3.28,0,0,1-.46-.57c0-.06.1-.16.33-.31a.48.48,0,0,0-.17-.11.64.64,0,0,1-.18-.06c.12-.41.22-.8.31-1.15s.17-.72.26-1.1h-.62v-.13l.45-.2.44-.2c-.44,0-.64-.28-.58-.75a.62.62,0,0,1,.11-.33,1.81,1.81,0,0,0,.2-.33.47.47,0,0,0,.09-.28.88.88,0,0,1,0-.29s0,0,0,0a5.27,5.27,0,0,1,.2-.6l.24-.64a.93.93,0,0,0-.22-.08,2.56,2.56,0,0,1-.31-.14l.55-.22.42-.17a1,1,0,0,0-.31-.13c-.11,0-.17-.06-.17-.09a3.59,3.59,0,0,1,.26-.88,1.09,1.09,0,0,1,0-1,2.64,2.64,0,0,1,.93-1c-.27-.41-.29-.73-.09-1a4.65,4.65,0,0,0,.53-.75,1,1,0,0,0-.18-.22,1.66,1.66,0,0,1,.31-.38.43.43,0,0,0,.18-.33,1.57,1.57,0,0,1,.24-1,2.54,2.54,0,0,0,.37-1,1.77,1.77,0,0,1,.22-.57c.18-.26.36-.53.56-.79s.38-.53.59-.8c0,0-.16-.13-.4-.3q.71-.23.57-.84s0-.07.09-.13l.44-.6c.15-.19.3-.39.44-.59H175a2.78,2.78,0,0,0,.28-.42l.25-.42.17-.46a.57.57,0,0,1,.27-.33c.2-.06.32-.14.35-.24a1.66,1.66,0,0,0,0-.42c0-.06,0-.11.07-.16a1,1,0,0,0,.2-.15.21.21,0,0,1,.19,0,.69.69,0,0,0,.25,0l-.25-.41a3.17,3.17,0,0,1-.19-.42c.29-.15.44-.15.44,0a.93.93,0,0,0,.08.39l.42-.5a2,2,0,0,0,.33-.51l.2-.28q.11-.16-.15-.33a1.59,1.59,0,0,0,.15-.29.91.91,0,0,1,.16-.24,1.45,1.45,0,0,1,.22-.18,3.13,3.13,0,0,0,.33-.31,2.5,2.5,0,0,0,.26-.33.49.49,0,0,0,.11-.24.59.59,0,0,1,0-.48,1.83,1.83,0,0,1,.29-.36,2.71,2.71,0,0,0,.83-1.54.3.3,0,0,1,.27-.22l.18-.09.17-.08h.13v-.09a4,4,0,0,0,.8-.88.32.32,0,0,1,.06-.11A.42.42,0,0,0,182,17a1.21,1.21,0,0,0,.22-.27l.66-.92.4-.4a1.28,1.28,0,0,0,.35-.5,2.78,2.78,0,0,0,.17-.73,0,0,0,0,0,0,0l.53-.67a4.63,4.63,0,0,0,.35-.57,3,3,0,0,1,.35-.53c.12-.17.23-.33.35-.48a4.73,4.73,0,0,0,.35-.49c.18-.23.35-.46.51-.7a5.66,5.66,0,0,1,.55-.66,1.23,1.23,0,0,0,.46-.9,2.68,2.68,0,0,1,.25-1V8.12A3.71,3.71,0,0,0,186.75,6.1Zm-36.46,32c-.09,0-.15,0-.17,0a2.18,2.18,0,0,0,.11-.44,1.49,1.49,0,0,1,.11-.44C150.8,37.45,150.79,37.76,150.29,38.11Zm3-7.09a2.92,2.92,0,0,1,.43-.22s.07,0,.12,0l.11.09c0,.06,0,.13-.09.22a.43.43,0,0,1-.31.09l-.09.35-.28-.07a2.11,2.11,0,0,1-.29-.06.39.39,0,0,1,0-.18A3.61,3.61,0,0,0,153.29,31Zm-.64,1,.37-.09s.07,0,.11,0a.23.23,0,0,1,.07.13c-.09.15-.16.22-.22.22l-.31,0a1.47,1.47,0,0,0-.31,0,.29.29,0,0,0,0-.09.15.15,0,0,1,0-.09Zm-1.57,5.68s0-.05,0-.06,0,0,0-.07l.66-1.19a.69.69,0,0,0,0-.29.4.4,0,0,1,.06-.28,3.66,3.66,0,0,1,.4-.64,3.66,3.66,0,0,0,.4-.64,3.47,3.47,0,0,0,.44-1.19c.06-.23.14-.36.26-.39s.35.07.71.3a.72.72,0,0,0-.33.58c0,.23-.17.38-.47.44-.06,0-.08.06-.06.2a1.51,1.51,0,0,1,0,.37,1.27,1.27,0,0,0-.38.22q-.15.13-.06.48c0,.06,0,.13-.14.2l-.3.2,0,0,0,.08c-.08.27-.17.53-.26.79a3.68,3.68,0,0,1-.35.75c0,.06-.11.09-.24.07A.9.9,0,0,0,151.08,37.71Zm15.81-9.14a.16.16,0,0,1,0,.12,1.75,1.75,0,0,1-.35.11,1,1,0,0,0-.36.11.2.2,0,0,1,0-.14.91.91,0,0,0,.24-.2,1.12,1.12,0,0,1,.29-.19.41.41,0,0,1,.31,0A.26.26,0,0,0,166.89,28.57Zm-1.63.78a.36.36,0,0,0-.11.17.16.16,0,0,1-.11.13c-.2.18-.41.35-.61.51a4.3,4.3,0,0,0-.58.55c-.23.21-.45.42-.66.64s-.42.45-.66.68-.59.63-.88.93-.57.6-.84.92c-.76.94-1.52,1.87-2.28,2.78s-1.53,1.83-2.3,2.77S155,41,154.36,41.85s-1.21,1.63-1.82,2.42a5.14,5.14,0,0,1-.38.42l-.42.42c-.08.09-.16.1-.22,0a.25.25,0,0,1-.17-.22c0-.17,0-.36-.07-.55s0-.37,0-.55,0-.1,0-.13a.29.29,0,0,0,.14-.13,3.29,3.29,0,0,0,.3-.46.69.69,0,0,0,0-.6.14.14,0,0,1,0-.17,1.19,1.19,0,0,1,.15-.18l.2-.2a.8.8,0,0,0,.15-.2c.06-.2.11-.4.16-.59s.09-.4.15-.64a1.27,1.27,0,0,0,.66-1.23.1.1,0,0,1,0-.14.24.24,0,0,0,.11-.13l.18-.44.22-.53a.72.72,0,0,0,.53-.66,3.87,3.87,0,0,1,.22-1,.33.33,0,0,0,0-.17.14.14,0,0,1,.09-.13,2,2,0,0,0,.64-.55,6,6,0,0,0,.46-.77l.27-.73a1.19,1.19,0,0,1,.57-.64,1.18,1.18,0,0,0,.53-.57,3.14,3.14,0,0,1,.44-.75l1-1.41c.32-.47.66-.95,1-1.45l.68-.86c.22-.28.45-.55.68-.82s.24-.27.36-.39l.39-.4q.61-.66,1.26-1.32c.42-.44.86-.86,1.29-1.28a5.91,5.91,0,0,1,1-.61l1-.53a5.75,5.75,0,0,1,.88-.35,5.09,5.09,0,0,0,.88-.36.48.48,0,0,0,.31-.26l.18-.33a2.14,2.14,0,0,0,.17-.37l.84.83c.27.27.53.55.79.84l.38.4c.1.11.22.25.37.39s.24.32.18.42a.88.88,0,0,1-.31.29l-.95.68c-.3.22-.61.45-.9.68C167.67,27.06,166.44,28.2,165.26,29.35ZM170,25.52c-.15.32-.27.5-.38.55a.89.89,0,0,1-.5,0l.44-.26Zm-1,1.23a.92.92,0,0,1-.49.2c-.17,0-.29.14-.35.37,0,0-.16,0-.48.13a2.34,2.34,0,0,1,.94-.88,1.06,1.06,0,0,1,1,0,.75.75,0,0,1-.33.09A.32.32,0,0,0,169.05,26.75Zm-.53,12.9a2.55,2.55,0,0,1-.11.33,1.59,1.59,0,0,1-.15.29c-.18-.09-.23-.19-.16-.29a.57.57,0,0,0,.11-.33v-.31a2.08,2.08,0,0,1,0-.4,1.34,1.34,0,0,1,.26.31A.9.9,0,0,1,168.52,39.65Zm.41-1.45c0,.11-.06.28-.1.48a1,1,0,0,0-.2-.15.21.21,0,0,1-.11-.16l.09-.33.09-.33a.48.48,0,0,1,.26.09A2.41,2.41,0,0,1,168.93,38.2Zm.74-3.13a3.08,3.08,0,0,0-.51,0,1.18,1.18,0,0,1-.46-.09.41.41,0,0,1-.16-.18.25.25,0,0,1,0-.22.65.65,0,0,1,.31-.35.5.5,0,0,1,.35.18,4.41,4.41,0,0,1,.49.57Zm1.91-1.61-.42.16c.18-.33.32-.5.44-.53s.25,0,.4.22Zm.84-6c-.11.13-.2.26-.29.38s0,0,.18.13a.89.89,0,0,1-.22.11.35.35,0,0,0-.18.11.71.71,0,0,1-.22.15c-.09,0,0,.14.13.29a.17.17,0,0,0,0,.13.3.3,0,0,0,0,.13.14.14,0,0,1-.05.09l-.22.2a2.3,2.3,0,0,0-.22.2,2.82,2.82,0,0,1,.18.44l-.53-.14a4.08,4.08,0,0,1,.09.8c-.18.08-.4.17-.66.26l.26.27-.35.35a2,2,0,0,1,.09.2,1,1,0,0,0,.13.24,3.31,3.31,0,0,0-.57.26c0,.13-.06.24-.09.34l-.09.28.22,0a1.42,1.42,0,0,1,.31,0,1.3,1.3,0,0,0-.13.36.59.59,0,0,1-.14.26c-.11.09-.14.25-.08.48a.26.26,0,0,1-.11.18.35.35,0,0,1-.2.09,1.85,1.85,0,0,1-.31-.11,1.85,1.85,0,0,0-.31-.11,1.51,1.51,0,0,0,.22-.35l-.09-.2a.23.23,0,0,1,0-.2l.36-1.09c.11-.36.23-.71.35-1.07a1.54,1.54,0,0,1,.22-.48,1.56,1.56,0,0,1,.53-.22c-.21-.5-.11-.82.3-1a1.24,1.24,0,0,1,.07-.73,5.59,5.59,0,0,1,.44-1,6,6,0,0,1,.64-1,2.17,2.17,0,0,1,.61-.57,4.44,4.44,0,0,1-.17.48l-.18.44a1.52,1.52,0,0,0,.49.22Zm3.06-.33a.14.14,0,0,1,0,.09.41.41,0,0,1,.18-.05A.17.17,0,0,1,175.48,27.1Z"/></svg>