<?xml version="1.0" encoding="utf-8"?>
<!-- Generator: Adobe Illustrator 22.0.1, SVG Export Plug-In . SVG Version: 6.00 Build 0)  -->
<svg version="1.1" id="Layer_1" xmlns="http://www.w3.org/2000/svg" xmlns:xlink="http://www.w3.org/1999/xlink" x="0px" y="0px"
	 viewBox="0 0 80 80" style="enable-background:new 0 0 80 80;" xml:space="preserve">
<style type="text/css">
	.st0{fill:#B5916F;}
	.st1{fill:#135FA7;}
	.st2{fill:#018BD2;}
	.st3{fill:none;}
	.st4{fill:#008BD2;}
	.st5{fill:#FFFFFF;}
	.st6{fill:#08A9E1;}
	.st7{fill:#F6F9F9;}
	.st8{fill:url(#SVGID_1_);}
	.st9{fill:#FFFFFF;stroke:#BABCBE;stroke-width:0.2278;stroke-miterlimit:10;}
	.st10{fill:#FFFFFF;stroke:#F2F2F2;stroke-width:0.2307;stroke-miterlimit:10;}
</style>
<g>
	<path class="st1" d="M20.2,64.6c-2.2,0-3.9,1.7-3.9,3.9s1.7,3.9,3.9,3.9s3.9-1.7,3.9-3.9S22.4,64.6,20.2,64.6z M20.2,69.8
		c-0.7,0-1.3-0.6-1.3-1.3s0.6-1.3,1.3-1.3c0.7,0,1.3,0.6,1.3,1.3S20.9,69.8,20.2,69.8z"/>
	<path class="st1" d="M63.2,64.6c-2.2,0-3.9,1.7-3.9,3.9s1.7,3.9,3.9,3.9s3.9-1.7,3.9-3.9S65.3,64.6,63.2,64.6z M63.2,69.8
		c-0.7,0-1.3-0.6-1.3-1.3s0.6-1.3,1.3-1.3s1.3,0.6,1.3,1.3S63.9,69.8,63.2,69.8z"/>
	<path class="st1" d="M59.3,52.9h-2.6c-0.7,0-1.3,0.6-1.3,1.3c0,0.7,0.6,1.3,1.3,1.3h2.6c0.7,0,1.3-0.6,1.3-1.3
		C60.6,53.5,60,52.9,59.3,52.9z"/>
	<path class="st1" d="M64.1,25.9c-0.2-0.2-0.6-0.4-0.9-0.4H51.5c-0.7,0-1.3,0.6-1.3,1.3v26h-2.6V49c0-0.7-0.6-1.3-1.3-1.3h-1.3v-6.5
		c0-0.7-0.6-1.3-1.3-1.3H43L21.3,9.2c-0.2-0.3-0.6-0.5-1.1-0.5h-9.1c-0.2,0-0.3,0-0.4,0.1c0,0-0.1,0-0.1,0c-0.1,0.1-0.2,0.1-0.3,0.2
		c0,0,0,0-0.1,0C10.1,9.1,10,9.2,9.9,9.3c0,0,0,0.1-0.1,0.2c0,0.1-0.1,0.3-0.1,0.4v14.3H7.2c-0.4,0-0.8,0.2-1,0.5
		c-0.2,0.3-0.3,0.7-0.2,1.1l1.3,5.2c0.1,0.6,0.7,1,1.3,1h1.3v2.6c0,0.7,0.6,1.3,1.3,1.3c2.2,0,3.9,1.7,3.9,3.9
		c0,2.2-1.7,3.9-3.9,3.9S7.2,42,7.2,39.9c0-0.7-0.6-1.3-1.3-1.3s-1.3,0.6-1.3,1.3c0,3.4,2.7,6.3,6.1,6.5c3.4,0.2,6.4-2.2,6.9-5.6
		s-1.8-6.6-5.1-7.2V32h1.3c0.6,0,1.1-0.4,1.3-1l1.3-5.2c0.1-0.4,0-0.8-0.2-1.1c-0.2-0.3-0.6-0.5-1-0.5h-2.6V14l18.3,25.9h-0.1
		c-0.7,0-1.3,0.6-1.3,1.3v6.5H28c-0.7,0-1.3,0.6-1.3,1.3v3.9H2c-0.7,0-1.3,0.6-1.3,1.3v10.4c0,0.7,0.6,1.3,1.3,1.3h9.5
		c-1,3.2-0.1,6.8,2.4,9.1H2c-0.7,0-1.3,0.6-1.3,1.3c0,0.7,0.6,1.3,1.3,1.3h43c0.7,0,1.3-0.6,1.3-1.3c0-0.7-0.6-1.3-1.3-1.3H26.6
		c2.4-2.4,3.3-5.9,2.4-9.1h25.5c-1,3.2-0.1,6.8,2.4,9.1h-6.7c-0.7,0-1.3,0.6-1.3,1.3c0,0.7,0.6,1.3,1.3,1.3h27.3
		c0.7,0,1.3-0.6,1.3-1.3c0-0.7-0.6-1.3-1.3-1.3h-8c2.4-2.4,3.3-5.9,2.4-9.1h5.6c0.7,0,1.3-0.6,1.3-1.3V41.2c0-0.3-0.1-0.7-0.4-0.9
		L64.1,25.9z M12.7,29.4H9.5l-0.7-2.6h4.5L12.7,29.4z M62.6,28.1l13.6,13.6v2.1H60.6V28.1H62.6z M13.6,11.2h5.9l20.3,28.6h-5.9
		L13.6,11.2z M31.9,42.5h10.4v5.2H31.9V42.5z M29.3,50.3h15.6v2.6H29.3V50.3z M20.2,75c-3.6,0-6.5-2.9-6.5-6.5s2.9-6.5,6.5-6.5
		s6.5,2.9,6.5,6.5C26.7,72.1,23.8,75,20.2,75z M20.2,59.4c-3,0-5.8,1.5-7.5,3.9H3.3v-2.6h2.6c0.7,0,1.3-0.6,1.3-1.3
		c0-0.7-0.6-1.3-1.3-1.3H3.3v-2.6h46.9v7.8H27.7C26,60.8,23.2,59.4,20.2,59.4z M63.2,75c-3.6,0-6.5-2.9-6.5-6.5s2.9-6.5,6.5-6.5
		c3.6,0,6.5,2.9,6.5,6.5C69.7,72.1,66.8,75,63.2,75z M70.6,63.3c-1.7-2.4-4.5-3.9-7.5-3.9c-3,0-5.8,1.5-7.5,3.9h-2.9V28.1H58v16.9
		c0,0.7,0.6,1.3,1.3,1.3h16.9v3.9h-3.9c-2.2,0-3.9,1.7-3.9,3.9c0,2.2,1.7,3.9,3.9,3.9h3.9v5.2H70.6z M76.2,55.5h-3.9
		c-0.7,0-1.3-0.6-1.3-1.3c0-0.7,0.6-1.3,1.3-1.3h3.9V55.5z"/>
</g>
</svg>
