<?xml version="1.0" encoding="utf-8"?>
<!-- Generator: Adobe Illustrator 22.0.1, SVG Export Plug-In . SVG Version: 6.00 Build 0)  -->
<svg version="1.1" id="Layer_1" xmlns="http://www.w3.org/2000/svg" xmlns:xlink="http://www.w3.org/1999/xlink" x="0px" y="0px"
	 viewBox="0 0 80 80" style="enable-background:new 0 0 80 80;" xml:space="preserve">
<style type="text/css">
	.st0{fill:#B5916F;}
	.st1{fill:#135FA7;}
	.st2{fill:#018BD2;}
	.st3{fill:none;}
	.st4{fill:#008BD2;}
	.st5{fill:#FFFFFF;}
	.st6{fill:#08A9E1;}
	.st7{fill:#F6F9F9;}
	.st8{fill:url(#SVGID_1_);}
	.st9{fill:#FFFFFF;stroke:#BABCBE;stroke-width:0.2278;stroke-miterlimit:10;}
	.st10{fill:#FFFFFF;stroke:#F2F2F2;stroke-width:0.2307;stroke-miterlimit:10;}
</style>
<g>
	<path class="st1" d="M24.7,29.1c-0.5-0.4-1.2-0.3-1.6,0.2c-0.5,0.6-1.1,0.9-1.7,0.9c-0.7,0-1.3-0.3-1.7-0.9
		c-0.4-0.5-1.1-0.6-1.6-0.2c-0.5,0.4-0.6,1.1-0.2,1.6c0.9,1.1,2.2,1.7,3.5,1.7c1.3,0,2.6-0.6,3.5-1.7C25.3,30.2,25.2,29.5,24.7,29.1
		z"/>
	<path class="st1" d="M56.1,35.7c-0.5,0.4-0.6,1.1-0.2,1.6c0.9,1.1,2.2,1.7,3.5,1.7s2.6-0.6,3.5-1.7c0.4-0.5,0.3-1.2-0.2-1.6
		c-0.5-0.4-1.2-0.3-1.6,0.2c-0.5,0.6-1.1,0.9-1.7,0.9c-0.7,0-1.3-0.3-1.7-0.9C57.3,35.3,56.6,35.3,56.1,35.7z"/>
	<path class="st1" d="M75.8,51.6l-9-3.6c0,0-0.1,0-0.1-0.1c6.2-1.4,9.2-3.8,9.3-3.9c0.3-0.3,0.5-0.7,0.4-1.1c0-0.1-1.3-9.2-1.3-18.2
		c0-8.6-7-15.6-15.6-15.6c-8.6,0-15.6,7-15.6,15.6c0,2.4-0.1,5.2-0.3,8L41.1,34l-7.4-3.7c0,0,0,0-0.1,0c0.4-1,0.6-2.1,0.7-3.2
		c1.5-0.5,2.7-1.9,2.7-3.6c0-1.1-0.5-2.2-1.3-2.9v-7.7c0-2.1-1.1-4.1-2.8-5.3c-0.6-2.2-2.6-3.8-4.9-3.8H17.4
		c-5.7,0-10.3,4.6-10.3,10.3v6.3c-0.8,0.7-1.3,1.7-1.3,2.9c0,1.7,1.1,3.1,2.7,3.6c0.3,3.9,2.3,7.3,5.2,9.4v3.2l-9.5,2.9
		c-2.2,0.7-3.6,2.6-3.6,4.9v12.8c0,0.6,0.5,1.1,1.1,1.1h0.2v13.3c0,0.6,0.5,1.1,1.1,1.1s1.1-0.5,1.1-1.1V61.4h4.3v13.3
		c0,0.6,0.5,1.1,1.1,1.1c0.6,0,1.1-0.5,1.1-1.1V54.8c0-1-0.3-2-0.9-2.8l-2-2.9c-0.4-0.5-1.1-0.7-1.6-0.3c-0.5,0.4-0.7,1.1-0.3,1.6
		l2,2.9c0.3,0.5,0.5,1,0.5,1.5v4.2H3H2.8V47.4c0-1.2,0.8-2.3,2-2.7l3.9-1.2c1.4,5.8,6.6,10,12.6,10c2.2,0,4.3-0.5,6.1-1.5
		c0.7,0.9,1.8,1.5,3,1.5h0.2v0.2c0,3.9,2.1,7.2,5.3,9v1.9c0,0.1,0,0.1-0.1,0.2l-4.3,1.4c-2.1,0.7-3.5,2.6-3.5,4.8v3.7
		c0,0.6,0.5,1.1,1.1,1.1c0.6,0,1.1-0.5,1.1-1.1v-3.7c0-1.2,0.8-2.3,1.9-2.6l1.3-0.4c1.7,2.5,4.5,4,7.5,4c3,0,5.8-1.5,7.5-4l1.3,0.4
		c1.1,0.4,1.9,1.4,1.9,2.6v3.7c0,0.6,0.5,1.1,1.1,1.1s1.1-0.5,1.1-1.1v-3.7c0-2.2-1.4-4.1-3.5-4.8l-4.3-1.4c-0.1,0-0.1-0.1-0.1-0.2
		v-1.9c2.3-1.3,4.1-3.6,4.9-6.2c2.2,2.3,5.2,3.6,8.4,3.6c5.1,0,9.6-3.3,11.1-8.1l4.4,1.8c1.1,0.4,1.8,1.4,1.8,2.6v5.4h-0.2h-4.1
		v-1.5c0-0.6-0.5-1.1-1.1-1.1c-0.6,0-1.1,0.5-1.1,1.1v14.5c0,0.6,0.5,1.1,1.1,1.1c0.6,0,1.1-0.5,1.1-1.1V64h3v10.7
		c0,0.6,0.5,1.1,1.1,1.1c0.6,0,1.1-0.5,1.1-1.1V64h0.2c0.3,0,0.6-0.1,0.8-0.3c0.2-0.2,0.3-0.5,0.3-0.8v-6.5
		C79,54.2,77.7,52.4,75.8,51.6z M46.2,24.7c0-7.3,6-13.3,13.3-13.3c7.3,0,13.3,6,13.3,13.3c0,7.7,0.9,15.5,1.2,17.9
		c-1,0.7-3.7,2.2-8.1,3.1v-1.8c0.6-0.3,1.2-0.7,1.7-1.2c2.3-1.8,3.9-4.4,4.5-7.2c0.2-0.9,0.3-1.9,0.3-2.9c0-6.5-4.7-7.4-9.2-8.3
		c-2.9-0.6-5.9-1.2-8.3-3.1c-0.3-0.3-0.8-0.3-1.2-0.1c-0.4,0.2-0.7,0.6-0.7,1c0,0-0.1,3.1-4.4,4.1c-0.6,0.2-1,0.8-0.8,1.4
		c0.2,0.6,0.8,1,1.4,0.8c3.6-0.9,5.1-2.9,5.7-4.5c2.5,1.5,5.3,2,7.8,2.5c4.9,1,7.4,1.7,7.4,6.1c0,0.8-0.1,1.6-0.3,2.4
		c-0.5,2.3-1.8,4.4-3.7,5.9c-1.9,1.5-4.2,2.4-6.7,2.4c-2.3,0-4.4-0.7-6.2-2c-0.7-1.8-1.7-3.5-3.1-4.9v-5.1c0-0.4-0.2-0.8-0.5-1
		c-0.3-0.2-0.8-0.2-1.1-0.1L46,31.5C46.1,29.1,46.2,26.9,46.2,24.7z M47.8,33.2v4.2l-4.2-2.1L47.8,33.2z M34.3,33.2l4.2,2.1
		l-4.2,2.1V33.2z M28.1,45.8v1.1c-0.8,0.7-1.3,1.8-1.3,2.8c-1.6,1-3.5,1.5-5.4,1.5c-5,0-9.3-3.5-10.4-8.3l2.8-0.9
		c0.7,3.5,3.8,6.2,7.6,6.2c3,0,5.6-1.7,6.8-4.2C28.1,44.6,28.1,45.2,28.1,45.8z M15.9,40.5v-2.7c1.7,0.8,3.5,1.2,5.4,1.2
		c1.9,0,3.8-0.4,5.4-1.2v2.7c0,3-2.4,5.4-5.4,5.4C18.4,45.9,15.9,43.5,15.9,40.5C15.9,40.5,15.9,40.5,15.9,40.5z M21.4,36.7
		c-5.9,0-10.7-4.8-10.7-10.7c0-0.6-0.5-1.1-1.1-1.1c-0.8,0-1.5-0.7-1.5-1.5c0-0.8,0.7-1.5,1.5-1.5h2.6c0.5,0,0.9-0.3,1.1-0.8
		l1.1-3.2c2.6-0.1,10.8-0.4,15.4-2.7c0.6-0.3,0.8-1,0.5-1.5c-0.3-0.6-1-0.8-1.5-0.5c-4.9,2.5-15.1,2.5-15.3,2.5
		c-0.5,0-0.9,0.3-1.1,0.8l-1.1,3.2H9.5c-0.1,0-0.1,0-0.2,0v-5.4c0-4.4,3.6-8,8-8h10.5c1.4,0,2.5,1,2.7,2.4c0.1,0.3,0.3,0.6,0.6,0.8
		c1.3,0.7,2.1,2.1,2.1,3.6v6.7c-0.1,0-0.1,0-0.2,0h-1.3c-0.6,0-1.1,0.5-1.1,1.1c0,0.6,0.5,1.1,1.1,1.1h1.3c0.8,0,1.5,0.7,1.5,1.5
		c0,0.8-0.7,1.5-1.5,1.5c-0.6,0-1.1,0.5-1.1,1.1C32,31.9,27.2,36.7,21.4,36.7z M29.1,40.5v-4c1.1-0.8,2.1-1.9,3-3.1v3
		c-1.3,1.3-2.3,2.7-3,4.4C29.1,40.7,29.1,40.6,29.1,40.5z M46.3,67.1c-1.3,1.5-3.2,2.5-5.2,2.5c-2,0-3.9-0.9-5.2-2.5l0.7-0.2
		c1-0.3,1.7-1.3,1.7-2.3v-0.9c0.9,0.2,1.8,0.4,2.8,0.4s1.9-0.1,2.8-0.4v0.9c0,1.1,0.7,2,1.7,2.3L46.3,67.1z M50.3,51.2
		c-0.6,0-1.1,0.5-1.1,1.1v1.1c0,0,0,0,0,0v0.1c0,4.4-3.6,8-8,8s-8-3.6-8-8v-1.3c0-0.6-0.5-1.1-1.1-1.1h-1.3c-0.8,0-1.5-0.7-1.5-1.5
		c0-0.5,0.3-1,0.7-1.3c0.1-0.1,0.2-0.1,0.3-0.2c2.8-0.1,12.1-0.6,18.1-4.1c0.6-0.3,0.7-1,0.4-1.6c-0.3-0.6-1-0.7-1.6-0.4
		c-5.3,3-13.6,3.6-16.7,3.8v-0.1c0-2.1,0.6-4.2,1.8-6c0.1,0.1,0.2,0.3,0.4,0.4c0.2,0.1,0.4,0.2,0.6,0.2c0.2,0,0.4,0,0.5-0.1l7.4-3.7
		l7.4,3.7c0.2,0.1,0.3,0.1,0.5,0.1c0.2,0,0.4-0.1,0.6-0.2c0.2-0.1,0.3-0.2,0.4-0.4c1.2,1.7,1.8,3.8,1.8,6v1.7c0,0.4,0.2,0.8,0.6,1
		c0.5,0.3,0.7,0.7,0.7,1.3c0,0.8-0.7,1.5-1.5,1.5H50.3z M59.5,57.8c-3.2,0-6.1-1.6-7.9-4.3c2.1,0,3.8-1.7,3.8-3.8
		c0-1.1-0.5-2.1-1.3-2.8v-1.1c0-0.5,0-0.9-0.1-1.4c1.7,0.8,3.6,1.2,5.5,1.2c1.4,0,2.8-0.2,4.1-0.7v1.7c0,1.6,0.9,2.9,2.4,3.5l2.5,1
		C67.2,55,63.6,57.8,59.5,57.8z"/>
	<path class="st1" d="M44.4,55.4c-0.5-0.4-1.2-0.3-1.6,0.2c-0.5,0.6-1.1,0.9-1.7,0.9c-0.7,0-1.3-0.3-1.7-0.9
		c-0.4-0.5-1.1-0.6-1.6-0.2c-0.5,0.4-0.6,1.1-0.2,1.6c0.9,1.1,2.2,1.7,3.5,1.7c1.3,0,2.6-0.6,3.5-1.7C45,56.5,44.9,55.8,44.4,55.4z"
		/>
	<path class="st1" d="M54,31.8h2.6c0.4,0,0.7-0.4,0.7-0.9c0-0.5-0.3-0.9-0.7-0.9H54C53,30.1,53,31.8,54,31.8z"/>
	<path class="st1" d="M62.3,31.8h2.6c0.4,0,0.7-0.4,0.7-0.9c0-0.5-0.3-0.9-0.7-0.9h-2.6C61.3,30.1,61.3,31.8,62.3,31.8z"/>
	<path class="st1" d="M19.1,24c0-0.5-0.4-1-0.8-1h-2.9c-1.1,0-1.1,2,0,2h2.9C18.7,25,19.1,24.5,19.1,24z"/>
	<path class="st1" d="M27.4,23h-2.9c-1.1,0-1.1,2,0,2h2.9c0.5,0,0.8-0.4,0.8-1C28.2,23.5,27.8,23,27.4,23z"/>
	<path class="st1" d="M39.3,51.7c0-0.5-0.3-0.8-0.6-0.8h-2.3c-0.9,0-0.8,1.7,0,1.7h2.3C39,52.5,39.3,52.2,39.3,51.7z"/>
	<path class="st1" d="M45.8,50.9h-2.3c-0.9,0-0.8,1.7,0,1.7h2.3c0.4,0,0.6-0.4,0.6-0.8C46.4,51.2,46.1,50.9,45.8,50.9z"/>
</g>
</svg>
