<?xml version="1.0" encoding="utf-8"?>
<!-- Generator: Adobe Illustrator 22.0.1, SVG Export Plug-In . SVG Version: 6.00 Build 0)  -->
<svg version="1.1" id="Layer_1" xmlns="http://www.w3.org/2000/svg" xmlns:xlink="http://www.w3.org/1999/xlink" x="0px" y="0px"
	 viewBox="0 0 600 600" style="enable-background:new 0 0 600 600;" xml:space="preserve">
<style type="text/css">
	.st0{fill:#B5916F;}
	.st1{fill:#212324;}
	.st2{font-family:'OpenSans-Italic';}
	.st3{font-size:55.301px;}
	.st4{fill:#004289;}
	.st5{fill:#018BD2;}
	.st6{fill:none;}
	.st7{fill:#008BD2;}
</style>
<text transform="matrix(1 0 0 1 135.4734 500.5153)" class="st1 st2 st3">Asistencia</text>
<g>
	<path class="st5" d="M436.5,330.8c-3.4,0-6.5-1.4-8.6-3.8c-2.1-2.5-2.9-5.8-2.3-9.4c1.3-7.1,8.2-13,15.4-13c3.4,0,6.5,1.3,8.5,3.8
		c2.1,2.5,2.9,5.8,2.3,9.4C450.5,325,443.7,330.8,436.5,330.8z M441,305.7c-6.6,0-13.2,5.6-14.4,12.1c-0.6,3.2,0.2,6.2,2.1,8.5
		c1.9,2.2,4.6,3.5,7.8,3.5c6.7,0,13.1-5.5,14.3-12.2c0.6-3.2-0.2-6.3-2.1-8.6C446.9,306.9,444.1,305.7,441,305.7z"/>
	<path class="st6" d="M501,279.1c-1.8-0.5-12.8-2.7-19.2-2.7c0,0,1.8,15.9,18.4,15.9c4,0,5.1-0.1,5.1-0.1s-0.4-9.1-0.8-10.1
		C504.2,281.2,502.8,279.5,501,279.1z"/>
	<path class="st6" d="M418.4,203.6c-1.2,10.2-2.8,35.6-3.3,43.5c12.5,1.1,26.3,2,37.1,2c0,0-29.8-41.5-31.9-43.9
		C419.7,204.5,419,203.9,418.4,203.6z"/>
	<path class="st5" d="M434.2,348.4c-8.3,0-15.6-3.3-20.6-9.3c-5-6-7-13.9-5.5-22.3c2.8-16.4,18.6-29.8,35.2-29.8
		c8.3,0,15.6,3.2,20.5,9.1c5,6,7,13.9,5.5,22.3C466.5,335,450.7,348.4,434.2,348.4z M443.3,296.3c-12.1,0-24,10.2-26.1,22.2
		c-1,5.6,0.2,10.9,3.5,14.8c3.2,3.8,8,6,13.5,6c12,0,24-10.2,26.1-22.3c1-5.7-0.3-11-3.5-14.8C453.6,298.4,448.8,296.3,443.3,296.3z
		 M436.5,334.9c-4.6,0-8.9-1.9-11.7-5.3c-2.9-3.4-4-8.1-3.2-12.7c1.6-9,10.3-16.3,19.4-16.3c4.7,0,8.8,1.9,11.6,5.2
		c2.8,3.4,4,8,3.2,12.7C454.2,327.7,445.8,334.9,436.5,334.9z M441,309.8c-4.7,0-9.5,4.1-10.3,8.8c-0.4,2,0.1,3.8,1.2,5.2
		c1.1,1.3,2.7,2,4.6,2c4.7,0,9.4-4,10.2-8.8c0.4-2.1,0-3.9-1.2-5.2C444.5,310.5,442.9,309.8,441,309.8z"/>
	<path class="st5" d="M181.7,330.8c-3.4,0-6.4-1.3-8.5-3.8c-2.1-2.5-3-5.9-2.4-9.4c1.4-7.2,8.3-13,15.4-13c3.5,0,6.5,1.4,8.6,3.8
		c2.1,2.5,2.9,5.8,2.3,9.3C195.7,325,188.8,330.8,181.7,330.8z M186.1,305.7c-6.6,0-13,5.4-14.4,12.1c-0.5,3.3,0.3,6.3,2.2,8.6
		c1.9,2.2,4.6,3.4,7.7,3.4c6.7,0,13.1-5.5,14.3-12.2c0.6-3.2-0.2-6.2-2.1-8.5C192,306.9,189.3,305.7,186.1,305.7z"/>
	<path class="st6" d="M414.5,202.7c-1.3,0-28.5-1.3-30.3-1.3c-1.7,0-3.9,1.8-4.3,3.8c-0.5,2.1-2.5,28.3-2.7,30.4
		c-0.3,2.1,1.4,7.7,8.1,8.5c3.3,0.4,14,1.6,26.8,2.8c0.7-8.8,3.1-36,3.8-44.1C415.3,202.7,414.8,202.7,414.5,202.7z"/>
	<path class="st5" d="M179.3,348.4c-8.3,0-15.6-3.3-20.6-9.2c-5-6-7-13.9-5.4-22.3c3-16.7,18.5-29.8,35.2-29.8
		c8.3,0,15.7,3.3,20.6,9.2c5,6,6.9,13.9,5.4,22.3C211.6,335,195.8,348.4,179.3,348.4z M188.4,296.3c-12.2,0-23.9,10-26.1,22.3
		c-1,5.6,0.2,10.9,3.5,14.7c3.2,3.8,8,5.9,13.5,5.9c12,0,24-10.2,26.1-22.3c1-5.7-0.2-10.9-3.4-14.8
		C198.8,298.4,194,296.3,188.4,296.3z M181.7,334.9c-4.6,0-8.8-1.8-11.6-5.2c-2.9-3.4-4.1-8-3.4-12.7l0-0.2
		c1.8-9.1,10.4-16.2,19.4-16.2c4.6,0,8.9,1.9,11.7,5.3c2.9,3.4,4,8,3.2,12.7C199.4,327.6,190.7,334.9,181.7,334.9z M175.7,318.6
		c-0.3,2,0.2,3.9,1.3,5.2c1.1,1.3,2.7,2,4.6,2c4.7,0,9.5-4.1,10.3-8.8c0.4-2-0.1-3.8-1.2-5.1c-1.1-1.3-2.7-2-4.7-2
		C181.5,309.8,176.8,313.8,175.7,318.6z"/>
	<path class="st7" d="M319.1,331.7h-37.4c-1.3,0-2.6-0.6-3.5-1.6c-0.3-0.3-0.5-0.6-0.6-0.9h-59.8c-4.4,0-8.1-2.7-9-6.6
		c0-0.1,0-0.1,0-0.2c-0.1-0.8-0.1-1.8-0.1-3.5c0-5,0.1-16.6-4.9-21.6c-1.6-1.6-3.7-2.4-6.4-2.4c-0.8,0-1.5-0.2-2.5-0.4
		c-1.4-0.3-3.6-0.9-5.8-0.9c-2.9,0-6.2,0.7-7.6,1c-0.7,0.2-1.1,0.2-1.7,0.2c-10.7,0-16.6,13.5-20.6,22.4c-2.1,4.7-3.3,7.5-5.5,9
		c-0.1,0.1-0.2,0.1-0.4,0.2c-1.4,0.8-2.8,1-3.8,1.2c-0.3,0-0.6,0.1-0.8,0.2c-0.7,0.4-1.4,0.5-2.2,0.5h-1c-1,0.6-2.2,0.8-3.3,0.7
		c-2.8-0.2-6.2-0.1-9.4,0c-7.9,0.3-15.3,0.5-20.3-2.8c-9.2-1-14.4-4.8-15.6-11.4c-0.1-0.6-0.1-1.2,0-1.8c0.3-1.4,0.6-2.9,0.8-4.3
		c0.2-1,0.4-2.1,0.6-3.1c0.2-1.2,0.9-2.2,1.9-2.9c0.3-0.4,0.7-0.8,1.1-1.1c0.9-8.1,2.5-16.7,4-25.1c0.5-3.1,1.1-6.1,1.6-9.2
		c0.1-0.7,0.4-1.8,1.3-2.8c4.7-24,10.5-45.3,16.6-67.8c0.9-3.3,1.8-6.7,2.7-10.1c0.1-0.7,0.4-1.5,1.1-2.3c0.1-0.3,0.1-0.7,0.2-1
		l0.1-0.5c0.2-0.9,0.6-1.8,1.3-2.4c0.1-0.2,0.3-0.7,0.4-1.1c0.3-0.9,0.6-1.8,1.2-2.8c1.4-10,7.2-16.3,16.5-17.7c0.2,0,0.4,0,0.7,0
		h44.4l1.2-6.6h-7.7c-1.4,0-2.6-0.6-3.5-1.6s-1.2-2.4-1-3.7l2.3-13.7c0.4-2.2,2.3-3.8,4.5-3.8h146.8c1.4,0,2.6,0.6,3.5,1.6
		s1.2,2.4,1,3.8l-2.4,13.7c-0.4,2.2-2.3,3.8-4.5,3.8h-9.4l-1.2,6.6h19.8l-0.8-1.7c-0.7-1.6-0.5-3.5,0.6-4.8l6.2-7.6
		c0.9-1.1,2.2-1.7,3.6-1.7h18.6c1.8,0,3.4,1.1,4.2,2.7l3.5,7.7c0.7,1.6,0.5,3.5-0.7,4.9l-1.2,1.4c1.6,0.2,3.1,0.3,4.7,0.5
		c1.4,0.2,2.8,0.3,4.2,0.5c0.8,0,1.7,0.2,2.4,0.7h0.4c1-0.1,1.9,0.2,2.7,0.6c0.5,0,1.1,0.1,1.6,0.3c0.6,0.2,1.3,0.5,1.9,0.7
		c4.1,1.5,8.6,3.1,12.1,6.3c3.5,1.8,6.6,4.3,9.5,7.7c0.8,0.3,1.5,0.8,2.1,1.5l1,1.2c1.3,1.7,2.7,3.4,3.9,5c3.3,3.8,6,6.6,8.7,8.9
		c0.2,0.2,0.3,0.3,0.5,0.5c11,12.6,22.4,26.4,33,40.3c0.9-0.1,1.7-0.1,2.3,0.1c2.4,0.5,3.8,2.2,4.7,3.8c1.9,0.1,3.6,1.3,4.3,3.2
		c0.3,1,1.1,1.8,2,3c0.4,0.4,0.7,0.9,1.1,1.4c10,7.4,18.9,14.5,27,21.7c0.4,0.4,0.8,0.8,1,1.3c0.3,0.6,0.8,1.3,1.2,2
		c1.3,2.1,2.9,4.7,3.4,8.2c0.1,0.6,0.1,1.2-0.1,1.8c0,0,0,0.1,0.1,0.1c0.5,0.7,1.2,2,1.5,3.7c0.1,0.5,0.1,0.9,0,1.4
		c0,0.2-0.1,0.5-0.1,0.7c-0.1,0.9-0.3,1.9-0.7,3c0.2,0.5,0.3,1.1,0.4,1.7c0.1,1.2-0.3,2.3-1,3.3c0,0.1-0.1,0.1-0.1,0.2
		c1.3,1.3,1.6,2.9,1.6,4c0,0.6-0.1,1.2-0.4,1.8c-0.2,0.4-0.4,0.7-0.6,1c0.6,1,0.8,2.2,0.5,3.3l0,0.2c-1,5.4-3.3,18.2-23.9,21.5
		c-2.9,0.4-7.2,0.6-12.6,0.8c-2.1,0.1-4.3,0.2-6.7,0.3c-1.7,0.1-3.3-0.5-4.5-1.7c-0.7-0.7-2.8-2.8-2.7-9.6
		c0.2-19.9-8.1-23.4-15.5-24.1c-0.4,0-1,0-2.1,0c-1.9,0-6.6,0.1-8.1,0.2c-0.4,0.1-0.8,0.2-1.2,0.2c-13.8,0-21.6,20.9-24.4,29.9
		l-0.1,0.5c0,0.1,0,0.1-0.1,0.2c-1.1,3.2-5.2,5.7-7.8,5.7c-14.1,0.3-28.5,0.2-42.4,0.2c-12.7,0-25.8-0.1-38.8,0.1
		c-0.2,0.3-0.3,0.5-0.5,0.7C321.7,331.1,320.5,331.7,319.1,331.7z M285.8,322.5h29.8c0.8-1.3,2.2-2.2,3.9-2.3
		c14.1-0.3,28.5-0.2,42.4-0.2c13.6,0,27.7,0.1,41.6-0.2c0,0,0,0,0.1,0c7.1-23.2,18.8-36.1,32.9-36.2c1.1-0.2,2.3-0.2,3.4-0.3
		c1.9-0.1,4.2-0.1,6-0.1c1,0,1.8,0,2,0c0.2,0,0.5,0,0.7,0c20.2,1.8,24.3,19.2,24.1,33.4c0,0.8,0,1.4,0.1,1.9
		c1.5-0.1,2.9-0.1,4.3-0.2c5.2-0.2,9.3-0.4,11.6-0.8c11.1-1.8,14.2-6.5,15.5-10.8c0,0,0-0.1-0.1-0.1c-0.9-1-1.3-2.3-1.1-3.6
		c0.1-0.8,0.3-2.2,0.6-3.4c-0.4-0.6-0.7-1.3-0.8-2c-0.1-0.5-0.1-1.1,0-1.7c-0.4-0.8-0.6-1.8-0.5-3c0.2-1.4,0.8-2.4,1.6-3.2
		c0-0.3,0-0.7,0-1c0.1-1,0.5-1.9,1.2-2.6c0-0.1,0-0.2,0.1-0.4c-0.7-1-1.9-3-1.4-6.1c-0.4-1.4-1.1-2.6-2-4c-0.4-0.6-0.7-1.2-1.1-1.8
		c-7.9-6.9-16.5-13.8-26.3-21c-0.4-0.3-0.7-0.6-1-1c-0.3-0.5-0.8-1-1.2-1.5c-0.7-0.8-1.5-1.7-2.2-2.9c-1.8,0-3.4-1-4.1-2.6
		c0-0.1-0.1-0.2-0.1-0.3c-0.5,0.1-1,0.2-1.6,0.1c-1.3-0.1-2.5-0.8-3.3-1.8c-11.1-14.5-23.1-29.2-34.7-42.5c-3.1-2.6-6-5.7-9.6-9.8
		c0-0.1-0.1-0.1-0.1-0.2c-1.2-1.6-2.6-3.3-3.9-4.9c-0.7-0.3-1.4-0.7-2-1.5c-2.6-3.1-5.2-5.3-8.1-6.8c-0.4-0.2-0.8-0.5-1.2-0.8
		c-2.1-2.1-5.6-3.3-9.3-4.7c-0.4-0.1-0.8-0.3-1.2-0.4h-0.6c-1,0.1-1.9-0.2-2.7-0.6h-0.3c-1.1,0.1-2.1-0.1-3-0.6
		c-0.1-0.1-0.2-0.1-0.3-0.2c-1-0.1-2-0.2-3-0.3c-3.6-0.4-7-0.8-11.2-0.9c-0.7,0-1.3-0.2-1.8-0.4H367c-1.4,0-2.7-0.6-3.5-1.7
		c-0.9-1.1-1.2-2.4-1-3.8l0.6-3c0.4-2.2,2.3-3.8,4.5-3.8h0.7l1-1.2l-1.1-2.4h-13.4l-3,3.7c1.3,0,2.5,0.6,3.3,1.6
		c0.9,1,1.2,2.4,1,3.8l-0.5,2.9c-0.4,2.2-2.3,3.8-4.5,3.8h-33.5c-1.4,0-2.7-0.6-3.5-1.6s-1.2-2.4-1-3.8l2.8-15.8
		c0.4-2.2,2.3-3.8,4.5-3.8h9.4l0.8-4.5H193.1l-0.8,4.5h7.8c1.4,0,2.7,0.6,3.5,1.6c0.9,1,1.2,2.4,1,3.8l-2.8,15.8
		c-0.4,2.2-2.3,3.8-4.5,3.8h-47.9c-3.6,0.6-7.6,2.4-8.5,10.7c-0.1,0.9-0.5,1.8-1.1,2.5c-0.1,0.2-0.3,0.7-0.4,1
		c-0.3,1-0.8,2.2-1.6,3.4c-0.1,0.4-0.1,0.8-0.1,1.1c0,0.8-0.3,2.1-1.5,3.3c-0.8,3-1.6,6-2.4,9c-6.1,22.7-11.9,44.2-16.6,68.3
		c-0.1,1-0.5,2-1.2,2.9c-0.5,2.6-0.9,5.2-1.4,7.9c-1.7,9.7-3.4,19-4.2,27.6c-0.1,1.2-0.7,2.3-1.6,3.1c-0.5,0.5-1.1,0.8-1.7,1
		c0,0.2-0.1,0.4-0.1,0.7c-0.2,1.2-0.4,2.3-0.7,3.4c0.5,1.2,2,2.8,8.5,3.3c1,0.1,2,0.5,2.7,1.2c2.1,1.9,9.6,1.6,15.1,1.4
		c2.9-0.1,6-0.2,8.8-0.1c0.7-0.4,1.3-0.5,1.8-0.6c0.2,0,0.4,0,0.6,0h1.9c0.9-0.3,1.7-0.5,2.3-0.6c0.1,0,0.3,0,0.4-0.1
		c0.6-1,1.6-3.2,2.4-5c4.6-10.3,12.2-27.6,28.6-27.9c0.1,0,0.1,0,0.2,0c1.7-0.4,5.6-1.2,9.5-1.2c3.3,0,6.3,0.7,8,1.1
		c0.3,0.1,0.5,0.1,0.7,0.2c5.1,0.1,9.3,1.8,12.6,5.1c7.7,7.7,7.6,21.5,7.5,28.1c0,0.3,0,0.7,0,1h63.9c1.5,0,2.8,0.7,3.7,1.9
		C285.6,322.1,285.7,322.3,285.8,322.5z M144.1,320.2C144.1,320.2,144.1,320.2,144.1,320.2C144.1,320.2,144.1,320.2,144.1,320.2z
		 M144.1,320.2C144.1,320.2,144.1,320.2,144.1,320.2C144.1,320.2,144.1,320.2,144.1,320.2z M403.3,320L403.3,320L403.3,320z
		 M404.2,319.9c0,0-0.1,0-0.1,0C404.1,319.9,404.2,319.9,404.2,319.9C404.2,319.9,404.2,319.9,404.2,319.9z M505,303.1
		C505,303.1,505,303.1,505,303.1C505,303.1,505,303.1,505,303.1z M509.8,299L509.8,299L509.8,299z M441.3,288.3
		c0,1.2-0.4,2.3-1.2,3.1C440.8,290.6,441.3,289.5,441.3,288.3z M505.4,286.4L505.4,286.4L505.4,286.4z M179.7,285.8
		C179.7,285.8,179.6,285.8,179.7,285.8C179.7,285.8,179.7,285.8,179.7,285.8C179.7,285.8,179.7,285.8,179.7,285.8z M197.4,285.8
		C197.4,285.8,197.4,285.8,197.4,285.8C197.4,285.8,197.4,285.8,197.4,285.8z M467.9,243.5L467.9,243.5L467.9,243.5z M136.8,187.9
		L136.8,187.9L136.8,187.9z M128.5,186.9C128.5,186.9,128.5,186.9,128.5,186.9S128.5,186.9,128.5,186.9z M139.7,181.8
		C139.7,181.8,139.7,181.8,139.7,181.8C139.7,181.8,139.7,181.8,139.7,181.8z M139.9,181.6C139.9,181.6,139.9,181.6,139.9,181.6
		L139.9,181.6z M417.8,178.6C417.8,178.6,417.8,178.7,417.8,178.6C417.8,178.7,417.8,178.6,417.8,178.6z M417.8,178.6
		C417.8,178.6,417.8,178.6,417.8,178.6C417.8,178.6,417.8,178.6,417.8,178.6z M389.8,170.9C389.8,170.9,389.8,170.9,389.8,170.9
		C389.8,170.9,389.8,170.9,389.8,170.9z M365.6,166.2C365.6,166.2,365.6,166.2,365.6,166.2C365.6,166.2,365.6,166.2,365.6,166.2z"/>
	<path class="st7" d="M312.7,168.4H200.8l4.3-25h112L312.7,168.4z M211.7,159.2H305l1.2-6.6h-93.3L211.7,159.2z"/>
	<path class="st7" d="M412.1,251.5c-0.1,0-0.3,0-0.4,0c-12.8-1.2-23.4-2.4-26.9-2.9c-5-0.6-7.9-3.1-9.4-5.1c-1.9-2.5-3-5.8-2.7-8.5
		c0.1-0.6,0.3-3.3,0.5-6.3c1.4-17.1,1.9-22.9,2.3-24.5l0,0c0.9-4.1,4.9-7.5,8.8-7.5c1,0,7.2,0.3,17.3,0.8c5.7,0.3,12.3,0.6,13,0.6
		c0.4,0,1,0,1.8,0.1c2.5,0.3,4.3,2.5,4.1,5c-0.7,8.3-3.1,35.5-3.8,44.1c-0.1,1.2-0.7,2.4-1.6,3.2
		C414.2,251.1,413.1,251.5,412.1,251.5z M381.7,236c0,0.3,0.4,3,4.1,3.4c0,0,0.1,0,0.1,0c3,0.4,11.7,1.4,22,2.4
		c0.8-9.3,2.2-25.4,3-34.7c-2.1-0.1-5.3-0.2-9.7-0.4c-6.2-0.3-14.5-0.7-16.5-0.7c-0.1,0.1-0.2,0.2-0.2,0.3
		c-0.3,1.7-1.5,16.2-2.1,23.2C382,233.4,381.8,235.4,381.7,236C381.7,236,381.7,236,381.7,236z M381.7,236.1
		C381.7,236.1,381.7,236.1,381.7,236.1C381.7,236.1,381.7,236.1,381.7,236.1z"/>
	<path class="st7" d="M452.2,253.7c-9.2,0-21.4-0.7-37.5-2c-2.5-0.2-4.4-2.4-4.2-4.9c0.2-3.3,2.1-32.5,3.4-43.8
		c0.2-1.5,1.1-2.9,2.5-3.6c1.4-0.7,3-0.7,4.3,0.1c1.1,0.6,2.2,1.5,3.2,2.7c2.8,3.2,27.2,37.3,32.2,44.2c1,1.4,1.1,3.2,0.4,4.8
		C455.5,252.8,453.9,253.7,452.2,253.7z M420,242.9c9,0.7,16.7,1.2,23.2,1.4c-7.3-10.2-15.8-22-21.2-29.3
		C421.2,224.7,420.4,236.4,420,242.9z"/>
	<path class="st7" d="M500.2,296.9c-16.4,0-22.2-13.1-23-20c-0.1-1.3,0.3-2.6,1.1-3.6c0.9-1,2.1-1.5,3.4-1.5
		c6.8,0,17.9,2.2,20.3,2.9c3.5,0.8,6.1,3.7,6.9,6.1c0.2,0.5,0.5,1.6,1,11.3c0.1,2.4-1.7,4.5-4.1,4.8
		C505.5,296.8,504.2,296.9,500.2,296.9z M488.3,281.5c1.8,3.1,5.3,6.2,11.9,6.2c0.1,0,0.2,0,0.2,0c-0.1-1.7-0.2-3.2-0.3-4
		c-0.1,0-0.1-0.1-0.2-0.1c-0.1,0-0.1,0-0.2-0.1C498.7,283.2,493.4,282.2,488.3,281.5z"/>
	<g>
		<g>
			<path class="st7" d="M182.3,212.5c-2.4,15.1,12.3,17,17.7,17c10.5,0,22.5-3.9,24.7-16.2c1.4-8.7-4.5-11.8-10.9-13.6
				c-6.4-1.9-12.9-2.6-12.5-5.9c0.4-2.7,3.7-3.2,5.7-3.2c1.4,0,3.1,0.3,4.1,1.2c1.2,0.8,1.6,2,1.2,3.8h13.7
				c1.6-11.6-6.7-15.4-17-15.4c-9.7,0-19.8,4.6-21.7,15.5c-1.7,9.6,6.4,11.7,13.6,13.7c7.7,2.3,9.6,2.9,9.2,5.4
				c-0.6,3.5-4.4,4.3-6.8,4.3c-2.8,0-5.8-0.7-6.3-3.4c-0.2-0.9-0.2-1.9,0-3.2H182.3z"/>
			<polygon class="st7" points="229.3,228.3 243.8,228.3 252.1,181.2 237.6,181.2 			"/>
			<path class="st7" d="M253.3,212.5c-2.6,15.1,12.4,17,17.7,17c10.5,0,22.5-3.9,24.7-16.2c1.6-8.7-4.4-11.8-10.9-13.6
				c-6.3-1.9-12.9-2.6-12.7-5.9c0.4-2.7,3.9-3.2,5.8-3.2c1.6,0,3.1,0.3,4.1,1.2c1,0.8,1.6,2,1,3.8h13.8c1.7-11.6-6.7-15.4-16.9-15.4
				c-9.8,0-19.9,4.6-21.8,15.5c-1.7,9.6,6.4,11.7,13.6,13.7c7.7,2.3,9.6,2.9,9.2,5.4c-0.6,3.5-4.4,4.3-6.7,4.3
				c-2.7,0-5.8-0.7-6.4-3.4c-0.2-0.9-0.2-1.9,0-3.2H253.3z"/>
			<path class="st7" d="M336.1,181.2h-14l-25.9,47.1h14.7l3.3-6.7h14.9l0.8,6.7h15L336.1,181.2z M319.2,211.5l7.1-14.5h0.1l1.8,14.5
				H319.2z"/>
		</g>
		<g>
			<path class="st7" d="M171.1,277.5h-2.7l-2-11.3h-12.5l-5.9,11.3h-2.7l17.4-33.2h2.8L171.1,277.5z M166.2,264l-1.9-10.8
				c-0.4-2.3-0.4-4.2-0.6-6.1h-0.2c-0.7,2-1.7,3.9-2.7,6L155,264H166.2z"/>
			<path class="st7" d="M194.8,247.7c-0.7-0.7-2.7-1.6-5.4-1.6c-5.1,0-7.4,3.3-7.8,5.8c-0.7,3.7,1.1,5.5,5.4,7.4
				c5,2.2,7.3,4.9,6.5,9.7c-0.9,5-5.3,9.1-12.2,9.1c-2.9,0-5.9-0.9-7.4-2.2l1.4-2.3c1.5,1.3,4,2.2,6.8,2.2c4.7,0,8-2.7,8.7-6.6
				c0.7-3.6-0.8-5.9-5.2-7.7c-4.7-1.8-7.6-4.7-6.7-9.2c0.8-5,5.4-8.4,11.2-8.4c3,0,5.3,0.7,6.2,1.5L194.8,247.7z"/>
			<path class="st7" d="M203,244.3h2.6l-5.8,33.2h-2.7L203,244.3z"/>
			<path class="st7" d="M226.3,247.7c-0.7-0.7-2.7-1.6-5.6-1.6c-5,0-7.4,3.3-7.9,5.8c-0.6,3.7,1.2,5.5,5.4,7.4
				c5.1,2.2,7.4,4.9,6.5,9.7c-0.9,5-5.3,9.1-12.2,9.1c-2.9,0-6-0.9-7.5-2.2l1.3-2.3c1.7,1.3,4.1,2.2,6.8,2.2c4.8,0,8.1-2.7,8.8-6.6
				c0.6-3.6-0.9-5.9-5.1-7.7c-4.7-1.8-7.6-4.7-6.8-9.2c0.8-5,5.5-8.4,11.2-8.4c3.1,0,5.3,0.7,6.2,1.5L226.3,247.7z"/>
			<path class="st7" d="M253.2,246.7h-10.3l-5.4,30.9h-2.7l5.4-30.9h-10.3l0.4-2.3h23.4L253.2,246.7z"/>
			<path class="st7" d="M267.5,277.5h-17.2l5.9-33.2h16.3l-0.3,2.3h-13.7l-2.2,12.3h12.9l-0.4,2.2h-12.9l-2.5,14h14.4L267.5,277.5z"
				/>
			<path class="st7" d="M295.3,277.5h-2.4l-8.7-18.7c-1.7-3.9-3.2-7.4-4.3-10.9l-0.1,0.1c-0.4,4.1-1.1,7.8-2.1,13.4l-2.8,16.1h-2.6
				l5.8-33.2h2.7l8.7,19c1.9,4.1,3.3,7.3,4.2,10.6l0.2-0.1c0.4-4.5,1.1-8.3,1.9-13.5l2.9-15.9h2.6L295.3,277.5z"/>
			<path class="st7" d="M324.3,276.5c-1.7,0.8-4.9,1.6-8.8,1.6c-8.1,0-14.5-5.2-12.4-16.9c1.9-10.3,9.4-17.3,19.6-17.3
				c4.4,0,6.4,0.9,7.2,1.3l-1.3,2.3c-1.4-0.8-3.6-1.5-6.3-1.5c-8.4,0-14.8,5.6-16.4,15.1c-1.6,9.1,2.4,14.6,10.9,14.6
				c2.7,0,5.4-0.7,7.3-1.6L324.3,276.5z"/>
			<path class="st7" d="M334.6,244.3h2.7l-5.8,33.2h-2.8L334.6,244.3z"/>
			<path class="st7" d="M361.8,277.5H359l-1.9-11.3h-12.5l-5.9,11.3h-2.8l17.5-33.2h2.8L361.8,277.5z M356.8,264l-1.8-10.8
				c-0.4-2.3-0.6-4.2-0.7-6.1h-0.1c-0.8,2-1.8,3.9-2.9,6l-5.7,10.9H356.8z"/>
		</g>
	</g>
</g>
</svg>
