<svg id="Layer_1" data-name="Layer 1" xmlns="http://www.w3.org/2000/svg" viewBox="0 0 74.82 79.62"><defs><style>.cls-1{fill:#135fa7;}</style></defs><title>auto</title><path class="cls-1" d="M66.66,56.35H55a3.49,3.49,0,0,0-3.49,3.49v2.32a1.15,1.15,0,0,0,1.15,1.17H63.16a4.66,4.66,0,0,0,4.66-4.64V57.53a1.16,1.16,0,0,0-1.14-1.18ZM63.16,61h-9.3V59.84A1.17,1.17,0,0,1,55,58.67H65.49A2.33,2.33,0,0,1,63.16,61Z"/><path class="cls-1" d="M31.76,56.35H20.13A1.16,1.16,0,0,0,19,57.51v1.18a4.66,4.66,0,0,0,4.66,4.64H34.08a1.16,1.16,0,0,0,1.16-1.17V59.84A3.49,3.49,0,0,0,31.76,56.35ZM32.93,61H23.62a2.33,2.33,0,0,1-2.32-2.31H31.76a1.16,1.16,0,0,1,1.17,1.16Z"/><path class="cls-1" d="M72.47,65.87v-8a7,7,0,0,0-4.15-6.37l-2.28-1H69V48.22H64.77L62.29,41a8.31,8.31,0,0,0-7.92-5.56h-22A8.3,8.3,0,0,0,24.49,41L22,48.22H17.8v2.33h2.14l-1.82,1a6.92,6.92,0,0,0-3.78,6.2v8.18A3.52,3.52,0,0,0,12,69.16v1.16a3.49,3.49,0,0,0,3.49,3.49h1.16v2.33a3.51,3.51,0,0,0,3.47,3.48h4.65a3.5,3.5,0,0,0,3.49-3.49V73.8h5.81V75a1.18,1.18,0,0,0,1.17,1.17H51.54A1.16,1.16,0,0,0,52.7,75h0V73.8h5.81v2.33A3.51,3.51,0,0,0,62,79.62h4.66a3.51,3.51,0,0,0,3.49-3.49V73.8h1.16a3.49,3.49,0,0,0,3.49-3.49V69.15A3.47,3.47,0,0,0,72.47,65.87ZM26.7,41.72a6,6,0,0,1,5.71-4h22a6,6,0,0,1,5.71,4l2.65,7.73-4.55,1.3-1.47-2.94a3.49,3.49,0,0,0-3.12-1.93h-4.1a3.48,3.48,0,0,0-3.12,1.93.61.61,0,0,0,0,.12l-1.4,3.77H39.55l-1.42-3.81a.54.54,0,0,0-.05-.11A3.45,3.45,0,0,0,35,45.88H30.85a3.48,3.48,0,0,0-3.12,1.93l-1.25,2.51L24,49.7Zm29.18,9.69-1.28.31H47.39l1.08-2.9a1.15,1.15,0,0,1,1-.6H53.6a1.15,1.15,0,0,1,1,.65Zm-18.83.31H32.16l-3.34-.82,1-2a1.17,1.17,0,0,1,1-.65H35a1.15,1.15,0,0,1,1,.6ZM15.47,71.47a1.16,1.16,0,0,1-1.16-1.16V69.15A1.16,1.16,0,0,1,15.47,68H21.7a4,4,0,0,0,0,3.49H15.47Zm10.47,4.66a1.16,1.16,0,0,1-1.16,1.16H20.13A1.17,1.17,0,0,1,19,76.13V73.8h7Zm-.58-4.66a1.75,1.75,0,1,1,1.75-1.75h0A1.75,1.75,0,0,1,25.36,71.47Zm8.72,0H29A4,4,0,0,0,29,68h5ZM50.37,73.8h-14V68h14Zm6.22-2.33h-3.9V68h3.9a3.9,3.9,0,0,0,0,3.49Zm-5.05-5.82H16.64v-8a4.65,4.65,0,0,1,2.51-4.14l3.45-1.77L31.44,54a1.33,1.33,0,0,0,.28,0H55a1.1,1.1,0,0,0,.31,0l1.51-.43,6.62-1.61,3.91,1.73a4.65,4.65,0,0,1,2.77,4.25v7.74Zm7,4.07a1.75,1.75,0,1,1,1.75,1.75h0a1.75,1.75,0,0,1-1.75-1.75Zm9.31,6.41a1.16,1.16,0,0,1-1.16,1.16H62a1.16,1.16,0,0,1-1.16-1.16V73.8h7Zm4.65-5.82a1.16,1.16,0,0,1-1.16,1.16H63.92a4,4,0,0,0,0-3.49h7.39a1.16,1.16,0,0,1,1.16,1.16v1.17Z"/><rect class="cls-1" x="37.57" y="56.35" width="11.63" height="2.32"/><rect class="cls-1" x="37.57" y="61" width="11.63" height="2.32"/><rect class="cls-1" x="34.08" y="10.98" width="2.32" height="2.32"/><path class="cls-1" d="M15.24,27.92a1.05,1.05,0,0,1-.81-.37l-2.1-2.46a1.07,1.07,0,0,1,.28-1.48,1.06,1.06,0,0,1,1.34.12l1.24,1.44,3-4a1.06,1.06,0,0,1,1.49-.23,1.08,1.08,0,0,1,.23,1.49h0L16.09,27.5a1,1,0,0,1-.82.42Z"/><path class="cls-1" d="M15.24,36a1,1,0,0,1-.81-.37l-2.1-2.46A1.06,1.06,0,0,1,14,31.81l1.24,1.45,3-4a1.07,1.07,0,0,1,1.72,1.27h0l-3.85,5.1a1,1,0,0,1-.82.42Z"/><path class="cls-1" d="M15.24,44.09a1.08,1.08,0,0,1-.81-.37l-2.1-2.46A1.07,1.07,0,0,1,14,39.89l1.24,1.45,3-4a1.06,1.06,0,0,1,1.48-.24,1.07,1.07,0,0,1,.24,1.49l-3.85,5.11a1.05,1.05,0,0,1-.82.43Z"/><path class="cls-1" d="M41.19,25.37H22.47a1.07,1.07,0,0,1-.13-2.13H41.19a1.07,1.07,0,0,1,.14,2.13Z"/><path class="cls-1" d="M41.19,33.45H22.47a1.06,1.06,0,1,1-.13-2.12H41.19a1.06,1.06,0,0,1,.14,2.12Z"/><g id="Payment_method" data-name="Payment method"><path class="cls-1" d="M60.82,5.31a14,14,0,1,0,14,14h0a14,14,0,0,0-14-14Zm0,25.66A11.67,11.67,0,1,1,72.49,19.31,11.66,11.66,0,0,1,60.82,31Z"/><path class="cls-1" d="M60.82,13.48a2.33,2.33,0,0,1,2.34,2.33h2.33a4.67,4.67,0,0,0-3.5-4.5V10H59.66v1.33a4.66,4.66,0,0,0,1.16,9.17,2.33,2.33,0,1,1-2.33,2.33H56.16a4.65,4.65,0,0,0,3.5,4.5v1.33H62V27.31a4.66,4.66,0,0,0-1.17-9.17,2.33,2.33,0,1,1,0-4.66Z"/></g><path class="cls-1" d="M50.39,26.7v7h2.27V29.16A12.93,12.93,0,0,1,50.39,26.7Z"/><path class="cls-1" d="M48,19.31c0-.37,0-.73,0-1.1V11.94a1.25,1.25,0,0,0-1.14-1.33H35.5V8H49.24a1.26,1.26,0,0,1,1.15,1.33v2.63a12.93,12.93,0,0,1,2.27-2.46V9.29a3.73,3.73,0,0,0-3.43-4H30.92C30.92,2.37,28.87,0,26.34,0s-4.58,2.37-4.58,5.31H3.43A3.74,3.74,0,0,0,0,9.29V75.63a3.75,3.75,0,0,0,3.43,4h7.13V77H3.43a1.24,1.24,0,0,1-1.14-1.33V9.29A1.25,1.25,0,0,1,3.43,8H17.18v2.65H5.73a1.26,1.26,0,0,0-1.15,1.33V73a1.26,1.26,0,0,0,1.15,1.33h4.83V71.65H6.87V13.27H17.18v2.65a1.24,1.24,0,0,0,1.15,1.33h16a1.24,1.24,0,0,0,1.14-1.33V13.27H45.81v20.4h2.27V20.41C48.05,20,48,19.68,48,19.31ZM26.34,2.65a2.48,2.48,0,0,1,2.28,2.66H24A2.51,2.51,0,0,1,26.34,2.65Zm6.88,11.94H19.48V8H33.22Z"/></svg>