<?xml version="1.0" encoding="utf-8"?>
<!-- Generator: Adobe Illustrator 22.0.1, SVG Export Plug-In . SVG Version: 6.00 Build 0)  -->
<svg version="1.1" id="Layer_1" xmlns="http://www.w3.org/2000/svg" xmlns:xlink="http://www.w3.org/1999/xlink" x="0px" y="0px"
	 viewBox="0 0 600 600" style="enable-background:new 0 0 600 600;" xml:space="preserve">
<style type="text/css">
	.st0{fill:#B5916F;}
	.st1{fill:#212324;}
	.st2{font-family:'OpenSans-Italic';}
	.st3{font-size:55.301px;}
	.st4{fill:#004289;}
	.st5{fill:#018BD2;}
	.st6{fill:none;}
	.st7{fill:#008BD2;}
</style>
<text transform="matrix(1 0 0 1 143.9091 492.7729)" class="st1 st2 st3">Automotores</text>
<g>
	<g>
		<path class="st4" d="M67.3,248.1c0.1,0.3,0.2,0.7,0.3,1c0,0.1,0,0.2,0.1,0.3l20.3,36c4.9,8.6,14,14,23.9,14h29.9
			c7.6,10.2,19.6,16.8,33.3,16.8c13.6,0,25.7-6.7,33.3-16.8h201.7c7.6,10.2,19.6,16.8,33.3,16.8c13.6,0,25.7-6.7,33.3-16.8H500
			c9.4,0,17.5-7,18.7-16.4l8.3-63.1c0,0,0,0,0-0.1c0,0,0,0,0,0l4.1-35.7c0.2-1.6-0.3-3.1-1.4-4.3c-1.1-1.2-2.6-1.9-4.1-1.9h-52.8
			c-1.8,0-3.5,0.9-4.5,2.4l-8.4,11.9c-49.6-15.4-119.1-33-175-32.3c-41.4,0.5-89.9,34.7-99,41.4C129.6,203.9,72,240.4,69.6,242
			c-0.2,0.1-0.3,0.3-0.4,0.4c-0.3,0.2-0.5,0.4-0.8,0.7c-0.2,0.3-0.4,0.6-0.6,0.9c-0.2,0.3-0.3,0.6-0.4,0.9c-0.1,0.4-0.2,0.8-0.2,1.2
			c0,0.2-0.1,0.4-0.1,0.6c0,0.1,0.1,0.2,0.1,0.3C67.1,247.4,67.2,247.7,67.3,248.1z M82.1,252.2H115l0,6.1l-24.3,9.2L82.1,252.2z
			 M285,171c33.8-0.5,73.2,6.2,110.1,14.9l-18.7,15.3H205.8C224.3,189.4,257.2,171.3,285,171z M519.3,189l-2.5,22.4
			c-8.6-3.2-24.8-9.1-45.8-15.8l4.6-6.6H519.3z M412.8,274.5c0-16.9,13.7-30.6,30.6-30.6c16.9,0,30.6,13.7,30.6,30.6
			c0,16.9-13.7,30.6-30.6,30.6C426.5,305.1,412.8,291.4,412.8,274.5z M144.5,274.5c0-16.9,13.7-30.6,30.6-30.6
			c16.9,0,30.6,13.7,30.6,30.6c0,16.9-13.7,30.6-30.6,30.6C158.2,305.1,144.5,291.4,144.5,274.5z M97.7,280l-1.4-2.6l26.4-10
			c2.2-0.8,3.6-2.9,3.6-5.2l-0.1-15.5c0-3.1-2.5-5.5-5.6-5.5H93.8c21.5-11.2,58.6-27.6,94.2-28.8h190.4c1.3,0,2.5-0.4,3.5-1.3
			l26.7-21.9c50.4,12.9,93.7,28.7,106.8,33.6l-7.8,58.7c-0.5,3.8-3.8,6.7-7.7,6.7h-17.3c1.5-4.3,2.5-8.9,2.5-13.8
			c0-23-18.7-41.7-41.8-41.7c-23,0-41.7,18.7-41.7,41.7c0,4.9,1,9.5,2.5,13.8H214.4c1.5-4.3,2.5-8.9,2.5-13.8
			c0-23-18.7-41.7-41.8-41.7c-23,0-41.8,18.7-41.8,41.7c0,4.9,1,9.5,2.5,13.8h-24C106,288.3,100.6,285.1,97.7,280z"/>
		<path class="st4" d="M443.4,318.1c-13.4,0-25.8-6.1-34.2-16.8H209.3c-8.4,10.7-20.8,16.8-34.2,16.8c-13.4,0-25.8-6.1-34.2-16.8
			h-29c-10.6,0-20.3-5.7-25.5-14.9l-20.3-36c-0.1-0.2-0.2-0.4-0.2-0.5c-0.1-0.3-0.2-0.7-0.3-1l-0.1-0.2l1.8-0.5l-1.8,0.4
			c-0.1-0.4-0.2-0.8-0.3-1.3c0-0.1-0.1-0.4-0.1-0.6c0-0.4,0.1-0.7,0.1-0.9c0,0,0,0,0,0c0.1-0.6,0.2-1,0.3-1.5
			c0.1-0.4,0.3-0.8,0.5-1.1c0.3-0.5,0.5-0.9,0.8-1.2c0.3-0.4,0.7-0.7,1-0.9c0.1-0.1,0.3-0.3,0.6-0.5c2.4-1.6,60-38.1,116.7-40.9
			c10.4-7.6,58.3-41,99.6-41.5c55.9-0.7,125.3,16.9,174.3,32l7.6-10.8c1.4-2,3.6-3.1,6-3.1h52.8c2.1,0,4.1,0.9,5.5,2.5
			c1.4,1.6,2.1,3.7,1.8,5.8l-4,35.6v0.5l-0.1,0.1l-8.3,62.7c-1.4,10.3-10.2,18-20.5,18h-22.4C469.3,312,456.8,318.1,443.4,318.1z
			 M207.5,297.6h203.6l0.6,0.7c7.7,10.2,19.3,16.1,31.8,16.1c12.5,0,24.1-5.9,31.8-16.1l0.6-0.7H500c8.5,0,15.7-6.4,16.9-14.8
			l8.3-62.6l0-0.1l0.1-0.4v-0.4l0.1-0.1l4-35.3c0.1-1.1-0.2-2.1-0.9-2.9c-0.7-0.8-1.7-1.2-2.8-1.2h-52.8c-1.2,0-2.3,0.6-3,1.6
			l-9.1,13l-1.3-0.4c-48.7-15.1-118.5-32.9-174.4-32.2c-40.8,0.5-88.8,34.3-97.9,41.1l-0.5,0.3l-0.6,0
			c-55.3,2.5-111.8,38.1-115.3,40.3c-0.1,0.1-0.2,0.2-0.4,0.4c-0.2,0.2-0.4,0.3-0.5,0.5c-0.2,0.2-0.3,0.4-0.4,0.6
			c-0.1,0.2-0.2,0.4-0.3,0.6c-0.1,0.2-0.1,0.4-0.1,0.8c0,0.1,0,0.3-0.1,0.4c0,0.1,0,0.2,0,0.2c0,0.2,0.1,0.4,0.2,0.7l-1.8,0.5
			l1.8-0.5l0,0.2c0.1,0.2,0.1,0.4,0.2,0.5c0.1,0.1,0.1,0.3,0.1,0.4l20.2,35.9c4.5,8,13.1,13,22.3,13h30.8l0.6,0.7
			c7.7,10.2,19.3,16.1,31.8,16.1s24.1-5.9,31.8-16.1L207.5,297.6z M65.3,247.1C65.3,247.1,65.3,247.1,65.3,247.1
			C65.3,247.1,65.3,247.1,65.3,247.1z M525.6,218.8C525.6,218.8,525.6,218.8,525.6,218.8L525.6,218.8z M443.4,307
			c-17.9,0-32.5-14.6-32.5-32.5c0-17.9,14.6-32.5,32.5-32.5c17.9,0,32.5,14.6,32.5,32.5C475.9,292.4,461.3,307,443.4,307z
			 M443.4,245.7c-15.9,0-28.8,12.9-28.8,28.8c0,15.9,12.9,28.8,28.8,28.8c15.9,0,28.8-12.9,28.8-28.8
			C472.2,258.6,459.3,245.7,443.4,245.7z M175.1,307c-17.9,0-32.5-14.6-32.5-32.5c0-17.9,14.6-32.5,32.5-32.5s32.5,14.6,32.5,32.5
			C207.6,292.4,193,307,175.1,307z M175.1,245.7c-15.9,0-28.8,12.9-28.8,28.8c0,15.9,12.9,28.8,28.8,28.8s28.8-12.9,28.8-28.8
			C203.9,258.6,191,245.7,175.1,245.7z M500,290.1H480l0.9-2.5c1.6-4.6,2.4-8.9,2.4-13.2c0-22-17.9-39.9-39.9-39.9
			c-22,0-39.9,17.9-39.9,39.9c0,4.3,0.8,8.6,2.4,13.2l0.9,2.5H211.8l0.9-2.5c1.6-4.6,2.4-8.9,2.4-13.2c0-22-17.9-39.9-39.9-39.9
			c-22,0-39.9,17.9-39.9,39.9c0,4.3,0.8,8.6,2.4,13.2l0.9,2.5h-26.6c-6.5,0-12.6-3.5-15.8-9.3l0,0l-2.5-4.4l28.4-10.8
			c1.5-0.6,2.4-1.9,2.4-3.5l-0.1-15.5c0-2-1.7-3.7-3.7-3.7H86.3l6.7-3.5c43.8-22.8,75.8-28.3,95-29l190.4,0c0.9,0,1.7-0.3,2.4-0.8
			l27.5-22.4l0.9,0.2c49,12.5,91.1,27.7,107,33.7l1.4,0.5l-8,60.2C508.8,286.6,504.8,290.1,500,290.1z M485.2,286.5H500
			c2.9,0,5.5-2.2,5.8-5.1l7.6-57.3c-16.6-6.2-57.2-20.7-104.3-32.8l-26,21.3c-1.3,1.1-3,1.7-4.7,1.7H188
			c-17.7,0.6-46.8,5.5-86.5,25.1h19c4.1,0,7.4,3.3,7.4,7.4l0.1,15.5c0,3.1-1.9,5.9-4.8,7l-24.4,9.2l0.4,0.7
			c2.6,4.6,7.4,7.4,12.6,7.4h21.4c-1.2-4.1-1.8-8-1.8-12c0-24,19.6-43.6,43.6-43.6c24,0,43.6,19.6,43.6,43.6c0,3.9-0.6,7.8-1.8,12
			h184.8c-1.2-4.1-1.8-8-1.8-12c0-24,19.6-43.6,43.6-43.6c24,0,43.6,19.6,43.6,43.6C487,278.4,486.4,282.3,485.2,286.5z M89.9,269.9
			l-11-19.5h37.9l0.1,9.3L89.9,269.9z M85.2,254.1l6.3,11.3l21.7-8.2l0-3H85.2z M518.4,214l-2.2-0.8c-9.7-3.6-25.5-9.3-45.7-15.8
			l-2.4-0.8l6.6-9.4h46.7L518.4,214z M474,194.6c17.7,5.7,31.9,10.8,41.3,14.3l2-18h-40.7L474,194.6z M377.1,203.1H199.5l5.3-3.4
			c17.6-11.3,51.5-30.2,80.2-30.5c29.7-0.5,66.9,4.6,110.5,15l3.6,0.9L377.1,203.1z M212.3,199.4h163.5l15.3-12.5
			c-41.8-9.7-77.4-14.4-106-14h0C260,173.1,230.5,188.3,212.3,199.4z"/>
	</g>
</g>
</svg>
