<?xml version="1.0" encoding="utf-8"?>
<!-- Generator: Adobe Illustrator 22.0.1, SVG Export Plug-In . SVG Version: 6.00 Build 0)  -->
<svg version="1.1" id="Layer_1" xmlns="http://www.w3.org/2000/svg" xmlns:xlink="http://www.w3.org/1999/xlink" x="0px" y="0px"
	 viewBox="0 0 600 600" style="enable-background:new 0 0 600 600;" xml:space="preserve">
<style type="text/css">
	.st0{fill:#B5916F;}
	.st1{fill:#212324;}
	.st2{font-family:'OpenSans-Italic';}
	.st3{font-size:55.301px;}
	.st4{fill:#004289;}
	.st5{fill:#018BD2;}
	.st6{fill:none;}
	.st7{fill:#008BD2;}
</style>
<text transform="matrix(1 0 0 1 215.912 500.5153)" class="st1 st2 st3">Correo</text>
<g>
	<path class="st0" d="M298.8,276.2h-0.3c-3.1,0-6.5-0.6-10-1.8c-3.3-1.1-6.8-2.8-10.5-4.9c-3.4-2-6.3-3.8-8.7-5.5
		c-2.4-1.6-5.4-3.7-8.9-6.3c-3.5-2.5-5.8-4.1-6.8-4.9c-10.4-7.3-24.7-17.2-42.5-29.6c-19.4-13.4-29.7-20.6-33.3-23.1
		c-7.2-4.9-14.1-11.7-20.4-20.1c-6.7-9-10.1-17.6-10.1-25.7c0-9.8,2.7-18.1,8-24.8c5.7-7.1,13.7-10.7,23.9-10.7h238.8
		c8.6,0,16.2,3.1,22.5,9.4c6.3,6.2,9.5,13.8,9.5,22.6c0,9.7-3,19.1-9,27.9c-5.7,8.4-12.9,15.6-21.3,21.5
		c-40.7,28.2-66,45.8-75.9,52.7c-1.1,0.8-3.5,2.5-6.8,4.9c-3.7,2.6-6.6,4.7-8.9,6.3c-2.4,1.6-5.3,3.4-8.7,5.5
		c-3.7,2.2-7.2,3.8-10.5,4.9C305.3,275.6,301.9,276.2,298.8,276.2z M179.2,130.8c-6.5,0-11.2,2-14.5,6.2c-3.7,4.6-5.4,10.2-5.4,17.4
		c0,5.5,2.6,11.7,7.7,18.6c5.5,7.4,11.4,13.2,17.5,17.4l0.1,0.1c3.5,2.5,14,9.8,33.2,23.1c17.8,12.4,32.2,22.3,42.5,29.6
		c1.1,0.8,3.4,2.4,7,5c3.5,2.5,6.4,4.5,8.6,6.1c2.2,1.5,4.9,3.2,8.1,5.1c2.9,1.7,5.7,3,8.2,3.9c2.3,0.8,4.4,1.2,6.2,1.2h0.3
		c1.8,0,3.9-0.4,6.2-1.2c2.5-0.8,5.2-2.1,8.2-3.9c3.2-1.9,6-3.6,8.1-5.1c2.2-1.5,5.1-3.5,8.6-6.1c3.4-2.5,5.8-4.2,7-5
		c10-6.9,35.3-24.5,75.9-52.7c7.2-5.1,13.4-11.3,18.3-18.4c4.7-6.8,6.9-13.7,6.9-21.1c0-5.5-1.9-10.1-5.9-14.1c-4-4-8.6-5.9-14-5.9
		H179.2z"/>
	<path class="st0" d="M418.1,359.3H179.2c-8.7,0-16.3-3.2-22.6-9.4c-6.2-6.2-9.4-13.8-9.4-22.6V198.5c0-2.5,1.5-4.7,3.9-5.6
		c2.3-0.9,5-0.3,6.6,1.6c4.4,4.9,9.5,9.3,15.2,13.1c39.1,26.5,66.2,45.4,80.9,56.1c6,4.4,11,8,14.8,10.5c3.5,2.3,8.3,4.8,14.3,7.2
		c5.6,2.3,10.8,3.5,15.5,3.5h0.3c4.7,0,9.9-1.2,15.5-3.5c6-2.5,10.8-4.9,14.3-7.2c3.8-2.5,8.8-6.1,14.8-10.5
		c18.4-13.3,45.7-32.2,81-56.1c5.7-3.9,10.8-8.3,15.1-13.2c1.7-1.9,4.3-2.5,6.6-1.6c2.3,0.9,3.9,3.1,3.9,5.6v128.8
		c0,8.8-3.2,16.4-9.4,22.6C434.4,356.1,426.8,359.3,418.1,359.3z M159.3,212.4v114.9c0,5.5,1.9,10.1,5.9,14.1
		c4,3.9,8.6,5.9,14.1,5.9h238.8c5.5,0,10.1-1.9,14.1-5.9c3.9-3.9,5.9-8.6,5.9-14.1V212.5c-2.2,1.8-4.5,3.5-6.8,5.1
		c-35.2,23.8-62.4,42.6-80.7,55.9c-6.1,4.5-11.2,8.1-15.2,10.8c-4.1,2.7-9.6,5.5-16.3,8.3c-7.1,2.9-13.9,4.4-20.1,4.4h-0.3
		c-6.3,0-13.1-1.5-20.2-4.4c-6.7-2.8-12.2-5.6-16.3-8.3c-4-2.6-9.1-6.3-15.3-10.8c-14.5-10.6-41.5-29.4-80.4-55.8
		C163.9,216,161.5,214.2,159.3,212.4z"/>
</g>
</svg>
