<?xml version="1.0" encoding="utf-8"?>
<!-- Generator: Adobe Illustrator 22.0.1, SVG Export Plug-In . SVG Version: 6.00 Build 0)  -->
<svg version="1.1" id="Layer_1" xmlns="http://www.w3.org/2000/svg" xmlns:xlink="http://www.w3.org/1999/xlink" x="0px" y="0px"
	 viewBox="0 0 600 600" style="enable-background:new 0 0 600 600;" xml:space="preserve">
<style type="text/css">
	.st0{fill:#B5916F;}
	.st1{fill:#212324;}
	.st2{font-family:'OpenSans-Italic';}
	.st3{font-size:55.301px;}
	.st4{fill:#004289;}
	.st5{fill:#018BD2;}
	.st6{fill:none;}
	.st7{fill:#008BD2;}
</style>
<g>
	<g>
		<path class="st0" d="M312.4,362.6h-72.3c-4,0-7.7-1.5-10.6-4.4c-2.9-2.9-4.4-6.6-4.4-10.6c0-2.4,0.9-5.2,3-9
			c1.4-2.7,2.8-5.8,4.2-9.3c0.4-0.9,0.7-1.9,1-2.8h-70c-7.8,0-14.6-2.8-20.2-8.4c-5.6-5.6-8.4-12.4-8.4-20.2V144.2
			c0-7.8,2.8-14.6,8.4-20.2c5.6-5.6,12.4-8.4,20.2-8.4h226c7.8,0,14.6,2.8,20.2,8.4c5.6,5.6,8.4,12.4,8.4,20.2v153.7
			c0,7.8-2.8,14.6-8.4,20.2c-5.6,5.6-12.4,8.4-20.2,8.4h-69.9c0.3,0.9,0.6,1.8,0.9,2.7c1.4,3.6,2.8,6.8,4.3,9.5
			c2.1,3.9,2.9,6.6,2.9,8.9c0,4-1.5,7.7-4.4,10.6C320.1,361,316.4,362.6,312.4,362.6z M237,347.7c0,0.7,0.2,1.2,0.9,2
			c0.8,0.8,1.4,0.9,2.1,0.9h72.3c0.7,0,1.3-0.2,2.1-0.9c0.7-0.7,0.9-1.3,0.9-1.9c-0.1-0.3-0.4-1.4-1.6-3.6
			c-1.6-3.1-3.2-6.6-4.8-10.6c-1.8-4.5-2.7-8.9-2.7-13.1v-6h82.8c4.6,0,8.4-1.6,11.7-4.9c3.3-3.3,4.9-7.1,4.9-11.7V144.2
			c0-4.6-1.6-8.4-4.9-11.7c-3.3-3.3-7.1-4.9-11.7-4.9h-226c-4.6,0-8.4,1.6-11.7,4.9c-3.3,3.3-4.9,7.1-4.9,11.7v153.7
			c0,4.6,1.6,8.4,4.9,11.7c3.3,3.3,7.1,4.9,11.7,4.9h82.8v6c0,4.3-0.9,8.8-2.7,13.2c-1.6,3.9-3.2,7.4-4.8,10.5
			C237.4,346.4,237.1,347.4,237,347.7z M389.2,272.2h-226c-2.8,0-5.4-1.1-7.4-3.1c-2-2.1-3.1-4.6-3.1-7.4V144.2
			c0-2.8,1.1-5.4,3.1-7.4c2-2,4.6-3.1,7.4-3.1h226c2.8,0,5.4,1.1,7.4,3.1c2,2.1,3.1,4.6,3.1,7.4v117.5c0,2.8-1.1,5.4-3.1,7.4
			C394.6,271.1,392,272.2,389.2,272.2z M164.7,260.2h223V145.6h-223V260.2z"/>
	</g>
</g>
<text transform="matrix(1 0 0 1 54.9995 500.5153)" class="st1 st2 st3">Cotizador en línea</text>
</svg>
