<?xml version="1.0" encoding="utf-8"?>
<!-- Generator: Adobe Illustrator 22.0.1, SVG Export Plug-In . SVG Version: 6.00 Build 0)  -->
<svg version="1.1" id="Layer_1" xmlns="http://www.w3.org/2000/svg" xmlns:xlink="http://www.w3.org/1999/xlink" x="0px" y="0px"
	 viewBox="0 0 200 200" style="enable-background:new 0 0 200 200;" xml:space="preserve">
<style type="text/css">
	.st0{fill:#135FA7;}
	.st1{fill:#8F7049;}
	.st2{fill:#004289;}
	.st3{fill:#56BFEF;}
	.st4{fill:#1D4A7D;}
	.st5{fill:url(#SVGID_1_);}
	.st6{fill:#008BD2;}
	.st7{fill:#416DB1;}
	.st8{fill:none;stroke:#135FA7;stroke-width:3.0855;stroke-miterlimit:10;}
</style>
<g>
	<path class="st0" d="M118.5,82.6h-10.6V64.4h1.5c0.8,0,1.5-0.7,1.5-1.5v-6.1c0-0.8-0.7-1.5-1.5-1.5H91.2c-0.8,0-1.5,0.7-1.5,1.5
		v6.1c0,0.8,0.7,1.5,1.5,1.5h1.5v18.2H82.1c-2.5,0-4.6,2-4.6,4.6v48.6c0,2.5,2,4.6,4.6,4.6v4.6c0,0.8,0.7,1.5,1.5,1.5h6.1
		c0.8,0,1.5-0.7,1.5-1.5v-4.6h18.2v4.6c0,0.8,0.7,1.5,1.5,1.5h6.1c0.8,0,1.5-0.7,1.5-1.5v-4.6c2.5,0,4.6-2,4.6-4.6V87.1
		C123.1,84.6,121,82.6,118.5,82.6L118.5,82.6z M92.7,58.3h15.2v3H92.7V58.3z M95.8,64.4h9.1v18.2h-9.1V64.4z M88.2,143.3h-3v-3h3
		V143.3z M115.5,143.3h-3v-3h3V143.3z M120,135.7c0,0.8-0.7,1.5-1.5,1.5H82.1c-0.8,0-1.5-0.7-1.5-1.5V87.1c0-0.8,0.7-1.5,1.5-1.5
		h36.4c0.8,0,1.5,0.7,1.5,1.5V135.7z M120,135.7"/>
	<rect x="98.8" y="91.7" class="st0" width="3" height="39.5"/>
	<rect x="88.2" y="91.7" class="st0" width="3" height="39.5"/>
	<rect x="109.4" y="91.7" class="st0" width="3" height="39.5"/>
</g>
</svg>
