<?xml version="1.0" encoding="utf-8"?>
<!-- Generator: Adobe Illustrator 22.0.1, SVG Export Plug-In . SVG Version: 6.00 Build 0)  -->
<svg version="1.1" id="Layer_1" xmlns="http://www.w3.org/2000/svg" xmlns:xlink="http://www.w3.org/1999/xlink" x="0px" y="0px"
	 viewBox="0 0 200 200" style="enable-background:new 0 0 200 200;" xml:space="preserve">
<style type="text/css">
	.st0{fill:#135FA7;}
	.st1{fill:#8F7049;}
	.st2{fill:#004289;}
	.st3{fill:#56BFEF;}
	.st4{fill:#1D4A7D;}
	.st5{fill:url(#SVGID_1_);}
	.st6{fill:#008BD2;}
	.st7{fill:#416DB1;}
	.st8{fill:none;stroke:#135FA7;stroke-width:3.0855;stroke-miterlimit:10;}
</style>
<g>
	<path class="st0" d="M87.3,82.3c-10.3,0-18.6,8.3-18.6,18.6c0,10.3,8.3,18.6,18.6,18.6c10.3,0,18.6-8.3,18.6-18.6
		C105.9,90.7,97.6,82.3,87.3,82.3L87.3,82.3z M101.1,94h-6.7c-0.6-3.2-1.6-5.8-2.7-7.8C95.8,87.4,99.1,90.2,101.1,94L101.1,94z
		 M91.9,100.9c0,1.4-0.1,2.7-0.2,3.9h-8.8c-0.1-1.2-0.2-2.5-0.2-3.9c0-1.4,0.1-2.7,0.2-3.9h8.8C91.8,98.3,91.9,99.5,91.9,100.9
		L91.9,100.9z M86.8,85.5c0.2,0,0.3,0,0.5,0c0.2,0,0.3,0,0.5,0c1.2,1.8,2.6,4.6,3.4,8.5h-7.8C84.3,90.1,85.7,87.2,86.8,85.5
		L86.8,85.5z M82.9,86.1c-1,2-2,4.6-2.7,7.8h-6.7C75.4,90.2,78.8,87.4,82.9,86.1L82.9,86.1z M71.8,100.9c0-1.3,0.2-2.6,0.6-3.9h7.4
		c-0.1,1.2-0.2,2.5-0.2,3.9c0,1.4,0.1,2.6,0.2,3.9h-7.4C72,103.6,71.8,102.3,71.8,100.9L71.8,100.9z M73.5,107.9h6.7
		c0.6,3.2,1.7,5.8,2.7,7.8C78.8,114.5,75.4,111.7,73.5,107.9L73.5,107.9z M87.7,116.4c-0.2,0-0.3,0-0.5,0c-0.2,0-0.3,0-0.5,0
		c-1.1-1.7-2.6-4.5-3.4-8.5h7.8C90.3,111.8,88.9,114.7,87.7,116.4L87.7,116.4z M91.7,115.7c1-2,2-4.6,2.7-7.8h6.7
		C99.1,111.7,95.8,114.5,91.7,115.7L91.7,115.7z M94.8,104.8c0.1-1.2,0.2-2.5,0.2-3.9c0-1.4-0.1-2.6-0.2-3.9h7.4
		c0.3,1.2,0.6,2.5,0.6,3.9c0,1.3-0.2,2.6-0.6,3.9H94.8z M94.8,104.8"/>
	<rect x="71.8" y="128.8" class="st0" width="31" height="3.1"/>
	<path class="st0" d="M121,112.5l1.6-6l3,0.8l-1.6,6L121,112.5z M121,112.5"/>
	<path class="st0" d="M119,139.4l5.6-21l3,0.8l-5.6,21L119,139.4z M119,139.4"/>
	<path class="st0" d="M143.1,66.2l-35.9-9.6c-0.5-0.1-1.1-0.2-1.6-0.2c-2.7,0-5.2,1.8-6,4.6L96.3,73H64c-1.7,0-3.1,1.4-3.1,3.1v62
		c0,1.7,1.4,3.1,3.1,3.1h35.8l21.6,5.8c0.5,0.1,1.1,0.2,1.6,0.2c2.7,0,5.2-1.8,6-4.6l18.5-68.9C148.4,70.5,146.4,67.1,143.1,66.2
		L143.1,66.2z M64,138.1v-62h46.5c1.7,0,3.1,1.4,3.1,3.1V135c0,1.7-1.4,3.1-3.1,3.1H64z M144.5,73L126,141.9c-0.4,1.4-1.6,2.3-3,2.3
		c-0.3,0-0.5,0-0.8-0.1l-10.8-2.9c3-0.5,5.3-3,5.3-6.1v-24.6l1.6,0.4l1.6-6l-3-0.8l-0.2,0.7V80.2c1,0.3,2.1,0.6,3.2,0.8l3.7,12
		l2.6,0.7l-0.2-11.1c1.7,0.5,3.4,0.9,4.5,1.2l2,3.5l1.7,0.5l-0.3-4.9l2.7-4.1l-1.7-0.5l-3.5,2c-1.1-0.3-2.8-0.8-4.5-1.2l5.7-9.5
		l-2.6-0.7l-9.2,8.5c-1.8-0.5-3.8-1-4.8-1.3c-1-2-3.1-3.3-5.4-3.3h-11l3-11.3c0.4-1.4,1.6-2.3,3-2.3c0.3,0,0.5,0,0.8,0.1l35.9,9.6
		c0.8,0.2,1.5,0.7,1.9,1.4C144.6,71.3,144.7,72.2,144.5,73L144.5,73z M144.5,73"/>
	<path class="st0" d="M124.4,101.3l0.8-3l2.9,0.8l-0.8,3L124.4,101.3z M124.4,101.3"/>
	<path class="st0" d="M120.4,102.9l0.8-3l2.9,0.8l-0.8,3L120.4,102.9z M120.4,102.9"/>
	<path class="st0" d="M118.4,98.7l0.8-3l2.9,0.8l-0.8,3L118.4,98.7z M118.4,98.7"/>
</g>
</svg>
