<?xml version="1.0" encoding="utf-8"?>
<!-- Generator: Adobe Illustrator 22.0.1, SVG Export Plug-In . SVG Version: 6.00 Build 0)  -->
<svg version="1.1" id="Layer_1" xmlns="http://www.w3.org/2000/svg" xmlns:xlink="http://www.w3.org/1999/xlink" x="0px" y="0px"
	 viewBox="0 0 200 200" style="enable-background:new 0 0 200 200;" xml:space="preserve">
<style type="text/css">
	.st0{fill:#135FA7;}
	.st1{fill:#8F7049;}
	.st2{fill:#004289;}
	.st3{fill:#56BFEF;}
	.st4{fill:#1D4A7D;}
	.st5{fill:url(#SVGID_1_);}
	.st6{fill:#008BD2;}
	.st7{fill:#416DB1;}
	.st8{fill:none;stroke:#135FA7;stroke-width:3.0855;stroke-miterlimit:10;}
</style>
<g>
	<path class="st0" d="M72.7,105h35.4c1,0,1.8-0.8,1.8-1.8v-7.1c0-1-0.8-1.8-1.8-1.8h-1.8V78.4c0-8.8-7.1-15.9-15.9-15.9
		s-15.9,7.1-15.9,15.9v15.9h-1.8c-1,0-1.8,0.8-1.8,1.8v7.1C71,104.2,71.8,105,72.7,105L72.7,105z M78,78.4C78,71.6,83.6,66,90.4,66
		c6.8,0,12.4,5.6,12.4,12.4v15.9H78V78.4z M74.5,97.9h31.9v3.5H74.5V97.9z M74.5,97.9"/>
	<path class="st0" d="M95.8,76.6h-3.5v-3.5c0-1-0.8-1.8-1.8-1.8c-1,0-1.8,0.8-1.8,1.8v3.5h-3.5c-1,0-1.8,0.8-1.8,1.8
		c0,1,0.8,1.8,1.8,1.8h3.5v7.1c0,1,0.8,1.8,1.8,1.8c1,0,1.8-0.8,1.8-1.8v-7.1h3.5c1,0,1.8-0.8,1.8-1.8
		C97.5,77.4,96.7,76.6,95.8,76.6L95.8,76.6z M95.8,76.6"/>
	<path class="st0" d="M102.3,112.4c0-1-0.8-1.8-1.8-1.8H80.3c-1,0-1.8,0.8-1.8,1.8c0,1,0.8,1.8,1.8,1.8h20.2
		C101.5,114.2,102.3,113.4,102.3,112.4L102.3,112.4z M102.3,112.4"/>
	<path class="st0" d="M72.7,117.7c-1,0-1.8,0.8-1.8,1.8c0,1,0.8,1.8,1.8,1.8h10.6c1,0,1.8-0.8,1.8-1.8c0-1-0.8-1.8-1.8-1.8H72.7z
		 M72.7,117.7"/>
	<path class="st0" d="M140.7,92.1l-2.3-2.3c-0.7-0.7-1.6-1.1-2.6-1.1c-1,0-1.9,0.4-2.6,1.1l-9.1,9.1V55.4c0-1-0.8-1.8-1.8-1.8H79.8
		c-1,0-1.8,0.8-1.8,1.8c0,1,0.8,1.8,1.8,1.8h40.7v45.2l-15.3,15.3h-7.7c-1,0-1.8,0.8-1.8,1.8c0,1,0.8,1.8,1.8,1.8h4.1l-2.8,2.8
		c-0.2,0.2-0.3,0.4-0.4,0.6l-0.1,0.2H80.3c-1,0-1.8,0.8-1.8,1.8c0,1,0.8,1.8,1.8,1.8H97l-1.4,3.5H84.1c-1,0-1.8,0.8-1.8,1.8
		c0,1,0.8,1.8,1.8,1.8h12.7c0,0,0,0,0,0c0.1,0,0.1,0,0.2,0c0,0,0,0,0.1,0c0,0,0.1,0,0.1,0c0,0,0.1,0,0.1,0c0,0,0,0,0.1,0
		c0,0,0.1,0,0.1,0c0,0,0,0,0,0l0,0c0,0,0,0,0,0l8.3-3.3c0.2-0.1,0.4-0.2,0.6-0.4l14.2-14.2v23.3H60.3V57.2h5.3c1,0,1.8-0.8,1.8-1.8
		c0-1-0.8-1.8-1.8-1.8h-7.1c-1,0-1.8,0.8-1.8,1.8v87.1c0,1,0.8,1.8,1.8,1.8h63.8c1,0,1.8-0.8,1.8-1.8v-28.7l16.6-16.6
		C142.2,95.8,142.2,93.5,140.7,92.1L140.7,92.1z M104.1,128.8l-4.2,1.7l1.3-3.2c0,0,0,0,0,0l0.4-1l26.8-26.8l2.5,2.5L104.1,128.8z
		 M138.2,94.7l-4.8,4.8L131,97l4.8-4.8c0,0,0.1,0,0.2,0l2.3,2.3C138.3,94.6,138.3,94.7,138.2,94.7L138.2,94.7z M138.2,94.7"/>
	<path class="st0" d="M72.7,57.2c1,0,1.8-0.8,1.8-1.8c0-1-0.8-1.8-1.8-1.8h0c-1,0-1.8,0.8-1.8,1.8C71,56.4,71.8,57.2,72.7,57.2
		L72.7,57.2z M72.7,57.2"/>
	<path class="st0" d="M90.4,117.7c-1,0-1.8,0.8-1.8,1.8c0,1,0.8,1.8,1.8,1.8c1,0,1.8-0.8,1.8-1.8C92.2,118.5,91.4,117.7,90.4,117.7
		L90.4,117.7z M90.4,117.7"/>
</g>
</svg>
