<svg id="Layer_1" data-name="Layer 1" xmlns="http://www.w3.org/2000/svg" viewBox="0 0 600 600"><defs><style>.cls-1{font-size:55.3px;fill:#212324;font-family:OpenSans-Italic, Open Sans;font-style:italic;}.cls-2{fill:#004289;}</style></defs><title>FAQ</title><text class="cls-1" transform="translate(171.54 463.52)"><tspan x="0" y="66.36"></tspan></text><path class="cls-2" d="M301.63,80C220.76,80,155,145.74,155,226.6s65.77,146.64,146.64,146.64S448.27,307.46,448.27,226.6,382.49,80,301.63,80Zm0,281.06c-74.12,0-134.42-60.3-134.42-134.42S227.51,92.18,301.63,92.18s134.42,60.3,134.42,134.42S375.75,361,301.63,361Z"/><path class="cls-2" d="M301.63,128.84a61.17,61.17,0,0,0-61.1,61.1v6.11a6.1,6.1,0,0,0,6.11,6.11h24.44a6.11,6.11,0,0,0,6.11-6.11v-6.11a24.44,24.44,0,1,1,24.44,24.44,24.47,24.47,0,0,0-24.44,24.44v30.55a6.1,6.1,0,0,0,6.11,6.11h24.44a6.1,6.1,0,0,0,6.11-6.11V249.83a61.11,61.11,0,0,0-12.22-121Zm5.43,109.68a6.12,6.12,0,0,0-5.43,6.08v18.66H289.41V238.82a12.23,12.23,0,0,1,12.22-12.22A36.66,36.66,0,1,0,265,189.94H252.75a48.88,48.88,0,1,1,54.31,48.58Z"/><path class="cls-2" d="M295.52,287.7A18.33,18.33,0,1,0,313.85,306,18.35,18.35,0,0,0,295.52,287.7Zm0,24.44a6.11,6.11,0,1,1,6.11-6.11A6.12,6.12,0,0,1,295.52,312.14Z"/></svg>