<?xml version="1.0" encoding="utf-8"?>
<!-- Generator: Adobe Illustrator 22.0.1, SVG Export Plug-In . SVG Version: 6.00 Build 0)  -->
<svg version="1.1" id="Layer_1" xmlns="http://www.w3.org/2000/svg" xmlns:xlink="http://www.w3.org/1999/xlink" x="0px" y="0px"
	 viewBox="0 0 200 200" style="enable-background:new 0 0 200 200;" xml:space="preserve">
<style type="text/css">
	.st0{fill:#135FA7;}
	.st1{fill:#8F7049;}
	.st2{fill:#004289;}
	.st3{fill:#56BFEF;}
	.st4{fill:#1D4A7D;}
	.st5{fill:url(#SVGID_1_);}
	.st6{fill:#008BD2;}
	.st7{fill:#416DB1;}
	.st8{fill:none;stroke:#135FA7;stroke-width:3.0855;stroke-miterlimit:10;}
</style>
<g>
	<path class="st0" d="M114.6,94.3H104c-0.8,0-1.5,0.7-1.5,1.5V111c0,0.8,0.7,1.5,1.5,1.5h10.6c0.8,0,1.5-0.7,1.5-1.5V95.9
		C116.1,95,115.5,94.3,114.6,94.3L114.6,94.3z M113.1,109.5h-7.6V97.4h7.6V109.5z M113.1,109.5"/>
	<path class="st0" d="M134.6,94.3H124c-0.8,0-1.5,0.7-1.5,1.5V111c0,0.8,0.7,1.5,1.5,1.5h10.6c0.8,0,1.5-0.7,1.5-1.5V95.9
		C136.1,95,135.5,94.3,134.6,94.3L134.6,94.3z M133.1,109.5h-7.6V97.4h7.6V109.5z M133.1,109.5"/>
	<path class="st0" d="M114.6,118.6H104c-0.8,0-1.5,0.7-1.5,1.5v15.2c0,0.8,0.7,1.5,1.5,1.5h10.6c0.8,0,1.5-0.7,1.5-1.5v-15.2
		C116.1,119.3,115.5,118.6,114.6,118.6L114.6,118.6z M113.1,133.8h-7.6v-12.1h7.6V133.8z M113.1,133.8"/>
	<path class="st0" d="M94.6,94.3H84c-0.8,0-1.5,0.7-1.5,1.5V111c0,0.8,0.7,1.5,1.5,1.5h10.6c0.8,0,1.5-0.7,1.5-1.5V95.9
		C96.1,95,95.5,94.3,94.6,94.3L94.6,94.3z M93.1,109.5h-7.6V97.4h7.6V109.5z M93.1,109.5"/>
	<path class="st0" d="M134.6,118.6H124c-0.8,0-1.5,0.7-1.5,1.5v15.2c0,0.8,0.7,1.5,1.5,1.5h10.6c0.8,0,1.5-0.7,1.5-1.5v-15.2
		C136.1,119.3,135.5,118.6,134.6,118.6L134.6,118.6z M133.1,133.8h-7.6v-12.1h7.6V133.8z M133.1,133.8"/>
	<path class="st0" d="M94.6,118.6H84c-0.8,0-1.5,0.7-1.5,1.5v15.2c0,0.8,0.7,1.5,1.5,1.5h10.6c0.8,0,1.5-0.7,1.5-1.5v-15.2
		C96.1,119.3,95.5,118.6,94.6,118.6L94.6,118.6z M93.1,133.8h-7.6v-12.1h7.6V133.8z M93.1,133.8"/>
	<path class="st0" d="M148.7,141.4V89.8h1.5c0.8,0,1.5-0.7,1.5-1.5v-7.6c0-0.8-0.7-1.5-1.5-1.5h-1.5v-6.1c0-0.8-0.7-1.5-1.5-1.5h-3
		V54.9c0-0.8-0.7-1.5-1.5-1.5H75.9c-0.8,0-1.5,0.7-1.5,1.5v16.7h-3c-0.8,0-1.5,0.7-1.5,1.5v6.1h-1.5c-0.8,0-1.5,0.7-1.5,1.5v7.6
		c0,0.8,0.7,1.5,1.5,1.5h1.5v51.6h-6.1v3h91v-3L148.7,141.4L148.7,141.4z M77.4,56.4h63.7v15.2H77.4V56.4z M72.9,74.6h72.8v4.6H72.9
		V74.6z M145.7,141.4H72.9V89.8h72.8V141.4z M71.4,86.7h-1.5v-4.6h78.9v4.6H71.4z M71.4,86.7"/>
	<path class="st0" d="M105,61.6c-0.2-0.6-0.6-1.1-1-1.6c-0.4-0.4-1-0.8-1.6-1.1c-0.6-0.3-1.3-0.4-2-0.4c-0.7,0-1.4,0.1-2,0.4
		c-0.6,0.3-1.1,0.6-1.6,1.1c-0.4,0.5-0.8,1-1,1.6c-0.2,0.6-0.4,1.3-0.4,2c0,0.7,0.1,1.4,0.4,2c0.2,0.6,0.6,1.2,1,1.6
		c0.4,0.5,1,0.8,1.6,1.1c0.6,0.3,1.3,0.4,2,0.4c0.7,0,1.4-0.1,2-0.4c0.6-0.3,1.1-0.6,1.6-1.1c0.4-0.5,0.8-1,1-1.6
		c0.2-0.6,0.4-1.3,0.4-2C105.3,62.9,105.2,62.2,105,61.6L105,61.6z M103.2,65.1c-0.1,0.4-0.3,0.8-0.6,1.1c-0.3,0.3-0.6,0.5-1,0.7
		c-0.4,0.2-0.8,0.2-1.3,0.2c-0.5,0-0.9-0.1-1.3-0.2s-0.7-0.4-1-0.7c-0.3-0.3-0.5-0.7-0.6-1.1c-0.1-0.4-0.2-0.9-0.2-1.5
		c0-0.5,0.1-1,0.2-1.5c0.1-0.4,0.4-0.8,0.6-1.1c0.3-0.3,0.6-0.5,1-0.7c0.4-0.2,0.8-0.2,1.3-0.2c0.5,0,0.9,0.1,1.3,0.2
		c0.4,0.2,0.7,0.4,1,0.7c0.3,0.3,0.5,0.7,0.6,1.1c0.1,0.4,0.2,0.9,0.2,1.5C103.4,64.1,103.4,64.6,103.2,65.1L103.2,65.1z
		 M103.2,65.1"/>
	<path class="st0" d="M91.6,58.7v4.2H87v-4.2h-1.8v9.9H87v-4.3h4.6v4.3h1.9v-9.9H91.6z M91.6,58.7"/>
	<path class="st0" d="M128.2,67v-8.4h-1.8v9.9h5.8V67H128.2z M128.2,67"/>
	<path class="st0" d="M106.4,58.7v1.5h3v8.4h1.8v-8.4h3v-1.5H106.4z M106.4,58.7"/>
	<path class="st0" d="M123.4,60.1v-1.5h-6.2v9.9h6.2v-1.5H119v-2.8h3.4v-1.4H119v-2.7H123.4z M123.4,60.1"/>
</g>
</svg>
