<?xml version="1.0" encoding="utf-8"?>
<!-- Generator: Adobe Illustrator 22.0.1, SVG Export Plug-In . SVG Version: 6.00 Build 0)  -->
<svg version="1.1" id="Layer_1" xmlns="http://www.w3.org/2000/svg" xmlns:xlink="http://www.w3.org/1999/xlink" x="0px" y="0px"
	 viewBox="0 0 600 600" style="enable-background:new 0 0 600 600;" xml:space="preserve">
<style type="text/css">
	.st0{fill:#B5916F;}
	.st1{fill:#212324;}
	.st2{fill:#004289;}
	.st3{font-family:'OpenSans-Italic';}
	.st4{font-size:55.301px;}
	.st5{fill:#018BD2;}
	.st6{fill:none;}
	.st7{fill:#008BD2;}
</style>
<text transform="matrix(1 0 0 1 221.0827 492.7729)" class="st1 st3 st4">Hogar</text>
<g>
	<polygon class="st2" points="499.2,218.6 458.2,218.6 457.1,218.2 205.9,113.7 81,161.9 77,151.6 206,101.8 460.4,207.5 
		499.2,207.5 	"/>
	<polygon class="st2" points="499.9,374.3 84.3,374.3 84.3,152.5 95.3,152.5 95.3,363.3 488.9,363.3 488.9,241.3 499.9,241.3 	"/>
	<path class="st2" d="M524,243.2H249.3v-27.3h247.4L524,243.2z M260.4,232.2h236.9l-5.2-5.2H260.4V232.2z"/>
	<rect x="255.7" y="240.1" class="st2" width="11" height="128.7"/>
	<path class="st2" d="M379.3,335.6H278.2v-77.3h101.1V335.6z M289.2,324.6h79v-55.2h-79V324.6z"/>
	<path class="st2" d="M219.2,374.3h-89.9V243h89.9V374.3z M140.4,363.3h67.8V254h-67.8V363.3z"/>
	<path class="st2" d="M154.6,320.9c-6.8,0-12.2-5.5-12.2-12.2c0-6.8,5.5-12.2,12.2-12.2s12.2,5.5,12.2,12.2
		C166.8,315.4,161.3,320.9,154.6,320.9z M154.6,307.5c-0.7,0-1.2,0.5-1.2,1.2c0,0.7,0.5,1.2,1.2,1.2s1.2-0.5,1.2-1.2
		C155.8,308,155.3,307.5,154.6,307.5z"/>
	<rect x="323.2" y="263.8" class="st2" width="11" height="66.3"/>
	<rect x="283.7" y="291.4" class="st2" width="90.1" height="11"/>
</g>
</svg>
