<svg id="Layer_1" data-name="Layer 1" xmlns="http://www.w3.org/2000/svg" viewBox="0 0 80 80"><defs><style>.cls-1{fill:#135fa7;}</style></defs><title>iconos</title><path class="cls-1" d="M31.44,43.27a1.16,1.16,0,0,0,1.16-1.16V29.72a1.16,1.16,0,0,0-1.16-1.15H25.2a1.15,1.15,0,0,0-1.15,1.15V42.11a1.15,1.15,0,0,0,1.15,1.16Zm-5.09-12.4h3.94V41H26.35Zm0,0"/><path class="cls-1" d="M37.08,43.27h6.24a1.16,1.16,0,0,0,1.16-1.16V29.72a1.16,1.16,0,0,0-1.16-1.15H37.08a1.16,1.16,0,0,0-1.16,1.15V42.11a1.16,1.16,0,0,0,1.16,1.16Zm1.15-12.4h3.94V41H38.23Zm0,0"/><path class="cls-1" d="M15.46,61.11A1.16,1.16,0,0,0,16.61,60V47.56a1.16,1.16,0,0,0-1.15-1.15H9.21a1.15,1.15,0,0,0-1.15,1.15V60a1.15,1.15,0,0,0,1.15,1.16Zm-5.1-12.39H14.3V58.8H10.36Zm0,0"/><path class="cls-1" d="M64.94,61.11h6.25A1.15,1.15,0,0,0,72.34,60V47.56a1.15,1.15,0,0,0-1.15-1.15H64.94a1.16,1.16,0,0,0-1.15,1.15V60a1.16,1.16,0,0,0,1.15,1.16ZM66.1,48.72H70V58.8H66.1Zm0,0"/><path class="cls-1" d="M49,43.27H55.2a1.15,1.15,0,0,0,1.15-1.16V29.72a1.15,1.15,0,0,0-1.15-1.15H49a1.16,1.16,0,0,0-1.15,1.15V42.11A1.16,1.16,0,0,0,49,43.27Zm1.16-12.4h3.94V41H50.11Zm0,0"/><path class="cls-1" d="M39.05,13.3a1.15,1.15,0,0,0,2.3,0V10.92h2.38a1.15,1.15,0,0,0,0-2.3H41.35V6.23a1.15,1.15,0,0,0-2.3,0V8.62H36.67a1.15,1.15,0,1,0,0,2.3h2.38Zm0,0"/><path class="cls-1" d="M78.37,34.53a1.15,1.15,0,0,0,1.15-1.15V29.24a1.16,1.16,0,0,0-1.15-1.16h-7a1.16,1.16,0,0,0,0,2.31h5.84v1.84H60.58V30.39h5.06a1.16,1.16,0,1,0,0-2.31H60.58v-5.4h1.77a1.14,1.14,0,0,0,1.15-1.15V17.38a1.15,1.15,0,0,0-1.15-1.15H52.07V2.15A1.15,1.15,0,0,0,50.92,1H29.48a1.15,1.15,0,0,0-1.15,1.15V16.23H18.05a1.15,1.15,0,0,0-1.15,1.15v4.15a1.14,1.14,0,0,0,1.15,1.15h1.77v5.4H2A1.15,1.15,0,0,0,.88,29.24v4.14A1.14,1.14,0,0,0,2,34.53h.51v7.58a1.16,1.16,0,1,0,2.31,0V34.53h15V73h-15V47.83a1.16,1.16,0,0,0-2.31,0V73H2A1.15,1.15,0,0,0,.88,74.14v4.35A1.14,1.14,0,0,0,2,79.64H78.37a1.15,1.15,0,0,0,1.15-1.15V74.14A1.16,1.16,0,0,0,78.37,73h-.51V34.53Zm-59.17-16H37.11a1.16,1.16,0,0,0,0-2.31H30.63V3.3H49.77V16.23H43.63a1.16,1.16,0,0,0,0,2.31H61.2v1.84h-42Zm-16,11.85H19.82v1.84H3.18Zm18.94-7.71H58.28V73H51.64V54.76a1.14,1.14,0,0,0-1.15-1.15H29.91a1.14,1.14,0,0,0-1.15,1.15V73H22.12ZM31.06,73V55.91h8V73ZM41.35,55.91h8V73h-8ZM77.22,77.34h-74v-2h74ZM75.55,73h-15V34.53h15V73Zm0,0"/></svg>