<?xml version="1.0" encoding="utf-8"?>
<!-- Generator: Adobe Illustrator 22.0.1, SVG Export Plug-In . SVG Version: 6.00 Build 0)  -->
<svg version="1.1" id="Layer_1" xmlns="http://www.w3.org/2000/svg" xmlns:xlink="http://www.w3.org/1999/xlink" x="0px" y="0px"
	 viewBox="0 0 200 200" style="enable-background:new 0 0 200 200;" xml:space="preserve">
<style type="text/css">
	.st0{fill:#135FA7;}
	.st1{fill:#8F7049;}
	.st2{fill:#004289;}
	.st3{fill:#56BFEF;}
	.st4{fill:#1D4A7D;}
	.st5{fill:url(#SVGID_1_);}
	.st6{fill:#008BD2;}
	.st7{fill:#416DB1;}
	.st8{fill:none;stroke:#135FA7;stroke-width:3.0855;stroke-miterlimit:10;}
</style>
<path class="st0" d="M139.4,110.6c-3.9-6.8-12.6-9.1-19.4-5.2l-7.2,4.2V94.2c0-1.9-0.6-3.8-1.8-5.3L102.2,77v-5
	c2.1-0.7,3.5-2.7,3.5-5v-8.2c0-2.9-2.4-5.3-5.3-5.3H68.5c-2.9,0-5.3,2.4-5.3,5.3V67c0,2.3,1.5,4.3,3.5,5v5l-8.9,11.8
	c-1.1,1.5-1.8,3.4-1.8,5.3v34.3c0,4.9,4,8.9,8.9,8.9h28.5c4,6.7,12.5,8.9,19.3,5l21.5-12.4C140.9,126.1,143.3,117.4,139.4,110.6
	L139.4,110.6z M66.7,58.8c0-1,0.8-1.8,1.8-1.8h31.9c1,0,1.8,0.8,1.8,1.8V67c0,1-0.8,1.8-1.8,1.8H68.5c-1,0-1.8-0.8-1.8-1.8V58.8z
	 M60.7,91l9.2-12.3c0.2-0.3,0.4-0.7,0.4-1.1v-5.3h28.4v3.5h-16c-1,0-1.8,0.8-1.8,1.8c0,1,0.8,1.8,1.8,1.8h16.8l8.7,11.6
	c0.6,0.8,0.9,1.7,1,2.6H59.7C59.8,92.6,60.1,91.7,60.7,91L60.7,91z M64.9,133.8c-2.9,0-5.3-2.4-5.3-5.3v-1.8h32.2
	c-0.6,2.3-0.6,4.8,0.1,7.1H64.9z M93.2,123.2H59.6V97.1h49.7v14.5l-10.7,6.2C96.3,119.1,94.5,120.9,93.2,123.2L93.2,123.2z
	 M110.9,139.3c-5.1,2.9-11.6,1.2-14.5-3.9c-3-5.1-1.2-11.6,3.9-14.5l9.6-5.6l10.6,18.4L110.9,139.3z M132.4,126.9l-8.8,5.1
	L113,113.5l8.8-5.1c5.1-2.9,11.6-1.2,14.5,3.9C139.3,117.5,137.5,124,132.4,126.9L132.4,126.9z M132.4,126.9"/>
</svg>
