<?xml version="1.0" encoding="utf-8"?>
<!-- Generator: Adobe Illustrator 22.0.1, SVG Export Plug-In . SVG Version: 6.00 Build 0)  -->
<svg version="1.1" id="Layer_1" xmlns="http://www.w3.org/2000/svg" xmlns:xlink="http://www.w3.org/1999/xlink" x="0px" y="0px"
	 viewBox="0 0 600 600" style="enable-background:new 0 0 600 600;" xml:space="preserve">
<style type="text/css">
	.st0{fill:#B5916F;}
	.st1{fill:#212324;}
	.st2{font-family:'OpenSans-Italic';}
	.st3{font-size:55.301px;}
	.st4{fill:#004289;}
	.st5{fill:#018BD2;}
	.st6{fill:none;}
	.st7{fill:#008BD2;}
</style>
<text transform="matrix(1 0 0 1 233.3565 492.7729)" class="st1 st2 st3">Otros</text>
<g>
	<path class="st4" d="M341.3,136.2h-81.5c-7,0-12.8-5.7-12.8-12.8v-16.3c0-7,5.7-12.8,12.8-12.8h81.5c7,0,12.8,5.7,12.8,12.8v16.3
		C354,130.5,348.3,136.2,341.3,136.2z M259.8,103.6c-2,0-3.5,1.6-3.5,3.5v16.3c0,2,1.6,3.5,3.5,3.5h81.5c2,0,3.5-1.6,3.5-3.5v-16.3
		c0-2-1.6-3.5-3.5-3.5H259.8z"/>
	<path class="st4" d="M251.7,340.4c-7,0-12.8-5.7-12.8-12.8s5.7-12.8,12.8-12.8c7,0,12.8,5.7,12.8,12.8S258.7,340.4,251.7,340.4z
		 M251.7,324.1c-2,0-3.5,1.6-3.5,3.5s1.6,3.5,3.5,3.5c2,0,3.5-1.6,3.5-3.5S253.6,324.1,251.7,324.1z"/>
	<path class="st4" d="M251.7,210.1c-7,0-12.8-5.7-12.8-12.8s5.7-12.8,12.8-12.8c7,0,12.8,5.7,12.8,12.8S258.7,210.1,251.7,210.1z
		 M251.7,193.8c-2,0-3.5,1.6-3.5,3.5s1.6,3.5,3.5,3.5c2,0,3.5-1.6,3.5-3.5S253.6,193.8,251.7,193.8z"/>
	<path class="st4" d="M398.3,381.7H202.8c-7,0-12.8-5.7-12.8-12.8V123.4c0-7,5.7-12.8,12.8-12.8H240v12.8c0,10.9,8.9,19.8,19.8,19.8
		h81.5c10.9,0,19.8-8.9,19.8-19.8v-12.8h37.2c7,0,12.8,5.7,12.8,12.8v245.5C411.1,376,405.3,381.7,398.3,381.7z M202.8,119.9
		c-2,0-3.5,1.6-3.5,3.5v245.5c0,2,1.6,3.5,3.5,3.5h195.5c2,0,3.5-1.6,3.5-3.5V123.4c0-2-1.6-3.5-3.5-3.5h-28v3.5c0,16-13,29-29,29
		h-81.5c-16,0-29-13-29-29v-3.5H202.8z M251.7,356.7c-16,0-29-13-29-29s13-29,29-29c16,0,29,13,29,29S267.7,356.7,251.7,356.7z
		 M251.7,307.8c-10.9,0-19.8,8.9-19.8,19.8s8.9,19.8,19.8,19.8s19.8-8.9,19.8-19.8S262.6,307.8,251.7,307.8z M365.7,340.4h-65.2
		c-7,0-12.8-5.7-12.8-12.8s5.7-12.8,12.8-12.8h65.2c7,0,12.8,5.7,12.8,12.8S372.7,340.4,365.7,340.4z M300.5,324.1
		c-2,0-3.5,1.6-3.5,3.5s1.6,3.5,3.5,3.5h65.2c2,0,3.5-1.6,3.5-3.5s-1.6-3.5-3.5-3.5H300.5z M251.7,291.5c-3.4,0-6.6-1.4-9-3.7
		l-16.3-16.3c-2.4-2.4-3.7-5.6-3.7-9c0-3.4,1.3-6.6,3.7-9c2.4-2.4,5.6-3.7,9-3.7s6.6,1.3,9,3.7l5,5l9.4-15c3.8-5.9,11.6-7.7,17.6-4
		c6,3.7,7.8,11.6,4,17.6l0,0l-17.9,28.5c-2.1,3.3-5.5,5.4-9.4,5.9C252.6,291.5,252.1,291.5,251.7,291.5z M235.4,258.9
		c-0.9,0-1.8,0.4-2.5,1c-0.7,0.7-1,1.6-1,2.5c0,0.9,0.4,1.8,1,2.5l16.3,16.3c0.8,0.8,1.8,1.1,2.9,1c1-0.1,2-0.7,2.6-1.6l17.9-28.5
		l0,0c1-1.7,0.5-3.8-1.1-4.9c-1.6-1-3.8-0.5-4.9,1.1L251,273.1L237.9,260C237.2,259.3,236.3,258.9,235.4,258.9z M365.7,275.2h-65.2
		c-7,0-12.8-5.7-12.8-12.8s5.7-12.8,12.8-12.8h65.2c7,0,12.8,5.7,12.8,12.8S372.7,275.2,365.7,275.2z M300.5,258.9
		c-2,0-3.5,1.6-3.5,3.5s1.6,3.5,3.5,3.5h65.2c2,0,3.5-1.6,3.5-3.5s-1.6-3.5-3.5-3.5H300.5z M251.7,226.4c-16,0-29-13-29-29
		s13-29,29-29c16,0,29,13,29,29S267.7,226.4,251.7,226.4z M251.7,177.5c-10.9,0-19.8,8.9-19.8,19.8s8.9,19.8,19.8,19.8
		s19.8-8.9,19.8-19.8S262.6,177.5,251.7,177.5z M365.7,210.1h-65.2c-7,0-12.8-5.7-12.8-12.8s5.7-12.8,12.8-12.8h65.2
		c7,0,12.8,5.7,12.8,12.8S372.7,210.1,365.7,210.1z M300.5,193.8c-2,0-3.5,1.6-3.5,3.5s1.6,3.5,3.5,3.5h65.2c2,0,3.5-1.6,3.5-3.5
		s-1.6-3.5-3.5-3.5H300.5z"/>
</g>
</svg>
