<?xml version="1.0" encoding="utf-8"?>
<!-- Generator: Adobe Illustrator 22.0.1, SVG Export Plug-In . SVG Version: 6.00 Build 0)  -->
<svg version="1.1" id="Layer_1" xmlns="http://www.w3.org/2000/svg" xmlns:xlink="http://www.w3.org/1999/xlink" x="0px" y="0px"
	 viewBox="0 0 600 600" style="enable-background:new 0 0 600 600;" xml:space="preserve">
<style type="text/css">
	.st0{fill:#B5916F;}
	.st1{fill:#212324;}
	.st2{font-family:'OpenSans-Italic';}
	.st3{font-size:55.301px;}
	.st4{fill:#004289;}
	.st5{fill:#018BD2;}
	.st6{fill:none;}
	.st7{fill:#008BD2;}
</style>
<text transform="matrix(1 0 0 1 221.551 500.5153)" class="st1 st2 st3">Pagos</text>
<g>
	<path class="st0" d="M226.2,189.5c0,15.1,0.4,28.9-0.1,42.6c-0.5,11.1,3.3,16,15.1,15.9c59.6-0.4,119.3-0.3,178.9,0
		c11.7,0.1,15.5-5.1,15.3-16.1c-0.4-29.3-0.4-58.5,0-87.8c0.2-12.3-5.2-16.2-17.1-16.1c-58.5,0.4-117,0.3-175.6,0
		c-7.7,0-13.8,1.7-19.2,7.3c-2.2,2.3-6.2,3.9-8.5,0.3c-1.1-1.8-0.5-5.4,0.5-7.7c3.3-7.2,9.4-10.5,17.3-10.5c65.1,0,130.3,0,195.4,0
		c12.6,0,18.6,8.1,18.9,18.8c0.7,34.7,0.7,69.5-0.3,104.2c-0.3,13-9.6,19.2-22.6,19.2c-62.9,0-125.9,0.1-188.8,0
		c-14,0-21.5-7.5-21.9-21.4c-0.4-12.1,0.2-24.3-0.2-36.4C212.9,193.6,216.4,189.8,226.2,189.5z"/>
	<path class="st0" d="M235.6,315c-3.6,0-7.5-1.4-11.6-5.5c-5.4-5.4-10.8-10.8-16.2-16.2c-13.1-13.1-26.6-26.6-39.7-40
		c-2.7-2.7-4.7-6.9-5.4-11.1l-0.1-0.8c-1.3-7.4-2.7-15-2.1-23.2c4.2-58.3,9.2-64,66.4-76.9c0.7-0.2,1.4-0.3,2.1-0.5
		c7.3-1.8,20.8-5,25.3,10.8c1.7,6.1,1.3,11.4-1.3,15.7c-2.9,4.8-8.1,7.9-15.9,9.6c-0.1,0.1-0.2,0.1-0.3,0.2l-0.2,0.1
		c-3.8,2-8.1,3.2-12.3,4.4c-8.7,2.4-14.2,4.2-15.7,9.9c-6.4,24.8-5.2,45.3,3.7,62.9c4.1,8.1,12.7,12.2,25.4,12.2c0,0,0.1,0,0.1,0
		c9,0,18,0,27.8,0l22.4,0l-4.1,6.9c-11,18.8-25.4,29.7-39.3,38.7C242.1,313.6,239,315,235.6,315z M239,148.3c-2,0-4.5,0.5-8,1.3
		c-0.8,0.2-1.5,0.4-2.3,0.5c-53.1,12-55.3,14.5-59.2,68.6c-0.5,7.1,0.7,13.8,2,20.9l0.1,0.8c0.4,2.4,1.6,4.9,3,6.3
		c13.1,13.4,26.6,26.9,39.7,39.9c5.4,5.4,10.8,10.8,16.2,16.2c3.6,3.7,6.2,3.2,9.1,1.4c12.7-8.2,23.2-16.5,31.9-28.7l-5.9,0
		c-9.8,0-18.8,0-27.8,0c0,0-0.1,0-0.1,0c-11.4,0-26.4-3-33.6-17.2c-10-19.6-11.5-42.3-4.4-69.4c2.9-11.1,13.6-14.1,22.1-16.5
		c3.9-1.1,7.5-2.1,10.4-3.6l0.1-0.1c0.6-0.3,1.5-0.8,2.6-1c5.2-1.1,8.6-3,10.1-5.4c1.2-2,1.3-4.8,0.3-8.4
		C244.1,149.9,242.5,148.3,239,148.3z M236.8,176.9C236.8,176.9,236.8,176.9,236.8,176.9C236.8,176.9,236.8,176.9,236.8,176.9z"/>
	<path class="st0" d="M342.7,151.4c23.7,0,47.4,0.6,71.1-0.2c15.5-0.5,11.4,10.1,11.2,17.9c-0.2,7.5,5.1,18.5-10.7,18.3
		c-47.9-0.5-95.9-0.4-143.8-0.1c-17.2,0.1-9.3-12.6-10.5-20.2c-1.3-8.3-1.7-16.4,11.7-15.9C295.3,152,319,151.4,342.7,151.4z"/>
	<path class="st0" d="M202,360.5c-8.3,0-14.9-6.4-17.5-9c-8.5-8.3-17-16.8-25.3-25c-8.6-8.5-17.5-17.4-26.3-26
		c-6.1-6-9.1-11.9-9-18.2c0-6.5,3.4-12.8,10.3-19.4c14.7-13.9,25.1-14.2,38.6-1c11.5,11.3,23.1,22.9,34.3,34.2
		c5.3,5.3,10.6,10.6,15.9,15.9c0.4,0.4,0.9,0.9,1.3,1.3c3.9,3.8,8.3,8.1,7.6,13.6c-0.3,17-11,24.3-19.6,30.1l-0.2,0.1
		C208.6,359.6,205.2,360.5,202,360.5z M154.2,261.6c-3.9,0-8,2.7-13.7,8.1c-5,4.7-7.4,8.9-7.4,12.7c0,3.6,2,7.4,6.3,11.5
		c8.8,8.6,17.7,17.5,26.3,26c8.2,8.2,16.8,16.7,25.2,25c7.8,7.6,12.1,7.3,16.1,4.6l0.2-0.1c8.3-5.6,15.4-10.4,15.6-22.9l0.1-0.7
		c-0.1-1.2-3.2-4.3-4.9-5.9c-0.5-0.5-0.9-0.9-1.4-1.4c-5.3-5.3-10.6-10.6-15.9-15.9c-11.2-11.2-22.8-22.8-34.3-34.1
		C161.5,263.9,157.9,261.6,154.2,261.6z"/>
	<path class="st0" d="M317.2,211.6c-15.4,0-30.8,0.1-46.3-0.1c-4-0.1-10.1,1.8-10.6-4.5c-0.6-6.9,5.6-5.4,9.6-5.4
		c31.9-0.1,63.9-0.1,95.8,0c3.6,0,8.7-0.9,9,4.5c0.4,7-5.7,5.3-9.6,5.4C349.1,211.7,333.1,211.6,317.2,211.6z"/>
	<path class="st0" d="M317.3,230.9c-16.5,0-33,0-49.6,0c-3.2,0-7.2,0.2-7.6-4.2c-0.6-5.8,4-5.7,7.8-5.7c33-0.1,66.1-0.1,99.1,0
		c3.2,0,7.1-0.3,7.5,4.3c0.6,5.9-4,5.6-7.7,5.6C350.4,231,333.9,230.9,317.3,230.9z"/>
</g>
</svg>
