<svg id="Layer_1" data-name="Layer 1" xmlns="http://www.w3.org/2000/svg" viewBox="0 0 80 80"><defs><style>.cls-1{fill:#8f7049;}</style></defs><title>iconos</title><path class="cls-1" d="M22.28,50.91c0-1.27-.88-2-2.44-2a5.54,5.54,0,0,0-1.3.12v4.09a5,5,0,0,0,1.05.08C21.25,53.17,22.28,52.33,22.28,50.91Z"/><path class="cls-1" d="M31.94,48.92a6.72,6.72,0,0,0-1.42.12V58.1a6,6,0,0,0,1.09.06c2.84,0,4.69-1.54,4.69-4.85C36.32,50.44,34.63,48.92,31.94,48.92Z"/><path class="cls-1" d="M49.89,1.53H19.06A8.18,8.18,0,0,0,10.9,9.7V39.91h-.8A3.29,3.29,0,0,0,6.81,43.2v20a3.29,3.29,0,0,0,3.29,3.29h.8v3.66a8.17,8.17,0,0,0,8.16,8.17H61.12a8.18,8.18,0,0,0,8.17-8.17V20.87ZM15.44,46.8a26.09,26.09,0,0,1,4.23-.29,6.63,6.63,0,0,1,4.23,1.11,4,4,0,0,1,1.48,3.21,4.42,4.42,0,0,1-1.27,3.28,6.41,6.41,0,0,1-4.5,1.46,8.16,8.16,0,0,1-1.07-.06v5h-3.1ZM61.12,73.28H19.06a3.17,3.17,0,0,1-3.16-3.17V66.45H55.11a3.29,3.29,0,0,0,3.29-3.29v-20a3.29,3.29,0,0,0-3.29-3.29H15.9V9.7a3.17,3.17,0,0,1,3.16-3.16l29,0v10.7a5.66,5.66,0,0,0,5.66,5.67l10.49,0,.11,47.26A3.16,3.16,0,0,1,61.12,73.28ZM27.38,60.4V46.8a28.56,28.56,0,0,1,4.23-.29c2.63,0,4.34.48,5.67,1.48a6.12,6.12,0,0,1,2.34,5.22,7,7,0,0,1-2.3,5.61C35.86,60,33.65,60.6,30.94,60.6A27.85,27.85,0,0,1,27.38,60.4Zm22.42-8v2.54h-5v5.57H41.69V46.62h8.46v2.56H44.83v3.17Z"/></svg>