<?xml version="1.0" encoding="utf-8"?>
<!-- Generator: Adobe Illustrator 22.0.1, SVG Export Plug-In . SVG Version: 6.00 Build 0)  -->
<svg version="1.1" id="Layer_1" xmlns="http://www.w3.org/2000/svg" xmlns:xlink="http://www.w3.org/1999/xlink" x="0px" y="0px"
	 viewBox="0 0 80 80" style="enable-background:new 0 0 80 80;" xml:space="preserve">
<style type="text/css">
	.st0{fill:#B5916F;}
	.st1{fill:#135FA7;}
	.st2{fill:#018BD2;}
	.st3{fill:none;}
	.st4{fill:#008BD2;}
	.st5{fill:#2A88E3;}
	.st6{fill:#8F7049;}
	.st7{fill:#08A9E1;}
	.st8{fill:#FFFFFF;}
	.st9{fill:#F6F9F9;}
	.st10{fill:url(#SVGID_1_);}
	.st11{fill:#FFFFFF;stroke:#BABCBE;stroke-width:0.2278;stroke-miterlimit:10;}
	.st12{fill:#FFFFFF;stroke:#F2F2F2;stroke-width:0.2307;stroke-miterlimit:10;}
	.st13{fill:#08A8E0;}
	.st14{fill:none;stroke:#FFFFFF;stroke-width:3.4892;stroke-linecap:round;stroke-linejoin:round;stroke-miterlimit:10;}
	.st15{fill:none;stroke:#FFFFFF;stroke-width:3.4892;stroke-miterlimit:10;}
</style>
<g id="Hearth_report">
	<path class="st1" d="M64.4,8.4H53.5c-0.6-1.6-2.1-2.6-3.7-2.7h-1.9c-0.5,0-1-0.4-1.1-0.9c-1.2-3.4-5-5.2-8.5-4
		c-1.9,0.7-3.3,2.1-4,4c-0.1,0.5-0.6,0.9-1.1,0.9h-1.9c-1.7,0-3.2,1.1-3.7,2.7H16.6c-3.7,0-6.6,3-6.6,6.6v58.3c0,3.7,3,6.6,6.6,6.6
		h47.7c3.7,0,6.6-3,6.6-6.6V15C71,11.4,68,8.4,64.4,8.4z M29.9,9.7c0-0.7,0.6-1.3,1.3-1.3h1.9c1.7,0,3.1-1.1,3.6-2.7
		c0.7-2.1,3-3.1,5.1-2.4c1.1,0.4,2,1.3,2.4,2.4c0.5,1.6,2,2.6,3.6,2.7h1.9c0.7,0,1.3,0.6,1.3,1.3v4H29.9V9.7z M18,11h9.3v5.3h26.5
		V11H63v61H27.2V61.4H18V11z M24.6,64.1v5.8l-5-5.8H24.6z M68.3,73.4c0,2.2-1.8,4-4,4H16.6c-2.2,0-4-1.8-4-4V15
		c0-1.7,1.1-3.2,2.7-3.7v52l10,11.4h40.4V11.3c1.6,0.6,2.6,2.1,2.7,3.7V73.4z"/>
	<path class="st1" d="M39.2,27h2.7v-2.7h2.7v-2.7h-2.7V19h-2.7v2.7h-2.7v2.7h2.7V27z"/>
	<path class="st1" d="M23.3,37.6h34.5v-8H23.3V37.6z M25.9,32.3h29.2v2.7H25.9V32.3z"/>
	<path class="st1" d="M25.9,40.2h2.7v2.7h-2.7V40.2z"/>
	<path class="st1" d="M31.2,40.2h23.9v2.7H31.2V40.2z"/>
	<path class="st1" d="M25.9,45.5h2.7v2.7h-2.7V45.5z"/>
	<path class="st1" d="M31.2,45.5h23.9v2.7H31.2V45.5z"/>
	<path class="st1" d="M25.9,50.8h2.7v2.7h-2.7V50.8z"/>
	<path class="st1" d="M31.2,50.8h23.9v2.7H31.2V50.8z"/>
	<path class="st1" d="M31.2,69.4h23.9V58.8H31.2V69.4z M33.9,61.4h18.6v5.3H33.9V61.4z"/>
</g>
</svg>
