<svg id="Layer_1" data-name="Layer 1" xmlns="http://www.w3.org/2000/svg" viewBox="0 0 350.16 267.33"><defs><style>.cls-1{fill:#194186;}.cls-2{fill:#b2b0b2;}</style></defs><title>RedMedica</title><path class="cls-1" d="M185.28,302.61c9.37,0,14.82-5.82,14.82-13.8,0-11.14-8.23-13.29-13.42-13.29a28.75,28.75,0,0,0-7.21.63v26.46Zm20.89,8.86c6.71,2.65,10.13,9,12.41,18.35,2.52,10.5,5.31,23.53,7.2,27.33h-23c-1.27-2.78-3.8-11.51-5.95-23-2.15-11.9-5.57-15.06-13-15.06h-4.3v38.09H157.32V260.72a166.55,166.55,0,0,1,26.45-2c13,0,38.6,1.4,38.6,28.22a25.74,25.74,0,0,1-16.2,24Z" transform="translate(-157.32 -255.14)"/><path class="cls-1" d="M269.32,314.12c0-6.32-2-14.3-9.75-14.3s-10.5,8.35-10.88,14.3Zm16.83,40.38c-6.58,2.65-15.06,3.92-23.54,3.92-22.4,0-35.06-13.42-35.06-35.69,0-20.38,11.9-38.22,33.16-38.22,17,0,29,11.39,29,35.56a50.79,50.79,0,0,1-.63,9.37H248.82c.5,8.48,8.1,12.4,17.33,12.4a54.13,54.13,0,0,0,17.09-2.79Z" transform="translate(-157.32 -255.14)"/><path class="cls-1" d="M337,315c0-9.87-5.82-12.78-9.62-12.78-8.1,0-11.76,8.86-11.76,19.61,0,12.28,4.8,18.73,11.64,18.73,4.17,0,9.74-2.65,9.74-12.4Zm22.28,20.38c0,7.84.25,16.07.5,21.76H340.32l-1-9.23h-.37a21.53,21.53,0,0,1-18.74,10.63c-16.32,0-27-15.7-27-36.71,0-24.17,13.17-37.33,28-37.33,7.59,0,13,3,15.43,7.34H337V255.14H359.3Z" transform="translate(-157.32 -255.14)"/><polygon class="cls-1" points="40.86 233.65 32.14 233.65 32.14 207.51 8.72 207.51 8.72 233.65 0 233.65 0 176.12 8.72 176.12 8.72 199.85 32.14 199.85 32.14 176.12 40.86 176.12 40.86 233.65"/><path class="cls-1" d="M221.78,453c-7.44,0-10.29,8-10.29,15.1,0,8.1,3.83,14.94,10.22,14.94s10.21-6.84,10.21-15.09c0-6.84-2.85-14.95-10.14-14.95m19.08,14.72c0,15.47-10.07,21.86-19.38,21.86-10.74,0-18.92-7.89-18.92-21.26,0-14,8.56-21.85,19.52-21.85,11.35,0,18.78,8.56,18.78,21.25" transform="translate(-157.32 -255.14)"/><path class="cls-1" d="M265.59,455.22a15.16,15.16,0,0,0-7.89-2.33c-3.9,0-6,2.25-6,5s1.88,4.28,6.91,6.46c6.84,2.78,10.44,6.53,10.44,12.54,0,8-6.08,12.7-15.47,12.7a23,23,0,0,1-11.27-2.78l2-6.47a20,20,0,0,0,9.46,2.79c4.66,0,6.91-2.26,6.91-5.41s-1.73-4.89-6.69-7c-7.35-2.92-10.58-7.06-10.58-11.86,0-6.91,5.63-12.39,14.34-12.39a20.56,20.56,0,0,1,9.84,2.4Z" transform="translate(-157.32 -255.14)"/><path class="cls-1" d="M281.75,472.12c0,7.43,5.11,10.59,9.39,10.59,6.76,0,10.44-6.24,10.44-14.8,0-7.89-3.53-14.42-10.22-14.42-5.18,0-9.61,4.88-9.61,11Zm-.75-18.4a14.64,14.64,0,0,1,13.14-7.21c9.31,0,16.3,8.25,16.3,21.1,0,15.17-8.79,22-17.5,22-5,0-9-2.33-11-5.7h-.15v21.62H273V460.77c0-5.4-.16-9.69-.31-13.36h7.67l.45,6.31Z" transform="translate(-157.32 -255.14)"/><path class="cls-1" d="M323.23,488.79h-8.71V447.33h8.71ZM318.87,441a5.08,5.08,0,1,1,5.11-5,4.9,4.9,0,0,1-5.11,5" transform="translate(-157.32 -255.14)"/><path class="cls-1" d="M331.65,439.9l8.64-2.71v10.22h9.84v6.53h-9.84v20.95c0,5.11,1.57,7.59,5.25,7.59a12.65,12.65,0,0,0,3.83-.53l.3,6.69a19.22,19.22,0,0,1-6.75,1c-3.46,0-6.39-1.13-8.19-3.15-2.1-2.25-3.08-5.71-3.08-11.11V453.94h-5.86v-6.53h5.86Z" transform="translate(-157.32 -255.14)"/><path class="cls-1" d="M373.65,468c-6.83,0-14.72,1.28-14.72,8.64,0,4.58,2.85,6.61,6.08,6.61a8.45,8.45,0,0,0,8.64-8.41Zm8.49,11a56.91,56.91,0,0,0,.59,9.84h-7.88l-.6-4.81H374a14,14,0,0,1-11.56,5.63c-7.74,0-12.17-5.7-12.17-12.08,0-10.3,8.93-15.4,23.13-15.4,0-3.08,0-9.24-8.34-9.24A19,19,0,0,0,355,455.74l-1.8-5.78a25.8,25.8,0,0,1,13.37-3.45c12.17,0,15.55,8,15.55,16.82Z" transform="translate(-157.32 -255.14)"/><rect class="cls-1" x="231.3" y="173.42" width="8.71" height="60.23"/><path class="cls-1" d="M424.44,468c-6.83,0-14.71,1.28-14.71,8.64,0,4.58,2.85,6.61,6.07,6.61a8.45,8.45,0,0,0,8.64-8.41Zm8.49,11a55.87,55.87,0,0,0,.6,9.84h-7.89L425,484h-.23a14,14,0,0,1-11.56,5.63c-7.73,0-12.16-5.7-12.16-12.08,0-10.3,8.93-15.4,23.13-15.4,0-3.08,0-9.24-8.34-9.24a19.08,19.08,0,0,0-10.07,2.85L404,450a25.83,25.83,0,0,1,13.37-3.45c12.17,0,15.55,8,15.55,16.82Z" transform="translate(-157.32 -255.14)"/><path class="cls-1" d="M460.21,455.07a12.83,12.83,0,0,0-2.55-.23c-5.86,0-9.54,4.81-9.54,12v21.94H439.4V460c0-4.81-.07-8.79-.3-12.62h7.59L447,455h.3c1.88-5.26,6.23-8.49,10.74-8.49a10.19,10.19,0,0,1,2.18.23Z" transform="translate(-157.32 -255.14)"/><path class="cls-1" d="M471.19,488.79h-8.71V447.33h8.71ZM466.83,441a5.08,5.08,0,1,1,5.11-5,4.9,4.9,0,0,1-5.11,5" transform="translate(-157.32 -255.14)"/><path class="cls-1" d="M498.39,468c-6.84,0-14.72,1.28-14.72,8.64,0,4.58,2.85,6.61,6.08,6.61a8.45,8.45,0,0,0,8.64-8.41Zm8.48,11a55.87,55.87,0,0,0,.6,9.84h-7.88L499,484h-.22a14,14,0,0,1-11.57,5.63c-7.73,0-12.16-5.7-12.16-12.08,0-10.3,8.93-15.4,23.13-15.4,0-3.08,0-9.24-8.34-9.24a19,19,0,0,0-10.06,2.85L478,450a25.8,25.8,0,0,1,13.37-3.45c12.16,0,15.54,8,15.54,16.82Z" transform="translate(-157.32 -255.14)"/><rect class="cls-2" y="260.44" width="350.16" height="6.89"/><path class="cls-1" d="M212.22,422.45h-4.59L206,395.79c-.53-8.48-1.12-18.69-1-25.08h-.22c-2,6.3-4.36,13.07-7.44,21.32l-11.34,30.35h-3.3L172,392.79c-3.07-8.71-5.4-15.69-7.05-22.08h-.23c-.15,6.76-.6,16.52-1.2,25.84l-1.73,25.9h-4.5l4.05-57h5.49l11.48,31.62c2.63,7.29,4.51,13,6.09,18.7h.3a194.79,194.79,0,0,1,6.16-18.63l11.86-31.69h5.71Z" transform="translate(-157.32 -255.14)"/><path class="cls-1" d="M237.41,364.17h6.23L233.43,376H230Zm7.66,34.25c.07-5.78-2.33-13.82-11.42-13.82-8.41,0-12.09,7.74-12.76,13.82Zm2.48,22.3c-1.81,1-5.94,2.56-12.62,2.56-11.71,0-18.85-8.48-18.85-20.43,0-13.29,7.51-22,18-22,12.92,0,15.62,12.17,15.7,18.47,0,1.13-.08,1.81-.15,2.71h-29c0,12.61,6.91,17.5,14.87,17.5a22.86,22.86,0,0,0,10.89-2.26Z" transform="translate(-157.32 -255.14)"/><path class="cls-1" d="M282.8,398c0-8.34-6-13.29-12.4-13.29-8.41,0-13.67,7.66-13.67,17.8,0,8.94,4.35,17,13.45,17,8.41,0,12.62-7.81,12.62-13.44Zm4.65,14.87c0,3.08.15,6.83.38,9.61h-4.21l-.3-7.43h-.23c-2,4.43-6.76,8.33-14,8.33-9.76,0-17.12-8.18-17.12-20.57,0-13.6,8.19-21.93,17.95-21.93,6.53,0,10.82,3.38,12.69,6.91h.16V362.52h4.65Z" transform="translate(-157.32 -255.14)"/><path class="cls-1" d="M300.61,422.45H296V381.82h4.65ZM298.28,374a3.55,3.55,0,0,1-3.45-3.75,3.61,3.61,0,0,1,3.53-3.68,3.46,3.46,0,0,1,3.46,3.68,3.5,3.5,0,0,1-3.54,3.75" transform="translate(-157.32 -255.14)"/><path class="cls-1" d="M336.9,420.72a26.2,26.2,0,0,1-11.5,2.56c-11.57,0-19.3-8.41-19.3-20.73,0-12.77,8.56-21.7,20.81-21.7a20.63,20.63,0,0,1,10.21,2.4L335.7,387a18.29,18.29,0,0,0-9.17-2.33c-10.37,0-15.7,8.18-15.7,17.57,0,10.44,6.39,17.2,15.32,17.2a21.54,21.54,0,0,0,9.69-2.33Z" transform="translate(-157.32 -255.14)"/><path class="cls-1" d="M368.69,412.79a73,73,0,0,0,.59,9.62h-3.63l-.59-5.82h-.25a15.19,15.19,0,0,1-12.91,6.75c-8.09,0-11.89-5.74-11.89-11.14,0-9.36,8.27-15,24.72-14.84v-1c0-4.05-.76-12.07-10.38-12a17.29,17.29,0,0,0-10.12,3L343,384.45A22,22,0,0,1,354.77,381c11.73,0,13.92,8.78,13.92,16Zm-4-12.06c-8.86-.25-20.5,1.1-20.5,10.8,0,5.82,3.88,8.43,8.1,8.43a12.18,12.18,0,0,0,12-8.09,8.61,8.61,0,0,0,.43-2.45Z" transform="translate(-157.32 -255.14)"/></svg>