<?xml version="1.0" encoding="utf-8"?>
<!-- Generator: Adobe Illustrator 22.0.1, SVG Export Plug-In . SVG Version: 6.00 Build 0)  -->
<svg version="1.1" id="Layer_1" xmlns="http://www.w3.org/2000/svg" xmlns:xlink="http://www.w3.org/1999/xlink" x="0px" y="0px"
	 viewBox="0 0 200 200" style="enable-background:new 0 0 200 200;" xml:space="preserve">
<style type="text/css">
	.st0{fill:#135FA7;}
	.st1{fill:#8F7049;}
	.st2{fill:#004289;}
	.st3{fill:#56BFEF;}
	.st4{fill:#1D4A7D;}
	.st5{fill:url(#SVGID_1_);}
	.st6{fill:#008BD2;}
	.st7{fill:#416DB1;}
	.st8{fill:none;stroke:#135FA7;stroke-width:3.0855;stroke-miterlimit:10;}
</style>
<g>
	<path class="st0" d="M130.4,83.2C130.4,83.2,130.4,83.2,130.4,83.2H52.4c-0.7,0-1.3,0.6-1.3,1.3c0,0,0,0,0,0V122
		c0,0.7,0.6,1.3,1.3,1.3c0,0,0,0,0,0h53.1c0.7,0,1.3-0.6,1.3-1.3s-0.6-1.3-1.3-1.3H53.7V85.9h75.4v3.3c0,0.7,0.6,1.3,1.3,1.3
		c0,0,0,0,0,0c0.7,0,1.3-0.6,1.3-1.3c0,0,0,0,0,0v-4.7C131.8,83.8,131.2,83.2,130.4,83.2L130.4,83.2z M130.4,83.2"/>
	<path class="st0" d="M124.5,77L62,63c-0.3-0.1-0.7,0-1,0.2c-0.3,0.2-0.5,0.5-0.6,0.8L57.3,78c-0.2,0.7,0.3,1.4,1,1.6
		c0.7,0.2,1.4-0.3,1.6-1l2.8-12.7l61.2,13.8c0.1,0,0.2,0,0.3,0c0.7,0,1.3-0.6,1.3-1.3C125.5,77.7,125.1,77.1,124.5,77L124.5,77z
		 M124.5,77"/>
	<path class="st0" d="M112.2,69.3L74.7,53.7c-0.7-0.3-1.4,0-1.7,0.6l-3.1,6.2c-0.4,0.7-0.1,1.5,0.5,1.8c0.7,0.4,1.5,0.1,1.8-0.5
		c0,0,0-0.1,0-0.1v0l2.6-5.1l36.3,15.1c0.7,0.3,1.5,0,1.8-0.7C113.2,70.3,112.9,69.6,112.2,69.3L112.2,69.3z M112.2,69.3"/>
	<path class="st0" d="M120.6,89.5h-12.4c-0.7,0-1.3,0.6-1.3,1.3s0.6,1.3,1.3,1.3h12.4c0.7,0,1.3-0.6,1.3-1.3S121.3,89.5,120.6,89.5
		L120.6,89.5z M120.6,89.5"/>
	<path class="st0" d="M92.4,89.6c-7.6,0-13.7,6.2-13.7,13.7c0,7.6,6.2,13.7,13.7,13.7c7.6,0,13.7-6.2,13.7-13.7
		C106.1,95.7,100,89.6,92.4,89.6L92.4,89.6z M92.4,114.5c-6.2,0-11.2-5-11.2-11.2c0-6.2,5-11.2,11.2-11.2c6.2,0,11.2,5,11.2,11.2
		C103.6,109.5,98.6,114.5,92.4,114.5L92.4,114.5z M92.4,114.5"/>
	<path class="st0" d="M130.4,93.9c-8.3,0-17.2,2-17.2,6.2v37.5c0,4.3,8.9,6.2,17.2,6.2c8.3,0,17.2-2,17.2-6.2v-37.5
		C147.6,95.9,138.7,93.9,130.4,93.9L130.4,93.9z M144.4,137.6c-0.2,0.9-4.9,3.1-14.1,3.1c-9.1,0-13.8-2.3-14.1-3.1v-2.5
		c3.3,1.7,8.8,2.5,14.1,2.5c5.2,0,10.7-0.8,14.1-2.5V137.6z M144.4,131.4c-0.2,0.9-4.9,3.1-14.1,3.1c-9.1,0-13.8-2.3-14.1-3.1V129
		c3.3,1.7,8.8,2.5,14.1,2.5c5.2,0,10.7-0.8,14.1-2.5V131.4z M144.4,125.1c-0.2,0.9-4.9,3.1-14.1,3.1c-9.1,0-13.8-2.3-14.1-3.1v-2.5
		c3.3,1.7,8.8,2.5,14.1,2.5c5.2,0,10.7-0.8,14.1-2.5V125.1z M144.4,118.9c-0.2,0.9-4.9,3.1-14.1,3.1c-9.1,0-13.8-2.3-14.1-3.1v-2.5
		c3.3,1.7,8.8,2.5,14.1,2.5c5.2,0,10.7-0.8,14.1-2.5V118.9z M144.4,112.6c-0.2,0.9-4.9,3.1-14.1,3.1c-9.1,0-13.8-2.3-14.1-3.1v-2.5
		c3.3,1.7,8.8,2.5,14.1,2.5c5.2,0,10.7-0.8,14.1-2.5V112.6z M144.4,106.4c-0.2,0.9-4.9,3.1-14.1,3.1c-9.1,0-13.8-2.3-14.1-3.1V104
		c3.3,1.7,8.8,2.5,14.1,2.5c5.2,0,10.7-0.8,14.1-2.5V106.4z M130.4,103.3c-9.1,0-13.8-2.3-14.1-3.1v0c0.3-0.9,4.9-3.1,14.1-3.1
		c9.1,0,13.7,2.2,14.1,3.1C144.1,101.1,139.5,103.3,130.4,103.3L130.4,103.3z M130.4,103.3"/>
	<path class="st0" d="M76.8,114.5H65l-5.6-6.1V98.2l6.2-6h11.2c0.7,0,1.3-0.6,1.3-1.3s-0.6-1.3-1.3-1.3H65c-0.3,0-0.7,0.1-0.9,0.4
		l-7,6.8c-0.3,0.3-0.4,0.7-0.4,1.1v11.1c0,0.3,0.1,0.7,0.4,0.9l6.3,6.9c0.3,0.3,0.6,0.4,1,0.4h12.4c0.7,0,1.3-0.6,1.3-1.3
		C78.1,115.1,77.5,114.5,76.8,114.5L76.8,114.5z M76.8,114.5"/>
	<path class="st0" d="M92.2,101.7h-1.6c-0.5,0-0.8-0.3-0.8-0.4c0-0.1,0.3-0.4,0.8-0.4h3.9c0.9,0,1.6-0.7,1.6-1.6
		c0-0.9-0.7-1.6-1.6-1.6H93c0-0.9-0.7-1.6-1.6-1.6c-0.9,0-1.6,0.7-1.6,1.6v0.1c-1.7,0.2-3,1.7-3.1,3.4c0.1,2,1.9,3.6,3.9,3.5h1.6
		c0.5,0,0.8,0.3,0.8,0.4c0,0.1-0.3,0.4-0.8,0.4h-3.9c-0.9,0-1.6,0.7-1.6,1.6c0,0.9,0.7,1.6,1.6,1.6h1.6c0,0.9,0.7,1.6,1.6,1.6
		c0.9,0,1.6-0.7,1.6-1.6v-0.1c1.7-0.2,3-1.7,3.1-3.4C96,103.2,94.2,101.6,92.2,101.7L92.2,101.7z M92.2,101.7"/>
</g>
</svg>
