<?xml version="1.0" encoding="utf-8"?>
<!-- Generator: Adobe Illustrator 22.0.1, SVG Export Plug-In . SVG Version: 6.00 Build 0)  -->
<svg version="1.1" id="Layer_1" xmlns="http://www.w3.org/2000/svg" xmlns:xlink="http://www.w3.org/1999/xlink" x="0px" y="0px"
	 viewBox="0 0 200 200" style="enable-background:new 0 0 200 200;" xml:space="preserve">
<style type="text/css">
	.st0{fill:#135FA7;}
	.st1{fill:#8F7049;}
	.st2{fill:#004289;}
	.st3{fill:#56BFEF;}
	.st4{fill:#1D4A7D;}
	.st5{fill:url(#SVGID_1_);}
	.st6{fill:#008BD2;}
	.st7{fill:#416DB1;}
	.st8{fill:none;stroke:#135FA7;stroke-width:3.0855;stroke-miterlimit:10;}
</style>
<path class="st0" d="M131.8,86.5l-16.2-26.3c-0.6-0.9-1.6-1.5-2.6-1.5H84.5c-1.1,0-2.1,0.6-2.6,1.5l-5.1,8.2
	c-0.4,0.6-0.2,1.4,0.4,1.8c0.6,0.4,1.4,0.2,1.8-0.4l5.1-8.2c0.1-0.1,0.2-0.2,0.4-0.2H113c0.2,0,0.3,0.1,0.4,0.2l16.2,26.3
	c0.1,0.1,0.1,0.2,0,0.4l-18.5,58c-0.1,0.2-0.2,0.3-0.4,0.3H86.8c-0.2,0-0.4-0.1-0.4-0.3l-18.5-58c0-0.1,0-0.3,0-0.4l8.2-13.4
	c0.4-0.6,0.2-1.4-0.4-1.8c-0.6-0.4-1.4-0.2-1.8,0.4l-8.2,13.4c-0.5,0.8-0.6,1.7-0.3,2.6l18.5,58c0.4,1.3,1.6,2.2,2.9,2.2h23.8
	c1.4,0,2.5-0.9,2.9-2.2l18.5-58C132.4,88.2,132.3,87.2,131.8,86.5L131.8,86.5z M131.8,86.5"/>
<path class="st0" d="M109.9,99.9c0-2-1.6-3.6-3.6-3.6h-3.9v-3.9c0-2-1.6-3.6-3.6-3.6c-2,0-3.6,1.6-3.6,3.6v3.9h-3.9
	c-2,0-3.6,1.6-3.6,3.6c0,2,1.6,3.6,3.6,3.6h3.9v12c0,2,1.6,3.6,3.6,3.6c2,0,3.6-1.6,3.6-3.6v-12h3.9
	C108.3,103.6,109.9,101.9,109.9,99.9L109.9,99.9z M101.1,100.9c-0.7,0-1.3,0.6-1.3,1.3v13.3c0,0.5-0.4,1-1,1c-0.5,0-1-0.4-1-1v-13.3
	c0-0.7-0.6-1.3-1.3-1.3h-5.2c-0.5,0-1-0.4-1-1c0-0.5,0.4-1,1-1h5.2c0.7,0,1.3-0.6,1.3-1.3v-5.2c0-0.5,0.4-1,1-1c0.5,0,1,0.4,1,1v5.2
	c0,0.7,0.6,1.3,1.3,1.3h5.2c0.5,0,1,0.4,1,1c0,0.5-0.4,1-1,1H101.1z M101.1,100.9"/>
<path class="st0" d="M94.7,120.3c-0.7,0-1.3,0.6-1.3,1.3s0.6,1.3,1.3,1.3h8.2c0.7,0,1.3-0.6,1.3-1.3s-0.6-1.3-1.3-1.3H94.7z
	 M94.7,120.3"/>
<path class="st0" d="M122.7,86.3c0.8-0.6,1-1.6,0.4-2.4l-10.6-17.2c-0.7-1.2-2-1.9-3.4-1.9H88.4c-1.4,0-2.7,0.7-3.4,1.9L74.4,83.8
	c-0.5,0.8-0.3,1.9,0.4,2.4c0.8,0.6,1.2,1.4,1.2,2.4c0,1.2-0.7,2.3-1.8,2.8c-0.9,0.4-1.3,1.3-1,2.3l15.2,47.6
	c0.4,1.1,1.4,1.9,2.6,1.9h15.6c1.2,0,2.2-0.8,2.6-1.9l6.6-20.7c0.2-0.7-0.2-1.4-0.9-1.7c-0.7-0.2-1.4,0.2-1.7,0.9l-6.6,20.7
	c0,0,0,0.1-0.1,0.1H91c0,0-0.1,0-0.1-0.1l-15-47c1.7-1,2.8-2.8,2.8-4.9c0-1.5-0.6-3-1.7-4L87.2,68c0.2-0.4,0.7-0.6,1.1-0.6h20.7
	c0.5,0,0.9,0.2,1.1,0.6l10.2,16.6c-1.1,1.1-1.7,2.5-1.7,4c0,2,1.1,3.8,2.8,4.9l-6.7,21.1c-0.2,0.7,0.2,1.4,0.9,1.7
	c0.7,0.2,1.4-0.2,1.7-0.9l6.9-21.8c0.3-0.9-0.1-1.9-1-2.3c-1.1-0.5-1.8-1.6-1.8-2.8C121.5,87.7,121.9,86.9,122.7,86.3L122.7,86.3z
	 M122.7,86.3"/>
</svg>
