<?xml version="1.0" encoding="utf-8"?>
<!-- Generator: Adobe Illustrator 22.0.1, SVG Export Plug-In . SVG Version: 6.00 Build 0)  -->
<svg version="1.1" id="Layer_1" xmlns="http://www.w3.org/2000/svg" xmlns:xlink="http://www.w3.org/1999/xlink" x="0px" y="0px"
	 viewBox="0 0 600 600" style="enable-background:new 0 0 600 600;" xml:space="preserve">
<style type="text/css">
	.st0{fill:#B5916F;}
	.st1{fill:#212324;}
	.st2{font-family:'OpenSans-Italic';}
	.st3{font-size:55.301px;}
	.st4{fill:#004289;}
	.st5{fill:#018BD2;}
	.st6{fill:none;}
	.st7{fill:#008BD2;}
</style>
<text transform="matrix(1 0 0 1 234.0871 492.7729)" class="st1 st2 st3">Salud</text>
<g>
	<g>
		<g>
			<g>
				<rect x="248.8" y="145" class="st4" width="55.6" height="7.4"/>
			</g>
			<g>
				<rect x="335.6" y="145" class="st4" width="26" height="7.4"/>
			</g>
			<g>
				<path class="st4" d="M335.6,149.1c0,8.9-7.2,16-16,16c-8.9,0-16-7.2-16-16c0-8.9,7.2-16,16-16
					C328.4,133.1,335.6,140.3,335.6,149.1z"/>
				<path class="st4" d="M319.6,168.8c-10.9,0-19.7-8.8-19.7-19.7c0-10.9,8.8-19.7,19.7-19.7c10.9,0,19.7,8.8,19.7,19.7
					C339.3,160,330.4,168.8,319.6,168.8z M319.6,136.8c-6.8,0-12.4,5.5-12.4,12.4c0,6.8,5.5,12.3,12.4,12.3
					c6.8,0,12.4-5.5,12.4-12.3C331.9,142.3,326.4,136.8,319.6,136.8z"/>
			</g>
		</g>
		<g>
			<g>
				<g>
					<g>
						<g>
							<g>
								<path class="st4" d="M243.3,167.2v-19.4c0-30.4,24.7-55.1,55.1-55.1c18.6,0,34.8,12.6,39.5,30.5c1.2,4.7-5.8,6.5-7,1.8
									c-11.2-43.4-80.3-27-80.3,22.8v19.4C250.6,172,243.3,172,243.3,167.2z"/>
								<path class="st4" d="M246.9,172.6c-2.7,0-5.5-1.9-5.5-5.4v-19.4c0-31.4,25.5-56.9,56.9-56.9c19.4,0,36.4,13.1,41.2,31.9
									c0.9,3.5-1.3,6-3.9,6.6c-2.6,0.7-5.8-0.5-6.7-3.9c-3.4-13.1-14.7-26.1-36.4-23.3c-20,2.5-40.3,19-40.3,45.6v19.4
									C252.4,170.7,249.6,172.6,246.9,172.6z M298.4,94.5c-29.4,0-53.3,23.9-53.3,53.3v19.4c0,1.6,1.4,1.8,1.8,1.8
									c0.3,0,1.8-0.1,1.8-1.8v-19.4c0-28.7,21.9-46.5,43.5-49.3c19.8-2.5,35.7,7.7,40.4,26.1c0.4,1.6,1.9,1.3,2.2,1.3
									c0.4-0.1,1.7-0.6,1.3-2.2C331.6,106.5,316.1,94.5,298.4,94.5z"/>
							</g>
						</g>
					</g>
				</g>
			</g>
			<g>
				<g>
					<g>
						<g>
							<g>
								<path class="st4" d="M360.9,169.6c-2,0-3.6-1.6-3.6-3.6v-29.1c0-14.7-15.3-26.2-31.1-25.6c-4.7,0.3-5.1-7.1-0.3-7.3
									c10.7-0.4,21.3,3.6,28.8,10.9c6.3,6.1,9.8,13.9,9.8,22V166C364.6,168,362.9,169.6,360.9,169.6z"/>
								<path class="st4" d="M360.9,171.5c-3,0-5.5-2.5-5.5-5.5v-29.1c0-5.6-2.5-11-7-15.4c-5.7-5.5-14-8.6-22.2-8.3
									c-2,0.1-3.7-0.7-4.7-2.3c-1.1-1.7-1.2-4-0.3-5.8c0.9-1.7,2.6-2.7,4.6-2.8c11.3-0.4,22.3,3.8,30.2,11.4
									c6.7,6.4,10.4,14.7,10.4,23.3V166C366.4,169,363.9,171.5,360.9,171.5z M327.3,109.5c8.8,0,17.6,3.5,23.7,9.4
									c5.2,5,8.1,11.4,8.1,18V166c0,1,0.8,1.8,1.8,1.8c1,0,1.8-0.8,1.8-1.8v-29.1c0-7.6-3.3-14.9-9.2-20.7
									c-7.2-6.9-17.2-10.7-27.5-10.3c-0.7,0-1.2,0.3-1.5,0.8c-0.3,0.6-0.3,1.5,0.1,2.1c0.3,0.5,0.8,0.7,1.5,0.7
									C326.5,109.5,326.9,109.5,327.3,109.5z"/>
							</g>
						</g>
					</g>
				</g>
			</g>
			<g>
				<g>
					<g>
						<g>
							<g>
								<path class="st4" d="M297.3,350.7c-4.8,0-4.8-7.2,0-7.2C302,343.4,302,350.7,297.3,350.7z"/>
								<path class="st4" d="M297.3,352.5c-3.5,0-5.4-2.8-5.4-5.4c0-1.4,0.5-2.7,1.4-3.7c1-1.1,2.4-1.7,4.1-1.7
									c3.5,0,5.4,2.8,5.4,5.4c0,1.4-0.5,2.7-1.4,3.7C300.3,351.9,298.9,352.5,297.3,352.5z M297.3,345.3c-0.6,0-1,0.2-1.3,0.5
									c-0.3,0.3-0.4,0.8-0.4,1.3c0,0.3,0.1,1.8,1.7,1.8c0.6,0,1-0.2,1.3-0.5c0.3-0.3,0.4-0.8,0.4-1.3
									C299,346.6,298.9,345.3,297.3,345.3z"/>
							</g>
						</g>
					</g>
				</g>
			</g>
			<g>
				<g>
					<g>
						<g>
							<g>
								<path class="st4" d="M238.7,326.3c-4.8,0-4.8-7.2,0-7.2C243.4,319.1,243.4,326.3,238.7,326.3z"/>
								<path class="st4" d="M238.7,328.1c-3.5,0-5.4-2.8-5.4-5.4c0-1.4,0.5-2.7,1.4-3.7c1-1.1,2.4-1.7,4.1-1.7
									c3.5,0,5.4,2.8,5.4,5.4c0,1.4-0.5,2.7-1.4,3.7C241.7,327.5,240.3,328.1,238.7,328.1z M238.7,320.9c-0.6,0-1,0.2-1.3,0.5
									c-0.3,0.3-0.4,0.8-0.4,1.3c0,0.4,0.1,1.8,1.7,1.8c0.6,0,1-0.2,1.3-0.5c0.3-0.3,0.4-0.8,0.4-1.3
									C240.4,322.3,240.3,320.9,238.7,320.9z"/>
							</g>
						</g>
					</g>
				</g>
			</g>
			<g>
				<g>
					<g>
						<g>
							<g>
								<path class="st4" d="M297.3,368.8c-4.8,0-4.8-7.2,0-7.2C302,361.6,302,368.8,297.3,368.8z"/>
								<path class="st4" d="M297.3,370.7c-3.5,0-5.4-2.8-5.4-5.4c0-1.4,0.5-2.7,1.4-3.7c1-1.1,2.4-1.7,4.1-1.7
									c3.5,0,5.4,2.8,5.4,5.4c0,1.4-0.5,2.7-1.4,3.7C300.3,370.1,298.9,370.7,297.3,370.7z M297.3,363.5c-0.6,0-1,0.2-1.3,0.5
									c-0.3,0.3-0.4,0.8-0.4,1.3c0,0.3,0.1,1.8,1.7,1.8c0.6,0,1-0.2,1.3-0.5c0.3-0.3,0.4-0.8,0.4-1.3
									C299,364.8,298.9,363.5,297.3,363.5z"/>
							</g>
						</g>
					</g>
				</g>
			</g>
			<g>
				<g>
					<g>
						<g>
							<g>
								<path class="st4" d="M357.1,200c-0.2,0-0.5,0-0.7-0.1c-2-0.4-3.3-2.3-2.9-4.3c0.6-3.3,2.9-4.9,4.5-6c1.9-1.3,3.9-2.7,5.2-8
									c1.9-7.8,0.5-11.1-0.5-11.8c-0.7-0.5-1.7-0.2-2.4,0.3c-1.6,1.2-3.9,0.8-5.1-0.9c-1.2-1.6-0.7-3.9,0.9-5.1
									c3.3-2.3,7.5-2.5,10.6-0.4c3.2,2.2,6.4,7.4,3.5,19.5c-1.9,7.9-5.6,10.5-8,12.2c-1.4,1-1.5,1.1-1.5,1.4
									C360.3,198.8,358.8,200,357.1,200z"/>
								<path class="st4" d="M357.1,201.8c-0.4,0-0.7,0-1-0.1c-3-0.6-4.9-3.5-4.3-6.4c0.8-4,3.6-6,5.2-7.1c1.8-1.3,3.3-2.3,4.4-6.9
									c1.6-6.6,0.6-9.1,0.3-9.7c-0.1,0-0.2,0.1-0.3,0.2c-1.2,0.8-2.6,1.2-4.1,0.9c-1.4-0.3-2.7-1.1-3.5-2.3
									c-1.7-2.5-1.1-5.9,1.3-7.6c4-2.8,9-2.9,12.7-0.4c3.7,2.5,7.4,8.3,4.3,21.5c-2.1,8.6-6.3,11.6-8.8,13.3
									c-0.4,0.3-0.7,0.5-0.9,0.6C361.8,200.1,359.6,201.8,357.1,201.8z M361.8,167.8c0.7,0,1.3,0.2,1.8,0.5
									c0.9,0.6,3.8,3.5,1.3,13.8c-1.4,5.9-3.9,7.7-5.9,9.1c-1.5,1.1-3.2,2.3-3.7,4.8c-0.2,1,0.4,1.9,1.4,2.1c0.1,0,0.2,0,0.3,0
									c0.9,0,1.6-0.6,1.8-1.4c0.2-1.2,1-1.7,2.3-2.6c2.4-1.7,5.6-3.9,7.3-11.2c2.1-8.8,1.2-14.9-2.8-17.6
									c-2.5-1.7-5.8-1.5-8.5,0.4c-0.8,0.6-1,1.7-0.4,2.5c0.3,0.4,0.7,0.7,1.2,0.7c0.5,0.1,0.9,0,1.3-0.3
									C360.1,168,361,167.8,361.8,167.8z"/>
							</g>
						</g>
					</g>
				</g>
			</g>
			<g>
				<g>
					<g>
						<g>
							<g>
								<path class="st4" d="M243.3,197c-0.1-0.3-0.1-0.5-1.5-1.4c-2.4-1.7-6.1-4.3-8-12.2c-4.9-20.2,7.3-23.9,14.1-19.2
									c3.9,2.8-0.2,8.7-4.2,6c-3.7-2.6-4.7,3.9-2.9,11.5c2.4,9.8,8.3,7.1,9.6,14c0.4,2-0.9,3.9-2.9,4.3
									C245.6,200.3,243.6,199,243.3,197z"/>
								<path class="st4" d="M246.8,201.8c-2.5,0-4.7-1.7-5.3-4.1c-0.2-0.1-0.4-0.3-0.9-0.6c-2.5-1.8-6.7-4.7-8.8-13.3
									c-3.3-13.9,1.2-19.4,4.2-21.5c3.7-2.5,8.8-2.4,12.7,0.4c1.7,1.2,2.5,2.9,2.4,4.8c-0.2,2-1.5,3.8-3.3,4.7
									c-1.7,0.8-3.7,0.6-5.3-0.6c-0.1-0.1-0.3-0.2-0.3-0.2c-0.5,0.8-1,4.3,0.3,9.8c1.1,4.6,3,5.9,4.9,7.3c1.9,1.3,4,2.8,4.7,6.7
									c0.6,3-1.4,5.8-4.3,6.4C247.5,201.8,247.2,201.8,246.8,201.8z M245.1,196.7c0.2,1,1.1,1.6,2.1,1.4c1-0.2,1.6-1.1,1.4-2.1
									c-0.5-2.5-1.6-3.3-3.3-4.5c-2.2-1.6-4.9-3.5-6.4-9.5c-1.3-5.4-1.6-11.8,1.3-13.8c0.7-0.5,2.3-1.1,4.4,0.3
									c0.6,0.4,1.1,0.5,1.7,0.2c0.6-0.3,1.1-1,1.2-1.7c0.1-0.6-0.2-1.1-0.8-1.5c-2.7-1.9-6.1-2-8.6-0.4c-3.8,2.6-4.8,9-2.7,17.6
									c1.7,7.3,5,9.5,7.3,11.2C244.1,195,244.8,195.5,245.1,196.7z M243.3,197l-1.8,0.3c0,0,0,0,0,0L243.3,197z"/>
							</g>
						</g>
					</g>
				</g>
			</g>
			<g>
				<g>
					<g>
						<g>
							<g>
								<path class="st4" d="M302.4,259.7l-0.5,0l-0.4,0c-28.3,0-52.8-26.4-58.3-62.8c-0.7-4.7,6.5-5.8,7.2-1.1
									c4.9,32.8,26.4,56.7,51.1,56.7l0.4,0l0.5,0c24.7,0,46.2-23.8,51.1-56.7c0.3-2,2.1-3.4,4.1-3.1c2,0.3,3.4,2.1,3.1,4.1
									C355.2,233.3,330.7,259.7,302.4,259.7z"/>
								<path class="st4" d="M302.4,261.6h-0.9c-29.2,0-54.5-27.1-60.1-64.4c-0.5-3.5,2-5.8,4.6-6.2c2.7-0.4,5.7,1,6.2,4.6
									c4.8,31.9,25.5,55.1,49.3,55.1l0.4,0l0.5,0c23.7,0,44.5-23.2,49.3-55.1c0.2-1.4,1-2.7,2.2-3.6c1.2-0.9,2.6-1.2,4.1-1
									c1.4,0.2,2.7,1,3.6,2.2c0.9,1.2,1.2,2.6,1,4.1C356.9,234.5,331.6,261.6,302.4,261.6z M246.9,194.6c-0.1,0-0.3,0-0.3,0
									c-0.3,0-1.8,0.4-1.5,2c5.3,35.5,29.1,61.3,56.5,61.3l0.4,0l0.5,0c27.4,0,51.1-25.8,56.5-61.3c0.1-0.5,0-0.9-0.3-1.3
									c-0.3-0.4-0.7-0.6-1.2-0.7c-0.5-0.1-0.9,0-1.3,0.3c-0.4,0.3-0.6,0.7-0.7,1.2c-5.1,33.7-27.3,58.2-52.9,58.2l-0.5,0l-0.4,0
									c-25.6,0-47.8-24.5-52.9-58.2C248.4,194.8,247.5,194.6,246.9,194.6z"/>
							</g>
						</g>
					</g>
				</g>
			</g>
			<g>
				<g>
					<g>
						<g>
							<g>
								<path class="st4" d="M326.1,383.4H202c-2,0-3.6-1.6-3.6-3.6c0-0.2,0-55.1,0-55.2c1.7-28.1,18.9-52.5,41.6-63.2
									c4.4-2.1,7.4,4.5,3.1,6.6c-20,9.4-35.8,31.2-37.4,56.9v56.4h120.4C330.9,381.3,330.9,383.4,326.1,383.4z"/>
								<path class="st4" d="M326.1,385.2H202c-3,0-5.5-2.5-5.5-5.5v-0.1c0-55,0-55.1,0-55.2c1.7-27.9,18.5-53.3,42.6-64.7
									c1.8-0.9,3.8-0.7,5.4,0.4c1.7,1.1,2.6,3.2,2.4,5.2c-0.2,1.9-1.3,3.5-3.1,4.4c-20.5,9.7-34.8,31.4-36.3,55.3v54.5h118.6
									c4.7,0,5.4,1.8,5.4,2.9S330.8,385.2,326.1,385.2z M241.6,262.8c-0.3,0-0.6,0.1-0.9,0.2c-23,10.8-38.9,35-40.5,61.6
									c0,0.7,0,49.4,0,55v0.1c0,1,0.8,1.8,1.8,1.8h1.8l0-56.8c1.6-25.3,16.7-48.2,38.5-58.5c0.6-0.3,1-0.7,1-1.3
									c0.1-0.7-0.3-1.5-0.9-1.9C242.2,262.9,241.9,262.8,241.6,262.8z"/>
							</g>
						</g>
					</g>
				</g>
			</g>
			<g>
				<g>
					<g>
						<g>
							<g>
								<path class="st4" d="M397.9,379.8v-54.9c-1.7-26.3-18.4-49.9-41.7-58.7c-1.9-0.7-2.8-2.8-2.1-4.7c0.7-1.9,2.8-2.8,4.7-2.1
									c28.8,10.9,46.4,41.9,46.4,65.4v55C405.2,384.6,397.9,384.6,397.9,379.8z"/>
								<path class="st4" d="M401.6,385.2c-2.7,0-5.5-1.9-5.5-5.4v-54.9c-1.6-25.6-17.9-48.5-40.5-57.1c-1.4-0.5-2.5-1.5-3.1-2.9
									s-0.6-2.8-0.1-4.2c0.5-1.4,1.5-2.5,2.9-3.1c1.3-0.6,2.8-0.6,4.2-0.1c29.8,11.3,47.6,43,47.6,67.2v55
									C407,383.3,404.2,385.2,401.6,385.2z M357.5,260.9c-0.2,0-0.5,0.1-0.7,0.2c-0.4,0.2-0.8,0.6-0.9,1c-0.2,0.4-0.2,0.9,0,1.4
									c0.2,0.4,0.6,0.8,1,0.9c23.9,9.1,41.2,33.3,42.9,60.4l0,0.1v54.9c0,0.6,0.2,1,0.5,1.3c0.3,0.3,0.8,0.4,1.3,0.4
									c0.3,0,1.8-0.1,1.8-1.8v-55c0-22.9-16.9-53-45.2-63.7C357.9,261,357.7,260.9,357.5,260.9z"/>
							</g>
						</g>
					</g>
				</g>
			</g>
			<g>
				<g>
					<g>
						<g>
							<g>
								<path class="st4" d="M277.3,374.8c0-41.6-0.8-40.7,2.2-42c4.7-2.1,58.5-10.8,61.6-73.2c0.1-2,1.8-3.5,3.8-3.4
									c2,0.1,3.6,1.8,3.4,3.8c-1.4,28.3-13.6,64.8-63.7,78.9v35.9C284.5,379.6,277.3,379.6,277.3,374.8z"/>
								<path class="st4" d="M280.9,380.3c-2.7,0-5.5-1.9-5.5-5.4c0-9,0-15.9-0.1-21.4c-0.1-9.8-0.1-14.8,0.2-17.4
									c0.3-3.1,1.2-4,3-4.8l0.1,0c0.6-0.3,1.5-0.5,2.9-0.9c36.4-10.4,55.7-34.2,57.6-70.7c0.1-3,2.7-5.3,5.7-5.2
									c1.5,0.1,2.8,0.7,3.8,1.8c1,1.1,1.5,2.5,1.4,3.9c-1.4,28.6-13.7,65.6-63.7,80.2v34.5C286.4,378.3,283.5,380.3,280.9,380.3z
									 M344.7,258c-0.9,0-1.8,0.8-1.8,1.7c-1.2,24.4-10.2,43.7-26.6,57.3c-13.2,10.9-27.5,15-33.6,16.7c-1.1,0.3-2.1,0.6-2.5,0.8
									l-0.1,0.1c-0.2,0.1-0.5,0.2-0.5,0.3c-0.6,0.8-0.5,6.7-0.5,18.6c0,5.5,0.1,12.5,0.1,21.4c0,1.6,1.4,1.8,1.8,1.8
									c0.3,0,1.8-0.1,1.8-1.8v-37.3l1.3-0.4c49.1-13.7,61-49.6,62.4-77.2c0-0.5-0.1-0.9-0.5-1.3
									C345.6,258.3,345.2,258.1,344.7,258C344.7,258,344.7,258,344.7,258z"/>
							</g>
						</g>
					</g>
				</g>
			</g>
			<g>
				<g>
					<g>
						<g>
							<g>
								<path class="st4" d="M299.7,332c-28.5-12.1-48.3-41.2-45.1-73.2c0.5-4.8,7.7-4.1,7.2,0.7c-0.2,2.1-0.3,4.3-0.3,6.4
									c0,24.7,16.9,49.1,41,59.3c1.8,0.8,2.7,2.9,1.9,4.8C303.7,331.9,301.6,332.8,299.7,332z"/>
								<path class="st4" d="M301.1,334.1c-0.7,0-1.4-0.1-2.1-0.4l0,0c-30.4-12.8-49.4-43.7-46.2-75.1c0.4-3.5,3.4-5.1,6-4.9
									c2.7,0.3,5.3,2.4,4.9,6c-0.2,2-0.3,4.1-0.3,6.2c0,24,16.4,47.7,39.9,57.6c1.3,0.6,2.4,1.6,2.9,3c0.5,1.4,0.5,2.8,0,4.2
									C305.3,332.8,303.3,334.1,301.1,334.1z M300.4,330.3c0.9,0.4,2,0,2.4-1c0.2-0.4,0.2-0.9,0-1.4c-0.2-0.4-0.5-0.8-1-1
									c-24.8-10.5-42.2-35.6-42.2-61c0-2.2,0.1-4.4,0.3-6.6c0.2-1.6-1.2-1.9-1.6-1.9c-0.3,0-1.8-0.1-2,1.6
									C253.5,288.7,271.6,318.1,300.4,330.3L300.4,330.3z"/>
							</g>
						</g>
					</g>
				</g>
			</g>
			<g>
				<g>
					<g>
						<g>
							<g>
								<path class="st4" d="M238.7,340.1c-9.6,0-17.4-7.8-17.4-17.4c0-9.6,7.8-17.4,17.4-17.4c9.6,0,17.4,7.8,17.4,17.4
									C256.1,332.3,248.3,340.1,238.7,340.1z M238.7,312.6c-5.6,0-10.1,4.5-10.1,10.1s4.5,10.1,10.1,10.1
									c5.6,0,10.1-4.5,10.1-10.1S244.3,312.6,238.7,312.6z"/>
								<path class="st4" d="M238.7,341.9c-10.6,0-19.2-8.6-19.2-19.2c0-10.6,8.6-19.2,19.2-19.2c10.6,0,19.2,8.6,19.2,19.2
									C257.9,333.3,249.3,341.9,238.7,341.9z M238.7,307.2c-8.6,0-15.5,7-15.5,15.5c0,8.6,7,15.5,15.5,15.5
									c8.6,0,15.5-7,15.5-15.5C254.2,314.1,247.3,307.2,238.7,307.2z M238.7,334.7c-6.6,0-12-5.4-12-12c0-6.6,5.4-12,12-12
									c6.6,0,12,5.4,12,12C250.6,329.3,245.3,334.7,238.7,334.7z M238.7,314.4c-4.6,0-8.3,3.7-8.3,8.3c0,4.6,3.7,8.3,8.3,8.3
									c4.6,0,8.3-3.7,8.3-8.3C247,318.1,243.2,314.4,238.7,314.4z"/>
							</g>
						</g>
					</g>
				</g>
			</g>
			<g>
				<g>
					<g>
						<g>
							<g>
								<path class="st4" d="M234.7,376.8v-22.7c0-2,1.6-3.6,3.6-3.6c2,0,3.6,1.6,3.6,3.6v22.7C242,381.6,234.7,381.6,234.7,376.8z"
									/>
								<path class="st4" d="M238.4,382.2c-1.4,0-2.7-0.5-3.7-1.4c-1.1-1-1.8-2.5-1.8-4.1v-22.7c0-3,2.5-5.5,5.5-5.5
									c3,0,5.5,2.5,5.5,5.5v22.7C243.8,380.3,241,382.2,238.4,382.2z M238.4,352.3c-1,0-1.8,0.8-1.8,1.8v22.7
									c0,1.6,1.4,1.8,1.8,1.8c0.3,0,1.8-0.1,1.8-1.8v-22.7C240.2,353.1,239.3,352.3,238.4,352.3z"/>
							</g>
						</g>
					</g>
				</g>
			</g>
			<g>
				<g>
					<g>
						<g>
							<g>
								<path class="st4" d="M290.6,192.4h-12.9c-4.8,0-4.8-7.3,0-7.3h12.9c2,0,3.6,1.6,3.6,3.6
									C294.3,190.7,292.7,192.4,290.6,192.4z"/>
								<path class="st4" d="M290.6,194.2h-12.9c-3.5,0-5.4-2.8-5.4-5.5c0-1.4,0.5-2.7,1.4-3.7c1-1.1,2.5-1.8,4.1-1.8h12.9
									c3,0,5.5,2.5,5.5,5.5C296.1,191.8,293.7,194.2,290.6,194.2z M277.8,186.9c-1.6,0-1.8,1.4-1.8,1.8c0,0.3,0.1,1.8,1.8,1.8
									h12.9c1,0,1.8-0.8,1.8-1.8c0-1-0.8-1.8-1.8-1.8H277.8z"/>
							</g>
						</g>
					</g>
				</g>
			</g>
			<g>
				<g>
					<g>
						<g>
							<g>
								<path class="st4" d="M331.1,192.4h-12.9c-4.8,0-4.8-7.3,0-7.3h12.9c2,0,3.6,1.6,3.6,3.6
									C334.7,190.7,333.1,192.4,331.1,192.4z"/>
								<path class="st4" d="M331.1,194.2h-12.9c-3.5,0-5.4-2.8-5.4-5.5c0-1.4,0.5-2.7,1.4-3.7c1-1.1,2.5-1.8,4.1-1.8h12.9
									c3,0,5.5,2.5,5.5,5.5C336.5,191.8,334.1,194.2,331.1,194.2z M318.2,186.9c-0.6,0-1,0.2-1.3,0.5c-0.3,0.3-0.4,0.8-0.4,1.3
									c0,0.3,0.1,1.8,1.8,1.8h12.9c1,0,1.8-0.8,1.8-1.8c0-1-0.8-1.8-1.8-1.8H318.2z"/>
							</g>
						</g>
					</g>
				</g>
			</g>
			<g>
				<g>
					<g>
						<g>
							<g>
								<path class="st4" d="M302.5,236.5c-5.7,0-11.5-2.1-16.7-6.1c-1.6-1.2-1.9-3.5-0.7-5.1c1.2-1.6,3.5-1.9,5.1-0.7
									c8.1,6.1,16.6,6.1,24.6,0c1.6-1.2,3.9-0.9,5.1,0.7c1.2,1.6,0.9,3.9-0.7,5.1C314,234.4,308.2,236.5,302.5,236.5z"/>
								<path class="st4" d="M302.5,238.3c-6.1,0-12.2-2.2-17.8-6.5c-1.2-0.9-1.9-2.2-2.1-3.6c-0.2-1.4,0.2-2.9,1.1-4.1
									c0.9-1.2,2.2-1.9,3.6-2.1c1.4-0.2,2.9,0.2,4.1,1.1c7.4,5.6,15,5.6,22.4,0c1.2-0.9,2.6-1.3,4.1-1.1c1.5,0.2,2.7,1,3.6,2.1
									c0.9,1.2,1.3,2.6,1.1,4.1c-0.2,1.4-1,2.7-2.1,3.6C314.7,236.1,308.6,238.3,302.5,238.3z M288,225.7c-0.1,0-0.2,0-0.2,0
									c-0.5,0.1-0.9,0.3-1.2,0.7c-0.3,0.4-0.4,0.9-0.3,1.3s0.3,0.9,0.7,1.2c4.9,3.7,10.3,5.7,15.6,5.7c5.3,0,10.7-2,15.6-5.7
									c0.4-0.3,0.6-0.7,0.7-1.2c0.1-0.5-0.1-0.9-0.3-1.3c-0.3-0.4-0.7-0.6-1.2-0.7c-0.5-0.1-0.9,0.1-1.3,0.3
									c-8.8,6.7-18.1,6.7-26.9,0C288.7,225.8,288.4,225.7,288,225.7z"/>
							</g>
						</g>
					</g>
				</g>
			</g>
			<g>
				<g>
					<g>
						<g>
							<g>
								<path class="st4" d="M377.3,362.5c3.5-10,7.2-17.9,4-31.6c-2-8.5-9.5-14.4-18.2-14.4h-10.2c-18.5,0-23.2,22-16.6,38.8l2.7,7
									c1.7,4.5-5,7.1-6.8,2.7l-2.7-7c-8.6-22-0.4-48.8,23.4-48.8H363c23.3,0,31.5,25.7,24,47.2l-2.9,8.4
									C382.5,369.5,375.7,367.1,377.3,362.5z"/>
								<path class="st4" d="M335.4,369.2c-2,0-4-1-4.9-3.5l-2.7-7c-5.4-13.8-4.4-29.4,2.6-39.7c5.2-7.6,13-11.6,22.5-11.6H363
									c9.3,0,17,3.9,22.2,11.1c6.9,9.8,8.4,24.9,3.6,38.5l-2.9,8.4c-0.7,1.9-2.1,3.2-4,3.6c-2,0.4-4.1-0.4-5.4-1.9
									c-1.2-1.4-1.6-3.4-0.9-5.3l0,0c0.3-1,0.7-1.9,1-2.9c3.1-8.5,5.7-15.9,2.9-27.6c-1.8-7.6-8.6-13-16.4-13h-10.2
									c-5.8,0-10.4,2.3-13.5,6.9c-4.9,7.2-5.5,19-1.4,29.4l2.7,7c1.3,3.3-0.6,6.1-3.1,7.1C336.8,369.1,336.1,369.2,335.4,369.2z
									 M352.8,311.2c-8.3,0-15,3.5-19.4,10c-6.3,9.3-7.2,23.5-2.2,36.3l2.7,7c0.6,1.5,1.9,1.1,2.3,1c0.3-0.1,1.6-0.7,1-2.3l-2.7-7
									c-4.5-11.5-3.8-24.7,1.8-32.8c3.8-5.6,9.5-8.5,16.6-8.5H363c9.6,0,17.8,6.5,20,15.8c3,12.9,0.1,21.1-3,29.7
									c-0.3,0.9-0.7,1.9-1,2.9c-0.2,0.7-0.2,1.2,0.2,1.7c0.5,0.5,1.3,0.8,1.9,0.7c0.6-0.1,1-0.5,1.2-1.2l2.9-8.4
									c4.4-12.5,3.1-26.3-3.1-35.2c-4.5-6.3-11.1-9.6-19.2-9.6H352.8z"/>
							</g>
						</g>
					</g>
				</g>
			</g>
			<g>
				<g>
					<g>
						<g>
							<g>
								<path class="st4" d="M342,382.5l-7-5.2c-4.8-3.6-5.8-10.5-2.2-15.3c3.6-4.8,10.5-5.8,15.3-2.2l7,5.2
									c1.6,1.2,1.9,3.5,0.7,5.1l-8.8,11.7C345.9,383.4,343.6,383.7,342,382.5z M339.3,371.5l4.1,3.1l4.4-5.9l-4.1-3.1
									C339.9,362.7,335.4,368.5,339.3,371.5z"/>
								<path class="st4" d="M344.1,385.1c-1.1,0-2.3-0.4-3.3-1.1l0,0l-7-5.2c-5.7-4.2-6.8-12.3-2.6-17.9c4.2-5.6,12.3-6.8,17.9-2.6
									l7,5.2c2.4,1.8,2.9,5.2,1.1,7.7l-8.8,11.7C347.5,384.3,345.8,385.1,344.1,385.1z M343.1,381c0.8,0.6,1.9,0.4,2.5-0.4
									l8.8-11.7c0.6-0.8,0.4-1.9-0.4-2.5l-7-5.2c-4-3-9.7-2.2-12.8,1.8c-3,4-2.2,9.7,1.8,12.8L343.1,381z M343.8,377.1l-5.6-4.2
									c-1.6-1.2-2.4-3-2.2-4.9c0.2-2,1.6-3.8,3.5-4.6c1.8-0.8,3.7-0.5,5.4,0.7l5.6,4.2L343.8,377.1z M340.4,370l2.6,2l2.2-3
									l-2.6-2c-0.6-0.4-1.1-0.5-1.7-0.3c-0.7,0.3-1.2,1-1.3,1.7C339.6,369,339.8,369.6,340.4,370L340.4,370z"/>
							</g>
						</g>
					</g>
				</g>
			</g>
			<g>
				<g>
					<g>
						<g>
							<g>
								<path class="st4" d="M369.4,381.8l-8.8-11.7c-1.2-1.6-0.9-3.9,0.7-5.1c7-5.2,9.6-8.1,15.1-7.3c9.6,1.4,12.8,13.8,5,19.6
									l-7,5.2C372.9,383.7,370.6,383.4,369.4,381.8z M368.7,368.6l4.4,5.9l4.1-3.1c3.9-2.9-0.5-8.8-4.4-5.9L368.7,368.6z"/>
								<path class="st4" d="M372.3,385.1c-0.3,0-0.5,0-0.8-0.1c-1.5-0.2-2.7-1-3.6-2.1l-8.8-11.7c-1.8-2.4-1.3-5.9,1.1-7.7
									c1-0.8,1.9-1.5,2.8-2.1c5.1-3.9,8.2-6.3,13.7-5.5c5.2,0.7,9.2,4.4,10.6,9.5c1.3,5.1-0.5,10.3-4.7,13.4l-7,5.2
									C374.7,384.7,373.5,385.1,372.3,385.1z M374.8,359.4c-3.1,0-5.2,1.6-9.4,4.9c-0.9,0.7-1.8,1.4-2.8,2.2
									c-0.8,0.6-1,1.7-0.4,2.5l8.8,11.7c0.3,0.4,0.7,0.6,1.2,0.7c0.5,0.1,0.9-0.1,1.3-0.3l7-5.2c3.6-2.7,4.1-6.7,3.3-9.5
									c-0.7-2.9-3.1-6.1-7.5-6.8C375.7,359.4,375.2,359.4,374.8,359.4z M372.7,377.1l-6.6-8.9l5.6-4.2c2.9-2.2,6.1-1.1,7.7,1.1
									c1.6,2.2,1.8,5.6-1.1,7.7L372.7,377.1z M371.2,369l2.2,3l2.6-2c1.4-1,0.5-2.3,0.4-2.6c-0.2-0.2-1.2-1.4-2.6-0.4L371.2,369z"
									/>
							</g>
						</g>
					</g>
				</g>
			</g>
			<g>
				<g>
					<g>
						<g>
							<g>
								<path class="st4" d="M256.1,261.8c-1.2-1.6-0.9-3.9,0.7-5.1c1.6-1.2,3.9-0.9,5.1,0.7c9.3,12.4,24.2,19.7,39.8,19.7
									c15.7,0,30.7-7.4,40-19.9c1.2-1.6,3.5-1.9,5.1-0.7c1.6,1.2,1.9,3.5,0.7,5.1C324.9,291.9,278.9,292,256.1,261.8z"/>
								<path class="st4" d="M301.8,286.2c-18.8,0-35.9-8.5-47.1-23.3h0c-1.8-2.4-1.3-5.9,1.1-7.7c2.4-1.8,5.8-1.3,7.7,1.1
									c9,11.9,23.3,19,38.4,19c15.1,0,29.5-7.2,38.5-19.2c0.9-1.2,2.2-1.9,3.6-2.1c1.4-0.2,2.9,0.2,4.1,1c2.4,1.8,2.9,5.2,1.1,7.7
									c-11.1,14.9-28.3,23.5-47.1,23.5C301.9,286.2,301.8,286.2,301.8,286.2z M257.6,260.7c10.5,13.9,26.6,21.9,44.2,21.9
									c0,0,0.1,0,0.1,0c17.6,0,33.7-8.1,44.2-22.1c0.6-0.8,0.4-1.9-0.4-2.5c-0.4-0.3-0.9-0.4-1.3-0.3c-0.5,0.1-0.9,0.3-1.2,0.7
									c-9.6,12.9-25.1,20.6-41.4,20.6c-16.2,0-31.6-7.6-41.3-20.5c-0.6-0.8-1.7-0.9-2.5-0.4C257.2,258.7,257,259.9,257.6,260.7
									L257.6,260.7z"/>
							</g>
						</g>
					</g>
				</g>
			</g>
			<g>
				<g>
					<g>
						<g>
							<g>
								<path class="st4" d="M235.1,309.3c-0.1-1.2-2.4-28.5,19.3-52.1c3.3-3.5,8.6,1.4,5.3,4.9c-19.5,21.2-17.4,46.2-17.4,46.5
									c0.2,2-1.3,3.8-3.3,4C237,312.7,235.2,311.3,235.1,309.3z"/>
								<path class="st4" d="M238.7,314.4c-2.8,0-5.2-2.1-5.5-5c-0.1-1.2-2.5-29.3,19.8-53.5c2.4-2.6,5.7-2.1,7.7-0.3
									c2,1.8,2.8,5.1,0.3,7.7c-18.8,20.5-16.9,44.8-16.9,45.1c0.1,1.4-0.3,2.9-1.2,4c-0.9,1.1-2.2,1.8-3.7,2
									C239,314.4,238.9,314.4,238.7,314.4z M256.9,257.8c-0.4,0-0.8,0.2-1.2,0.6c-21.2,23-18.9,49.6-18.8,50.7v0
									c0.1,1,1,1.7,2,1.6c0.5,0,0.9-0.3,1.2-0.6c0.3-0.4,0.4-0.8,0.4-1.3c0-0.3-2.1-26.2,17.9-47.9c1.1-1.2,0.2-2.2-0.1-2.5
									C258.1,258.2,257.6,257.8,256.9,257.8z"/>
							</g>
						</g>
					</g>
				</g>
			</g>
			<g>
				<g>
					<g>
						<g>
							<g>
								<path class="st4" d="M354.3,312.4c0.1-0.4,3.4-26.9-12.7-50.6c-2.7-4,3.3-8.1,6-4.1c17.8,26.1,14.1,54.5,13.9,55.7
									C360.9,318.2,353.7,317.2,354.3,312.4z"/>
								<path class="st4" d="M358,318.4c-0.3,0-0.6,0-0.8-0.1c-2.7-0.4-5.2-2.6-4.7-6.1c0.1-0.5,3.2-26.4-12.4-49.3
									c-1.1-1.7-1.3-3.6-0.5-5.3c0.9-1.8,2.7-3.1,4.7-3.2c1.9-0.1,3.7,0.7,4.8,2.4c18.2,26.7,14.4,55.8,14.2,57
									C362.9,316.9,360.4,318.4,358,318.4z M344.8,258c0,0-0.1,0-0.1,0c-0.7,0.1-1.4,0.5-1.7,1.2c-0.3,0.5-0.2,1.1,0.2,1.7
									c16.5,24.2,13,51.6,13,51.9l0,0c-0.2,1.7,1.2,2,1.5,2c0.3,0,1.8,0.2,2-1.5c0.2-1.2,3.8-28.8-13.6-54.4
									C345.7,258.3,345.3,258,344.8,258z"/>
							</g>
						</g>
					</g>
				</g>
			</g>
		</g>
		<g>
			<g>
				<g>
					<g>
						<g>
							<path class="st4" d="M319.7,152.3c-4.8,0-4.8-7.2,0-7.2C324.5,145.1,324.5,152.3,319.7,152.3z"/>
							<path class="st4" d="M319.7,154.1c-3.5,0-5.4-2.8-5.4-5.4c0-1.4,0.5-2.7,1.4-3.7c1-1.1,2.4-1.7,4.1-1.7
								c3.5,0,5.4,2.8,5.4,5.4c0,1.4-0.5,2.7-1.4,3.7C322.8,153.5,321.4,154.1,319.7,154.1z M319.7,146.9c-0.6,0-1,0.2-1.3,0.5
								c-0.3,0.3-0.4,0.8-0.4,1.3c0,0.3,0.1,1.8,1.7,1.8c0.6,0,1-0.2,1.3-0.5c0.3-0.3,0.4-0.8,0.4-1.3
								C321.5,148.3,321.3,146.9,319.7,146.9z"/>
						</g>
					</g>
				</g>
			</g>
		</g>
	</g>
</g>
</svg>
