<svg id="Layer_1" data-name="Layer 1" xmlns="http://www.w3.org/2000/svg" viewBox="0 0 600 600"><defs><style>.cls-1{font-size:55.3px;fill:#212324;font-family:OpenSans-Italic, Open Sans;font-style:italic;}.cls-2{fill:#004289;}</style></defs><title></title><text class="cls-1" transform="translate(209.88 489.52)"></text><path class="cls-2" d="M225.67,309.58a15.54,15.54,0,1,0,15.54,15.54A15.54,15.54,0,0,0,225.67,309.58Zm0,20.72a5.18,5.18,0,1,1,5.18-5.18A5.18,5.18,0,0,1,225.67,330.3Z"/><path class="cls-2" d="M396.63,309.58a15.54,15.54,0,1,0,15.54,15.54A15.54,15.54,0,0,0,396.63,309.58Zm0,20.72a5.18,5.18,0,1,1,5.18-5.18A5.18,5.18,0,0,1,396.63,330.3Z"/><path class="cls-2" d="M381.09,263H370.73a5.18,5.18,0,0,0,0,10.36h10.36a5.18,5.18,0,0,0,0-10.36Z"/><path class="cls-2" d="M400.3,155.67a5.2,5.2,0,0,0-3.67-1.51H350a5.18,5.18,0,0,0-5.18,5.18V263H334.46V247.41a5.18,5.18,0,0,0-5.18-5.18H324.1v-25.9a5.18,5.18,0,0,0-5.18-5.19h-2.49L229.9,89a5.19,5.19,0,0,0-4.23-2.18H189.4a4.92,4.92,0,0,0-1.78.36,3.76,3.76,0,0,0-.46.2,5,5,0,0,0-1.22.82c-.08.07-.17.12-.24.19a5.4,5.4,0,0,0-.9,1.23c0,.07-.18.52-.23.65a11,11,0,0,0-.35,1.73v57H173.86a5.17,5.17,0,0,0-5,6.43L174,176.13a5.17,5.17,0,0,0,5,3.93h5.18v10.36a5.18,5.18,0,0,0,5.18,5.18,15.55,15.55,0,1,1-15.54,15.54,5.18,5.18,0,0,0-10.36,0,25.9,25.9,0,1,0,31.08-25.38v-5.7h5.19a5.18,5.18,0,0,0,5-3.93L210,155.41a5.17,5.17,0,0,0-5-6.43H194.58V108.27l72.88,102.87h-.35a5.18,5.18,0,0,0-5.18,5.19v25.9h-5.18a5.18,5.18,0,0,0-5.18,5.18V263H153.14a5.18,5.18,0,0,0-5.18,5.18v41.45a5.18,5.18,0,0,0,5.18,5.18H191A36.07,36.07,0,0,0,200.37,351H153.14a5.19,5.19,0,0,0,0,10.37h171a5.19,5.19,0,0,0,0-10.37H251a36.09,36.09,0,0,0,9.41-36.26H361.92A36.07,36.07,0,0,0,371.33,351h-26.5a5.19,5.19,0,1,0,0,10.37H453.62a5.19,5.19,0,0,0,0-10.37H422a36.07,36.07,0,0,0,9.41-36.26h22.25a5.18,5.18,0,0,0,5.18-5.18V216.33a5.19,5.19,0,0,0-1.52-3.67Zm-204.58,14H183.09l-2.59-10.36h17.81Zm198.77-5.18,53.95,53.95v8.22H386.27V164.52ZM199.42,97.17H223l80.73,114H280.16ZM272.3,221.51h41.44v20.72H272.3Zm-10.37,31.08H324.1V263H261.93ZM225.67,351a25.9,25.9,0,1,1,25.9-25.9A25.89,25.89,0,0,1,225.67,351Zm0-62.16A36.22,36.22,0,0,0,196,304.4H158.32V294h10.36a5.19,5.19,0,0,0,0-10.37H158.32V273.31H344.83V304.4H255.38A36.18,36.18,0,0,0,225.67,288.86Zm171,62.16a25.9,25.9,0,1,1,25.91-25.9A25.9,25.9,0,0,1,396.63,351Zm29.72-46.62a36.18,36.18,0,0,0-59.43,0H355.19V164.52h20.72v67.35a5.18,5.18,0,0,0,5.18,5.18h67.35v15.54H432.9a15.54,15.54,0,1,0,0,31.08h15.54V304.4Zm22.09-31.09H432.9a5.18,5.18,0,1,1,0-10.36h15.54Z"/></svg>