<?xml version="1.0" encoding="utf-8"?>
<!-- Generator: Adobe Illustrator 22.0.1, SVG Export Plug-In . SVG Version: 6.00 Build 0)  -->
<svg version="1.1" id="Layer_1" xmlns="http://www.w3.org/2000/svg" xmlns:xlink="http://www.w3.org/1999/xlink" x="0px" y="0px"
	 viewBox="0 0 80 80" style="enable-background:new 0 0 80 80;" xml:space="preserve">
<style type="text/css">
	.st0{fill:#B5916F;}
</style>
<title>iconos</title>
<path class="st0" d="M53.2,78.2c-1.3,0-2.6-0.2-3.9-0.4c-6.5-1.4-16.8-6.8-28.4-24.8c-8-12.4-11.8-23.1-11.4-32.1
	c0.1-2.9,0.7-5.8,2-8.4c0.7-1.5,1.8-2.9,3.1-3.9l0.5-0.3l1.4-0.9L30.5,29l-1.8,1.1c-0.2,0.1-0.3,0.3-0.3,0.5c-0.2,1,0,4.2,6.1,13.6
	c3.5,5.4,6.4,8.9,8.5,10.4c0.9,0.6,1.5,0.8,1.9,0.6l1.8-1.3l14,21.7l-1.9,1.2C57,77.8,55.1,78.3,53.2,78.2z"/>
<path class="st0" d="M61.8,74.9L47.9,53.3l6.1-3.9c2.1-1.3,4.9-0.7,6.2,1.4l9,14c0.7,1,0.9,2.3,0.6,3.4c-0.3,1.2-1,2.2-2,2.8
	L61.8,74.9z"/>
<path class="st0" d="M31.6,28.1L17.7,6.5l6.1-4c2.1-1.3,4.9-0.7,6.3,1.4l9,14c1.3,2.1,0.7,4.9-1.4,6.2l0,0L31.6,28.1z"/>
</svg>
