<?xml version="1.0" encoding="utf-8"?>
<!-- Generator: Adobe Illustrator 22.0.1, SVG Export Plug-In . SVG Version: 6.00 Build 0)  -->
<svg version="1.1" id="Layer_1" xmlns="http://www.w3.org/2000/svg" xmlns:xlink="http://www.w3.org/1999/xlink" x="0px" y="0px"
	 viewBox="0 0 80 80" style="enable-background:new 0 0 80 80;" xml:space="preserve">
<style type="text/css">
	.st0{fill:#B5916F;}
	.st1{fill:#135FA7;}
	.st2{fill:#018BD2;}
	.st3{fill:none;}
	.st4{fill:#008BD2;}
	.st5{fill:#FFFFFF;}
	.st6{fill:#08A9E1;}
	.st7{fill:#F6F9F9;}
	.st8{fill:url(#SVGID_1_);}
	.st9{fill:#FFFFFF;stroke:#BABCBE;stroke-width:0.2278;stroke-miterlimit:10;}
	.st10{fill:#FFFFFF;stroke:#F2F2F2;stroke-width:0.2307;stroke-miterlimit:10;}
</style>
<g>
	<path class="st0" d="M53.2,78.2c-1.1,0-2.4-0.1-3.9-0.4c-6.6-1.4-16.8-6.8-28.4-24.8c-8-12.4-11.8-23.1-11.4-32.1
		c0.1-3.2,0.8-6,2-8.4c0.9-1.7,2.1-3.2,3.1-3.9l0.5-0.3l1.4-0.9L30.4,29l-1.8,1.2c-0.1,0.1-0.3,0.2-0.3,0.5c-0.2,0.9,0,4.2,6.1,13.6
		c3.5,5.4,6.4,8.9,8.5,10.4c0.9,0.6,1.5,0.8,1.9,0.6l1.8-1.2l14,21.7l-1.9,1.2C58.4,77.1,56.5,78.2,53.2,78.2z M15.7,12.1
		c-1,1.2-2.6,3.9-2.9,8.9c-0.4,10.2,5.7,22,10.9,30.1c11,17,20.3,22.1,26.3,23.4c2.7,0.6,4.7,0.4,5.9,0l-10.3-16
		c-1.4,0.4-2.9,0-4.5-1.2c-2.5-1.8-5.6-5.5-9.4-11.4c-5.1-7.9-7.2-13-6.5-16.1c0.2-0.7,0.4-1.3,0.9-1.8L15.7,12.1z"/>
	<path class="st0" d="M61.8,74.9L47.9,53.3l6.1-3.9c2.1-1.3,4.9-0.7,6.3,1.4l9,14c0.7,1,0.9,2.3,0.6,3.4c-0.3,1.2-1,2.2-2,2.8
		L61.8,74.9z M52.5,54.3l10.3,16l3.3-2.1c0.3-0.2,0.4-0.4,0.5-0.7c0.1-0.3,0-0.6-0.2-0.9l0,0l-9-14c-0.4-0.6-1.1-0.7-1.6-0.4
		L52.5,54.3z"/>
	<path class="st0" d="M31.6,28.1L17.7,6.5l6.1-3.9c2.1-1.3,4.9-0.7,6.3,1.3l9,14c1.3,2.1,0.7,4.9-1.4,6.2l0,0L31.6,28.1z M22.3,7.5
		l10.3,16l3.3-2.1c0.5-0.4,0.7-1.1,0.4-1.6l-9-14c-0.4-0.5-1.1-0.7-1.6-0.4L22.3,7.5z"/>
</g>
</svg>
