<?xml version="1.0" encoding="utf-8"?>
<!-- Generator: Adobe Illustrator 22.0.0, SVG Export Plug-In . SVG Version: 6.00 Build 0)  -->
<svg version="1.1" id="Layer_1" xmlns="http://www.w3.org/2000/svg" xmlns:xlink="http://www.w3.org/1999/xlink" x="0px" y="0px"
	 viewBox="0 0 600 600" style="enable-background:new 0 0 600 600;" xml:space="preserve">
<style type="text/css">
	.st0{fill:#004289;}
</style>
<g>
	<path class="st0" d="M211.4,206.1c-3.2-2.6-7.8-2.1-10.3,1c-2.9,3.8-6.9,5.7-11,5.7c-4.2,0-8.1-2.1-11-5.7c-2.5-3.3-7.1-3.6-10.3-1
		c-3.2,2.6-3.5,7.3-1,10.6c5.7,7.3,13.8,11.3,22.3,11.3c8.4,0,16.7-4.2,22.3-11.3C214.9,213.4,214.4,208.7,211.4,206.1z"/>
	<path class="st0" d="M410.4,248.9c-3.2,2.6-3.5,7.3-1,10.6c5.7,7.3,13.8,11.3,22.3,11.3c8.4,0,16.7-4.2,22.3-11.3
		c2.5-3.3,2-8-1-10.6c-3.2-2.6-7.8-2.1-10.3,1c-2.9,3.8-6.9,5.7-11,5.7c-4.2,0-8.1-2.1-11-5.7C418,246.8,413.5,246.3,410.4,248.9z"
		/>
	<path class="st0" d="M535.2,352.7l-57.2-23.5c-0.3-0.2-0.7-0.3-0.8-0.5c39.5-9.2,58.2-24.7,58.9-25.4c2-1.7,3-4.3,2.5-6.9
		c0-0.5-8.3-60.1-8.3-119c0-56.1-44.4-101.8-98.8-101.8s-98.8,45.7-98.8,101.8c0,15.5-0.7,34.2-1.9,51.9l-15.9,8.2l-46.7-24
		c-0.2,0-0.3-0.2-0.3-0.2c2.2-6.6,3.7-13.7,4.2-21c9.8-3.1,16.9-12.5,16.9-23.6c0-7.5-3.2-14.1-8.3-18.6v-49.9
		c0-13.7-6.7-26.8-17.9-34.4c-3.7-14.4-16.4-24.5-31-24.5h-66.6c-36.1,0-65.6,30.2-65.6,67.6v41.3c-5.1,4.5-8.3,11.3-8.3,18.6
		c0,11.1,7.1,20.5,16.9,23.6c1.9,25.2,14.5,47.4,33.1,61.7v20.7l-60.4,18.6c-13.8,4.2-22.9,17-22.9,31.8V409c0,4.2,3.2,7.5,7.3,7.5
		h1v86.9c0,4.2,3.2,7.5,7.3,7.5c4,0,7.3-3.3,7.3-7.5v-86.9h27v86.9c0,4.2,3.2,7.5,7.3,7.5c4,0,7.3-3.3,7.3-7.5V373.9
		c0-6.6-1.9-13-5.4-18.4l-12.5-19.3c-2.2-3.5-6.7-4.3-10.1-2.1c-3.4,2.3-4.2,6.9-2,10.4l12.5,19.3c2,3,3,6.4,3,10.1v27.6H73.3h-1
		v-76.3c0-8.2,5.1-15.1,12.6-17.4l25-7.8c8.8,37.5,41.8,65,79.9,65c13.7,0,27-3.5,39-10.1c4.4,6.1,11.5,10.1,19.4,10.1h1v1
		c0,25.2,13.5,47.1,33.2,58.7V437c0,0.5-0.3,0.9-0.7,1l-27.2,9.4c-13.2,4.5-22.1,17.2-22.1,31.6v24.3c0,4.2,3.2,7.5,7.3,7.5
		s7.3-3.3,7.3-7.5V479c0-7.8,4.9-14.8,12.1-17.4l7.9-2.8c10.6,16.3,28.3,26.2,47.6,26.2c19.2,0,36.9-9.9,47.6-26.2l7.9,2.8
		c7.3,2.4,12.1,9.4,12.1,17.4v24.3c0,4.2,3.2,7.5,7.3,7.5c4,0,7.3-3.3,7.3-7.5V479c0-14.2-8.9-26.9-22.1-31.4l-27.2-9.4
		c-0.5-0.2-0.7-0.5-0.7-1V425c14.8-8.7,26.1-23.3,30.9-40.5c13.8,14.8,33.1,23.6,53.5,23.6c32.2,0,60.5-21.5,70.3-52.8l27.8,11.5
		c6.7,2.8,11.1,9.4,11.1,16.8v35.1h-1h-26V409c0-4.2-3.2-7.5-7.3-7.5c-4,0-7.3,3.3-7.3,7.5v94.3c0,4.2,3.2,7.5,7.3,7.5
		c4,0,7.3-3.3,7.3-7.5v-69.7h18.7v69.7c0,4.2,3.2,7.5,7.3,7.5c4,0,7.3-3.3,7.3-7.5v-69.7h1c1.9,0,3.7-0.9,5.2-2.3
		c1.3-1.4,2.2-3.3,2.2-5.4v-42.6C555.5,369.9,547.5,357.9,535.2,352.7z M347.3,177.6c0-47.9,37.8-86.9,84.3-86.9
		s84.3,38.9,84.3,86.9c0,50.4,5.9,101.3,7.8,116.6c-6.6,4.3-23.3,14.1-51.4,20.5v-12c3.9-2.3,7.6-4.9,11.1-7.8
		c14.3-12,24.5-28.7,28.5-47.1c1.3-6.1,2-12.5,2-18.8c0-42.4-29.9-48.5-58.5-54.4c-18.4-3.8-37.3-7.6-52.5-20
		c-2.2-1.7-5.2-2.1-7.8-0.9c-2.5,1.2-4,3.8-4,6.8c0,0.2-0.3,20-27.8,27.1c-3.9,1-6.2,5-5.2,9c1,4,4.9,6.4,8.8,5.4
		c22.9-5.9,32.4-19.3,36.3-29.2c15.9,9.7,33.6,13.2,49.4,16.5c30.9,6.3,46.9,10.9,46.9,39.6c0,5.2-0.5,10.4-1.7,15.5
		c-3.4,15.1-11.6,28.8-23.4,38.7c-12.1,10.1-26.8,15.5-42.5,15.5c-14.3,0-27.8-4.5-39.3-13c-4.2-11.8-11-22.8-19.9-31.6v-33.5
		c0-2.6-1.3-5-3.4-6.4c-2.2-1.4-4.9-1.6-7.1-0.3l-15.7,8.2C346.8,206.3,347.3,191.4,347.3,177.6z M357.6,232.5v27.1l-26.3-13.5
		L357.6,232.5z M272.3,232.5l26.3,13.5l-26.3,13.5V232.5z M232.8,314.9v7.1c-5.2,4.7-8.3,11.5-8.3,18.6c-10.5,6.3-22.1,9.7-34.4,9.7
		c-31.7,0-59.2-22.9-65.9-54.4l18-5.6c4.4,23.1,24.3,40.6,48.1,40.6c18.9,0,35.3-10.9,43.3-27.1C233,307.4,232.8,311,232.8,314.9z
		 M155.7,280.5v-17.4c10.5,5,22.1,7.8,34.4,7.8c12.3,0,23.9-2.8,34.4-7.8v17.4c0,19.5-15.3,35.4-34.4,35.4
		C171.3,315.9,155.7,300.1,155.7,280.5L155.7,280.5z M190.2,255.8c-37.3,0-67.6-31.3-67.6-69.7c0-4.2-3.2-7.5-7.3-7.5
		c-5.2,0-9.4-4.3-9.4-9.7c0-5.4,4.2-9.7,9.4-9.7H132c3.2,0,5.9-2.1,6.9-5.2l6.7-20.7c16.7-0.3,68.6-2.8,97.8-17.9
		c3.5-1.9,5.1-6.4,3.2-10.1s-6.2-5.2-9.8-3.3c-31.4,16.2-96,16.3-96.6,16.3c-3.2,0-5.9,2.1-6.9,5.2l-6.7,20.7h-11.5
		c-0.3,0-0.7,0-1,0v-35.4c0-29,22.9-52.5,50.9-52.5h66.6c8.8,0,16,6.4,17.4,15.3c0.3,2.3,1.7,4.2,3.5,5.4
		c8.3,4.9,13.3,13.7,13.3,23.3v43.9c-0.3,0-0.7,0-1,0h-8.3c-4,0-7.3,3.3-7.3,7.5c0,4.2,3.2,7.5,7.3,7.5h8.3c5.2,0,9.4,4.3,9.4,9.7
		s-4.2,9.7-9.4,9.7c-4,0-7.3,3.3-7.3,7.5C257.8,224.5,227.4,255.8,190.2,255.8z M239.1,280.5v-26.4c7.3-5.6,13.7-12.3,18.7-20v19.8
		c-8.1,8.2-14.5,17.9-18.7,28.5C239.1,281.9,239.1,281.2,239.1,280.5z M348,454.2c-8.1,10.1-20.1,16.2-33.1,16.2
		c-13,0-25-6.1-33.1-16.2l4.7-1.6c6.4-2.3,10.6-8.3,10.6-15.3v-5.9c5.6,1.6,11.6,2.4,17.7,2.4s12.1-0.9,17.7-2.4v5.9
		c0,6.9,4.2,13,10.6,15.3L348,454.2z M373.3,350.1c-4,0-7.3,3.3-7.3,7.5v7.5v0.2v0.9c0,29-22.9,52.5-50.9,52.5
		c-28.2,0-50.9-23.6-50.9-52.5v-8.5c0-4.2-3.2-7.5-7.3-7.5h-8.3c-5.2,0-9.4-4.3-9.4-9.7c0-3.5,1.7-6.6,4.7-8.3
		c0.7-0.3,1.2-0.9,1.7-1.4c18-0.5,76.4-4,114.9-26.6c3.5-2.1,4.7-6.6,2.7-10.2c-2-3.6-6.4-4.9-10-2.8
		c-33.6,19.8-86.5,23.8-105.8,24.5v-0.9c0-13.9,4-27.4,11.5-38.9c0.5,0.9,1.3,1.7,2.4,2.4c1.2,0.7,2.5,1,3.9,1
		c1.2,0,2.2-0.3,3.2-0.9l46.7-24l46.7,24c1,0.5,2.2,0.9,3.2,0.9c1.3,0,2.7-0.3,3.9-1c1-0.7,1.7-1.4,2.4-2.4
		c7.4,11.5,11.5,24.8,11.5,38.9v10.9c0,2.6,1.3,5.2,3.5,6.4c2.9,1.7,4.7,4.9,4.7,8.3c0,5.4-4.2,9.7-9.4,9.7H373.3z M431.5,393
		c-20.2,0-39-10.6-49.8-27.8c13.2-0.2,23.8-11.1,23.8-24.7c0-7.1-3-13.9-8.3-18.6v-7.1c0-3-0.2-6.1-0.5-9c10.8,5.2,22.6,8,34.7,8
		c8.9,0,17.7-1.6,26-4.3v10.9c0,10.1,5.9,19.1,15,22.9l15.7,6.4C480.9,375.3,457.8,393,431.5,393z"/>
	<path class="st0" d="M336.2,377.6c-3.2-2.6-7.8-2.1-10.3,1c-2.9,3.8-6.9,5.7-11,5.7c-4.2,0-8.1-2.1-11-5.7c-2.5-3.3-7.1-3.6-10.3-1
		s-3.5,7.3-1,10.6c5.7,7.3,13.8,11.3,22.3,11.3c8.4,0,16.7-4.2,22.3-11.3C339.9,384.9,339.4,380.2,336.2,377.6z"/>
	<path class="st0" d="M397.1,223.7h16.7c2.5,0,4.7-2.6,4.7-5.7s-2-5.7-4.7-5.7h-16.7C390.9,212.4,390.9,223.7,397.1,223.7z"/>
	<path class="st0" d="M449.4,223.7h16.7c2.5,0,4.7-2.6,4.7-5.7s-2-5.7-4.7-5.7h-16.7C443.1,212.4,443.1,223.7,449.4,223.7z"/>
	<path class="st0" d="M175.5,172.8c0-3.5-2.4-6.4-5.2-6.4h-18.4c-6.9,0-6.9,12.9,0,12.9h18.4C173.3,179.2,175.5,176.2,175.5,172.8z"
		/>
	<path class="st0" d="M228.3,166.3h-18.4c-6.9,0-6.9,12.9,0,12.9h18.4c2.9,0,5.2-3,5.2-6.4C233.5,169.1,231.1,166.3,228.3,166.3z"/>
	<path class="st0" d="M303.7,353.4c0-3-1.9-5.4-4-5.4h-14.3c-5.4,0-5.4,10.9,0,10.9h14.3C301.8,359,303.7,356.6,303.7,353.4z"/>
	<path class="st0" d="M344.8,348h-14.3c-5.4,0-5.4,10.9,0,10.9h14.3c2.2,0,4-2.4,4-5.4C348.9,350.5,347.2,348,344.8,348z"/>
</g>
</svg>
