<svg id="Layer_1" data-name="Layer 1" xmlns="http://www.w3.org/2000/svg" viewBox="0 0 428.93 124.63"><defs><style>.cls-1{fill:#fff;}</style></defs><title>SISAtravel</title><path class="cls-1" d="M41.09,67a10.85,10.85,0,0,0,3.2,3.89,23.42,23.42,0,0,0,4.8,2.29,23,23,0,0,0,5.72.69,29.16,29.16,0,0,0,4.34-.23,13.8,13.8,0,0,0,4.34-1.37,9.22,9.22,0,0,0,3.2-2.52,6.74,6.74,0,0,0-.46-8.69,12.83,12.83,0,0,0-4.57-2.74c-1.83-.69-4.12-1.37-6.4-2.06-2.52-.69-4.8-1.14-7.32-1.83a68.43,68.43,0,0,1-7.32-2.29,19.53,19.53,0,0,1-6.4-3.66A15.49,15.49,0,0,1,29.65,43a17.23,17.23,0,0,1-1.83-8,17.55,17.55,0,0,1,2.29-9.15,19.93,19.93,0,0,1,5.95-6.4,27.47,27.47,0,0,1,8.23-3.89,31.38,31.38,0,0,1,9.15-1.14,50.66,50.66,0,0,1,10.29,1.14,23.06,23.06,0,0,1,8.69,3.89,19.05,19.05,0,0,1,5.95,6.86,22.52,22.52,0,0,1,2.29,10.06H66.24a10.87,10.87,0,0,0-1.37-5,8,8,0,0,0-3-3.2,11.07,11.07,0,0,0-4.12-1.6,34.25,34.25,0,0,0-5-.46,20,20,0,0,0-3.66.46,8,8,0,0,0-3.2,1.37,12,12,0,0,0-2.52,2.29,5.8,5.8,0,0,0-.91,3.66,6.06,6.06,0,0,0,.69,3.2,6.4,6.4,0,0,0,3,2.29,38.51,38.51,0,0,0,6.17,2.06q3.77,1,10.29,2.74a45.69,45.69,0,0,1,5.26,1.37,25.34,25.34,0,0,1,6.63,3.2,17.84,17.84,0,0,1,5.72,5.95A16.8,16.8,0,0,1,82.71,64a21.89,21.89,0,0,1-1.83,8.69,17.29,17.29,0,0,1-5.26,6.86,27.19,27.19,0,0,1-8.92,4.57,38.92,38.92,0,0,1-12.12,1.6,45.11,45.11,0,0,1-11-1.37A27.09,27.09,0,0,1,34.23,80a21.36,21.36,0,0,1-8.69-18.29H39.94A8.5,8.5,0,0,0,41.09,67Z" transform="translate(-25.54 -3.43)"/><path class="cls-1" d="M102.37,16V83.92H87.51V16Z" transform="translate(-25.54 -3.43)"/><path class="cls-1" d="M123.18,67a10.85,10.85,0,0,0,3.2,3.89,23.42,23.42,0,0,0,4.8,2.29,23,23,0,0,0,5.72.69,29.16,29.16,0,0,0,4.34-.23,13.8,13.8,0,0,0,4.34-1.37A13.32,13.32,0,0,0,149,69.75a6.74,6.74,0,0,0-.46-8.69A12.83,12.83,0,0,0,144,58.31c-1.83-.69-4.12-1.37-6.4-2.06-2.52-.69-4.8-1.14-7.32-1.83A68.43,68.43,0,0,1,123,52.14a22.19,22.19,0,0,1-6.4-3.66A15.49,15.49,0,0,1,112,43a17.23,17.23,0,0,1-1.83-8,18.24,18.24,0,0,1,8.23-15.55,30.4,30.4,0,0,1,8.23-3.89,31.38,31.38,0,0,1,9.15-1.14,50.66,50.66,0,0,1,10.29,1.14,23.06,23.06,0,0,1,8.69,3.89,19.05,19.05,0,0,1,5.95,6.86A19.84,19.84,0,0,1,163,36.36H148.57a10.87,10.87,0,0,0-1.37-5,8,8,0,0,0-3-3.2,11.07,11.07,0,0,0-4.12-1.6,34.25,34.25,0,0,0-5-.46,20,20,0,0,0-3.66.46,8,8,0,0,0-3.2,1.37,12,12,0,0,0-2.52,2.29,5.8,5.8,0,0,0-.91,3.66,6.06,6.06,0,0,0,.69,3.2,6.4,6.4,0,0,0,3,2.29,48.38,48.38,0,0,0,6.17,2.06c2.52.69,6.17,1.6,10.29,2.74,1.14.23,3,.69,5.26,1.37a25.34,25.34,0,0,1,6.63,3.2,17.84,17.84,0,0,1,5.72,5.95A16.8,16.8,0,0,1,165,64a21.89,21.89,0,0,1-1.83,8.69,17.29,17.29,0,0,1-5.26,6.86A27.19,27.19,0,0,1,149,84.15a38.92,38.92,0,0,1-12.12,1.6,45.11,45.11,0,0,1-11-1.37A27.09,27.09,0,0,1,116.55,80a21.36,21.36,0,0,1-8.69-18.29h14.41A7.09,7.09,0,0,0,123.18,67Z" transform="translate(-25.54 -3.43)"/><path class="cls-1" d="M203.45,16l25.38,67.92H213.28l-5-15.09H182.87l-5.49,15.09H162.29L187.9,16Zm.91,41.62L195.68,32.7h-.23l-8.92,24.93Z" transform="translate(-25.54 -3.43)"/><path class="cls-1" d="M338.83,6.86l-.69.91.23.46-.23.46-.23.69c-.46,1.14-.46,1.14-1.6,1.6v.46a2.31,2.31,0,0,1-1.6.91,1.75,1.75,0,0,0-1.14.46,4.31,4.31,0,0,1-1.83.46,1.73,1.73,0,0,0-.91.23,12.89,12.89,0,0,1-2.74.91c-.46,0-.69.23-1.14.23a11,11,0,0,1-2.74,0c.23-.46.46-.46,2.06-.69a3,3,0,0,0-2.29,0c-.23-.46,0-.69,0-.91l-.23-.23h-2.06a5,5,0,0,1-1.83.23,8.89,8.89,0,0,0-3.43.46H316a15.1,15.1,0,0,0-3.2.23,3.89,3.89,0,0,0-1.6.23h-.46a6.77,6.77,0,0,0-2.29.46h-1.14l-1.6.23a3.89,3.89,0,0,0-1.6.23c-.91,0-1.83.46-2.74.23h-.69l-4.57,1.14h-.46a11.59,11.59,0,0,0-3,.46,6.77,6.77,0,0,0-2.29.46H289l-.23.23h-.23a11.59,11.59,0,0,0-3,.46c-1.14.46-2.52.46-3.89.91-.69.23-1.37,0-2.06.23h-.46a8.71,8.71,0,0,1-2.29.69c-.46,0-.69.23-1.14.46-.46,0-.69.23-1.14.46h-.69l-.23.23a2.18,2.18,0,0,1-.46,1.6l-1.37,3-.69,1.14c-.23.46-.69.91-.69,1.37l-.23.46c-.46.69-.91,1.6-1.37,2.29a9.27,9.27,0,0,1-1.14,2.06c-.23.23-.46.46-.46.69a8.21,8.21,0,0,1-1.6,2.29A7.15,7.15,0,0,0,264.51,38c0,.23-.23.46-.46.69-.46.69-1.14,1.37-1.14,2.06a3.16,3.16,0,0,1-.69.91l-.91,2.06-.23.46a19.78,19.78,0,0,0-1.6,2.29c0,.46-.23.69-.46,1.14s-.46.69-.69,1.14A3.56,3.56,0,0,1,257,50.54c0,1.14-.91,2.29-1.6,3.2a25,25,0,0,0-1.83,3.43,17.06,17.06,0,0,1-1.6,2.74,1.75,1.75,0,0,0-.46,1.14l-.69,1.6-2.29,3.89-2.06,3.66-1.6,3.43-.69,1.14a31.94,31.94,0,0,1-2.06,3.89c-.46.69-.69,1.6-1.14,2.29-.23.46-.46.69-.46,1.14l-.69.69.69.91H241l.46.91c-.23.23-.23.46-.46.91h.69c.46.23.46.69.46,1.37,0,.23-.23.46-.46.91h0l.46.46v.46l-.46.23a21.84,21.84,0,0,0-2.74,3.66,21.72,21.72,0,0,0-2.29,3.89l-.46.69c-.46.69-1.14,1.14-1.14,2.06l-.46.46c-.23-.23-.23-.23-.23-.46-.23,0-.46,0-.46.23l-1.37-1.14H232a3.16,3.16,0,0,0-.91-.69.22.22,0,0,0-.23-.23,5,5,0,0,0-.69-1.14,4.6,4.6,0,0,1-.91-1.83c0-.46-.23-.69-.23-1.14s-.23-.69-.46-1.14a17.65,17.65,0,0,1,.46-3.43,11.15,11.15,0,0,1,.69-1.6,3.86,3.86,0,0,1,.46-1.14v-.23a40.24,40.24,0,0,1,2.06-4.57V81a15.76,15.76,0,0,1,.91-2.29c.23-.46.46-1.14.69-1.6s.46-.69.46-1.14a5.73,5.73,0,0,1,.91-1.6,1.73,1.73,0,0,0,.46-.91l.69-1.37A8.12,8.12,0,0,0,237.3,70l.91-1.83c.69-1.37,1.6-2.74,2.29-4.12l.23-.46,1.37-2.74a12.11,12.11,0,0,1,1.37-2.29v-.23a31.94,31.94,0,0,1,2.06-3.89l2.29-4.34.23-.46a10.81,10.81,0,0,0,1.6-2.74c0-.23,0-.46.23-.46A16.59,16.59,0,0,0,251,44.36a4.78,4.78,0,0,1,.91-1.37,13.88,13.88,0,0,0,1.6-2.29l.23-.46c1.14-1.6,1.83-3.43,3-5l1.37-2.06a1.79,1.79,0,0,1,.91-.91,14.58,14.58,0,0,1,1.83-3.2c.23-.23.46-.46.46-.69.23-.91,1.14-1.6,1.37-2.52.69-.69.91-1.83,1.6-2.52v-.23c-.23-.23-.23,0-.46,0a7.27,7.27,0,0,1-2.06.69c-.23,0-.46.23-.69.23-.46.23-.69.46-1.14.46a1.73,1.73,0,0,0-.91.23l-2.06.69a12.89,12.89,0,0,0-2.74.91,21.59,21.59,0,0,1-2.06.69,38.12,38.12,0,0,0-4.57,1.83.71.71,0,0,0-.46.23,2.18,2.18,0,0,0-1.6.46,19.27,19.27,0,0,1-3.2,1.37l-.69.46a12.26,12.26,0,0,1-2.52,1.14l-1.83,1.14-3,1.83c-.23,0-.46.23-.69.46-.91.46-1.6.91-2.52,1.37l-1.14.46-2.06,1.14a4.1,4.1,0,0,0-1.6,1.14l-.69.69-.23.46.46.91.46.91-.23,1.14-.46.46V45h.69l.23.23a15.76,15.76,0,0,0-.69,1.83h-.91a.22.22,0,0,0-.23.23,3.14,3.14,0,0,1-1.83,1.14l-1.14-.23c-.23-.23-.23-.46-.46-.46h-.46l-.23-.69-.69-.69-.23-.91V45a9.84,9.84,0,0,1,0-3.66,1.73,1.73,0,0,1,.23-.91c0-.23.23-.46.23-.69,0-.46.23-.69.46-1.14s.46-1.14.69-1.6c.46-.69,1.14-1.6,1.6-2.29l2.29-2.06c.46-.46.69-.91,1.37-1.14l1.14-1.14a20.72,20.72,0,0,0,3.66-2.52l1.6-.69a5.73,5.73,0,0,0,1.6-.91,30.53,30.53,0,0,0,2.74-1.37,9.27,9.27,0,0,0,2.06-1.14,1.19,1.19,0,0,1,.91-.46c1.14-.46,1.83-.69,2.74-1.14s1.6-.91,2.52-1.37a9.56,9.56,0,0,0,2.29-.91c.46-.23,1.14-.46,1.6-.69a1.75,1.75,0,0,0,1.14-.46h.69a.22.22,0,0,0,.23-.23c.46-.23.69-.46,1.14-.69l1.6-.23.69-.69c.23,0,.46,0,.46.23a6.09,6.09,0,0,1,2.29-1.37,12.89,12.89,0,0,0,2.74-.91h0c1.83-.46,3.43-.91,5.26-1.37a2.06,2.06,0,0,1,1.14.23.71.71,0,0,1,.23-.46,5,5,0,0,1,2.74-1.14,11.35,11.35,0,0,0,3-.69L275,11l2.52-.69,1.6-.23.69-.23a7.44,7.44,0,0,1,3.2-.91l1.14-.23,1.6-.23c.91-.23,1.83-.23,2.74-.46a1.37,1.37,0,0,1,.91-.23,3.89,3.89,0,0,0,1.6-.23c.46-.23,1.14-.23,1.83-.46l2.29-.23c.23,0,.46-.23.91-.23a17.65,17.65,0,0,1,3.43-.46,2.9,2.9,0,0,0,1.37-.23c1.37-.46,2.74-.23,4.34-.69.46-.23.91,0,1.37,0A1.71,1.71,0,0,0,307.73,5a2.9,2.9,0,0,1,1.37-.23,16.2,16.2,0,0,1,3.2-.23c.46,0,1.14-.23,1.83-.23h.69c1.37,0,2.74-.23,3.89-.23.46,0,1.14-.23,1.6-.23l3-.23a11,11,0,0,1,2.74,0,1.71,1.71,0,0,0,1.14-.23h5a5.55,5.55,0,0,0,2.74,0c.69,0,1.37.23,1.83.23a7.07,7.07,0,0,1,1.83.46l.46.23v.91a1.19,1.19,0,0,0,.46.91ZM227.46,35.21ZM229.29,37c-.23-.23-.23,0-.46,0s-.46.23-.69.46c-.46,0-.46.23-.69.46.46,0,.46,0,.69-.46.46,0,.46,0,.69-.46C229.06,37.27,229.06,37,229.29,37Zm-1.6-2.29c.23,0,.46,0,.46-.23A.8.8,0,0,0,227.69,34.76Zm.69-.46c.23,0,.46,0,.46-.23C228.61,34.07,228.38,34.07,228.38,34.3Zm18.75-9.38.46-.23a.84.84,0,0,0,.69-.23c2.06-.91,4.12-1.83,6.17-2.52l.91-.23.46-.46a.84.84,0,0,0,.69-.23H257c-.23-.23-.23,0-.46,0a.84.84,0,0,0-.69.23h-.46a7.27,7.27,0,0,0-2.06.69c-1.6.46-3,1.14-4.57,1.6-.69.23-1.14.46-1.83.69-1.14.46-2.52,1.14-3.66,1.6l-3.89,1.6c-.46.23-.69.46-1.14.69a2.06,2.06,0,0,0-1.14.23,13.66,13.66,0,0,1-2.52,1.37l-2.29,1.37v.69c-.23,0-.46,0-.46.23-.46,0-.69,0-.69.46a1.26,1.26,0,0,0-1.14.69,1.26,1.26,0,0,0,1.14-.69c.46,0,.69-.23.69-.46.23,0,.46,0,.46-.23h.46a51.39,51.39,0,0,0,4.8-2.74l1.14-.69a1.73,1.73,0,0,0,.91-.23l.91-.46a20.27,20.27,0,0,0,3.89-1.83ZM232.49,35c-.23,0-.46,0-.46.23A.71.71,0,0,0,232.49,35Zm-.23,53.28s-.23,0,0,.23C232,88.5,232.26,88.27,232.26,88.27Zm18.52-35.45c-.23,0-.46.23-.46.69l-2.06,3.66a2.45,2.45,0,0,0-.46,1.37c-.23,0-.23.23-.23.46-.23,0-.23.23-.23.46a.22.22,0,0,0-.23.23,3.41,3.41,0,0,0-.69,1.6c-.23,0-.23.23-.23.46a3.69,3.69,0,0,0-.91,1.6c-.23,0-.23.23-.23.46l-.23.23a8.45,8.45,0,0,0-1.14,2.52c-.23,0-.23.23-.23.46-.23,0-.23.23-.23.46a.49.49,0,0,0-.46.46A25,25,0,0,1,241,71.35l-2.74,5.49v.69c-.23,0-.23.23-.23.46-.23,0-.23.23-.23.46-.23,0-.23.23-.23.46a.49.49,0,0,0-.46.46l-.46,1.14-2.74,5.95c0,.23-.23.69-.23.91-.23,0-.23.23-.23.46-.23,0-.23.23-.23.46.23,0,.23-.23.23-.46.23,0,.23-.23.23-.46l.46-.46,1.14-2.52a48.93,48.93,0,0,0,2.29-5l.23-.69c.23,0,.23-.23.23-.46.23,0,.23-.23.23-.46.23,0,.23-.23.23-.46.23,0,.46-.46.46-.69l1.6-3.43,2.74-5c.23-.46.46-.69.46-1.14.23,0,.23-.23.23-.46.23,0,.23-.23.23-.46a.22.22,0,0,0,.23-.23,8.45,8.45,0,0,0,1.14-2.52c.23,0,.23-.23.23-.46a5.73,5.73,0,0,0,.91-1.6c.23,0,.23-.23.23-.46a5.73,5.73,0,0,0,.91-1.6c.23,0,.23-.23.23-.46.23,0,.23-.23.23-.46.23,0,.46-.23.46-.69a29.16,29.16,0,0,0,1.6-2.74C250.1,54.42,250.56,54,250.79,52.82Zm-5.72-24a1.37,1.37,0,0,0-.91.23,24.78,24.78,0,0,1-4.34,1.83,4.78,4.78,0,0,0-1.37.91h-.69c-1.14.46-2.29,1.14-3.2,1.6v.46c-.23,0-.46,0-.46.23-.23,0-.46,0-.46.23-.23,0-.46,0-.46.23.23,0,.46,0,.46-.23.23,0,.46,0,.46-.23.23,0,.46,0,.46-.23.46-.23.69-.23,1.14-.46.91-.46,1.6-.91,2.52-1.37a.49.49,0,0,0,.46-.46,2.18,2.18,0,0,0,1.6-.46l1.83-.91L244.84,29ZM233.86,94.44c-.46,0-.46.46-.46.69C233.64,94.9,233.86,94.67,233.86,94.44Zm.91,1.83a.84.84,0,0,0-.23.69s-.23,0,0,.23V97C234.78,96.73,234.78,96.73,234.78,96.27Zm2.52-4.34v.23l-.23.23a.32.32,0,0,0,0,.46v-.46l.23-.23C237.3,92.39,237.52,92.16,237.3,91.93Zm4.34-15.78v-.23a.22.22,0,0,0-.23.23A21.72,21.72,0,0,0,239.12,80v.69a.49.49,0,0,0-.46.46L237.3,83.7v.46a4.1,4.1,0,0,0,1.14-1.6,3.25,3.25,0,0,0,.46-1.37l.23-.69.46-.46.46-.91ZM238.9,25.38c.46,0,.46,0,.69-.23C239.12,24.92,239.12,24.92,238.9,25.38Zm1.37-.91c.23.23.23,0,.23,0H241c-.23-.23-.23,0-.46,0Zm3.66,47.34v-.23a5,5,0,0,0-1.14,1.83s-.23,0,0,.23V73.4l.46-.23A3.72,3.72,0,0,1,243.93,71.8Zm2.52-5.26c-.23,0-.23.23-.23.46-.23,0-.23.23-.23.46a5.73,5.73,0,0,0-.91,1.6c-.23,0-.23.23-.23.46-.23,0-.23.23-.23.46-.23,0-.23.23-.23.46.23,0,.23-.23.23-.46.23,0,.23-.23.23-.46.23,0,.23-.23.23-.46l.46-.23a3.25,3.25,0,0,0,.46-1.37c.23,0,.23-.23.23-.46C246.44,67,246.44,66.77,246.44,66.54ZM246,28.35c-.23-.23-.23,0-.23,0-.23,0-.46,0-.46.23.23,0,.46,0,.46-.23C245.76,28.58,246,28.35,246,28.35Zm17.84-6.17a.32.32,0,0,0-.46,0,2.76,2.76,0,0,0-2.29.69h-.46a21.24,21.24,0,0,1-3,.91l-4.8,1.6a.49.49,0,0,0-.46.46.84.84,0,0,0-.69.23,6.68,6.68,0,0,0-2.06.46,8.12,8.12,0,0,0-2.06.91c-.23,0-.46,0-.69.46,0,.23.23,0,.46,0l2.06-.91c.69-.23,1.37-.69,2.06-.91h0a.84.84,0,0,0,.69-.23h.69c1.6-.69,3.43-1.14,5-1.83l.69-.23,1.83-.69.46-.46a3.86,3.86,0,0,0,2.29-.69h0C263.36,22.18,263.59,22.41,263.82,22.18Zm-16-.91c.23,0,.46,0,.46-.23.23,0,.46,0,.46-.23-.23,0-.46,0-.46.23C248,21,247.81,21,247.81,21.27Zm1.14-.46h.23C249,20.58,249,20.81,249,20.81ZM249,62Zm.69-41.39c.23.23.23,0,.46,0a.71.71,0,0,0,.46-.23c-.23,0-.23,0-.46.23C249.87,20.35,249.87,20.35,249.64,20.58Zm.46,39.56c-.46.23-.46.23-.23.69C249.87,60.6,250.1,60.37,250.1,60.14Zm2.29-4.34a1.73,1.73,0,0,0-.46.91c-.23,0-.23.23-.23.46a.49.49,0,0,0-.46.46L250.56,59v.46a.22.22,0,0,0,.23-.23l.91-1.37V57.4c.23,0,.23-.23.23-.46C252.39,56.25,252.39,56.25,252.39,55.8Zm1.6-8.92a1.26,1.26,0,0,0,.69-1.14h0a5,5,0,0,0-.69,1.14l-.46.23-.91,1.6c-.23.46-.23.69-.46,1.14A7.15,7.15,0,0,0,251,52.14c-.23,0-.23.23-.23.46-.23,0-.23.23-.23.46.23,0,.23-.23.23-.46.23,0,.23-.23.23-.46a.22.22,0,0,0,.23-.23,6.85,6.85,0,0,0,.91-1.83A5.81,5.81,0,0,0,254,46.88Zm-3.2-27h.46a.84.84,0,0,0,.69-.23A3.69,3.69,0,0,0,254,19a.84.84,0,0,0,.69-.23,6.71,6.71,0,0,0,2.29-.69v-.23a2.9,2.9,0,0,0-1.37.23l-.46.46-.46.23A.84.84,0,0,0,254,19a3.69,3.69,0,0,0-2.06.69.84.84,0,0,0-.69.23Zm6.4,27.21a1.19,1.19,0,0,0-.46.91c-.23.23-.46.46-.46.69l-2.52,3.89a.84.84,0,0,0-.23.69c-.46.69-.69.91-.69,1.6l.23-.46c.23-.46.46-.69.46-1.14a.49.49,0,0,0,.46-.46l.46-.91a27.23,27.23,0,0,0,2.06-3.43V48C257.19,47.56,257.19,47.56,257.19,47.11Zm.23-29.5Zm1.83,26.3c-.46.46-.46.46-.46.91C258.79,44.59,259,44.36,259.25,43.9Zm.69-23.78Zm1.14-.69c.69,0,.69,0,.69-.46Zm2.74-.69Zm2.74-.91a1.75,1.75,0,0,0-1.14.46.91.91,0,0,0-.91.46l1.6-.23h.23C266.34,18.29,266.57,18.29,266.57,17.84Zm.46-3.2h-.46C266.57,14.86,266.79,14.86,267,14.63ZM273,13c-.23-.23-.23,0-.46,0a3.19,3.19,0,0,0-2.06.69c.91-.23,1.6-.23,2.06-.69C272.74,13.26,272.74,13,273,13Zm3.43,5.72a9.58,9.58,0,0,0-3.43.91v.23h.23a3.25,3.25,0,0,1,1.37-.46C275.26,19.21,275.94,19.21,276.4,18.75Zm-3.2-2.52a1,1,0,0,0,1.14-.23C273.88,15.78,273.66,16,273.2,16.23Zm1.37-3.66H275c.23,0,.46,0,.46-.23h.46c.23,0,.46,0,.46-.23h-.46c-.23,0-.46,0-.46.23H275A.8.8,0,0,0,274.57,12.58Zm.46,3.2h.46C275.26,15.55,275,15.55,275,15.78Zm1.6-.46h-.91c.46.23.91.23.91,0a.84.84,0,0,0,.69-.23A1.13,1.13,0,0,0,276.63,15.32Zm2.52,2.74h-.23a3.86,3.86,0,0,0-2.29.69h0a4.92,4.92,0,0,0,2.52-.46C278.91,18.29,279.14,18.29,279.14,18.06Zm-2.52-5.95h.46C276.86,11.89,276.63,11.89,276.63,12.12Zm5,2.06h0a3.23,3.23,0,0,0-2.06.23l-.23.23h-.46c.23.23.23,0,.46,0A8.12,8.12,0,0,0,281.66,14.18Zm12.35.91h-1.14a29.41,29.41,0,0,0-4.34.91l-1.6.23c-1.14,0-2.29.46-3.43.46a5.38,5.38,0,0,0-1.83.46c-.46.23-1.14.23-1.6.69a4.46,4.46,0,0,0,1.83-.23,9.73,9.73,0,0,1,2.52-.46h.46a14.57,14.57,0,0,1,1.6-.46l2.74-.46,4.12-.91C293.55,15.32,293.78,15.55,294,15.09Zm-10.75-1.37h0Zm2.74-.46Zm9.83-5Zm1.14,6.4h-.91C296.52,14.86,296.75,14.86,297,14.63Zm9.6-1.37c-.23-.23-.46-.23-.91-.23H305c-.46,0-1.14.23-1.6.23-1.14,0-2.06.23-3,.23h-.91l-2.06.69c.46.23.91,0,1.37,0a.8.8,0,0,1,.46.23,6.68,6.68,0,0,1,2.06-.46,9.73,9.73,0,0,0,2.52-.46C305,13.72,305.67,13.26,306.59,13.26ZM298.12,11Zm14.41,1.6a2.9,2.9,0,0,0-1.37-.23h-.69c-.46,0-.69.23-.91.23a7.78,7.78,0,0,0-2.29.23h0c.23,0,.46.23.69.23A34.37,34.37,0,0,0,312.53,12.58Zm4.34-.46h-.46a17.65,17.65,0,0,0-3.43.46h-.23l.23.23h.69c.91-.23,1.6-.23,2.52-.46A.84.84,0,0,1,316.88,12.12Zm1.14-.23c-.23,0-.23-.23-.46,0C317.79,11.89,317.79,12.12,318,11.89Zm3.89-.46h-1.83A2.51,2.51,0,0,0,321.91,11.43Zm10.52.69h0c-1.6.23-3.2.91-4.8,1.14l-1.37.46h1.37l4.57-1.14A.8.8,0,0,1,332.43,12.12Z" transform="translate(-25.54 -3.43)"/><path class="cls-1" d="M311.39,45c-.23.69-.23,1.14-.69,1.6l-1.83,2.06-.23.23a10.84,10.84,0,0,0-2.29,2.29l-.46.23-.46.46c-.46.46-.69.91-1.14,1.37a6.16,6.16,0,0,0-1.6,1.83l-.23.23c-.91.69-1.37,1.6-2.29,2.06-.23,0-.46.46-.46.69a.22.22,0,0,1-.23.23l-1.6,1.6L297,61.06l-1.37,2.06c-.46.46-.69.91-1.14,1.37l-1.6,2.29-.91,1.14-1.14,1.14-.69.69-.23.46-1.14,1.6a16,16,0,0,0-1.83,2.29,14.79,14.79,0,0,1-1.83,2.06.22.22,0,0,0-.23.23c0,.23-.46.46-.46.69-.23,0-.23.46-.46.46l-1.6,1.83-.46.23c0,.46-.23.69-.46.69-.46.23-.46.69-.91.91h-.23l-.23-.23h.23v-.46h-.46V81a.8.8,0,0,0-.46-.23c-.46.23-.46.23-.69.69h-.23v.46c.23-.23.23-.46.46-.46v.46L277.54,83c-.23,0-.46.46-.91.23a3.31,3.31,0,0,1-1.6.46h-1.37a6,6,0,0,1-3.89-1.6l-.46-.69v-.69a5,5,0,0,0-.69-1.14,1.79,1.79,0,0,0-.91-.91c-.23,0,0-.46-.46-.46-.23-.46-.91-.69-1.14-1.14a9.68,9.68,0,0,1-1.14-1.6c-.23-.69-.46-1.14-.69-1.83a3.25,3.25,0,0,1-.46-1.37,11,11,0,0,1,0-2.74v-.69l.23-1.14c.23-.69.46-1.14.69-1.83,0-.23.23-.46.46-.69a6.09,6.09,0,0,1,1.37-2.29v-.23a3.69,3.69,0,0,1,.91-1.6l.23-.23V60.6l1.14-1.37.91-1.14.23-.46.69-.69a3.69,3.69,0,0,0,.91-1.6c0-.23.23-.46.46-.69a6.06,6.06,0,0,0,1.14-1.37c0-.23.46-.46.46-.69l1.14-1.14v-.23a13.07,13.07,0,0,1,1.6-1.83l.91-.91c.46-.46.69-.91,1.14-1.37.23,0,.46-.46.46-.69a4,4,0,0,1,.91-1.14c.23-.23.46-.69.69-.91.46-.46.69-.91,1.14-1.37.46-.23.46-.69.91-.91l.46-.69a1.19,1.19,0,0,0,.46-.91c-.23-.23-.69,0-1.14,0a1.73,1.73,0,0,0-.91.23c-.46.23-.91.23-1.37.46-.46,0-.91.23-1.37.23h-2.06c-2.74,2.52-6.63,8.23-8.92,9.6-.46.46-6.4,2.52-7.55.46l3.89-3.89,1.6-1.6.46.46a.84.84,0,0,0-.23-.69l.69-.69.46.46V44.36a.22.22,0,0,0,.23-.23h.46v.46c0,.23,0,.46.46.69,0-.46-.23-.69-.46-1.14v-.46h.46l.23-.69a7.76,7.76,0,0,0,1.37-1.37l.69-.69.69-1.37.91-1.14-.23-.46a.8.8,0,0,0,.23-.46V37h-.23a.84.84,0,0,1-.23-.69,2.82,2.82,0,0,1-.46-2.29v-.23a3.89,3.89,0,0,1-.23-1.6,1.71,1.71,0,0,1,.23-1.14,4.24,4.24,0,0,1,.46-1.6,1.19,1.19,0,0,1,.46-.91,1.33,1.33,0,0,1,2.06.46,2,2,0,0,1,1.14,2.29c0,.23.23.23.46.23h2.06l.91-.46a1.19,1.19,0,0,0,.91-.46l.46.23.23-.23a3.25,3.25,0,0,1,1.37-.46l.46-.23c.23,0,.46-.23.91-.23h.46a6.77,6.77,0,0,1,2.29-.46l.69-.23a9.9,9.9,0,0,0,1.14-.23h.23c.46-.23,1.14-.23,1.6-.46.46,0,.91-.23,1.14,0l1.6-.69h.69l1.83-.69h.46c0-.23.23-.46.46-.69.23,0,.46-.23.69-.23.23-.46.69-.46,1.37-.46a4.6,4.6,0,0,1,1.83-.91.84.84,0,0,1,.69.23c.23.46.46.46.91.91l.23,1.14.23.23a2,2,0,0,1,.23,1.6c-.23,0-.46.46-.46.69h.46c0,.46-.23,1.14-.69,1.14a1.73,1.73,0,0,0-.91.46c0,.69.23.91.23,1.37l-.23,1.37c-.46.23-.46.69-.69,1.14a3,3,0,0,0-.69,1.14,1.19,1.19,0,0,0-.46.91c0-.23.23-.46.46-.91a1.63,1.63,0,0,0,.69-1.37,5,5,0,0,0,.69-1.14l.46-.46v.69A3.69,3.69,0,0,1,300,35.9c-.23.46-.46.69-.69,1.14l-.46.46-.91,1.14-2.06,2.29-.46.46-.69.69-.69.46a.71.71,0,0,1-.23.46l-.23.46c-.46.23-.69.69-1.14.91,0,.46,0,.46-.69.69-.46.46-.91,1.14-1.37,1.37v.46A2.76,2.76,0,0,1,289.21,48a3.16,3.16,0,0,1-.69.91,10.56,10.56,0,0,1-1.6,1.6l-.23.23c-.46.46-.69,1.14-1.14,1.6l-.69,1.14-.91.91-.46.46c-.23,0-.23.23-.46.46a.49.49,0,0,0-.46.46v.46h-.46v.46c-.23.46-.69.69-1.14,1.14v.91h0c-.46.46-1.14.91-1.37,1.6a1.79,1.79,0,0,1-.91.91l-.46.69c0,.23,0,.46-.23.46a6.16,6.16,0,0,0-1.6,1.83l-.23.23c-.23.23-.23.46-.46.69-.46.91-1.14,1.6-1.6,2.52l-.46.69a3.16,3.16,0,0,0-.69.91l-.46.69a1.19,1.19,0,0,0-.46.91,2.65,2.65,0,0,1-1.14,1.6,1.73,1.73,0,0,1-.23.91h.46l2.29-.91,1.37-.69a7,7,0,0,0,1.6-1.14c.23-.46.69-.46,1.14-.91a10,10,0,0,0,1.6-1.37l.69-.69a.49.49,0,0,0,.46-.46l.23-.23c.46-.46,1.14-.91,1.6-1.37l1.14-1.14.69-.69c.46-.23.91-.69,1.37-.91a.8.8,0,0,0,.23-.46,1.79,1.79,0,0,1,.91-.91,1.79,1.79,0,0,0,.91-.91c.46-.23.69-.69,1.14-1.14l.46-.23.69-.69c.23-.46.69-.69.91-.91l.46-.46h0c.69-.46,1.14-1.37,2.06-1.83a17.46,17.46,0,0,0,2.06-2.06l.69-.69,2.52-2.52c.46-.46.91-.69,1.37-1.14a.71.71,0,0,1,.23-.46l.46.69v-.69l.46-.69.46.46v-.91l.23-.46H302v.46c0,.23.23.46.46.69,0-.46,0-.91-.46-1.14v-.46l.46-.23.46-.69,1.37-1.37.69-.69,1.14-1.14c.46-.46.69-.91,1.14-1.14h.46v.46h0l.46-.23.69.69-.23,1.14c.46,0,.46-.46.69-.69a5,5,0,0,0,.69,1.14c0,.46-.46.91-.46,1.6ZM268.17,70.2l-.46,1.14h.23A2.49,2.49,0,0,0,268.17,70.2Zm3,1.6.91-1.37.91-1.6v-.46c.23,0,.23-.23.23-.46a.8.8,0,0,0-.23.46h0a10.81,10.81,0,0,0-1.6,2.74l-.23.69A6,6,0,0,0,270,73.86h.23C270.45,73.18,270.91,72.49,271.14,71.8ZM270,61.06c.46-.23.46-.23.46-.69Zm2.52-2.74v-.23C272.51,57.85,272.28,58.08,272.51,58.31Zm0,4.57Zm.23-5a.22.22,0,0,0,.23-.23C272.74,57.4,272.74,57.63,272.74,57.85Zm.69,9.83a.22.22,0,0,0,.23-.23c.46-.23.46-.69.69-.91l.91-1.6,1.6-2.29h0l-.46.46a3.16,3.16,0,0,0-.69.91l-1.6,2.52-.46,1.14C273.43,67.46,273.43,67.46,273.43,67.69Zm.46-6.63Zm.46-.69Zm.69-19.9h0C274.8,40.7,275,40.7,275,40.47Zm2.52,21.27h.23a2.28,2.28,0,0,1,.91-1.14,2.28,2.28,0,0,1,.91-1.14l.23-.23L281,58.08a9.68,9.68,0,0,0,1.14-1.6l.23-.23c-.91.46-1.14,1.37-1.83,1.6l-.23.46-.91.69c0,.23-.23.23-.23.46-.23.46-.46.46-.69.69l-.46.46C277.77,61.28,277.54,61.28,277.54,61.74Zm3,15.55h0c-.23,0-.23,0-.46.23h.23Zm.69-29.73h0c.23-.23.46-.23.46-.46h0c-.23,0-.23.23-.46.46Zm.23,4.34c-.23,0-.23,0,0,.23v-.23h0C281.66,51.68,281.43,51.68,281.43,51.91Zm2.06,24.47c-.23,0-.46.23-1.14,1.14-.23.23-.46.46-.46.69-.23.23-.46.23-.46.69a13.07,13.07,0,0,1,1.6-1.83v-.23A.49.49,0,0,0,283.49,76.38Zm-1.14-20.12.69-.91.46-.91a.22.22,0,0,1,.23-.23h0v.23l-1.14.91C282.57,55.57,282.12,55.8,282.35,56.25Zm0-5.26c.23-.23.46-.46.46-.69l.46-.23c-.23,0-.46,0-.46.23h-.23Zm2.74,23.78-1.37,1.37v.23A8.54,8.54,0,0,0,285.09,74.78Zm-.46-21v-.23c.46-.23.69-.46.69-.91-.46.23-.46.46-.69.91C284.63,53.51,284.4,53.51,284.63,53.74Zm1.14,20.12c-.23,0-.23.23-.23.46C285.78,74.09,285.78,74.09,285.78,73.86Zm0-21.5c.23-.23.46-.69.69-.91C286,51.68,285.78,51.91,285.78,52.37Zm2.29,18.75c-.23.23-.46.46-.46.69-.23.23-.46.46-.46.69a2.28,2.28,0,0,0-.91,1.14,2.28,2.28,0,0,0,.91-1.14c.23-.23.46-.46.46-.69C287.83,71.8,288.06,71.58,288.06,71.12Zm-1.6-19.9a6.06,6.06,0,0,0,1.14-1.37C287.15,50.08,286.92,50.77,286.46,51.22Zm1.6-1.37a1.19,1.19,0,0,0,.46-.91.49.49,0,0,0-.46.46C288.06,49.62,287.83,49.62,288.06,49.85Zm.46,20.81c-.23,0-.23.23-.23.46C288.29,70.89,288.52,70.89,288.52,70.66Zm.69-1.14A.8.8,0,0,0,289,70h0a.49.49,0,0,0-.46.46h0A.49.49,0,0,0,289,70h0C289.21,69.75,289.21,69.75,289.21,69.52Zm-.46-20.81.46-.23C288.75,48.48,288.75,48.48,288.75,48.71Zm1.14-1.37c.46,0,.46-.23.91-.46v-.69l-.46.23ZM291,67.92h0c-.46.23-.46.23-.46.46C290.81,68.14,291,68.14,291,67.92Zm2.74-3.43a2.28,2.28,0,0,0-.91,1.14c-.23.23-.46.23-.46.69a3.16,3.16,0,0,0-.69.91c-.46.23-.46.23-.46.69l.46-.69.69-.69.46-.46C293.32,65.17,293.55,64.94,293.78,64.49Zm-1.83-19.21c.23-.23.23-.46.46-.69h0C291.95,44.82,291.95,44.82,291.95,45.28ZM294.24,64c-.23,0-.23.23-.23.46A.71.71,0,0,0,294.24,64Zm.69-1.14c-.23,0-.23.23-.23.46h-.23a.8.8,0,0,0-.23.46c.23,0,.23-.23.23-.46h0A.49.49,0,0,0,294.92,62.89Zm2.52-23.33a.49.49,0,0,0,.46-.46A.49.49,0,0,0,297.44,39.56Z" transform="translate(-25.54 -3.43)"/><path class="cls-1" d="M360.33,38.65v.69L359,40.47,358,41.62l-.69.69c0,.23-.23.23-.46.23v-.69h0l-.46.46c.46.46.23.69,0,1.14a9,9,0,0,1-1.83,2.29l-1.14,1.6-.23.23c-.23.46-.46.69-.69,1.14l-.91,1.6h0c-.46.23-.69.69-1.14,1.14l-.23.23a6.06,6.06,0,0,1-1.14,1.37h0l-1.6,2.52c-.23.23-.46.46-.69.46a5,5,0,0,1,.69-1.14c.23-.23.46-.46.46-.69l.23-.46.23-.23h0l-.23.23-.69.69-1.83,2.52-.23.46a16.05,16.05,0,0,0-1.37,2.06c-.69.46-.91.91-.91,1.14l.46-.69c.23-.23.23-.46.46-.46a1.79,1.79,0,0,1,.91-.91,1.75,1.75,0,0,0,.46-1.14c.23,0,.46-.23.69-.46.23.23,0,.46,0,.69a.71.71,0,0,1-.23.46c-.46.46-.69,1.14-1.14,1.6-.46.69-1.14,1.6-1.6,2.29-.23.23-.46.69-.69.69a39.09,39.09,0,0,1-2.52,3.2l-1.14,1.37-.23.46c-.23.46-.46.46-.46.91a21.45,21.45,0,0,0-2.06,2.74,2.76,2.76,0,0,1-1.14,1.14c-.46.69-1.14,1.14-1.37,1.83a.49.49,0,0,1-.46.46l-3,3a10.56,10.56,0,0,1-1.6,1.6h-.46l.23-.46h0l-.46.46h-.46a.22.22,0,0,1-.23.23H326c-.23.23-.69.23-.91.46a2.51,2.51,0,0,1-1.83,0c-.46,0-.69-.23-1.14-.46L321,78.44v-.23l-.46-.69h0l-.46-.23.23-.23c-.23,0-.23-.23-.46-.46a8.22,8.22,0,0,1-.46-2.52V72.95a.84.84,0,0,0-.23-.69,3.3,3.3,0,0,1-.46-1.6v-.23a2.75,2.75,0,0,1-.46-1.83,15.1,15.1,0,0,1,.23-3.2l.23-1.83v-.23c-.46.23-.46.46-.69.69l-.46.69a12.57,12.57,0,0,0-1.6,2.06.49.49,0,0,1-.46.46l-.69.69c-.23.46-.23.46-.69.69-.23.69-.46,1.14-1.14,1.37a4,4,0,0,1-.91,1.14l-1.14,1.14-1.14,1.14-2.06,1.37-.23.23c-.46.23-.91.23-1.14.69a.8.8,0,0,0-.46.23c-.46,0-.69.23-1.14.46a.84.84,0,0,1-.69.23h-.91l-.46-.23-.69.23c0-.23,0-.23-.23-.46h-.46a.22.22,0,0,0-.23-.23c-.23-.23-.46-.23-.91-.69l-.69-.46a6,6,0,0,1-1.14-2.06l-.69-1.37a8.19,8.19,0,0,1-.91-2.52c-.23-.69-.23-1.14-.46-1.83v-.91a3.89,3.89,0,0,0-.23-1.6.8.8,0,0,1,.23-.46v-1.6l.23-1.83c0-.23.23-.46.23-.69a6.68,6.68,0,0,1,.46-2.06,5.73,5.73,0,0,1,.91-1.6,3.31,3.31,0,0,0,.46-1.6c0-.23.46-.69.46-.91a12.68,12.68,0,0,1,1.37-1.83c0-.23.23-.23.23-.46a9.94,9.94,0,0,1,.91-1.6l.69-1.14c0-.23.46-.69.69-.91a29.8,29.8,0,0,1,2.29-3.43c.46-.69,1.14-1.37,1.6-2.06A9.83,9.83,0,0,1,308.87,40l1.6-1.6c1.14-.69,1.83-1.83,2.74-2.52l.46-.46h.23a4,4,0,0,0,1.14-.91,3.16,3.16,0,0,1,.91-.69c.46-.23.91-.69,1.37-.91.23,0,.23,0,.46-.23l.91-.69A21.25,21.25,0,0,1,321,30.87a4.24,4.24,0,0,1,1.6-.46,2.06,2.06,0,0,0,1.14-.23h1.37c.46,0,.69-.23,1.14,0,.46-.23.69,0,1.14,0s.91.23,1.37.23l.23.23h1.37a3.86,3.86,0,0,0,1.14.46v.23a3.87,3.87,0,0,1,2.29,1.6v.46a.71.71,0,0,1,.46.23v.46c.69.69.69,1.37,1.14,2.29.46-.46.91-.69,1.14-1.37.46-.46,1.14-.46,1.37-1.14l.69-.69a1.71,1.71,0,0,1,1.14.23v.46h.46l.91,1.14c0,.23-.46.69,0,.91l.46-.23A6,6,0,0,1,342,39.1l.23.46h0a9.68,9.68,0,0,1-.91,2.74,1.19,1.19,0,0,1-.46.91v.23c-.46.69-.91,1.6-1.37,2.29a1.79,1.79,0,0,1-.91.91l-.69,1.6h-.46v.46l-.69.46v.46l-.69.69-.23.23-1.37,2.06c-.46.69-1.14,1.14-1.37,2.06,0,.23-.23.46-.46.69s-.69.46-.69.91c-.46.23-.46.46-.69.91l-1.14,1.37-.46.46a1.19,1.19,0,0,0-.46.91h0c-.23.23-.46.46-.46.69a9.27,9.27,0,0,1-1.14,2.06c-.23.46-.46.69-.69,1.14a3.16,3.16,0,0,1-.69.91,10.31,10.31,0,0,1-.69,2.52,3.69,3.69,0,0,0,1.6-.91c.69-.69,1.6-1.14,2.29-1.83l1.14-.91.23-.23a.49.49,0,0,0,.46-.46l.23-.23a10.56,10.56,0,0,0,1.6-1.6c0-.23.23-.23.46-.46l1.6-1.37c.23-.46.69-.69.91-.91.23,0,.46-.23.69-.46H337l.46-.69.91-1.14L340.2,54c.23-.23.69-.46.91-.91.23,0,.23-.23.46-.46l.46-.46c.23-.69.69-.91,1.14-1.37a.49.49,0,0,1,.46-.46l.69-.91h0a7.12,7.12,0,0,0,1.6-2.06l.46-.69.69-.91.46-.69c.46-.69.91-1.14,1.37-1.83h0c.91-.69,1.14-1.6,1.83-2.29.46-.46.91-1.14,1.37-1.6a3.16,3.16,0,0,0,.69-.91l1.83-2.29,1.83-1.6.69.23-.23.46c.23-.23.23-.23.46-.23a.71.71,0,0,1,.46.23l.23.46a1.73,1.73,0,0,1-.46.91l.46-.23.23-.23.23,1.14h0V38c0,.23-.23.46-.23.69C359.87,39.1,359.87,38.87,360.33,38.65Zm-37.5,12.58.91-.91.23-.23A8.73,8.73,0,0,1,326,48c.46-.46.91-1.14,1.37-1.6a.22.22,0,0,0,.23-.23c.23-.46.69-.69,1.14-1.14l1.6-1.6c.23-.23.46-.46.46-.69-.23-.69,0-1.6-.46-2.29l-.46-.23V40h-.69l-.46-.46-.46.23c-.23.23-.46,0-.91,0h-1.6a.43.43,0,0,1-.69,0,4.31,4.31,0,0,1-1.83.46l-.69.46-.69.69a1.26,1.26,0,0,0-1.14.46.22.22,0,0,1-.23.23,4.1,4.1,0,0,0-1.6,1.14,4.78,4.78,0,0,0-1.37.91l-.46.23a10,10,0,0,0-1.6,1.37l-.23.46A9.83,9.83,0,0,0,313,48.25l-.23.23a10.56,10.56,0,0,0-1.6,1.6L310,51.45l-.46.46-1.37,1.83-.69.91L306.81,56c-.23.46-.46.69-.69,1.14a5,5,0,0,0-.69,1.14,6,6,0,0,0-1.14,2.06c0,.23,0,.69-.23.69a3.25,3.25,0,0,0-.46,1.37,3.41,3.41,0,0,1-.69,1.6,3.31,3.31,0,0,0-.46,1.6A3.25,3.25,0,0,1,302,67v.46l.46.46h0l1.37.23,2.74-.91c.23,0,.46-.23.69-.46l1.37-1.14c.46-.46.91-.69,1.37-1.14a.22.22,0,0,1,.23-.23,5.34,5.34,0,0,0,1.6-1.6.22.22,0,0,0,.23-.23l1.83-1.6.69-.46h0l.69-.69h0l.69-.46.46-.69a.84.84,0,0,1,.23-.69h.23l.91-1.14c.46-.46.69-.91,1.14-1.14l.69-.69.23-.23a.49.49,0,0,0,.46-.46,10.56,10.56,0,0,1,1.6-1.6A2.91,2.91,0,0,1,322.82,51.22Zm-13.95-4.57c.23,0,.23-.23.23-.46A.71.71,0,0,0,308.87,46.65Zm.46-.69c.23,0,.46-.23.46-.69C309.79,45.51,309.56,45.73,309.33,46Zm.69-.69c.46,0,.46-.46.69-.69l.23-.46,1.83-1.6a10.56,10.56,0,0,0,1.6-1.6l1.14-1.14a.22.22,0,0,0,.23-.23l-.23.23h-.23l-2.52,2.29A31,31,0,0,0,310,44.82C310.24,45,310,45,310,45.28Zm6.17-1.6c0,.23-.23.23-.46.23l-.91.69-.23.46-2.74,2.52-.69.69h0c.46-.23.69-.69,1.14-1.14l.23-.46c.69-.46,1.14-1.14,1.83-1.6.69,0,1.37-.69,1.83-1.37h.23l1.83-1.6a.8.8,0,0,0-.46.23C317.33,42.76,316.65,43.22,316.19,43.68Zm-5-3.43.23-.23C311.16,40,311.16,40,311.16,40.25Zm.69-.69h.23l1.14-1.14a3,3,0,0,0-1.37,1.14Zm.46,30h0c-.23,0-.23,0-.23.23l.23-.23C312.07,69.75,312.07,69.52,312.3,69.52Zm1.14-1.6c-.23,0-.23,0-.46.46h0l.23-.23Zm0-30a.49.49,0,0,0,.46-.46C313.67,37.5,313.67,38,313.45,38Zm1.6-1.14.23-.23A.22.22,0,0,0,315,36.82Zm.69,23.33v-.46c-.46,0-.46,0-.69.23A.84.84,0,0,0,315.73,60.14Zm1.14,4.12h0l-.91.91c-.23.46-.46.69-.69,1.14l.69-.69a4.78,4.78,0,0,0,.91-1.37ZM316,36.13c.23,0,.23,0,.46-.23C316.19,35.9,316,35.9,316,36.13ZM316.65,59l.23-.69h0a.8.8,0,0,0-.46.23V59Zm.69-.91Zm.23.69ZM318,57.4Zm.91,4.8h0l-.46.23v.23a.22.22,0,0,1,.23-.23Zm.23-20.35a3.16,3.16,0,0,0,.91-.69h0C319.62,41.16,319.16,41.39,319.16,41.85Zm5,19.67,2.29-3.89c.69-1.14,1.6-2.29,2.29-3.43,1.14-1.83,2.29-3.2,3.43-4.8.23-.23.23-.46.46-.69l-.23.23-2.06,2.74a4.78,4.78,0,0,1-.91,1.37l-1.6,2.29a20.12,20.12,0,0,0-1.37,2.29,5.73,5.73,0,0,0-.91,1.6,4.6,4.6,0,0,0-.91,1.83,12.76,12.76,0,0,0-1.14,1.83c0,.23-.23.46,0,.69l.46-.91Zm0-22.87Zm.46.23Zm.69,26.76a1.73,1.73,0,0,0,.46-.91v-.46h-.23c0,.23-.23.23-.23.46-.23.46-.23.69-.46,1.14a1.26,1.26,0,0,0-.46,1.14c.23-.23.23-.69.46-1.14ZM332.43,54c-.23.23-.23.69-.46.69l-1.37,2.06-1.14,1.6a3.86,3.86,0,0,1-.46,1.14c-.46.69-.69,1.14-1.14,1.83l-.69,1.37c-.23.46-.46.69-.69,1.14a.8.8,0,0,0-.23.46.49.49,0,0,0,.46-.46l.23-.46a24.1,24.1,0,0,0,1.6-2.52,24.1,24.1,0,0,0,1.6-2.52c.23-.46.46-.69.69-1.14a9.94,9.94,0,0,1,1.37-1.6l.23-.46.46-1.14.91-1.37,1.6-2.06c.23-.23.23-.46.46-.69.23,0,.23-.23.23-.46l.23-.23a.49.49,0,0,0,.46-.46.49.49,0,0,0-.46.46.22.22,0,0,0-.23.23c-.23,0-.23.23-.23.46a6.06,6.06,0,0,0-1.14,1.37l-1.14,1.6ZM329,77.52Zm2.06-2.06-.23.23C330.83,75.92,331.05,75.69,331.05,75.46Zm1.6-2.06-.23.46C332.65,73.63,332.65,73.63,332.65,73.4Zm0-24.93a.49.49,0,0,0,.46-.46c.23,0,.23-.23.46-.46a.49.49,0,0,0-.46.46C332.88,48.25,332.65,48.25,332.65,48.48Zm.69,24.7Zm2.74-3.89a2.28,2.28,0,0,0-.91,1.14h-.23l-.46.91-.91,1.14c.23,0,.46-.46.46-.69a9.68,9.68,0,0,0,1.14-1.6C335.63,70.2,335.86,69.75,336.08,69.29Zm.69-.69c-.23,0-.23,0-.23.46C336.77,68.83,336.77,68.83,336.77,68.6Zm0-25.84Zm0,5.26.91-.91,1.14-1.6a17.06,17.06,0,0,0,1.6-2.74V42.3h0a29.8,29.8,0,0,1-2.29,3.43l-1.37,2.06C337,47.79,337,47.79,336.77,48Zm.46,11.43Zm.91,7.32h0a1.65,1.65,0,0,0-.91,1.37A4.78,4.78,0,0,1,338.14,66.77Zm.23-.46a.8.8,0,0,0-.23.46C338.37,66.54,338.37,66.54,338.37,66.32ZM340.43,64a.49.49,0,0,0-.46.46c-.46.23-.46.69-.69,1.14h0c.46-.23.46-.69.69-1.14Zm.69-1.14h-.23c.23.23.23.23.23,0Zm1.14-1.14L342,62h0a.22.22,0,0,0,.23-.23Zm6.4-8.46ZM356.21,43H356l-.23.69C356,43.45,356,43.22,356.21,43Zm1.14-.91v-.46l-.23.23Zm.23-.69Z" transform="translate(-25.54 -3.43)"/><path class="cls-1" d="M396.91,31.78H396a1.51,1.51,0,0,1-1.37-.23,1.78,1.78,0,0,0-1.83.46l-.23.23-1.83.69c-.46.46-.91.46-1.6.69l-.69.46a5,5,0,0,1-1.83,1.14c-.46.46-.91.69-1.37,1.14l-1.37,1.37-.69.91-2.29,2.74-.46.69-.23.23a8.21,8.21,0,0,0-1.6,2.29L377.7,46l-.46.23c0,.46-.46.69-.46,1.14l-.23.46a21.25,21.25,0,0,0-1.14,2.29h0a4,4,0,0,0-.91,1.14,8,8,0,0,1-1.14,1.83c-.23.23-.46.46-.46.69-.23.23-.23.46-.46.46l-.91,1.37-1.14,1.83-.69,1.14a.22.22,0,0,0-.23.23l-.69,1.37a7,7,0,0,1-1.14,1.6l-1.14,1.6-.46.91-1.37,1.83-.46.91c0,.23-.23.46-.46.69a3,3,0,0,0-.69,1.14c-.69,1.14-1.14,2.06-1.6,2.74,0,.23-.23.23-.23.46l-.46,1.14-.23.46c-.46.69-.69,1.14-1.14,1.83a.8.8,0,0,0-.23.46c-.23.69-.69.91-1.14,1.37s-.69.91-1.14,1.37c-.91.46-1.6,1.14-2.74,1.14l-.46-.23h-.46c-.69-.23-.91-.46-1.83-1.83v-.69h-.46c-.46-.46-.69-1.14-1.14-1.6,0-.46-.23-.69-.46-1.14s-.23-1.14-.46-1.6V70.2c0-.46.23-1.14.23-1.6l.46-1.83a2.75,2.75,0,0,1,.46-1.83c0-.23.23-.46.23-.69a2.9,2.9,0,0,1,.23-1.37,3.31,3.31,0,0,1,.46-1.6v-.23a20.3,20.3,0,0,0,.69-3.2,19.05,19.05,0,0,1,.91-3.43V52.37c.46-1.14.46-2.29.91-3.43l.23-.46.46-1.83.46-2.06v-.91l.23-1.14a5,5,0,0,0,.23-1.83l.23-2.52V34.76a8.58,8.58,0,0,1,.23-2.29c0-.23.23-.46.23-.69.23,0,.46-.23.91-.23a.71.71,0,0,1,.46.23l.46.23,1.14,1.14a9.44,9.44,0,0,1,1.6,2.52c0,.46.46.69.46,1.14a39.41,39.41,0,0,1,1.6,4.8v.23a13.5,13.5,0,0,0,.46,3.2,5,5,0,0,0,.23,1.83v.23l-.23,1.83a9.9,9.9,0,0,1-.23,1.14v.46l-.46,2.29v.69a1.19,1.19,0,0,0-.46.91,3.31,3.31,0,0,1-.46,1.6l-.23.69a1.37,1.37,0,0,1-.23.91,3.87,3.87,0,0,1-.46,2.06.22.22,0,0,0,.23.23h0l.46-.46V59l.69-.91.91-1.37a2.92,2.92,0,0,0,.91-1.37c.23-.46.23-.69.69-.91a1.75,1.75,0,0,0,.46-1.14,4.78,4.78,0,0,1,.91-1.37c.23-.46.46-.69.69-1.14.46-.69,1.14-1.83,1.6-2.52l.46-1.14.46-.69L371.07,43l1.14-1.83v-.23c.46-.23.46-.69.69-1.14h0c.46-.69.91-1.6,1.37-2.29l.69-.91c.46-.69,1.14-1.6,1.6-2.29.46-.46.69-.91.91-1.14a3.16,3.16,0,0,1,.69-.91.71.71,0,0,0,.46-.23c0-.69.46-.91.46-1.14L380,30a4.1,4.1,0,0,0,1.14-1.6.22.22,0,0,1,.23-.23,6.16,6.16,0,0,1,1.83-1.6l1.14-.69a.8.8,0,0,1,.46-.23c.23,0,.46,0,.46-.23v-.23h.46v-.23a6.06,6.06,0,0,1,1.37-1.14,3.16,3.16,0,0,0,.91-.69l.91-.46,1.37.23c.46-.23.69.23,1.14.23l1.14.91h.23a5.5,5.5,0,0,1,1.37,1.83l.46-.46v1.37l.46.69c.46,0,.69.46.91.69,0,.46.23.69.46,1.14L396,30l.46.23C397.37,30.87,397.37,31.33,396.91,31.78Zm-37.5,41.16h0l-.23.23.23-.23Zm.69-13.49c-.46,0-.46.46-.46.91l.46-.23C359.87,59.91,360.1,59.68,360.1,59.46ZM359.87,72Zm.23-13Zm.46,11.89c-.23,0-.23.23,0,.46A.32.32,0,0,1,360.55,70.89ZM362.84,59l-.23.46h0S362.84,59.46,362.84,59Zm.69,7.32c-.23.23-.23.23-.23.69A1,1,0,0,1,363.53,66.32Zm.69-5.26c0,.23-.23.46-.23.69A.84.84,0,0,0,364.21,61.06Zm1.6,1.6c-.46.23-.46.23-.46.69ZM372,53.28Zm0-.23Zm4.8-7.55h0l-.23.46c-.23,0-.23.23-.23.69,0-.23.23-.46.23-.69C376.79,45.73,376.79,45.73,376.79,45.51Zm3-4.34Z" transform="translate(-25.54 -3.43)"/><path class="cls-1" d="M432.13,41.85a2.08,2.08,0,0,1-.69,1.6l-1.83,2.06a.22.22,0,0,1-.23.23A10.84,10.84,0,0,0,427.1,48l-.46.23-.46.46L425,50.08a11.45,11.45,0,0,0-1.6,1.83v.23c-.91.69-1.37,1.6-2.29,2.06-.23,0-.23.46-.46.69l-.23.23-1.6,1.6L418,57.85l-1.6,2.06a4.78,4.78,0,0,1-.91,1.37l-1.6,2.29-.91,1.14-1.14,1.14-.69.69-.23.46-1.37,1.6a16,16,0,0,1-1.83,2.29,14.79,14.79,0,0,1-1.83,2.06.22.22,0,0,0-.23.23l-.69.69-.46.46-1.6,1.83a.71.71,0,0,0-.46.23c0,.46-.23.46-.46.69L401,78h-.23a.22.22,0,0,0-.23-.23h.23v-.46h-.46v.46c-.23,0-.23-.23-.46-.23-.46.23-.46.23-.69.69H399v.46l.46-.46v.46l-1.14,1.14c-.23,0-.46.46-.91.23a3.31,3.31,0,0,1-1.6.46h-1.6a4.35,4.35,0,0,1-3-1.14h0a2.06,2.06,0,0,1-1.14-.23.84.84,0,0,0-.69-.23c-.23,0-.46,0-.46-.23-.46-.46-1.14-.69-1.6-1.14A9.83,9.83,0,0,1,385,75.46l-.23-.23a6.06,6.06,0,0,1-1.14-1.37c0-.23-.46-.46-.46-.69l-1.37-1.83c0-.23-.23-.46-.46-.69a23.08,23.08,0,0,1-1.6-3.43,12.89,12.89,0,0,1-.91-2.74l-.23-1.37V56.48c0-.46.46-1.14.46-1.6l1.14-2.74.69-1.6A24.94,24.94,0,0,1,382.28,48c.46-.69.69-1.14,1.14-1.83l1.14-1.6a.49.49,0,0,1,.46-.46l.46-.69.69-.69a.22.22,0,0,0,.23-.23c0-.46.46-.69.69-1.14.46-.46.69-.91,1.14-1.37l1.14-1.37c.46-.46.69-.91,1.14-1.14.46-.46.69-.91,1.14-1.14l1.6-1.14h0c.46-.69,1.14-.69,1.6-1.37a.84.84,0,0,1,.69-.23c.23,0,.46,0,.46-.23l.23-.23.46-.23.69-.23h.23c0,.23,0,.23.23,0,.23,0,.23-.46.46-.23a.32.32,0,0,1,.46,0h0V32a.8.8,0,0,0,.46-.23c.23,0,.23,0,.23.23,0,0,0,.23.23,0s.23-.23.23,0v.23h0c.23,0,.23-.23.23-.69,0-.23.46-.23.69,0h.46a.32.32,0,0,1,.46,0c.69.23,1.37.23,2.06.46H404a.84.84,0,0,1,.69.23,6.08,6.08,0,0,1,2.52,2.29v.23h.23c.23-.91.91-1.37,1.14-2.29a1.73,1.73,0,0,1,.46-.91.49.49,0,0,1,.46-.46.71.71,0,0,1,.46-.23c.46,0,.69.23.69.46v.46c0,.23,0,.23.23.23h.46c.23.23.46.23.46.69v.23l.46.69c0,.46,0,.69-.23.91,0,.23,0,.23.23.46.46,0,.46,0,.69.69l.46,1.37v1.6a4,4,0,0,1-.23,2.29v-.46A8,8,0,0,1,412,42.3a.8.8,0,0,0-.23.46c-.23.23-.23.69-.46.91l-.23.46c0,.69-.69,1.14-1.14,1.83l-.46.46-.23.23a1.37,1.37,0,0,1-.23.91L407,50.31a2.65,2.65,0,0,1-1.14,1.6c-.23,0-.23.23-.23.46a9,9,0,0,0-1.83,2.29l-.23.23-1.37,1.37-1.83,1.83L399,59.23a5,5,0,0,1-1.83,1.14l-.46.23-.46.23-.46.23c-.46,0-.69.23-1.14.23s-.69.23-1.14.23l-1.37-.23a4.36,4.36,0,0,1-2.29-1.14l-.69-.46h-.23c-.23-.46-.46-.69-.69-1.14a9.94,9.94,0,0,1-.91-1.6c0-.23-.23-.23-.23-.46s0-.46-.46-.46l-.23.46c-.46.91-.69,1.6-1.14,2.52l-.69,1.6-.69,2.06v.23a4.12,4.12,0,0,0-.46,2.29v1.6a3.31,3.31,0,0,0,.46,1.6l.23.69a2.76,2.76,0,0,0,1.14,1.14c.23.23.69.23.91.46,0,.23.46.23.46.23h0a11.08,11.08,0,0,0,4.12,0h.69l2.06-.91,1.37-.69a7,7,0,0,0,1.6-1.14c.23-.46.69-.46,1.14-.91a10,10,0,0,0,1.6-1.37l.69-.69c.23,0,.23-.23.46-.46l.23-.23c.46-.46,1.14-.91,1.6-1.37L403.32,62l.69-.69a4.78,4.78,0,0,0,1.37-.91l.23-.46a1.79,1.79,0,0,1,.91-.91c.46-.23.69-.69.91-.91.46-.23.69-.69,1.14-1.14l.23-.23.69-.69a2.28,2.28,0,0,1,1.14-.91l.46-.46h0c.91-.46,1.37-1.37,2.06-1.83l2.06-2.06a3.16,3.16,0,0,1,.91-.69l2.52-2.52L420,46.42l.23-.46.46.46v-.69l.46-.69.46.46v-.91a.71.71,0,0,1,.23-.46h.46v.46c0,.23,0,.46.46.69a1.34,1.34,0,0,0-.46-1.14v-.46l.46-.23.46-.69,1.37-1.37.69-.69,1.37-1.14,1.14-1.14h.46v.46h0l.23-.23.69.69-.23,1.14c.46,0,.46-.46.69-.69a5,5,0,0,0,.69,1.14c0,.46-.46.91-.46,1.6Zm-46.19,8.69h0c.23-.46.46-.69.46-.91v-.23h0l-.46,1.14Zm0,5.95Zm2.29-9.83h0l.46-.46,1.6-2.29.69-.69.23-.46L391,43l-.46.46-.91.91L388.45,46Zm.46-5.26a.22.22,0,0,0,.23-.23ZM389.82,40Zm3.43,7.55a6.06,6.06,0,0,0-1.14,1.37l-.91,1.14c-.46.46-.46.91-.91,1.37v.23h0l.23-.23v.23l-.23.69-.46,1.14V54a1.19,1.19,0,0,0,.91.46H391l1.14-.23a5.73,5.73,0,0,0,1.6-.91c0-.23.23-.23.46-.46l.46-.69c.46-.46.91-1.14,1.37-1.6s1.14-.69,1.14-1.37h0c.23,0,.23-.23.46-.46l.23-.46.23-.23.23-.46.69-.91,1.14-1.37c.46-.46.91-.69,1.14-1.37l.69-.69a6.06,6.06,0,0,1,1.14-1.37v-.23h-.23l-1.37.46a12.89,12.89,0,0,0-2.74.91h0l-.46.23-.23.23a.49.49,0,0,0-.46.46l-.46.69-2.06,1.6c-.46.46-.91.69-1.14,1.14-.23-.23-.46-.23-.69.23Zm-1.83-.23a4,4,0,0,0-.91,1.14l-.23.46v.23h.23c.46-.69,1.14-1.37,1.6-2.06h0Zm-.91-7.78Zm2.06,6.86a.8.8,0,0,0,.23-.46C392.57,46,392.57,46.19,392.57,46.42Zm.69-.91Zm.23,0h0l.23-.23h0l-.23.23Zm6.17,3.2c.23-.23.46-.46.46-.69h0l-.69.69-.46.46-.69.91a4,4,0,0,1-.91,1.14c0,.23-.23.23-.46.46l-.46.69-.23.46h0l.46-.46a4,4,0,0,0,.91-1.14Zm-2.52-6.4Zm6.4,6.17a3.16,3.16,0,0,0-.69.91l-1.14,1.14-.69.69-.46.46c-.46.46-.69,1.14-1.14,1.37l-.23.46c.23,0,.23-.23.46-.23l.23-.23,1.37-1.37,1.6-2.29v-.23l1.83-1.83a12.57,12.57,0,0,1,1.6-2.06l2.06-2.74a.8.8,0,0,0,.23-.46l-.46.46h0c-.46.69-.91,1.14-1.37,1.83Zm5-1.6L407.66,48l-.23.46c-.23.23-.46.69-.69.91l-1.14,1.14c-.46.69-1.14,1.14-1.6,1.83-.23.23-.46.69-.69.91s-.46.23-.46.46l-.46.23L401,55.57l-1.6,1.6-.69.69h0l.23-.23.91-.69.46-.46.46-.69,1.6-2.06v-.23a.49.49,0,0,0,.46-.46L404,51.91l1.6-1.83a1.19,1.19,0,0,0,.46-.91c.46-.23.46-.46.69-.91l.46-.46,1.14-1.37.69-1.14h0c-.23.23-.46.46-.46.69C409,46.19,408.81,46.65,408.58,46.88Zm-7.32,0c-.23.23-.46.23-.46.69C401,47.34,401.26,47.11,401.26,46.88Zm0,27.21h0l-.23.23h0A.22.22,0,0,0,401.26,74.09Zm3.2-.91c-.23,0-.46.23-1.14,1.14l-.46.69c0,.23-.46.23-.46.69l1.6-1.83v-.23C404.23,73.63,404.23,73.4,404.46,73.18Zm1.6-1.83a10,10,0,0,1-1.6,1.37v.23A3.6,3.6,0,0,0,406.06,71.35Zm.69-.69a.8.8,0,0,0-.23.46C406.75,70.89,406.75,70.89,406.75,70.66ZM409,67.92h0l-.69.69c-.23.23-.46.46-.46.69a1.06,1.06,0,0,0-.69,1.14c.46-.23.46-.69.69-1.14.23-.23.46-.46.46-.69Q408.69,68.6,409,67.92Zm.23-.46a.8.8,0,0,0-.23.46C409,67.69,409.26,67.69,409.26,67.46Zm.91-1.14c-.23,0-.23.23-.23.46h0c-.23,0-.23.23-.46.46h0c.23,0,.23-.23.23-.46h.23C410.18,66.54,410.18,66.54,410.18,66.32Zm0-21.27Zm.46,20.81Zm1.14-1.14a1.76,1.76,0,0,0-.46.69C411.55,64.94,411.78,64.94,411.78,64.71Zm2.74-3.43c-.46.23-.46.69-.69,1.14-.23.23-.46.23-.46.69a3.16,3.16,0,0,0-.69.91c-.46.23-.46.23-.46.46l.46-.46.69-.69.46-.46C414.06,62,414.52,61.74,414.52,61.28Zm-2.06-26.53h0c.23.23.23,0,.23,0ZM415,60.6a.8.8,0,0,0-.23.46C415,61.06,415,60.83,415,60.6Zm.91-.91c-.23,0-.23.23-.46.46-.23,0-.23.23-.23.46a.8.8,0,0,0,.23-.46h0A.49.49,0,0,0,415.89,59.68Z" transform="translate(-25.54 -3.43)"/><path class="cls-1" d="M454.08,43.22,451.8,46l-.46.23c-.23.46-.23.46-.91,1.14l-.69.91h-.46a.71.71,0,0,1-.23.46l.46-.23-.23.23-.69.69a16,16,0,0,1-1.83,2.29l-.23.23a8.54,8.54,0,0,1-1.37,1.6c-.23.23-.23.46-.46.69l-.46.46c-.23,0-.46.46-.46.69l-.46.46c-.23,0-.46.46-.69.69a15.75,15.75,0,0,1-2.52,3,3.6,3.6,0,0,1-1.6,1.6l-.46.69h-.46a6.06,6.06,0,0,1,1.14-1.37l.46-.46a24.31,24.31,0,0,1,2.06-2.52.8.8,0,0,0,.23-.46h.23l.91-.46c.23-.23.46-.46.46-.69L442,56.94h0l-.69.91c-.46.46-.69.91-1.14,1.37l-1.83,2.06L436.25,64c.23-.46.46-.46.91-.91.23-.23.46-.69.69-.69l.23-.23a.84.84,0,0,1-.23.69.49.49,0,0,1-.46.46l-1.6,1.83a6.06,6.06,0,0,1-1.14,1.37c-.46.46-.46.91-.91,1.37a.71.71,0,0,0-.46.23c-.69.46-.91,1.14-1.37,1.6l-.69.91c-.91.46-1.14,1.14-1.83,1.6l-.46.69c-.69.69-1.37,1.6-2.29,2.52a7.25,7.25,0,0,1-1.37,1.14c-.23.23-.46.23-.69.69s-.69.46-1.14.69l-1.14.69h-.46v-.23h-.46l-.46-.46a.84.84,0,0,1-.69.23,3.86,3.86,0,0,1-2.29.69c-.91.23-1.6.23-2.06-.23-.23,0-.23-.23-.46-.23a6.43,6.43,0,0,1-2.52-1.14c-.46-.23-.69-.69-1.14-1.14a4.6,4.6,0,0,1-.91-1.83,1.46,1.46,0,0,1,0-1.37c-.46-.46,0-.91,0-1.37V70c0-.23,0-.46.23-.46v-.23a1,1,0,0,1,.23-1.14l.46-.69c0-.46.23-.91.23-1.37,0-.23.23-.23.46-.69l.23-.23c.46-.69.46-1.14.91-1.83,0-.23,0-.46.46-.69a3.29,3.29,0,0,1,.46-.69c0-.46.23-.69.46-1.14.23-.23.46-.91.69-1.14v-.46A10.28,10.28,0,0,0,417,56.48h.23l1.14-2.06.69-1.14c0-.23.46-.46.46-.91.46-.46.69-1.14,1.14-1.6l1.37-2.52.46-.91a24,24,0,0,1,1.83-2.52v-.23c.46-.69.69-1.14,1.14-1.14.23-.46,0-.46.23-.69l.69-.69c0-.69.46-1.14.69-1.83.46-.46.46-1.14.91-1.37.69-.69.69-1.6,1.14-2.52a3.69,3.69,0,0,0,.91-1.6,1.19,1.19,0,0,0,.46-.91l1.14-1.6c.23-.69,7.32-11.43,7.55-12.35.23-.69.91-1.6,1.14-2.29,0-.23.23-.46.46-.91,0-.69.46-1.14.69-1.83l.69-1.37a6.68,6.68,0,0,0,.46-2.06c.23-.23,0-.69,0-.91-.91-2.29,1.14-3,2.29-4.57.23-.23.23-.46.46-.46.46,0,.69-.23.91-.23h.91a.32.32,0,0,1,0,.46l1.14.23c0,.46.23.69.69.91L449.51,8c.23.23,0,.46.23.69.46.23.23.91.46,1.37v1.37a12.92,12.92,0,0,0,0,3c.23,0,0,.46,0,.46a5.38,5.38,0,0,0-.46,1.83c-.23.23,0,.46-.46.91l-.46,2.06a8.3,8.3,0,0,0-.69,1.6L444.71,27c-3.89,6.86-6.4,12.81-10.52,18.52v.23a13.66,13.66,0,0,1-1.37,2.52.8.8,0,0,0-.23.46,8,8,0,0,1-1.14,1.83l-.46.69a4,4,0,0,1-1.14,1.83,15.76,15.76,0,0,0-.69,1.83c-.23.23-.23.69-.46.91,0,.23-.23.46-.23.69-.46.69-.91,1.6-1.37,2.29A9.27,9.27,0,0,0,426,60.83c-.23.23-.23.23-.23.69-.23.23-.23.46-.69,1.14l-.46,1.14c-.23.23-.46.46-.46.69a.49.49,0,0,1-.46.46,7.15,7.15,0,0,1-1.14,2.29,4.6,4.6,0,0,0-.91,1.83c0,.46-.46.69-.69,1.14h.23l.46-.23A7.76,7.76,0,0,1,423,68.6c.23,0,.23-.23.46-.23.23-.23.23-.46.46-.46a19.78,19.78,0,0,0,2.29-1.6,4,4,0,0,1,1.14-.91l1.6-1.6,1.6-1.83.69-.69,1.83-1.6.46-.46c.23-.23.46-.23.46-.46A17.22,17.22,0,0,1,436,56.71h.46l.23-.69.46-.23h.46a.84.84,0,0,1,.23-.69h.46a.8.8,0,0,1,.23-.46H439c.23,0,0-.46,0-.46a21.56,21.56,0,0,1,2.29-2.29,6.3,6.3,0,0,1,1.6-2.06.8.8,0,0,0,.23-.46l.91-.69c.46-.46.69-1.14,1.37-1.37a4.65,4.65,0,0,1,1.37-1.6l.23-.46,1.6-1.6,1.14-1.37,1.14-1.14,1.37-1.6.69-.46h.46v.23h.23l.46.69c-.23.23-.23.69-.46.69l.46-.23c.46.23.46.91.23,1.6C454.54,42.3,454.31,43,454.08,43.22Zm-38.88,21h0a1479239.28,1479239.28,0,0,1-.46.46h0v-.23Zm3.66,2.52c.23-.69.69-1.37.91-2.06.69-.91,1.14-2.06,1.6-2.74a24.3,24.3,0,0,1,2.29-3.89A15.37,15.37,0,0,0,425,55.34c.23-.23.23-.46.46-.46.69-1.14,1.14-2.29,1.83-3.2,1.6-2.06,3.43-4.34,3.89-6.86-.91,1.83-1.37,2.52-4.57,7.32A8,8,0,0,0,425.5,54l-.91,1.14c-.23.69-.69,1.37-.91,2.06-.46.69-.91,1.6-1.37,2.29-.69,1.14-1.14,2.29-1.83,3.66l-.91,1.83a5,5,0,0,0-.69,1.14c-.23.23-.23.91-.46,1.14l-.91,2.06h0a1.48,1.48,0,0,0-.46,1.14,23.73,23.73,0,0,1-.91,2.29c-.23.23,0,.46,0,.91V73.4c.23-.69.46-1.6.69-2.29L418,68.6l.46-1.37Zm-2.74-3.66v-.46C415.89,62.66,415.89,62.89,416.12,63.11Zm0-.69Zm2.52-1.6c.23-.23.23-.23.23-.46Zm.23-.69h0c.46-.46.46-.69.46-.91a.84.84,0,0,1-.23.69Zm.46-3a1.37,1.37,0,0,0,.23-.91c.23,0,.46-.23.23-.23a.22.22,0,0,1-.23.23v.23A.84.84,0,0,0,419.32,57.17Zm2.52,10.29c.23-.46.46-.69.46-1.14A21.25,21.25,0,0,0,423.44,64a1.73,1.73,0,0,0,.46-.91c1.14-1.37,1.6-3,2.52-4.34.23-.46.46-.69.69-1.14v-.46a.71.71,0,0,1-.46.23L426,59c-.23.46-.46.69-.69,1.14l-1.14,2.06-1.6,3.2-1.37,2.52A10.68,10.68,0,0,1,420,70.2c-.23.69-.46,1.14-.69,1.83v.23a.8.8,0,0,1,.23-.46l.91-2.06.46-.91C421.38,68.6,421.61,67.92,421.84,67.46Zm3-19.9ZM426.41,75a.8.8,0,0,0-.23.46Zm.46-.46h0a.8.8,0,0,0-.46.23C426.64,74.78,426.64,74.78,426.87,74.55Zm.69-17.84h0c-.23,0-.23.46-.23.46s0-.46.23-.46Zm1.6-3.2c-.23.46-.46.69-.46,1.14-.46.23-.46.69-.46,1.14h0a3.86,3.86,0,0,0,.46-1.14A1.75,1.75,0,0,0,429.16,53.51Zm.91,17.38c-.23.23-.69.46-.69.91Zm1.14-20.81v.23c-.46.69-.91,1.14-1.37,1.83v.46l.91-1.6c0-.23.46-.46.46-.69a10.47,10.47,0,0,0,1.83-3C432.36,48.25,431.9,49.16,431.22,50.08Zm.46,19.44h0c-.23.23-.23.23-.23.46-.23-.23,0-.23.23-.46Zm-.23-25.15c.46-.23.46-.46.23-.69A.84.84,0,0,1,431.44,44.36Zm.91,24.47c-.23,0-.46.46-.46.46l.46-.46Zm2.06-2.74-.46.46a2.28,2.28,0,0,1-.91,1.14c-.23,0-.23.46-.46.69-.23,0-.46.46-.46.46a.49.49,0,0,0,.46-.46h.23A13.88,13.88,0,0,0,434.42,66.09Zm1.6-1.83h0l-1.37,1.6h.46C435.56,65.17,435.56,64.71,436,64.26Zm1.14-7.55h0c-.23-.23-.23,0,0,0Zm1.14-1.14Zm.69-.46h0l-.46.23.46-.23Zm6.4-2.29c-.23,0-.23.23-.46.46-.23,0-.46.46-.46.46l-.91,1.14-.46.91.46-.46v-.23c.23,0,.23-.46.46-.46a6.06,6.06,0,0,0,1.14-1.37A.8.8,0,0,0,445.39,52.82Zm.69-.91a.71.71,0,0,1-.23.46C446.08,52.14,446.31,52.14,446.08,51.91Zm1.37-1.37-.23.23C447.45,50.77,447.45,50.77,447.45,50.54Zm.69-.69v0Zm.69-.69a.22.22,0,0,0-.23.23A.22.22,0,0,0,448.82,49.16Z" transform="translate(-25.54 -3.43)"/><path class="cls-1" d="M373.82,85.75c-.23-.23-.23-.46-.46-.91v-.91l-.46-.23a4.31,4.31,0,0,0-1.83-.46,5.68,5.68,0,0,1-1.83-.23,5.57,5.57,0,0,1-2.74,0h-4.8a2.49,2.49,0,0,1-1.14.23,11,11,0,0,0-2.74,0l-3,.23c-.46,0-1.14.23-1.6.23-1.14,0-2.52.23-3.89.23h-.69c-.69,0-1.14.23-1.83.23a15.1,15.1,0,0,0-3.2.23,2.9,2.9,0,0,0-1.37.23c-.46,0-.69.23-1.14.23h-1.37c-1.37.46-2.74.23-4.34.69-.46,0-.91.23-1.37.23a17.65,17.65,0,0,0-3.43.46,1.73,1.73,0,0,0-.91.23l-2.29.23a4.31,4.31,0,0,0-1.83.46,3.89,3.89,0,0,1-1.6.23,1.37,1.37,0,0,0-.91.23c-.91.23-1.83.23-2.74.46l-1.6.23-1.14.23a7.44,7.44,0,0,0-3.2.91l-.69.23-1.6.23-2.52.69-2.29.46a7.9,7.9,0,0,1-3,.69,7,7,0,0,0-2.74,1.14.71.71,0,0,0-.23.46c-.46-.46-.69-.46-1.14-.23a44.55,44.55,0,0,1-5.26,1.37h0a12.89,12.89,0,0,1-2.74.91,4.75,4.75,0,0,0-2.29,1.37.71.71,0,0,1-.46-.23l-.69.69-1.6.23c-.46,0-.69.23-1.14.69l-.23.23h-.69c-.23.46-.69.46-1.14.46-.46.23-1.14.46-1.6.69a15.77,15.77,0,0,1-2.29.91c-.91.46-1.6.91-2.52,1.37a9.9,9.9,0,0,1-2.74,1.14c-.23,0-.46.23-.91.46a6,6,0,0,1-2.06,1.14c-.91.69-1.83.69-2.74,1.37a5.73,5.73,0,0,1-1.6.91l-1.6.69a20.72,20.72,0,0,1-3.66,2.52l-1.14,1.14a6.06,6.06,0,0,0-1.37,1.14l-2.29,2.06a8.21,8.21,0,0,0-1.6,2.29c-.23.46-.46,1.14-.69,1.6s-.23.69-.46,1.14c0,.23,0,.69-.23.69,0,.23-.23.69-.23.91a19.56,19.56,0,0,0,0,3.66v.46l.23.91.69.69.23.69h.46c.23,0,.23.23.46.46l1.14.23a3.14,3.14,0,0,0,1.83-1.14l.23-.23h.91c.23-.69.46-1.14.69-1.83l-.23-.23h-.69v-.46a.49.49,0,0,0,.46-.46l.23-1.14-.46-.91-.46-.91.23-.46.69-.69a7,7,0,0,1,1.6-1.14l2.06-1.14.91-.69c.91-.46,1.6-.91,2.52-1.37.23-.23.46-.23.69-.46l3-1.83.91-.46a12.26,12.26,0,0,0,2.52-1.14l.69-.46c1.14-.46,2.29-.91,3.2-1.37a4.24,4.24,0,0,1,1.6-.46c.23-.23.23-.23.46-.23a27.26,27.26,0,0,1,4.57-1.83l2.06-.69a9.68,9.68,0,0,1,2.74-.91l2.06-.69c.23,0,.46-.23.91-.23s.69-.23,1.14-.46c.23,0,.46-.23.69-.23a7.27,7.27,0,0,0,2.06-.69h.46c.91-.23.69-.46.69-.46l.91-.23,1.6-.46,1.83-.46c1.14-.23,0,0,.46,0h.91a12.89,12.89,0,0,1,1.6-.23,1.19,1.19,0,0,0,.91-.46c.23,0,.69-.23.91-.23h.69c.46-.23.69-.46,1.14-.46s.69-.23,1.14-.46c.91-.23,1.6-.46,2.29-.69h.46c.69-.23,1.37,0,2.06-.23a19.37,19.37,0,0,1,3.89-.91,11.59,11.59,0,0,1,3-.46h.23a.22.22,0,0,0,.23-.23H324a8.13,8.13,0,0,1,2.29-.46,15.74,15.74,0,0,1,3-.46h.46l4.57-1.14h.69c.91,0,1.83-.23,2.74-.23a3.89,3.89,0,0,1,1.6-.23l1.6-.23H342a8.13,8.13,0,0,1,2.29-.46h.46a3.89,3.89,0,0,1,1.6-.23,7.61,7.61,0,0,1,3.2-.23H350a17.65,17.65,0,0,1,3.43-.46,5.68,5.68,0,0,0,1.83-.23h2.06a.22.22,0,0,1,.23.23c.23.23-.23.69,0,.91a9.91,9.91,0,0,0,1.14-.23,1.71,1.71,0,0,1,1.14.23c-1.6.23-1.83.23-2.06.69a11,11,0,0,0,2.74,0c.46,0,.69-.23,1.14-.23a12.89,12.89,0,0,0,2.74-.91c.23,0,.46-.23.91-.23a4.31,4.31,0,0,0,1.83-.46c.46-.23.91-.23,1.14-.46a1.93,1.93,0,0,0,1.6-.91V91c1.14-.46,1.14-.46,1.6-1.6l.23-.69.23-.46-.23-.46.69-.91ZM296.52,99.7c0,.46,0,.46-.69.46Zm-1.83.69Zm-2.52-2.52Zm-5.49,2.29a2.8,2.8,0,0,1,2.06-.69c0-.23.46-.23.69-.23l.46-.23.46-.46c.46,0,.91-.23,1.37-.23v.23a6.71,6.71,0,0,1-2.29.69.84.84,0,0,1-.69.23,7.27,7.27,0,0,1-2.06.69c0,.23-.46.23-.69.23A.84.84,0,0,1,286.69,100.16Zm-2.06.69a.8.8,0,0,1,.46-.23c0,.23-.23.23-.46.23,0,0,0,.23-.46,0Zm-.69.46h-.23C283.49,101.3,283.72,101.07,283.95,101.3Zm-.91.23c0,.23-.23.23-.46.23C282.57,101.53,282.8,101.53,283,101.53ZM275.26,105a.32.32,0,0,1,.46,0c0-.23-.23,0-.46,0,0,0,0,.23-.23,0Zm-.91.46c-.23.23-.23.23-.69.23C273.88,105.42,273.88,105.42,274.34,105.42Zm-10.75,9.15c0,.23-.23.23-.46.23C263.14,114.57,263.36,114.57,263.59,114.57Zm0,3.2c0,.46-.23.46-.69.46-.23.46-.46.46-.69.46.23-.23.46-.46.69-.46,0-.46.23-.46.69-.46a.32.32,0,0,1,.46,0C263.82,117.54,263.82,117.77,263.59,117.77Zm16-8.23-2.74,1.14-1.83.91a3.31,3.31,0,0,1-1.6.46.49.49,0,0,1-.46.46c-.91.46-1.6.91-2.52,1.37-.46.23-.69.23-1.14.46,0,.23-.23.23-.46.23,0,.23-.23.23-.46.23,0-.23.23-.23.46-.23,0-.23.23-.23.46-.23l.23-.23c1.14-.46,2.06-1.14,3.2-1.6h.69a4.78,4.78,0,0,1,1.37-.91c1.37-.46,2.74-1.14,4.34-1.83.23,0,.46-.23.91-.23Zm.91-.46s0-.23.23,0C280.74,108.85,280.52,109.08,280.52,109.08Zm-1.37-2.52c-1.37.69-2.74,1.14-3.89,1.83l-.91.46c-.23,0-.46.23-.91.23l-1.14.69-4.8,2.74H267c0,.23-.23.23-.46.23,0,.23-.46.46-.69.46a1.26,1.26,0,0,1-1.14.69,1.26,1.26,0,0,1,1.14-.69c0-.46.46-.46.69-.46,0-.23.23-.23.46-.23l.23-.46,2.29-1.37a13.66,13.66,0,0,0,2.52-1.37,1,1,0,0,1,1.14-.23,5,5,0,0,1,1.14-.69l3.89-1.6a25.41,25.41,0,0,1,3.66-1.6,4.37,4.37,0,0,1,1.83-.69c1.6-.46,3-1.14,4.57-1.6a7.27,7.27,0,0,1,2.06-.69h.46a.84.84,0,0,1,.69-.23.32.32,0,0,1,.46,0h-.46c-.23.46-.46.23-.69.23l-.46.46-.91.23c-2.06.69-4.12,1.6-6.17,2.52-.23,0-.46.23-.69.23l-.46.23Zm18.75-3.89h0a4.41,4.41,0,0,1-2.29.69l-.46.46-1.83.69-.69.23a44.48,44.48,0,0,0-5,1.83h-.69c0,.23-.46.23-.69.23h0c-.69.23-1.37.69-2.06.91l-2.06.91h-.46c0-.23.46-.23.69-.46a8.12,8.12,0,0,1,2.06-.91,5.46,5.46,0,0,1,2.06-.46c0-.23.46-.23.69-.23a.49.49,0,0,1,.46-.46l4.8-1.6c.91-.23,2.06-.69,3-.91h.46a2.48,2.48,0,0,1,2.06-.91c.23-.23.46-.23.46,0S298.12,102.68,297.9,102.68Zm.69-3.43Zm2.29-.46h-.23L299,99a.91.91,0,0,1,.91-.46c.46,0,.69-.23,1.14-.46C301.33,98.56,301.1,98.56,300.87,98.79Zm20.12-5Zm-2.74.46H318S318,94,318.25,94.21Zm-5.95,1.37a.84.84,0,0,1-.69.23c-.23.23-.46.23-.91,0,.23-.23.46,0,.91,0C311.62,95.59,311.84,95.59,312.3,95.59Zm-.46-3h-.46C311.39,92.39,311.62,92.39,311.84,92.61Zm-2.06.23h.46c.23-.23.23-.23.46-.23h.46c0,.23-.23.23-.46.23h-.46c0,.23-.23.23-.46.23h-.46C309.33,92.84,309.56,92.84,309.79,92.84Zm-.69,3.43c-.46.23-.69.46-1.14.23A2.06,2.06,0,0,1,309.1,96.27Zm-1.83-2.74c-.46.46-1.14.46-2.06.69a3.69,3.69,0,0,1,2.06-.69.32.32,0,0,1,.46,0Zm2.06,6.17a3.25,3.25,0,0,0-1.37.46h-.23v-.23a19.05,19.05,0,0,1,3.43-.91A1.9,1.9,0,0,1,309.33,99.7Zm4.34-.91a8.13,8.13,0,0,1-2.29.46,8.71,8.71,0,0,1,2.29-.69h.23A.22.22,0,0,1,313.67,98.79Zm0-3.66h.46l.23-.23c.69,0,1.37-.46,2.29-.46v.23a8.13,8.13,0,0,1-2.29.46C314.13,95.13,313.9,95.36,313.67,95.13Zm14.41.69-4.12.91-2.74.46a4.24,4.24,0,0,0-1.6.46h-.46a9.73,9.73,0,0,0-2.52.46,4.46,4.46,0,0,1-1.83.23c.46-.46,1.14-.46,1.6-.69.69-.23,1.14-.23,1.83-.46a17.65,17.65,0,0,1,3.43-.46l1.6-.23c1.37-.23,3-.69,4.34-.91h1.14C328.54,95.82,328.31,95.59,328.08,95.82Zm4.8-4.57Zm-2.29-2.52Zm.46,6.4c0-.23,0-.23.69-.23v.23A.43.43,0,0,1,331.05,95.13Zm7.78-.91a9.73,9.73,0,0,1-2.52.46,6.68,6.68,0,0,0-2.06.46.71.71,0,0,1-.46-.23c-.46,0-.91.46-1.37,0l2.06-.69h.91c.91,0,1.83-.23,3-.23.46,0,1.14-.23,1.6-.23h.69c.46,0,.69,0,.91.23A5.4,5.4,0,0,0,338.83,94.21Zm3.89-.46a.84.84,0,0,1-.69-.23h0a4,4,0,0,1,2.29-.23,1.73,1.73,0,0,0,.91-.23h.69a3.4,3.4,0,0,1,1.37.23A28.15,28.15,0,0,0,342.72,93.76Zm8.46-1.14a4.92,4.92,0,0,0-2.52.46H348a.22.22,0,0,1-.23-.23H348c1.14,0,2.29-.46,3.43-.46h.46A1.77,1.77,0,0,1,351.18,92.61Zm1.14-.46c.23-.23.23,0,.46,0C352.55,92.39,352.55,92.39,352.32,92.16Zm14.64.69L362.38,94H361l1.37-.46c1.6-.23,3.2-.91,4.57-1.14h0A.32.32,0,0,1,367,92.84Z" transform="translate(-25.54 -3.43)"/></svg>